%TF.GenerationSoftware,KiCad,Pcbnew,6.0.7-f9a2dced07~116~ubuntu20.04.1*%
%TF.CreationDate,2022-09-10T14:11:32+02:00*%
%TF.ProjectId,MateLightScrewCap,4d617465-4c69-4676-9874-536372657743,rev?*%
%TF.SameCoordinates,Original*%
%TF.FileFunction,Copper,L2,Bot*%
%TF.FilePolarity,Positive*%
%FSLAX46Y46*%
G04 Gerber Fmt 4.6, Leading zero omitted, Abs format (unit mm)*
G04 Created by KiCad (PCBNEW 6.0.7-f9a2dced07~116~ubuntu20.04.1) date 2022-09-10 14:11:32*
%MOMM*%
%LPD*%
G01*
G04 APERTURE LIST*
%TA.AperFunction,SMDPad,CuDef*%
%ADD10R,1.600000X1.000000*%
%TD*%
%TA.AperFunction,ViaPad*%
%ADD11C,0.800000*%
%TD*%
%TA.AperFunction,Conductor*%
%ADD12C,0.750000*%
%TD*%
%TA.AperFunction,Conductor*%
%ADD13C,0.400000*%
%TD*%
G04 APERTURE END LIST*
D10*
%TO.P,LD1,1,SDI*%
%TO.N,/SDI*%
X-2450000Y-1650000D03*
%TO.P,LD1,2,CKI*%
%TO.N,/CKI*%
X-2450000Y0D03*
%TO.P,LD1,3,GND*%
%TO.N,GND*%
X-2450000Y1650000D03*
%TO.P,LD1,4,SDO*%
%TO.N,/SDO*%
X2450000Y-1650000D03*
%TO.P,LD1,5,CKO*%
%TO.N,/CKO*%
X2450000Y0D03*
%TO.P,LD1,6,VDD*%
%TO.N,+5V*%
X2450000Y1650000D03*
%TD*%
D11*
%TO.N,GND*%
X-1100000Y1500000D03*
%TO.N,+5V*%
X1000000Y1100000D03*
%TO.N,/CKO*%
X8400000Y400000D03*
%TO.N,/SDO*%
X8400000Y-1100000D03*
%TO.N,/SDI*%
X-7700000Y-1200000D03*
%TO.N,/CKI*%
X-8900000Y500000D03*
%TD*%
D12*
%TO.N,GND*%
X-1250000Y1650000D02*
X-1100000Y1500000D01*
X-2450000Y1650000D02*
X-1250000Y1650000D01*
%TO.N,+5V*%
X2450000Y1650000D02*
X1550000Y1650000D01*
X1550000Y1650000D02*
X1000000Y1100000D01*
D13*
%TO.N,/CKO*%
X6600000Y-506472D02*
X6600000Y-300000D01*
X6000000Y0D02*
X6000000Y-506472D01*
X4800000Y506472D02*
X4800000Y300000D01*
X5400000Y0D02*
X5400000Y506472D01*
X4500000Y0D02*
X3336826Y0D01*
X6600000Y-300000D02*
X6600000Y506472D01*
X5400000Y-506472D02*
X5400000Y0D01*
X8000000Y0D02*
X7500000Y0D01*
X3336826Y0D02*
X2450000Y0D01*
X8400000Y400000D02*
X8000000Y0D01*
X6000000Y506472D02*
X6000000Y0D01*
X7200000Y-300000D02*
X7200000Y-506472D01*
X6900000Y-806500D02*
G75*
G03*
X7200000Y-506472I0J300000D01*
G01*
X7200000Y-300000D02*
G75*
G02*
X7500000Y0I300000J0D01*
G01*
X4800028Y506472D02*
G75*
G02*
X5100000Y806472I299972J28D01*
G01*
X5700000Y-806470D02*
G75*
G03*
X6000000Y-506472I0J300000D01*
G01*
X5400028Y-506472D02*
G75*
G03*
X5700000Y-806472I299972J-28D01*
G01*
X6000028Y506472D02*
G75*
G02*
X6300000Y806472I299972J28D01*
G01*
X4500000Y0D02*
G75*
G03*
X4800000Y300000I0J300000D01*
G01*
X5100000Y806470D02*
G75*
G02*
X5400000Y506472I0J-300000D01*
G01*
X6300000Y806470D02*
G75*
G02*
X6600000Y506472I0J-300000D01*
G01*
X6600028Y-506472D02*
G75*
G03*
X6900000Y-806472I299972J-28D01*
G01*
%TO.N,/SDO*%
X4561495Y-1650000D02*
X2450000Y-1650000D01*
X6250000Y-1950000D02*
X6250000Y-2169916D01*
X5650000Y-2169916D02*
X5650000Y-1950000D01*
X5350000Y-1650000D02*
X4561495Y-1650000D01*
X8400000Y-1100000D02*
X7850000Y-1650000D01*
X7850000Y-1650000D02*
X6550000Y-1650000D01*
X6250000Y-1950000D02*
G75*
G02*
X6550000Y-1650000I300000J0D01*
G01*
X5649984Y-2169916D02*
G75*
G03*
X5950000Y-2469916I300016J16D01*
G01*
X5350000Y-1650000D02*
G75*
G02*
X5650000Y-1950000I0J-300000D01*
G01*
X5950000Y-2469900D02*
G75*
G03*
X6250000Y-2169916I0J300000D01*
G01*
%TO.N,/SDI*%
X-3667713Y-1650000D02*
X-2450000Y-1650000D01*
X-5650000Y-2263352D02*
X-5650000Y-1950000D01*
X-7700000Y-1200000D02*
X-7250000Y-1650000D01*
X-7250000Y-1650000D02*
X-6550000Y-1650000D01*
X-6250000Y-1950000D02*
X-6250000Y-2263352D01*
X-5350000Y-1650000D02*
X-3667713Y-1650000D01*
X-6250000Y-1950000D02*
G75*
G03*
X-6550000Y-1650000I-300000J0D01*
G01*
X-5650000Y-2263352D02*
G75*
G02*
X-5950000Y-2563352I-300000J0D01*
G01*
X-5350000Y-1650000D02*
G75*
G03*
X-5650000Y-1950000I0J-300000D01*
G01*
X-5950000Y-2563352D02*
G75*
G02*
X-6250000Y-2263352I0J300000D01*
G01*
%TO.N,/CKI*%
X-5200000Y0D02*
X-2514654Y0D01*
X-8400000Y0D02*
X-6400000Y0D01*
X-8900000Y500000D02*
X-8400000Y0D01*
X-5500000Y-359583D02*
X-5500000Y-300000D01*
X-6100000Y-300000D02*
X-6100000Y-359583D01*
X-2514654Y0D02*
X-2450000Y0D01*
X-6100000Y-300000D02*
G75*
G03*
X-6400000Y0I-300000J0D01*
G01*
X-5800000Y-659583D02*
G75*
G02*
X-6100000Y-359583I0J300000D01*
G01*
X-5500000Y-359583D02*
G75*
G02*
X-5800000Y-659583I-300000J0D01*
G01*
X-5200000Y0D02*
G75*
G03*
X-5500000Y-300000I0J-300000D01*
G01*
%TD*%
M02*
