%TF.GenerationSoftware,KiCad,Pcbnew,6.0.7-f9a2dced07~116~ubuntu20.04.1*%
%TF.CreationDate,2022-09-10T14:11:32+02:00*%
%TF.ProjectId,MateLightScrewCap,4d617465-4c69-4676-9874-536372657743,rev?*%
%TF.SameCoordinates,Original*%
%TF.FileFunction,Copper,L1,Top*%
%TF.FilePolarity,Positive*%
%FSLAX46Y46*%
G04 Gerber Fmt 4.6, Leading zero omitted, Abs format (unit mm)*
G04 Created by KiCad (PCBNEW 6.0.7-f9a2dced07~116~ubuntu20.04.1) date 2022-09-10 14:11:32*
%MOMM*%
%LPD*%
G01*
G04 APERTURE LIST*
G04 Aperture macros list*
%AMRotRect*
0 Rectangle, with rotation*
0 The origin of the aperture is its center*
0 $1 length*
0 $2 width*
0 $3 Rotation angle, in degrees counterclockwise*
0 Add horizontal line*
21,1,$1,$2,0,0,$3*%
G04 Aperture macros list end*
%TA.AperFunction,NonConductor*%
%ADD10C,0.700000*%
%TD*%
%TA.AperFunction,SMDPad,CuDef*%
%ADD11R,1.000000X3.500000*%
%TD*%
%TA.AperFunction,SMDPad,CuDef*%
%ADD12R,1.500000X3.400000*%
%TD*%
%TA.AperFunction,SMDPad,CuDef*%
%ADD13RotRect,0.700000X2.500000X60.000000*%
%TD*%
%TA.AperFunction,SMDPad,CuDef*%
%ADD14RotRect,1.100000X1.900000X60.000000*%
%TD*%
%TA.AperFunction,SMDPad,CuDef*%
%ADD15RotRect,0.700000X2.500000X300.000000*%
%TD*%
%TA.AperFunction,SMDPad,CuDef*%
%ADD16RotRect,1.100000X1.900000X300.000000*%
%TD*%
%TA.AperFunction,SMDPad,CuDef*%
%ADD17R,0.700000X2.500000*%
%TD*%
%TA.AperFunction,SMDPad,CuDef*%
%ADD18R,1.100000X1.900000*%
%TD*%
%TA.AperFunction,ViaPad*%
%ADD19C,0.800000*%
%TD*%
%TA.AperFunction,Conductor*%
%ADD20C,0.750000*%
%TD*%
%TA.AperFunction,Conductor*%
%ADD21C,0.400000*%
%TD*%
G04 APERTURE END LIST*
D10*
X3000000Y8000000D02*
X1000000Y7000000D01*
X-3000000Y8000000D02*
X-1000000Y7000000D01*
X3434113Y8246400D02*
X2068087Y8612425D01*
X2068087Y8612425D02*
X3068087Y6880375D01*
X3068087Y6880375D02*
X3434113Y8246400D01*
X-7000000Y-3000000D02*
X-5000000Y-3000000D01*
X6000000Y-4000000D02*
X6000000Y-1999999D01*
X-1000000Y7000000D02*
X1000000Y7000000D01*
X5000000Y-3000000D02*
X7000000Y-3000000D01*
D11*
%TO.P,X3,1,Pin_1*%
%TO.N,GND*%
X-1000000Y-4000000D03*
%TO.P,X3,2,Pin_2*%
%TO.N,+5V*%
X1000000Y-4000000D03*
D12*
%TO.P,X3,S1*%
%TO.N,N/C*%
X-3350000Y-9750000D03*
%TO.P,X3,S2*%
X3350000Y-9750000D03*
%TD*%
D13*
%TO.P,X1,1,Pin_1*%
%TO.N,/CKI*%
X-4691248Y3574519D03*
%TO.P,X1,2,Pin_2*%
%TO.N,/SDI*%
X-5441248Y2275481D03*
D14*
%TO.P,X1,S1*%
%TO.N,N/C*%
X-6833940Y7063269D03*
%TO.P,X1,S2*%
X-9533940Y2386731D03*
%TD*%
D15*
%TO.P,X2,1,Pin_1*%
%TO.N,/CKO*%
X5441248Y2275481D03*
%TO.P,X2,2,Pin_2*%
%TO.N,/SDO*%
X4691248Y3574519D03*
D16*
%TO.P,X2,S1*%
%TO.N,N/C*%
X9533940Y2386731D03*
%TO.P,X2,S2*%
X6833940Y7063269D03*
%TD*%
D17*
%TO.P,X4,1,Pin_1*%
%TO.N,GND*%
X-750000Y-5850000D03*
%TO.P,X4,2,Pin_2*%
%TO.N,+5V*%
X750000Y-5850000D03*
D18*
%TO.P,X4,S1*%
%TO.N,N/C*%
X-2700000Y-9450000D03*
%TO.P,X4,S2*%
X2700000Y-9450000D03*
%TD*%
D19*
%TO.N,GND*%
X-1100000Y1500000D03*
%TO.N,+5V*%
X1000000Y1100000D03*
%TO.N,/CKO*%
X8400000Y400000D03*
%TO.N,/SDO*%
X8400000Y-1100000D03*
%TO.N,/SDI*%
X-7700000Y-1200000D03*
%TO.N,/CKI*%
X-8900000Y500000D03*
%TD*%
D20*
%TO.N,GND*%
X-500000Y-1700000D02*
X-500000Y900000D01*
X-1000000Y-4000000D02*
X-1000000Y-2200000D01*
X-500000Y900000D02*
X-1100000Y1500000D01*
X-1000000Y-2200000D02*
X-500000Y-1700000D01*
X-1000000Y-5600000D02*
X-750000Y-5850000D01*
X-1000000Y-4000000D02*
X-1000000Y-5600000D01*
%TO.N,+5V*%
X1000000Y-5600000D02*
X750000Y-5850000D01*
X1000000Y-2300000D02*
X500000Y-1800000D01*
X1000000Y-4000000D02*
X1000000Y-2300000D01*
X1000000Y-4000000D02*
X1000000Y-5600000D01*
X500000Y-1800000D02*
X500000Y600000D01*
X500000Y600000D02*
X1000000Y1100000D01*
D21*
%TO.N,/CKO*%
X7200000Y2900000D02*
X8400000Y600000D01*
X5441248Y2275481D02*
X6500000Y2900000D01*
X6500000Y2900000D02*
X7200000Y2900000D01*
X8400000Y600000D02*
X8400000Y400000D01*
%TO.N,/SDO*%
X3400000Y2300000D02*
X4400000Y600000D01*
X6600000Y700000D02*
X8400000Y-1100000D01*
X4400000Y600000D02*
X6600000Y700000D01*
X4674519Y3574519D02*
X3500000Y2900000D01*
X4691248Y3574519D02*
X4674519Y3574519D01*
X3500000Y2900000D02*
X3400000Y2300000D01*
%TO.N,/SDI*%
X-4300000Y800000D02*
X-6868750Y831250D01*
X-4100000Y1100000D02*
X-4100000Y1489806D01*
X-4100000Y1100000D02*
X-4300000Y800000D01*
X-7700000Y0D02*
X-7700000Y-1200000D01*
X-4100000Y1489806D02*
X-4155097Y1544903D01*
X-5441248Y2275481D02*
X-4155097Y1544903D01*
X-6868750Y831250D02*
X-7700000Y0D01*
%TO.N,/CKI*%
X-6589394Y4289394D02*
X-5859602Y4289394D01*
X-4720319Y3603590D02*
X-4691248Y3574519D01*
X-8900000Y500000D02*
X-6589394Y4289394D01*
X-5859602Y4289394D02*
X-5835104Y4264896D01*
X-5835104Y4264896D02*
X-4720319Y3603590D01*
%TD*%
M02*
