%TF.GenerationSoftware,KiCad,Pcbnew,6.0.7-f9a2dced07~116~ubuntu20.04.1*%
%TF.CreationDate,2022-09-08T09:33:01+02:00*%
%TF.ProjectId,MateLightScrewCap,4d617465-4c69-4676-9874-536372657743,rev?*%
%TF.SameCoordinates,Original*%
%TF.FileFunction,Copper,L2,Bot*%
%TF.FilePolarity,Positive*%
%FSLAX46Y46*%
G04 Gerber Fmt 4.6, Leading zero omitted, Abs format (unit mm)*
G04 Created by KiCad (PCBNEW 6.0.7-f9a2dced07~116~ubuntu20.04.1) date 2022-09-08 09:33:01*
%MOMM*%
%LPD*%
G01*
G04 APERTURE LIST*
%TA.AperFunction,SMDPad,CuDef*%
%ADD10R,1.600000X1.000000*%
%TD*%
%TA.AperFunction,ViaPad*%
%ADD11C,0.800000*%
%TD*%
%TA.AperFunction,Conductor*%
%ADD12C,0.750000*%
%TD*%
%TA.AperFunction,Conductor*%
%ADD13C,0.400000*%
%TD*%
G04 APERTURE END LIST*
D10*
%TO.P,LD1,1*%
%TO.N,/SDI*%
X-2450000Y-1650000D03*
%TO.P,LD1,2*%
%TO.N,/CKI*%
X-2450000Y0D03*
%TO.P,LD1,3*%
%TO.N,GND*%
X-2450000Y1650000D03*
%TO.P,LD1,4*%
%TO.N,/SDO*%
X2450000Y-1650000D03*
%TO.P,LD1,5*%
%TO.N,/CKO*%
X2450000Y0D03*
%TO.P,LD1,6*%
%TO.N,+5V*%
X2450000Y1650000D03*
%TD*%
D11*
%TO.N,GND*%
X-1100000Y1500000D03*
%TO.N,+5V*%
X1000000Y1100000D03*
%TO.N,/CKO*%
X4843266Y188120D03*
%TO.N,/SDO*%
X4500000Y-1200000D03*
%TO.N,/SDI*%
X-4300000Y-1700000D03*
%TO.N,/CKI*%
X-4000000Y600000D03*
%TD*%
D12*
%TO.N,GND*%
X-1250000Y1650000D02*
X-1100000Y1500000D01*
X-2450000Y1650000D02*
X-1250000Y1650000D01*
%TO.N,+5V*%
X2450000Y1650000D02*
X1550000Y1650000D01*
X1550000Y1650000D02*
X1000000Y1100000D01*
D13*
%TO.N,/CKO*%
X4655146Y0D02*
X4843266Y188120D01*
X2450000Y0D02*
X4655146Y0D01*
%TO.N,/SDO*%
X4000000Y-1700000D02*
X2500000Y-1700000D01*
X2500000Y-1700000D02*
X2450000Y-1650000D01*
X4500000Y-1200000D02*
X4000000Y-1700000D01*
%TO.N,/SDI*%
X-4300000Y-1700000D02*
X-2500000Y-1700000D01*
X-2500000Y-1700000D02*
X-2450000Y-1650000D01*
%TO.N,/CKI*%
X-4000000Y200000D02*
X-3800000Y0D01*
X-3800000Y0D02*
X-2450000Y0D01*
X-4000000Y600000D02*
X-4000000Y200000D01*
%TD*%
M02*
