%TF.GenerationSoftware,KiCad,Pcbnew,6.0.7-f9a2dced07~116~ubuntu20.04.1*%
%TF.CreationDate,2022-09-10T14:11:28+02:00*%
%TF.ProjectId,MateLightScrewCap,4d617465-4c69-4676-9874-536372657743,rev?*%
%TF.SameCoordinates,Original*%
%TF.FileFunction,Drillmap*%
%TF.FilePolarity,Positive*%
%FSLAX45Y45*%
G04 Gerber Fmt 4.5, Leading zero omitted, Abs format (unit mm)*
G04 Created by KiCad (PCBNEW 6.0.7-f9a2dced07~116~ubuntu20.04.1) date 2022-09-10 14:11:28*
%MOMM*%
%LPD*%
G01*
G04 APERTURE LIST*
%ADD10C,0.100000*%
%ADD11C,0.200000*%
%ADD12C,0.040000*%
G04 APERTURE END LIST*
D10*
X1200000Y0D02*
G75*
G03*
X1200000Y0I-1200000J0D01*
G01*
D11*
D12*
X-910000Y70000D02*
X-870000Y30000D01*
X-870000Y70000D02*
X-910000Y30000D01*
X-790000Y-100000D02*
X-750000Y-140000D01*
X-750000Y-100000D02*
X-790000Y-140000D01*
X-130000Y170000D02*
X-90000Y130000D01*
X-90000Y170000D02*
X-130000Y130000D01*
X80000Y130000D02*
X120000Y90000D01*
X120000Y130000D02*
X80000Y90000D01*
X820000Y60000D02*
X860000Y20000D01*
X860000Y60000D02*
X820000Y20000D01*
X820000Y-90000D02*
X860000Y-130000D01*
X860000Y-90000D02*
X820000Y-130000D01*
D11*
X-947381Y-1515476D02*
X-947381Y-1315476D01*
X-899762Y-1315476D01*
X-871190Y-1325000D01*
X-852143Y-1344048D01*
X-842619Y-1363095D01*
X-833095Y-1401190D01*
X-833095Y-1429762D01*
X-842619Y-1467857D01*
X-852143Y-1486905D01*
X-871190Y-1505952D01*
X-899762Y-1515476D01*
X-947381Y-1515476D01*
X-747381Y-1515476D02*
X-747381Y-1382143D01*
X-747381Y-1420238D02*
X-737857Y-1401190D01*
X-728333Y-1391667D01*
X-709286Y-1382143D01*
X-690238Y-1382143D01*
X-623571Y-1515476D02*
X-623571Y-1382143D01*
X-623571Y-1315476D02*
X-633095Y-1325000D01*
X-623571Y-1334524D01*
X-614048Y-1325000D01*
X-623571Y-1315476D01*
X-623571Y-1334524D01*
X-499762Y-1515476D02*
X-518809Y-1505952D01*
X-528333Y-1486905D01*
X-528333Y-1315476D01*
X-395000Y-1515476D02*
X-414048Y-1505952D01*
X-423571Y-1486905D01*
X-423571Y-1315476D01*
X-166429Y-1515476D02*
X-166429Y-1315476D01*
X-99762Y-1458333D01*
X-33095Y-1315476D01*
X-33095Y-1515476D01*
X147857Y-1515476D02*
X147857Y-1410714D01*
X138333Y-1391667D01*
X119286Y-1382143D01*
X81190Y-1382143D01*
X62143Y-1391667D01*
X147857Y-1505952D02*
X128809Y-1515476D01*
X81190Y-1515476D01*
X62143Y-1505952D01*
X52619Y-1486905D01*
X52619Y-1467857D01*
X62143Y-1448809D01*
X81190Y-1439286D01*
X128809Y-1439286D01*
X147857Y-1429762D01*
X243095Y-1382143D02*
X243095Y-1582143D01*
X243095Y-1391667D02*
X262143Y-1382143D01*
X300238Y-1382143D01*
X319286Y-1391667D01*
X328810Y-1401190D01*
X338333Y-1420238D01*
X338333Y-1477381D01*
X328810Y-1496428D01*
X319286Y-1505952D01*
X300238Y-1515476D01*
X262143Y-1515476D01*
X243095Y-1505952D01*
X424048Y-1496428D02*
X433571Y-1505952D01*
X424048Y-1515476D01*
X414524Y-1505952D01*
X424048Y-1496428D01*
X424048Y-1515476D01*
X424048Y-1391667D02*
X433571Y-1401190D01*
X424048Y-1410714D01*
X414524Y-1401190D01*
X424048Y-1391667D01*
X424048Y-1410714D01*
D12*
X-1245000Y-1825000D02*
X-1205000Y-1865000D01*
X-1205000Y-1825000D02*
X-1245000Y-1865000D01*
D11*
X-909286Y-1735476D02*
X-890238Y-1735476D01*
X-871190Y-1745000D01*
X-861667Y-1754524D01*
X-852143Y-1773571D01*
X-842619Y-1811667D01*
X-842619Y-1859286D01*
X-852143Y-1897381D01*
X-861667Y-1916428D01*
X-871190Y-1925952D01*
X-890238Y-1935476D01*
X-909286Y-1935476D01*
X-928333Y-1925952D01*
X-937857Y-1916428D01*
X-947381Y-1897381D01*
X-956905Y-1859286D01*
X-956905Y-1811667D01*
X-947381Y-1773571D01*
X-937857Y-1754524D01*
X-928333Y-1745000D01*
X-909286Y-1735476D01*
X-756905Y-1916428D02*
X-747381Y-1925952D01*
X-756905Y-1935476D01*
X-766428Y-1925952D01*
X-756905Y-1916428D01*
X-756905Y-1935476D01*
X-575952Y-1802143D02*
X-575952Y-1935476D01*
X-623571Y-1725952D02*
X-671190Y-1868809D01*
X-547381Y-1868809D01*
X-433095Y-1735476D02*
X-414048Y-1735476D01*
X-395000Y-1745000D01*
X-385476Y-1754524D01*
X-375952Y-1773571D01*
X-366428Y-1811667D01*
X-366428Y-1859286D01*
X-375952Y-1897381D01*
X-385476Y-1916428D01*
X-395000Y-1925952D01*
X-414048Y-1935476D01*
X-433095Y-1935476D01*
X-452143Y-1925952D01*
X-461667Y-1916428D01*
X-471190Y-1897381D01*
X-480714Y-1859286D01*
X-480714Y-1811667D01*
X-471190Y-1773571D01*
X-461667Y-1754524D01*
X-452143Y-1745000D01*
X-433095Y-1735476D01*
X-242619Y-1735476D02*
X-223571Y-1735476D01*
X-204524Y-1745000D01*
X-195000Y-1754524D01*
X-185476Y-1773571D01*
X-175952Y-1811667D01*
X-175952Y-1859286D01*
X-185476Y-1897381D01*
X-195000Y-1916428D01*
X-204524Y-1925952D01*
X-223571Y-1935476D01*
X-242619Y-1935476D01*
X-261667Y-1925952D01*
X-271190Y-1916428D01*
X-280714Y-1897381D01*
X-290238Y-1859286D01*
X-290238Y-1811667D01*
X-280714Y-1773571D01*
X-271190Y-1754524D01*
X-261667Y-1745000D01*
X-242619Y-1735476D01*
X-90238Y-1935476D02*
X-90238Y-1802143D01*
X-90238Y-1821190D02*
X-80714Y-1811667D01*
X-61667Y-1802143D01*
X-33095Y-1802143D01*
X-14048Y-1811667D01*
X-4524Y-1830714D01*
X-4524Y-1935476D01*
X-4524Y-1830714D02*
X5000Y-1811667D01*
X24048Y-1802143D01*
X52619Y-1802143D01*
X71667Y-1811667D01*
X81190Y-1830714D01*
X81190Y-1935476D01*
X176428Y-1935476D02*
X176428Y-1802143D01*
X176428Y-1821190D02*
X185952Y-1811667D01*
X205000Y-1802143D01*
X233571Y-1802143D01*
X252619Y-1811667D01*
X262143Y-1830714D01*
X262143Y-1935476D01*
X262143Y-1830714D02*
X271667Y-1811667D01*
X290714Y-1802143D01*
X319286Y-1802143D01*
X338333Y-1811667D01*
X347857Y-1830714D01*
X347857Y-1935476D01*
X738333Y-1725952D02*
X566905Y-1983095D01*
X995476Y-1735476D02*
X1014524Y-1735476D01*
X1033571Y-1745000D01*
X1043095Y-1754524D01*
X1052619Y-1773571D01*
X1062143Y-1811667D01*
X1062143Y-1859286D01*
X1052619Y-1897381D01*
X1043095Y-1916428D01*
X1033571Y-1925952D01*
X1014524Y-1935476D01*
X995476Y-1935476D01*
X976428Y-1925952D01*
X966905Y-1916428D01*
X957381Y-1897381D01*
X947857Y-1859286D01*
X947857Y-1811667D01*
X957381Y-1773571D01*
X966905Y-1754524D01*
X976428Y-1745000D01*
X995476Y-1735476D01*
X1147857Y-1916428D02*
X1157381Y-1925952D01*
X1147857Y-1935476D01*
X1138333Y-1925952D01*
X1147857Y-1916428D01*
X1147857Y-1935476D01*
X1281190Y-1735476D02*
X1300238Y-1735476D01*
X1319286Y-1745000D01*
X1328810Y-1754524D01*
X1338333Y-1773571D01*
X1347857Y-1811667D01*
X1347857Y-1859286D01*
X1338333Y-1897381D01*
X1328810Y-1916428D01*
X1319286Y-1925952D01*
X1300238Y-1935476D01*
X1281190Y-1935476D01*
X1262143Y-1925952D01*
X1252619Y-1916428D01*
X1243095Y-1897381D01*
X1233571Y-1859286D01*
X1233571Y-1811667D01*
X1243095Y-1773571D01*
X1252619Y-1754524D01*
X1262143Y-1745000D01*
X1281190Y-1735476D01*
X1538333Y-1935476D02*
X1424048Y-1935476D01*
X1481190Y-1935476D02*
X1481190Y-1735476D01*
X1462143Y-1764048D01*
X1443095Y-1783095D01*
X1424048Y-1792619D01*
X1719286Y-1735476D02*
X1624048Y-1735476D01*
X1614524Y-1830714D01*
X1624048Y-1821190D01*
X1643095Y-1811667D01*
X1690714Y-1811667D01*
X1709762Y-1821190D01*
X1719286Y-1830714D01*
X1728809Y-1849762D01*
X1728809Y-1897381D01*
X1719286Y-1916428D01*
X1709762Y-1925952D01*
X1690714Y-1935476D01*
X1643095Y-1935476D01*
X1624048Y-1925952D01*
X1614524Y-1916428D01*
X1795476Y-1735476D02*
X1928809Y-1735476D01*
X1843095Y-1935476D01*
X1995476Y-1735476D02*
X1995476Y-1773571D01*
X2071667Y-1735476D02*
X2071667Y-1773571D01*
X2366905Y-2011667D02*
X2357381Y-2002143D01*
X2338333Y-1973571D01*
X2328810Y-1954524D01*
X2319286Y-1925952D01*
X2309762Y-1878333D01*
X2309762Y-1840238D01*
X2319286Y-1792619D01*
X2328810Y-1764048D01*
X2338333Y-1745000D01*
X2357381Y-1716428D01*
X2366905Y-1706905D01*
X2528810Y-1735476D02*
X2490714Y-1735476D01*
X2471667Y-1745000D01*
X2462143Y-1754524D01*
X2443095Y-1783095D01*
X2433571Y-1821190D01*
X2433571Y-1897381D01*
X2443095Y-1916428D01*
X2452619Y-1925952D01*
X2471667Y-1935476D01*
X2509762Y-1935476D01*
X2528810Y-1925952D01*
X2538333Y-1916428D01*
X2547857Y-1897381D01*
X2547857Y-1849762D01*
X2538333Y-1830714D01*
X2528810Y-1821190D01*
X2509762Y-1811667D01*
X2471667Y-1811667D01*
X2452619Y-1821190D01*
X2443095Y-1830714D01*
X2433571Y-1849762D01*
X2785952Y-1935476D02*
X2785952Y-1735476D01*
X2871667Y-1935476D02*
X2871667Y-1830714D01*
X2862143Y-1811667D01*
X2843095Y-1802143D01*
X2814524Y-1802143D01*
X2795476Y-1811667D01*
X2785952Y-1821190D01*
X2995476Y-1935476D02*
X2976428Y-1925952D01*
X2966905Y-1916428D01*
X2957381Y-1897381D01*
X2957381Y-1840238D01*
X2966905Y-1821190D01*
X2976428Y-1811667D01*
X2995476Y-1802143D01*
X3024048Y-1802143D01*
X3043095Y-1811667D01*
X3052619Y-1821190D01*
X3062143Y-1840238D01*
X3062143Y-1897381D01*
X3052619Y-1916428D01*
X3043095Y-1925952D01*
X3024048Y-1935476D01*
X2995476Y-1935476D01*
X3176428Y-1935476D02*
X3157381Y-1925952D01*
X3147857Y-1906905D01*
X3147857Y-1735476D01*
X3328809Y-1925952D02*
X3309762Y-1935476D01*
X3271667Y-1935476D01*
X3252619Y-1925952D01*
X3243095Y-1906905D01*
X3243095Y-1830714D01*
X3252619Y-1811667D01*
X3271667Y-1802143D01*
X3309762Y-1802143D01*
X3328809Y-1811667D01*
X3338333Y-1830714D01*
X3338333Y-1849762D01*
X3243095Y-1868809D01*
X3414524Y-1925952D02*
X3433571Y-1935476D01*
X3471667Y-1935476D01*
X3490714Y-1925952D01*
X3500238Y-1906905D01*
X3500238Y-1897381D01*
X3490714Y-1878333D01*
X3471667Y-1868809D01*
X3443095Y-1868809D01*
X3424048Y-1859286D01*
X3414524Y-1840238D01*
X3414524Y-1830714D01*
X3424048Y-1811667D01*
X3443095Y-1802143D01*
X3471667Y-1802143D01*
X3490714Y-1811667D01*
X3566905Y-2011667D02*
X3576428Y-2002143D01*
X3595476Y-1973571D01*
X3605000Y-1954524D01*
X3614524Y-1925952D01*
X3624048Y-1878333D01*
X3624048Y-1840238D01*
X3614524Y-1792619D01*
X3605000Y-1764048D01*
X3595476Y-1745000D01*
X3576428Y-1716428D01*
X3566905Y-1706905D01*
M02*
