%TF.GenerationSoftware,KiCad,Pcbnew,6.0.7-f9a2dced07~116~ubuntu20.04.1*%
%TF.CreationDate,2022-09-08T09:33:01+02:00*%
%TF.ProjectId,MateLightScrewCap,4d617465-4c69-4676-9874-536372657743,rev?*%
%TF.SameCoordinates,Original*%
%TF.FileFunction,Legend,Bot*%
%TF.FilePolarity,Positive*%
%FSLAX46Y46*%
G04 Gerber Fmt 4.6, Leading zero omitted, Abs format (unit mm)*
G04 Created by KiCad (PCBNEW 6.0.7-f9a2dced07~116~ubuntu20.04.1) date 2022-09-08 09:33:01*
%MOMM*%
%LPD*%
G01*
G04 APERTURE LIST*
%ADD10C,0.080000*%
%ADD11C,0.076000*%
%ADD12C,0.127000*%
%ADD13C,0.200000*%
G04 APERTURE END LIST*
D10*
X8614285Y-5857142D02*
X8614285Y-4957142D01*
X8314285Y-5600000D01*
X8014285Y-4957142D01*
X8014285Y-5857142D01*
X7199999Y-5857142D02*
X7199999Y-5385714D01*
X7242857Y-5300000D01*
X7328571Y-5257142D01*
X7499999Y-5257142D01*
X7585714Y-5300000D01*
X7199999Y-5814285D02*
X7285714Y-5857142D01*
X7499999Y-5857142D01*
X7585714Y-5814285D01*
X7628571Y-5728571D01*
X7628571Y-5642857D01*
X7585714Y-5557142D01*
X7499999Y-5514285D01*
X7285714Y-5514285D01*
X7199999Y-5471428D01*
X6899999Y-5257142D02*
X6557142Y-5257142D01*
X6771428Y-4957142D02*
X6771428Y-5728571D01*
X6728571Y-5814285D01*
X6642857Y-5857142D01*
X6557142Y-5857142D01*
X5914285Y-5814285D02*
X5999999Y-5857142D01*
X6171428Y-5857142D01*
X6257142Y-5814285D01*
X6299999Y-5728571D01*
X6299999Y-5385714D01*
X6257142Y-5300000D01*
X6171428Y-5257142D01*
X5999999Y-5257142D01*
X5914285Y-5300000D01*
X5871428Y-5385714D01*
X5871428Y-5471428D01*
X6299999Y-5557142D01*
X5057142Y-5857142D02*
X5485714Y-5857142D01*
X5485714Y-4957142D01*
X4757142Y-5857142D02*
X4757142Y-5257142D01*
X4757142Y-4957142D02*
X4799999Y-5000000D01*
X4757142Y-5042857D01*
X4714285Y-5000000D01*
X4757142Y-4957142D01*
X4757142Y-5042857D01*
X3942857Y-5257142D02*
X3942857Y-5985714D01*
X3985714Y-6071428D01*
X4028571Y-6114285D01*
X4114285Y-6157142D01*
X4242857Y-6157142D01*
X4328571Y-6114285D01*
X3942857Y-5814285D02*
X4028571Y-5857142D01*
X4199999Y-5857142D01*
X4285714Y-5814285D01*
X4328571Y-5771428D01*
X4371428Y-5685714D01*
X4371428Y-5428571D01*
X4328571Y-5342857D01*
X4285714Y-5300000D01*
X4199999Y-5257142D01*
X4028571Y-5257142D01*
X3942857Y-5300000D01*
X3514285Y-5857142D02*
X3514285Y-4957142D01*
X3128571Y-5857142D02*
X3128571Y-5385714D01*
X3171428Y-5300000D01*
X3257142Y-5257142D01*
X3385714Y-5257142D01*
X3471428Y-5300000D01*
X3514285Y-5342857D01*
X2828571Y-5257142D02*
X2485714Y-5257142D01*
X2699999Y-4957142D02*
X2699999Y-5728571D01*
X2657142Y-5814285D01*
X2571428Y-5857142D01*
X2485714Y-5857142D01*
X2228571Y-5814285D02*
X2099999Y-5857142D01*
X1885714Y-5857142D01*
X1799999Y-5814285D01*
X1757142Y-5771428D01*
X1714285Y-5685714D01*
X1714285Y-5600000D01*
X1757142Y-5514285D01*
X1799999Y-5471428D01*
X1885714Y-5428571D01*
X2057142Y-5385714D01*
X2142857Y-5342857D01*
X2185714Y-5300000D01*
X2228571Y-5214285D01*
X2228571Y-5128571D01*
X2185714Y-5042857D01*
X2142857Y-5000000D01*
X2057142Y-4957142D01*
X1842857Y-4957142D01*
X1714285Y-5000000D01*
X942857Y-5814285D02*
X1028571Y-5857142D01*
X1199999Y-5857142D01*
X1285714Y-5814285D01*
X1328571Y-5771428D01*
X1371428Y-5685714D01*
X1371428Y-5428571D01*
X1328571Y-5342857D01*
X1285714Y-5300000D01*
X1199999Y-5257142D01*
X1028571Y-5257142D01*
X942857Y-5300000D01*
X557142Y-5857142D02*
X557142Y-5257142D01*
X557142Y-5428571D02*
X514285Y-5342857D01*
X471428Y-5300000D01*
X385714Y-5257142D01*
X299999Y-5257142D01*
X-342857Y-5814285D02*
X-257142Y-5857142D01*
X-85714Y-5857142D01*
X0Y-5814285D01*
X42857Y-5728571D01*
X42857Y-5385714D01*
X0Y-5300000D01*
X-85714Y-5257142D01*
X-257142Y-5257142D01*
X-342857Y-5300000D01*
X-385714Y-5385714D01*
X-385714Y-5471428D01*
X42857Y-5557142D01*
X-685714Y-5257142D02*
X-857142Y-5857142D01*
X-1028571Y-5428571D01*
X-1200000Y-5857142D01*
X-1371428Y-5257142D01*
X-2228571Y-5771428D02*
X-2185714Y-5814285D01*
X-2057142Y-5857142D01*
X-1971428Y-5857142D01*
X-1842857Y-5814285D01*
X-1757142Y-5728571D01*
X-1714285Y-5642857D01*
X-1671428Y-5471428D01*
X-1671428Y-5342857D01*
X-1714285Y-5171428D01*
X-1757142Y-5085714D01*
X-1842857Y-5000000D01*
X-1971428Y-4957142D01*
X-2057142Y-4957142D01*
X-2185714Y-5000000D01*
X-2228571Y-5042857D01*
X-3000000Y-5857142D02*
X-3000000Y-5385714D01*
X-2957142Y-5300000D01*
X-2871428Y-5257142D01*
X-2700000Y-5257142D01*
X-2614285Y-5300000D01*
X-3000000Y-5814285D02*
X-2914285Y-5857142D01*
X-2700000Y-5857142D01*
X-2614285Y-5814285D01*
X-2571428Y-5728571D01*
X-2571428Y-5642857D01*
X-2614285Y-5557142D01*
X-2700000Y-5514285D01*
X-2914285Y-5514285D01*
X-3000000Y-5471428D01*
X-3428571Y-5257142D02*
X-3428571Y-6157142D01*
X-3428571Y-5300000D02*
X-3514285Y-5257142D01*
X-3685714Y-5257142D01*
X-3771428Y-5300000D01*
X-3814285Y-5342857D01*
X-3857142Y-5428571D01*
X-3857142Y-5685714D01*
X-3814285Y-5771428D01*
X-3771428Y-5814285D01*
X-3685714Y-5857142D01*
X-3514285Y-5857142D01*
X-3428571Y-5814285D01*
X-4842857Y-5257142D02*
X-5057142Y-5857142D01*
X-5271428Y-5257142D01*
X-5785714Y-4957142D02*
X-5871428Y-4957142D01*
X-5957142Y-5000000D01*
X-6000000Y-5042857D01*
X-6042857Y-5128571D01*
X-6085714Y-5300000D01*
X-6085714Y-5514285D01*
X-6042857Y-5685714D01*
X-6000000Y-5771428D01*
X-5957142Y-5814285D01*
X-5871428Y-5857142D01*
X-5785714Y-5857142D01*
X-5700000Y-5814285D01*
X-5657142Y-5771428D01*
X-5614285Y-5685714D01*
X-5571428Y-5514285D01*
X-5571428Y-5300000D01*
X-5614285Y-5128571D01*
X-5657142Y-5042857D01*
X-5700000Y-5000000D01*
X-5785714Y-4957142D01*
X-6471428Y-5771428D02*
X-6514285Y-5814285D01*
X-6471428Y-5857142D01*
X-6428571Y-5814285D01*
X-6471428Y-5771428D01*
X-6471428Y-5857142D01*
X-6857142Y-5042857D02*
X-6900000Y-5000000D01*
X-6985714Y-4957142D01*
X-7200000Y-4957142D01*
X-7285714Y-5000000D01*
X-7328571Y-5042857D01*
X-7371428Y-5128571D01*
X-7371428Y-5214285D01*
X-7328571Y-5342857D01*
X-6814285Y-5857142D01*
X-7371428Y-5857142D01*
X-7757142Y-5771428D02*
X-7800000Y-5814285D01*
X-7757142Y-5857142D01*
X-7714285Y-5814285D01*
X-7757142Y-5771428D01*
X-7757142Y-5857142D01*
X-8357142Y-4957142D02*
X-8442857Y-4957142D01*
X-8528571Y-5000000D01*
X-8571428Y-5042857D01*
X-8614285Y-5128571D01*
X-8657142Y-5300000D01*
X-8657142Y-5514285D01*
X-8614285Y-5685714D01*
X-8571428Y-5771428D01*
X-8528571Y-5814285D01*
X-8442857Y-5857142D01*
X-8357142Y-5857142D01*
X-8271428Y-5814285D01*
X-8228571Y-5771428D01*
X-8185714Y-5685714D01*
X-8142857Y-5514285D01*
X-8142857Y-5300000D01*
X-8185714Y-5128571D01*
X-8228571Y-5042857D01*
X-8271428Y-5000000D01*
X-8357142Y-4957142D01*
X6257142Y-7306142D02*
X6257142Y-6406142D01*
X6257142Y-6749000D02*
X6171428Y-6706142D01*
X6000000Y-6706142D01*
X5914285Y-6749000D01*
X5871428Y-6791857D01*
X5828571Y-6877571D01*
X5828571Y-7134714D01*
X5871428Y-7220428D01*
X5914285Y-7263285D01*
X6000000Y-7306142D01*
X6171428Y-7306142D01*
X6257142Y-7263285D01*
X5528571Y-6706142D02*
X5314285Y-7306142D01*
X5100000Y-6706142D02*
X5314285Y-7306142D01*
X5400000Y-7520428D01*
X5442857Y-7563285D01*
X5528571Y-7606142D01*
X4071428Y-7306142D02*
X4071428Y-6406142D01*
X4071428Y-6834714D02*
X3557142Y-6834714D01*
X3557142Y-7306142D02*
X3557142Y-6406142D01*
X2742857Y-7306142D02*
X2742857Y-6834714D01*
X2785714Y-6749000D01*
X2871428Y-6706142D01*
X3042857Y-6706142D01*
X3128571Y-6749000D01*
X2742857Y-7263285D02*
X2828571Y-7306142D01*
X3042857Y-7306142D01*
X3128571Y-7263285D01*
X3171428Y-7177571D01*
X3171428Y-7091857D01*
X3128571Y-7006142D01*
X3042857Y-6963285D01*
X2828571Y-6963285D01*
X2742857Y-6920428D01*
X2314285Y-6706142D02*
X2314285Y-7306142D01*
X2314285Y-6791857D02*
X2271428Y-6749000D01*
X2185714Y-6706142D01*
X2057142Y-6706142D01*
X1971428Y-6749000D01*
X1928571Y-6834714D01*
X1928571Y-7306142D01*
X1542857Y-7263285D02*
X1457142Y-7306142D01*
X1285714Y-7306142D01*
X1199999Y-7263285D01*
X1157142Y-7177571D01*
X1157142Y-7134714D01*
X1199999Y-7049000D01*
X1285714Y-7006142D01*
X1414285Y-7006142D01*
X1499999Y-6963285D01*
X1542857Y-6877571D01*
X1542857Y-6834714D01*
X1499999Y-6749000D01*
X1414285Y-6706142D01*
X1285714Y-6706142D01*
X1199999Y-6749000D01*
X814285Y-7049000D02*
X385714Y-7049000D01*
X899999Y-7306142D02*
X599999Y-6406142D01*
X299999Y-7306142D01*
X-385714Y-7263285D02*
X-300000Y-7306142D01*
X-128571Y-7306142D01*
X-42857Y-7263285D01*
X0Y-7220428D01*
X42857Y-7134714D01*
X42857Y-6877571D01*
X0Y-6791857D01*
X-42857Y-6749000D01*
X-128571Y-6706142D01*
X-300000Y-6706142D01*
X-385714Y-6749000D01*
X-771428Y-7306142D02*
X-771428Y-6406142D01*
X-1157142Y-7306142D02*
X-1157142Y-6834714D01*
X-1114285Y-6749000D01*
X-1028571Y-6706142D01*
X-900000Y-6706142D01*
X-814285Y-6749000D01*
X-771428Y-6791857D01*
X-1457142Y-6706142D02*
X-1800000Y-6706142D01*
X-1585714Y-6406142D02*
X-1585714Y-7177571D01*
X-1628571Y-7263285D01*
X-1714285Y-7306142D01*
X-1800000Y-7306142D01*
X-2442857Y-7263285D02*
X-2357142Y-7306142D01*
X-2185714Y-7306142D01*
X-2100000Y-7263285D01*
X-2057142Y-7177571D01*
X-2057142Y-6834714D01*
X-2100000Y-6749000D01*
X-2185714Y-6706142D01*
X-2357142Y-6706142D01*
X-2442857Y-6749000D01*
X-2485714Y-6834714D01*
X-2485714Y-6920428D01*
X-2057142Y-7006142D01*
X-2871428Y-7306142D02*
X-2871428Y-6706142D01*
X-2871428Y-6877571D02*
X-2914285Y-6791857D01*
X-2957142Y-6749000D01*
X-3042857Y-6706142D01*
X-3128571Y-6706142D01*
X-3428571Y-7306142D02*
X-3428571Y-6406142D01*
X-3428571Y-6749000D02*
X-3514285Y-6706142D01*
X-3685714Y-6706142D01*
X-3771428Y-6749000D01*
X-3814285Y-6791857D01*
X-3857142Y-6877571D01*
X-3857142Y-7134714D01*
X-3814285Y-7220428D01*
X-3771428Y-7263285D01*
X-3685714Y-7306142D01*
X-3514285Y-7306142D01*
X-3428571Y-7263285D01*
X-4628571Y-7306142D02*
X-4628571Y-6834714D01*
X-4585714Y-6749000D01*
X-4500000Y-6706142D01*
X-4328571Y-6706142D01*
X-4242857Y-6749000D01*
X-4628571Y-7263285D02*
X-4542857Y-7306142D01*
X-4328571Y-7306142D01*
X-4242857Y-7263285D01*
X-4200000Y-7177571D01*
X-4200000Y-7091857D01*
X-4242857Y-7006142D01*
X-4328571Y-6963285D01*
X-4542857Y-6963285D01*
X-4628571Y-6920428D01*
X-5057142Y-7306142D02*
X-5057142Y-6406142D01*
X-5442857Y-7306142D02*
X-5442857Y-6834714D01*
X-5400000Y-6749000D01*
X-5314285Y-6706142D01*
X-5185714Y-6706142D01*
X-5100000Y-6749000D01*
X-5057142Y-6791857D01*
X-5871428Y-6706142D02*
X-5871428Y-7306142D01*
X-5871428Y-6791857D02*
X-5914285Y-6749000D01*
X-6000000Y-6706142D01*
X-6128571Y-6706142D01*
X-6214285Y-6749000D01*
X-6257142Y-6834714D01*
X-6257142Y-7306142D01*
X3471428Y-7855142D02*
X3385714Y-7855142D01*
X3299999Y-7898000D01*
X3257142Y-7940857D01*
X3214285Y-8026571D01*
X3171428Y-8198000D01*
X3171428Y-8412285D01*
X3214285Y-8583714D01*
X3257142Y-8669428D01*
X3299999Y-8712285D01*
X3385714Y-8755142D01*
X3471428Y-8755142D01*
X3557142Y-8712285D01*
X3599999Y-8669428D01*
X3642857Y-8583714D01*
X3685714Y-8412285D01*
X3685714Y-8198000D01*
X3642857Y-8026571D01*
X3599999Y-7940857D01*
X3557142Y-7898000D01*
X3471428Y-7855142D01*
X2399999Y-8155142D02*
X2399999Y-8755142D01*
X2614285Y-7812285D02*
X2828571Y-8455142D01*
X2271428Y-8455142D01*
X1928571Y-8669428D02*
X1885714Y-8712285D01*
X1928571Y-8755142D01*
X1971428Y-8712285D01*
X1928571Y-8669428D01*
X1928571Y-8755142D01*
X1328571Y-7855142D02*
X1242857Y-7855142D01*
X1157142Y-7898000D01*
X1114285Y-7940857D01*
X1071428Y-8026571D01*
X1028571Y-8198000D01*
X1028571Y-8412285D01*
X1071428Y-8583714D01*
X1114285Y-8669428D01*
X1157142Y-8712285D01*
X1242857Y-8755142D01*
X1328571Y-8755142D01*
X1414285Y-8712285D01*
X1457142Y-8669428D01*
X1499999Y-8583714D01*
X1542857Y-8412285D01*
X1542857Y-8198000D01*
X1499999Y-8026571D01*
X1457142Y-7940857D01*
X1414285Y-7898000D01*
X1328571Y-7855142D01*
X599999Y-8755142D02*
X428571Y-8755142D01*
X342857Y-8712285D01*
X299999Y-8669428D01*
X214285Y-8540857D01*
X171428Y-8369428D01*
X171428Y-8026571D01*
X214285Y-7940857D01*
X257142Y-7898000D01*
X342857Y-7855142D01*
X514285Y-7855142D01*
X599999Y-7898000D01*
X642857Y-7940857D01*
X685714Y-8026571D01*
X685714Y-8240857D01*
X642857Y-8326571D01*
X599999Y-8369428D01*
X514285Y-8412285D01*
X342857Y-8412285D01*
X257142Y-8369428D01*
X214285Y-8326571D01*
X171428Y-8240857D01*
X-214285Y-8669428D02*
X-257142Y-8712285D01*
X-214285Y-8755142D01*
X-171428Y-8712285D01*
X-214285Y-8669428D01*
X-214285Y-8755142D01*
X-600000Y-7940857D02*
X-642857Y-7898000D01*
X-728571Y-7855142D01*
X-942857Y-7855142D01*
X-1028571Y-7898000D01*
X-1071428Y-7940857D01*
X-1114285Y-8026571D01*
X-1114285Y-8112285D01*
X-1071428Y-8240857D01*
X-557142Y-8755142D01*
X-1114285Y-8755142D01*
X-1671428Y-7855142D02*
X-1757142Y-7855142D01*
X-1842857Y-7898000D01*
X-1885714Y-7940857D01*
X-1928571Y-8026571D01*
X-1971428Y-8198000D01*
X-1971428Y-8412285D01*
X-1928571Y-8583714D01*
X-1885714Y-8669428D01*
X-1842857Y-8712285D01*
X-1757142Y-8755142D01*
X-1671428Y-8755142D01*
X-1585714Y-8712285D01*
X-1542857Y-8669428D01*
X-1500000Y-8583714D01*
X-1457142Y-8412285D01*
X-1457142Y-8198000D01*
X-1500000Y-8026571D01*
X-1542857Y-7940857D01*
X-1585714Y-7898000D01*
X-1671428Y-7855142D01*
X-2314285Y-7940857D02*
X-2357142Y-7898000D01*
X-2442857Y-7855142D01*
X-2657142Y-7855142D01*
X-2742857Y-7898000D01*
X-2785714Y-7940857D01*
X-2828571Y-8026571D01*
X-2828571Y-8112285D01*
X-2785714Y-8240857D01*
X-2271428Y-8755142D01*
X-2828571Y-8755142D01*
X-3171428Y-7940857D02*
X-3214285Y-7898000D01*
X-3300000Y-7855142D01*
X-3514285Y-7855142D01*
X-3600000Y-7898000D01*
X-3642857Y-7940857D01*
X-3685714Y-8026571D01*
X-3685714Y-8112285D01*
X-3642857Y-8240857D01*
X-3128571Y-8755142D01*
X-3685714Y-8755142D01*
X3707142Y-10204142D02*
X3707142Y-9304142D01*
X3407142Y-9947000D01*
X3107142Y-9304142D01*
X3107142Y-10204142D01*
X2678571Y-10204142D02*
X2678571Y-9304142D01*
X2378571Y-9304142D02*
X1864285Y-9304142D01*
X2121428Y-10204142D02*
X2121428Y-9304142D01*
X450000Y-10204142D02*
X878571Y-10204142D01*
X878571Y-9304142D01*
X150000Y-10204142D02*
X150000Y-9604142D01*
X150000Y-9304142D02*
X192857Y-9347000D01*
X150000Y-9389857D01*
X107142Y-9347000D01*
X150000Y-9304142D01*
X150000Y-9389857D01*
X-664285Y-10161285D02*
X-578571Y-10204142D01*
X-407142Y-10204142D01*
X-321428Y-10161285D01*
X-278571Y-10118428D01*
X-235714Y-10032714D01*
X-235714Y-9775571D01*
X-278571Y-9689857D01*
X-321428Y-9647000D01*
X-407142Y-9604142D01*
X-578571Y-9604142D01*
X-664285Y-9647000D01*
X-1392857Y-10161285D02*
X-1307142Y-10204142D01*
X-1135714Y-10204142D01*
X-1049999Y-10161285D01*
X-1007142Y-10075571D01*
X-1007142Y-9732714D01*
X-1049999Y-9647000D01*
X-1135714Y-9604142D01*
X-1307142Y-9604142D01*
X-1392857Y-9647000D01*
X-1435714Y-9732714D01*
X-1435714Y-9818428D01*
X-1007142Y-9904142D01*
X-1821428Y-9604142D02*
X-1821428Y-10204142D01*
X-1821428Y-9689857D02*
X-1864285Y-9647000D01*
X-1949999Y-9604142D01*
X-2078571Y-9604142D01*
X-2164285Y-9647000D01*
X-2207142Y-9732714D01*
X-2207142Y-10204142D01*
X-2592857Y-10161285D02*
X-2678571Y-10204142D01*
X-2849999Y-10204142D01*
X-2935714Y-10161285D01*
X-2978571Y-10075571D01*
X-2978571Y-10032714D01*
X-2935714Y-9947000D01*
X-2849999Y-9904142D01*
X-2721428Y-9904142D01*
X-2635714Y-9861285D01*
X-2592857Y-9775571D01*
X-2592857Y-9732714D01*
X-2635714Y-9647000D01*
X-2721428Y-9604142D01*
X-2849999Y-9604142D01*
X-2935714Y-9647000D01*
X-3707142Y-10161285D02*
X-3621428Y-10204142D01*
X-3449999Y-10204142D01*
X-3364285Y-10161285D01*
X-3321428Y-10075571D01*
X-3321428Y-9732714D01*
X-3364285Y-9647000D01*
X-3449999Y-9604142D01*
X-3621428Y-9604142D01*
X-3707142Y-9647000D01*
X-3749999Y-9732714D01*
X-3749999Y-9818428D01*
X-3321428Y-9904142D01*
X2635714Y9142857D02*
X2635714Y10042857D01*
X2250000Y9142857D02*
X2250000Y9614285D01*
X2292857Y9700000D01*
X2378571Y9742857D01*
X2507142Y9742857D01*
X2592857Y9700000D01*
X2635714Y9657142D01*
X1950000Y9742857D02*
X1607142Y9742857D01*
X1821428Y10042857D02*
X1821428Y9271428D01*
X1778571Y9185714D01*
X1692857Y9142857D01*
X1607142Y9142857D01*
X1435714Y9742857D02*
X1092857Y9742857D01*
X1307142Y10042857D02*
X1307142Y9271428D01*
X1264285Y9185714D01*
X1178571Y9142857D01*
X1092857Y9142857D01*
X792857Y9742857D02*
X792857Y8842857D01*
X792857Y9700000D02*
X707142Y9742857D01*
X535714Y9742857D01*
X449999Y9700000D01*
X407142Y9657142D01*
X364285Y9571428D01*
X364285Y9314285D01*
X407142Y9228571D01*
X449999Y9185714D01*
X535714Y9142857D01*
X707142Y9142857D01*
X792857Y9185714D01*
X21428Y9185714D02*
X-64285Y9142857D01*
X-235714Y9142857D01*
X-321428Y9185714D01*
X-364285Y9271428D01*
X-364285Y9314285D01*
X-321428Y9400000D01*
X-235714Y9442857D01*
X-107142Y9442857D01*
X-21428Y9485714D01*
X21428Y9571428D01*
X21428Y9614285D01*
X-21428Y9700000D01*
X-107142Y9742857D01*
X-235714Y9742857D01*
X-321428Y9700000D01*
X-750000Y9228571D02*
X-792857Y9185714D01*
X-750000Y9142857D01*
X-707142Y9185714D01*
X-750000Y9228571D01*
X-750000Y9142857D01*
X-750000Y9700000D02*
X-792857Y9657142D01*
X-750000Y9614285D01*
X-707142Y9657142D01*
X-750000Y9700000D01*
X-750000Y9614285D01*
X-1821428Y10085714D02*
X-1050000Y8928571D01*
X-2764285Y10085714D02*
X-1992857Y8928571D01*
X3578571Y8293857D02*
X3578571Y7565285D01*
X3621428Y7479571D01*
X3664285Y7436714D01*
X3750000Y7393857D01*
X3878571Y7393857D01*
X3964285Y7436714D01*
X3578571Y7736714D02*
X3664285Y7693857D01*
X3835714Y7693857D01*
X3921428Y7736714D01*
X3964285Y7779571D01*
X4007142Y7865285D01*
X4007142Y8122428D01*
X3964285Y8208142D01*
X3921428Y8251000D01*
X3835714Y8293857D01*
X3664285Y8293857D01*
X3578571Y8251000D01*
X3149999Y7693857D02*
X3149999Y8293857D01*
X3149999Y8593857D02*
X3192857Y8551000D01*
X3149999Y8508142D01*
X3107142Y8551000D01*
X3149999Y8593857D01*
X3149999Y8508142D01*
X2850000Y8293857D02*
X2507142Y8293857D01*
X2721428Y8593857D02*
X2721428Y7822428D01*
X2678571Y7736714D01*
X2592857Y7693857D01*
X2507142Y7693857D01*
X2207142Y7693857D02*
X2207142Y8593857D01*
X1821428Y7693857D02*
X1821428Y8165285D01*
X1864285Y8251000D01*
X1949999Y8293857D01*
X2078571Y8293857D01*
X2164285Y8251000D01*
X2207142Y8208142D01*
X1007142Y8293857D02*
X1007142Y7693857D01*
X1392857Y8293857D02*
X1392857Y7822428D01*
X1349999Y7736714D01*
X1264285Y7693857D01*
X1135714Y7693857D01*
X1049999Y7736714D01*
X1007142Y7779571D01*
X578571Y7693857D02*
X578571Y8593857D01*
X578571Y8251000D02*
X492857Y8293857D01*
X321428Y8293857D01*
X235714Y8251000D01*
X192857Y8208142D01*
X149999Y8122428D01*
X149999Y7865285D01*
X192857Y7779571D01*
X235714Y7736714D01*
X321428Y7693857D01*
X492857Y7693857D01*
X578571Y7736714D01*
X-235714Y7779571D02*
X-278571Y7736714D01*
X-235714Y7693857D01*
X-192857Y7736714D01*
X-235714Y7779571D01*
X-235714Y7693857D01*
X-1050000Y7736714D02*
X-964285Y7693857D01*
X-792857Y7693857D01*
X-707142Y7736714D01*
X-664285Y7779571D01*
X-621428Y7865285D01*
X-621428Y8122428D01*
X-664285Y8208142D01*
X-707142Y8251000D01*
X-792857Y8293857D01*
X-964285Y8293857D01*
X-1050000Y8251000D01*
X-1564285Y7693857D02*
X-1478571Y7736714D01*
X-1435714Y7779571D01*
X-1392857Y7865285D01*
X-1392857Y8122428D01*
X-1435714Y8208142D01*
X-1478571Y8251000D01*
X-1564285Y8293857D01*
X-1692857Y8293857D01*
X-1778571Y8251000D01*
X-1821428Y8208142D01*
X-1864285Y8122428D01*
X-1864285Y7865285D01*
X-1821428Y7779571D01*
X-1778571Y7736714D01*
X-1692857Y7693857D01*
X-1564285Y7693857D01*
X-2250000Y7693857D02*
X-2250000Y8293857D01*
X-2250000Y8208142D02*
X-2292857Y8251000D01*
X-2378571Y8293857D01*
X-2507142Y8293857D01*
X-2592857Y8251000D01*
X-2635714Y8165285D01*
X-2635714Y7693857D01*
X-2635714Y8165285D02*
X-2678571Y8251000D01*
X-2764285Y8293857D01*
X-2892857Y8293857D01*
X-2978571Y8251000D01*
X-3021428Y8165285D01*
X-3021428Y7693857D01*
X-4092857Y8636714D02*
X-3321428Y7479571D01*
X5635714Y6244857D02*
X5635714Y7144857D01*
X5635714Y6716285D02*
X5121428Y6716285D01*
X5121428Y6244857D02*
X5121428Y7144857D01*
X4307142Y6244857D02*
X4307142Y6716285D01*
X4350000Y6802000D01*
X4435714Y6844857D01*
X4607142Y6844857D01*
X4692857Y6802000D01*
X4307142Y6287714D02*
X4392857Y6244857D01*
X4607142Y6244857D01*
X4692857Y6287714D01*
X4735714Y6373428D01*
X4735714Y6459142D01*
X4692857Y6544857D01*
X4607142Y6587714D01*
X4392857Y6587714D01*
X4307142Y6630571D01*
X3878571Y6844857D02*
X3878571Y6244857D01*
X3878571Y6759142D02*
X3835714Y6802000D01*
X3750000Y6844857D01*
X3621428Y6844857D01*
X3535714Y6802000D01*
X3492857Y6716285D01*
X3492857Y6244857D01*
X3107142Y6287714D02*
X3021428Y6244857D01*
X2850000Y6244857D01*
X2764285Y6287714D01*
X2721428Y6373428D01*
X2721428Y6416285D01*
X2764285Y6502000D01*
X2850000Y6544857D01*
X2978571Y6544857D01*
X3064285Y6587714D01*
X3107142Y6673428D01*
X3107142Y6716285D01*
X3064285Y6802000D01*
X2978571Y6844857D01*
X2850000Y6844857D01*
X2764285Y6802000D01*
X2378571Y6502000D02*
X1950000Y6502000D01*
X2464285Y6244857D02*
X2164285Y7144857D01*
X1864285Y6244857D01*
X1178571Y6287714D02*
X1264285Y6244857D01*
X1435714Y6244857D01*
X1521428Y6287714D01*
X1564285Y6330571D01*
X1607142Y6416285D01*
X1607142Y6673428D01*
X1564285Y6759142D01*
X1521428Y6802000D01*
X1435714Y6844857D01*
X1264285Y6844857D01*
X1178571Y6802000D01*
X792857Y6244857D02*
X792857Y7144857D01*
X407142Y6244857D02*
X407142Y6716285D01*
X450000Y6802000D01*
X535714Y6844857D01*
X664285Y6844857D01*
X750000Y6802000D01*
X792857Y6759142D01*
X107142Y6844857D02*
X-235714Y6844857D01*
X-21428Y7144857D02*
X-21428Y6373428D01*
X-64285Y6287714D01*
X-149999Y6244857D01*
X-235714Y6244857D01*
X-878571Y6287714D02*
X-792857Y6244857D01*
X-621428Y6244857D01*
X-535714Y6287714D01*
X-492857Y6373428D01*
X-492857Y6716285D01*
X-535714Y6802000D01*
X-621428Y6844857D01*
X-792857Y6844857D01*
X-878571Y6802000D01*
X-921428Y6716285D01*
X-921428Y6630571D01*
X-492857Y6544857D01*
X-1307142Y6244857D02*
X-1307142Y6844857D01*
X-1307142Y6673428D02*
X-1349999Y6759142D01*
X-1392857Y6802000D01*
X-1478571Y6844857D01*
X-1564285Y6844857D01*
X-1864285Y6244857D02*
X-1864285Y7144857D01*
X-1864285Y6802000D02*
X-1949999Y6844857D01*
X-2121428Y6844857D01*
X-2207142Y6802000D01*
X-2249999Y6759142D01*
X-2292857Y6673428D01*
X-2292857Y6416285D01*
X-2249999Y6330571D01*
X-2207142Y6287714D01*
X-2121428Y6244857D01*
X-1949999Y6244857D01*
X-1864285Y6287714D01*
X-3064285Y6244857D02*
X-3064285Y6716285D01*
X-3021428Y6802000D01*
X-2935714Y6844857D01*
X-2764285Y6844857D01*
X-2678571Y6802000D01*
X-3064285Y6287714D02*
X-2978571Y6244857D01*
X-2764285Y6244857D01*
X-2678571Y6287714D01*
X-2635714Y6373428D01*
X-2635714Y6459142D01*
X-2678571Y6544857D01*
X-2764285Y6587714D01*
X-2978571Y6587714D01*
X-3064285Y6630571D01*
X-3492857Y6244857D02*
X-3492857Y7144857D01*
X-3878571Y6244857D02*
X-3878571Y6716285D01*
X-3835714Y6802000D01*
X-3749999Y6844857D01*
X-3621428Y6844857D01*
X-3535714Y6802000D01*
X-3492857Y6759142D01*
X-4307142Y6844857D02*
X-4307142Y6244857D01*
X-4307142Y6759142D02*
X-4349999Y6802000D01*
X-4435714Y6844857D01*
X-4564285Y6844857D01*
X-4649999Y6802000D01*
X-4692857Y6716285D01*
X-4692857Y6244857D01*
X-5764285Y7187714D02*
X-4992857Y6030571D01*
X6214285Y4795857D02*
X6214285Y5695857D01*
X5914285Y5053000D01*
X5614285Y5695857D01*
X5614285Y4795857D01*
X4800000Y4795857D02*
X4800000Y5267285D01*
X4842857Y5353000D01*
X4928571Y5395857D01*
X5100000Y5395857D01*
X5185714Y5353000D01*
X4800000Y4838714D02*
X4885714Y4795857D01*
X5100000Y4795857D01*
X5185714Y4838714D01*
X5228571Y4924428D01*
X5228571Y5010142D01*
X5185714Y5095857D01*
X5100000Y5138714D01*
X4885714Y5138714D01*
X4800000Y5181571D01*
X4500000Y5395857D02*
X4157142Y5395857D01*
X4371428Y5695857D02*
X4371428Y4924428D01*
X4328571Y4838714D01*
X4242857Y4795857D01*
X4157142Y4795857D01*
X3514285Y4838714D02*
X3600000Y4795857D01*
X3771428Y4795857D01*
X3857142Y4838714D01*
X3900000Y4924428D01*
X3900000Y5267285D01*
X3857142Y5353000D01*
X3771428Y5395857D01*
X3600000Y5395857D01*
X3514285Y5353000D01*
X3471428Y5267285D01*
X3471428Y5181571D01*
X3900000Y5095857D01*
X2657142Y4795857D02*
X3085714Y4795857D01*
X3085714Y5695857D01*
X2357142Y4795857D02*
X2357142Y5395857D01*
X2357142Y5695857D02*
X2400000Y5653000D01*
X2357142Y5610142D01*
X2314285Y5653000D01*
X2357142Y5695857D01*
X2357142Y5610142D01*
X1542857Y5395857D02*
X1542857Y4667285D01*
X1585714Y4581571D01*
X1628571Y4538714D01*
X1714285Y4495857D01*
X1842857Y4495857D01*
X1928571Y4538714D01*
X1542857Y4838714D02*
X1628571Y4795857D01*
X1799999Y4795857D01*
X1885714Y4838714D01*
X1928571Y4881571D01*
X1971428Y4967285D01*
X1971428Y5224428D01*
X1928571Y5310142D01*
X1885714Y5353000D01*
X1799999Y5395857D01*
X1628571Y5395857D01*
X1542857Y5353000D01*
X1114285Y4795857D02*
X1114285Y5695857D01*
X728571Y4795857D02*
X728571Y5267285D01*
X771428Y5353000D01*
X857142Y5395857D01*
X985714Y5395857D01*
X1071428Y5353000D01*
X1114285Y5310142D01*
X428571Y5395857D02*
X85714Y5395857D01*
X299999Y5695857D02*
X299999Y4924428D01*
X257142Y4838714D01*
X171428Y4795857D01*
X85714Y4795857D01*
X-171428Y4838714D02*
X-300000Y4795857D01*
X-514285Y4795857D01*
X-600000Y4838714D01*
X-642857Y4881571D01*
X-685714Y4967285D01*
X-685714Y5053000D01*
X-642857Y5138714D01*
X-600000Y5181571D01*
X-514285Y5224428D01*
X-342857Y5267285D01*
X-257142Y5310142D01*
X-214285Y5353000D01*
X-171428Y5438714D01*
X-171428Y5524428D01*
X-214285Y5610142D01*
X-257142Y5653000D01*
X-342857Y5695857D01*
X-557142Y5695857D01*
X-685714Y5653000D01*
X-1457142Y4838714D02*
X-1371428Y4795857D01*
X-1200000Y4795857D01*
X-1114285Y4838714D01*
X-1071428Y4881571D01*
X-1028571Y4967285D01*
X-1028571Y5224428D01*
X-1071428Y5310142D01*
X-1114285Y5353000D01*
X-1200000Y5395857D01*
X-1371428Y5395857D01*
X-1457142Y5353000D01*
X-1842857Y4795857D02*
X-1842857Y5395857D01*
X-1842857Y5224428D02*
X-1885714Y5310142D01*
X-1928571Y5353000D01*
X-2014285Y5395857D01*
X-2100000Y5395857D01*
X-2742857Y4838714D02*
X-2657142Y4795857D01*
X-2485714Y4795857D01*
X-2400000Y4838714D01*
X-2357142Y4924428D01*
X-2357142Y5267285D01*
X-2400000Y5353000D01*
X-2485714Y5395857D01*
X-2657142Y5395857D01*
X-2742857Y5353000D01*
X-2785714Y5267285D01*
X-2785714Y5181571D01*
X-2357142Y5095857D01*
X-3085714Y5395857D02*
X-3257142Y4795857D01*
X-3428571Y5224428D01*
X-3600000Y4795857D01*
X-3771428Y5395857D01*
X-4628571Y4881571D02*
X-4585714Y4838714D01*
X-4457142Y4795857D01*
X-4371428Y4795857D01*
X-4242857Y4838714D01*
X-4157142Y4924428D01*
X-4114285Y5010142D01*
X-4071428Y5181571D01*
X-4071428Y5310142D01*
X-4114285Y5481571D01*
X-4157142Y5567285D01*
X-4242857Y5653000D01*
X-4371428Y5695857D01*
X-4457142Y5695857D01*
X-4585714Y5653000D01*
X-4628571Y5610142D01*
X-5400000Y4795857D02*
X-5400000Y5267285D01*
X-5357142Y5353000D01*
X-5271428Y5395857D01*
X-5100000Y5395857D01*
X-5014285Y5353000D01*
X-5400000Y4838714D02*
X-5314285Y4795857D01*
X-5100000Y4795857D01*
X-5014285Y4838714D01*
X-4971428Y4924428D01*
X-4971428Y5010142D01*
X-5014285Y5095857D01*
X-5100000Y5138714D01*
X-5314285Y5138714D01*
X-5400000Y5181571D01*
X-5828571Y5395857D02*
X-5828571Y4495857D01*
X-5828571Y5353000D02*
X-5914285Y5395857D01*
X-6085714Y5395857D01*
X-6171428Y5353000D01*
X-6214285Y5310142D01*
X-6257142Y5224428D01*
X-6257142Y4967285D01*
X-6214285Y4881571D01*
X-6171428Y4838714D01*
X-6085714Y4795857D01*
X-5914285Y4795857D01*
X-5828571Y4838714D01*
D11*
%TO.C,LD1*%
X5994638Y1095238D02*
X6447019Y1095238D01*
X6447019Y2045238D01*
X5677971Y1095238D02*
X5677971Y2045238D01*
X5451780Y2045238D01*
X5316066Y2000000D01*
X5225590Y1909523D01*
X5180352Y1819047D01*
X5135114Y1638095D01*
X5135114Y1502380D01*
X5180352Y1321428D01*
X5225590Y1230952D01*
X5316066Y1140476D01*
X5451780Y1095238D01*
X5677971Y1095238D01*
X4230352Y1095238D02*
X4773209Y1095238D01*
X4501780Y1095238D02*
X4501780Y2045238D01*
X4592257Y1909523D01*
X4682733Y1819047D01*
X4773209Y1773809D01*
D12*
X-2500000Y2500000D02*
X2500000Y2500000D01*
X2500000Y-2500000D02*
X-2500000Y-2500000D01*
X2500000Y-600000D02*
X2500000Y-1200000D01*
X-2500000Y600000D02*
X-2500000Y1200000D01*
X2500000Y1200000D02*
X2500000Y600000D01*
X-2500000Y-1200000D02*
X-2500000Y-600000D01*
X1250000Y0D02*
G75*
G03*
X0Y1250000I-1250002J-2D01*
G01*
X0Y1250000D02*
G75*
G03*
X-1250000Y0I2J-1250002D01*
G01*
X0Y-1250000D02*
G75*
G03*
X1250000Y0I-2J1250002D01*
G01*
X-1250000Y0D02*
G75*
G03*
X0Y-1250000I1250002J2D01*
G01*
D13*
X-1900000Y-3000000D02*
G75*
G03*
X-1900000Y-3000000I-100000J0D01*
G01*
%TD*%
M02*
