  0
SECTION
  2
HEADER
  9
$ANGBASE
  50
0.0
  9
$ANGDIR
  70
1
  9
$MEASUREMENT
  70
1
  0
ENDSEC
  0
SECTION
  2
TABLES
  0
TABLE
  2
LTYPE
  70
4
  0
LTYPE
  5
40F
  2
CONTINUOUS
  70
0
  3
Solid line
  72
65
  73
0
  40
0.0
  0
LTYPE
  5
410
  2
DASHDOT
 70
0
  3
Dash Dot ____ _ ____ _
 72
65
 73
4
 40
2.0
 49
1.25
 49
-0.25
 49
0.25
 49
-0.25
  0
LTYPE
  5
411
  2
DASHED
 70
0
  3
Dashed __ __ __ __ __
 72
65
 73
2
 40
0.75
 49
0.5
 49
-0.25
  0
LTYPE
  5
43B
  2
DOTTED
 70
0
  3
Dotted .  .  .  .
 72
65
 73
2
 40
0.2
 49
0.0
 49
-0.2
  0
ENDTAB
  0
TABLE
  2
STYLE
  70
4
  0
STYLE
  2
KICAD
  70
0
  40
0
  41
1
  42
1
  50
0
  71
0
  3
isocp.shx
  0
STYLE
  2
KICADB
  70
0
  40
0
  41
1
  42
1
  50
0
  71
0
  3
isocp.shx
  0
STYLE
  2
KICADI
  70
0
  40
0
  41
1
  42
1
  50
15
  71
0
  3
isocp.shx
  0
STYLE
  2
KICADBI
  70
0
  40
0
  41
1
  42
1
  50
15
  71
0
  3
isocp.shx
  0
ENDTAB
  0
TABLE
  2
LAYER
  70
1
  0
LAYER
  2
BLACK
  70
0
  62
7
  6
CONTINUOUS
  0
ENDTAB
  0
ENDSEC
  0
SECTION
  2
ENTITIES
0
LINE
8
BLACK
6
CONTINUOUS
10
-5.84992
20
-1.94932
11
-5.83746
21
-1.83874
0
LINE
8
BLACK
6
CONTINUOUS
10
-5.83746
20
-1.83874
11
-5.80048
21
-1.73306
0
LINE
8
BLACK
6
CONTINUOUS
10
-5.80048
20
-1.73306
11
-5.74092
21
-1.63826
0
LINE
8
BLACK
6
CONTINUOUS
10
-5.74092
20
-1.63826
11
-5.66174
21
-1.55908
0
LINE
8
BLACK
6
CONTINUOUS
10
-5.66174
20
-1.55908
11
-5.56694
21
-1.49952
0
LINE
8
BLACK
6
CONTINUOUS
10
-5.56694
20
-1.49952
11
-5.46126
21
-1.46254
0
LINE
8
BLACK
6
CONTINUOUS
10
-5.46126
20
-1.46254
11
-5.35
21
-1.45
0
LINE
8
BLACK
6
CONTINUOUS
10
-5.35
20
-1.45
11
-3.25
21
-1.45
0
LINE
8
BLACK
6
CONTINUOUS
10
-3.25
20
-1.45
11
-3.25
21
-1.15
0
LINE
8
BLACK
6
CONTINUOUS
10
-3.25
20
-1.15
11
-1.65
21
-1.15
0
LINE
8
BLACK
6
CONTINUOUS
10
-1.65
20
-1.15
11
-1.65
21
-2.15
0
LINE
8
BLACK
6
CONTINUOUS
10
-1.65
20
-2.15
11
-3.25
21
-2.15
0
LINE
8
BLACK
6
CONTINUOUS
10
-3.25
20
-2.15
11
-3.25
21
-1.85
0
LINE
8
BLACK
6
CONTINUOUS
10
-3.25
20
-1.85
11
-5.35035
21
-1.85
0
LINE
8
BLACK
6
CONTINUOUS
10
-5.35035
20
-1.85
11
-5.35725
21
-1.84841
0
LINE
8
BLACK
6
CONTINUOUS
10
-5.35725
20
-1.84841
11
-5.40176
21
-1.86034
0
LINE
8
BLACK
6
CONTINUOUS
10
-5.40176
20
-1.86034
11
-5.43966
21
-1.89824
0
LINE
8
BLACK
6
CONTINUOUS
10
-5.43966
20
-1.89824
11
-5.45162
21
-1.94289
0
LINE
8
BLACK
6
CONTINUOUS
10
-5.45162
20
-1.94289
11
-5.45
21
-1.95
0
LINE
8
BLACK
6
CONTINUOUS
10
-5.45
20
-1.95
11
-5.45
21
-2.26335
0
LINE
8
BLACK
6
CONTINUOUS
10
-5.45
20
-2.26335
11
-5.45
21
-2.26405
0
LINE
8
BLACK
6
CONTINUOUS
10
-5.45
20
-2.26405
11
-5.45015
21
-2.2647
0
LINE
8
BLACK
6
CONTINUOUS
10
-5.45015
20
-2.2647
11
-5.46254
21
-2.37461
0
LINE
8
BLACK
6
CONTINUOUS
10
-5.46254
20
-2.37461
11
-5.49952
21
-2.48029
0
LINE
8
BLACK
6
CONTINUOUS
10
-5.49952
20
-2.48029
11
-5.55908
21
-2.5751
0
LINE
8
BLACK
6
CONTINUOUS
10
-5.55908
20
-2.5751
11
-5.63826
21
-2.65427
0
LINE
8
BLACK
6
CONTINUOUS
10
-5.63826
20
-2.65427
11
-5.73306
21
-2.71384
0
LINE
8
BLACK
6
CONTINUOUS
10
-5.73306
20
-2.71384
11
-5.83874
21
-2.75082
0
LINE
8
BLACK
6
CONTINUOUS
10
-5.83874
20
-2.75082
11
-5.95
21
-2.76335
0
LINE
8
BLACK
6
CONTINUOUS
10
-5.95
20
-2.76335
11
-5.9507
21
-2.76335
0
LINE
8
BLACK
6
CONTINUOUS
10
-5.9507
20
-2.76335
11
-5.95135
21
-2.7632
0
LINE
8
BLACK
6
CONTINUOUS
10
-5.95135
20
-2.7632
11
-6.06126
21
-2.75082
0
LINE
8
BLACK
6
CONTINUOUS
10
-6.06126
20
-2.75082
11
-6.16694
21
-2.71384
0
LINE
8
BLACK
6
CONTINUOUS
10
-6.16694
20
-2.71384
11
-6.26174
21
-2.65427
0
LINE
8
BLACK
6
CONTINUOUS
10
-6.26174
20
-2.65427
11
-6.34092
21
-2.5751
0
LINE
8
BLACK
6
CONTINUOUS
10
-6.34092
20
-2.5751
11
-6.40048
21
-2.48029
0
LINE
8
BLACK
6
CONTINUOUS
10
-6.40048
20
-2.48029
11
-6.43746
21
-2.37461
0
LINE
8
BLACK
6
CONTINUOUS
10
-6.43746
20
-2.37461
11
-6.45
21
-2.26335
0
LINE
8
BLACK
6
CONTINUOUS
10
-6.45
20
-2.26335
11
-6.45
21
-1.94965
0
LINE
8
BLACK
6
CONTINUOUS
10
-6.45
20
-1.94965
11
-6.44841
21
-1.94275
0
LINE
8
BLACK
6
CONTINUOUS
10
-6.44841
20
-1.94275
11
-6.46034
21
-1.89824
0
LINE
8
BLACK
6
CONTINUOUS
10
-6.46034
20
-1.89824
11
-6.49824
21
-1.86034
0
LINE
8
BLACK
6
CONTINUOUS
10
-6.49824
20
-1.86034
11
-6.54289
21
-1.84838
0
LINE
8
BLACK
6
CONTINUOUS
10
-6.54289
20
-1.84838
11
-6.55
21
-1.85
0
LINE
8
BLACK
6
CONTINUOUS
10
-6.55
20
-1.85
11
-7.25035
21
-1.85
0
LINE
8
BLACK
6
CONTINUOUS
10
-7.25035
20
-1.85
11
-7.28291
21
-1.84251
0
LINE
8
BLACK
6
CONTINUOUS
10
-7.28291
20
-1.84251
11
-7.3161
21
-1.83876
0
LINE
8
BLACK
6
CONTINUOUS
10
-7.3161
20
-1.83876
11
-7.32584
21
-1.83264
0
LINE
8
BLACK
6
CONTINUOUS
10
-7.32584
20
-1.83264
11
-7.33705
21
-1.83006
0
LINE
8
BLACK
6
CONTINUOUS
10
-7.33705
20
-1.83006
11
-7.36314
21
-1.8092
0
LINE
8
BLACK
6
CONTINUOUS
10
-7.36314
20
-1.8092
11
-7.39142
21
-1.79142
0
LINE
8
BLACK
6
CONTINUOUS
10
-7.39142
20
-1.79142
11
-7.59886
21
-1.58398
0
LINE
8
BLACK
6
CONTINUOUS
10
-7.59886
20
-1.58398
11
-7.7
21
-1.6
0
LINE
8
BLACK
6
CONTINUOUS
10
-7.7
20
-1.6
11
-7.82361
21
-1.58042
0
LINE
8
BLACK
6
CONTINUOUS
10
-7.82361
20
-1.58042
11
-7.93511
21
-1.52361
0
LINE
8
BLACK
6
CONTINUOUS
10
-7.93511
20
-1.52361
11
-8.02361
21
-1.43511
0
LINE
8
BLACK
6
CONTINUOUS
10
-8.02361
20
-1.43511
11
-8.08042
21
-1.32361
0
LINE
8
BLACK
6
CONTINUOUS
10
-8.08042
20
-1.32361
11
-8.1
21
-1.2
0
LINE
8
BLACK
6
CONTINUOUS
10
-8.1
20
-1.2
11
-8.08042
21
-1.07639
0
LINE
8
BLACK
6
CONTINUOUS
10
-8.08042
20
-1.07639
11
-8.02361
21
-0.964886
0
LINE
8
BLACK
6
CONTINUOUS
10
-8.02361
20
-0.964886
11
-7.93511
21
-0.876393
0
LINE
8
BLACK
6
CONTINUOUS
10
-7.93511
20
-0.876393
11
-7.82361
21
-0.819577
0
LINE
8
BLACK
6
CONTINUOUS
10
-7.82361
20
-0.819577
11
-7.7
21
-0.8
0
LINE
8
BLACK
6
CONTINUOUS
10
-7.7
20
-0.8
11
-7.57639
21
-0.819577
0
LINE
8
BLACK
6
CONTINUOUS
10
-7.57639
20
-0.819577
11
-7.46489
21
-0.876393
0
LINE
8
BLACK
6
CONTINUOUS
10
-7.46489
20
-0.876393
11
-7.37639
21
-0.964886
0
LINE
8
BLACK
6
CONTINUOUS
10
-7.37639
20
-0.964886
11
-7.31958
21
-1.07639
0
LINE
8
BLACK
6
CONTINUOUS
10
-7.31958
20
-1.07639
11
-7.3
21
-1.2
0
LINE
8
BLACK
6
CONTINUOUS
10
-7.3
20
-1.2
11
-7.31602
21
-1.30114
0
LINE
8
BLACK
6
CONTINUOUS
10
-7.31602
20
-1.30114
11
-7.16716
21
-1.45
0
LINE
8
BLACK
6
CONTINUOUS
10
-7.16716
20
-1.45
11
-6.54965
21
-1.45
0
LINE
8
BLACK
6
CONTINUOUS
10
-6.54965
20
-1.45
11
-6.54965
21
-1.45
0
LINE
8
BLACK
6
CONTINUOUS
10
-6.54965
20
-1.45
11
-6.5493
21
-1.45
0
LINE
8
BLACK
6
CONTINUOUS
10
-6.5493
20
-1.45
11
-6.54865
21
-1.45015
0
LINE
8
BLACK
6
CONTINUOUS
10
-6.54865
20
-1.45015
11
-6.43874
21
-1.46254
0
LINE
8
BLACK
6
CONTINUOUS
10
-6.43874
20
-1.46254
11
-6.33306
21
-1.49952
0
LINE
8
BLACK
6
CONTINUOUS
10
-6.33306
20
-1.49952
11
-6.23825
21
-1.55908
0
LINE
8
BLACK
6
CONTINUOUS
10
-6.23825
20
-1.55908
11
-6.15908
21
-1.63826
0
LINE
8
BLACK
6
CONTINUOUS
10
-6.15908
20
-1.63826
11
-6.09952
21
-1.73306
0
LINE
8
BLACK
6
CONTINUOUS
10
-6.09952
20
-1.73306
11
-6.06254
21
-1.83874
0
LINE
8
BLACK
6
CONTINUOUS
10
-6.06254
20
-1.83874
11
-6.05
21
-1.95
0
LINE
8
BLACK
6
CONTINUOUS
10
-6.05
20
-1.95
11
-6.05
21
-2.26335
0
LINE
8
BLACK
6
CONTINUOUS
10
-6.05
20
-2.26335
11
-6.05
21
-2.26405
0
LINE
8
BLACK
6
CONTINUOUS
10
-6.05
20
-2.26405
11
-6.05155
21
-2.27073
0
LINE
8
BLACK
6
CONTINUOUS
10
-6.05155
20
-2.27073
11
-6.03966
21
-2.31512
0
LINE
8
BLACK
6
CONTINUOUS
10
-6.03966
20
-2.31512
11
-6.00176
21
-2.35301
0
LINE
8
BLACK
6
CONTINUOUS
10
-6.00176
20
-2.35301
11
-5.95698
21
-2.36501
0
LINE
8
BLACK
6
CONTINUOUS
10
-5.95698
20
-2.36501
11
-5.94965
21
-2.36335
0
LINE
8
BLACK
6
CONTINUOUS
10
-5.94965
20
-2.36335
11
-5.94275
21
-2.36494
0
LINE
8
BLACK
6
CONTINUOUS
10
-5.94275
20
-2.36494
11
-5.89824
21
-2.35301
0
LINE
8
BLACK
6
CONTINUOUS
10
-5.89824
20
-2.35301
11
-5.86034
21
-2.31512
0
LINE
8
BLACK
6
CONTINUOUS
10
-5.86034
20
-2.31512
11
-5.84838
21
-2.27046
0
LINE
8
BLACK
6
CONTINUOUS
10
-5.84838
20
-2.27046
11
-5.85
21
-2.26335
0
LINE
8
BLACK
6
CONTINUOUS
10
-5.85
20
-2.26335
11
-5.85
21
-1.94965
0
LINE
8
BLACK
6
CONTINUOUS
10
-5.85
20
-1.94965
11
-5.84992
21
-1.94932
0
LINE
8
BLACK
6
CONTINUOUS
10
6.49824
20
-1.86034
11
6.46034
21
-1.89824
0
LINE
8
BLACK
6
CONTINUOUS
10
6.46034
20
-1.89824
11
6.44838
21
-1.94289
0
LINE
8
BLACK
6
CONTINUOUS
10
6.44838
20
-1.94289
11
6.45
21
-1.95
0
LINE
8
BLACK
6
CONTINUOUS
10
6.45
20
-1.95
11
6.45
21
-2.16993
0
LINE
8
BLACK
6
CONTINUOUS
10
6.45
20
-2.16993
11
6.45
21
-2.17062
0
LINE
8
BLACK
6
CONTINUOUS
10
6.45
20
-2.17062
11
6.44985
21
-2.17128
0
LINE
8
BLACK
6
CONTINUOUS
10
6.44985
20
-2.17128
11
6.43746
21
-2.28118
0
LINE
8
BLACK
6
CONTINUOUS
10
6.43746
20
-2.28118
11
6.40048
21
-2.38686
0
LINE
8
BLACK
6
CONTINUOUS
10
6.40048
20
-2.38686
11
6.34091
21
-2.48166
0
LINE
8
BLACK
6
CONTINUOUS
10
6.34091
20
-2.48166
11
6.26174
21
-2.56082
0
LINE
8
BLACK
6
CONTINUOUS
10
6.26174
20
-2.56082
11
6.16693
21
-2.62039
0
LINE
8
BLACK
6
CONTINUOUS
10
6.16693
20
-2.62039
11
6.06126
21
-2.65736
0
LINE
8
BLACK
6
CONTINUOUS
10
6.06126
20
-2.65736
11
5.95014
21
-2.66988
0
LINE
8
BLACK
6
CONTINUOUS
10
5.95014
20
-2.66988
11
5.95
21
-2.66992
0
LINE
8
BLACK
6
CONTINUOUS
10
5.95
20
-2.66992
11
5.9493
21
-2.66992
0
LINE
8
BLACK
6
CONTINUOUS
10
5.9493
20
-2.66992
11
5.94865
21
-2.66976
0
LINE
8
BLACK
6
CONTINUOUS
10
5.94865
20
-2.66976
11
5.83874
21
-2.65738
0
LINE
8
BLACK
6
CONTINUOUS
10
5.83874
20
-2.65738
11
5.73306
21
-2.6204
0
LINE
8
BLACK
6
CONTINUOUS
10
5.73306
20
-2.6204
11
5.63825
21
-2.56083
0
LINE
8
BLACK
6
CONTINUOUS
10
5.63825
20
-2.56083
11
5.55908
21
-2.48167
0
LINE
8
BLACK
6
CONTINUOUS
10
5.55908
20
-2.48167
11
5.49951
21
-2.38687
0
LINE
8
BLACK
6
CONTINUOUS
10
5.49951
20
-2.38687
11
5.46253
21
-2.28119
0
LINE
8
BLACK
6
CONTINUOUS
10
5.46253
20
-2.28119
11
5.44998
21
-2.16993
0
LINE
8
BLACK
6
CONTINUOUS
10
5.44998
20
-2.16993
11
5.45
21
-2.16993
0
LINE
8
BLACK
6
CONTINUOUS
10
5.45
20
-2.16993
11
5.45
21
-1.94965
0
LINE
8
BLACK
6
CONTINUOUS
10
5.45
20
-1.94965
11
5.45159
21
-1.94275
0
LINE
8
BLACK
6
CONTINUOUS
10
5.45159
20
-1.94275
11
5.43966
21
-1.89824
0
LINE
8
BLACK
6
CONTINUOUS
10
5.43966
20
-1.89824
11
5.40176
21
-1.86034
0
LINE
8
BLACK
6
CONTINUOUS
10
5.40176
20
-1.86034
11
5.35711
21
-1.84838
0
LINE
8
BLACK
6
CONTINUOUS
10
5.35711
20
-1.84838
11
5.35
21
-1.85
0
LINE
8
BLACK
6
CONTINUOUS
10
5.35
20
-1.85
11
3.25
21
-1.85
0
LINE
8
BLACK
6
CONTINUOUS
10
3.25
20
-1.85
11
3.25
21
-2.15
0
LINE
8
BLACK
6
CONTINUOUS
10
3.25
20
-2.15
11
1.65
21
-2.15
0
LINE
8
BLACK
6
CONTINUOUS
10
1.65
20
-2.15
11
1.65
21
-1.15
0
LINE
8
BLACK
6
CONTINUOUS
10
1.65
20
-1.15
11
3.25
21
-1.15
0
LINE
8
BLACK
6
CONTINUOUS
10
3.25
20
-1.15
11
3.25
21
-1.45
0
LINE
8
BLACK
6
CONTINUOUS
10
3.25
20
-1.45
11
5.35035
21
-1.45
0
LINE
8
BLACK
6
CONTINUOUS
10
5.35035
20
-1.45
11
5.35035
21
-1.45
0
LINE
8
BLACK
6
CONTINUOUS
10
5.35035
20
-1.45
11
5.3507
21
-1.45
0
LINE
8
BLACK
6
CONTINUOUS
10
5.3507
20
-1.45
11
5.35135
21
-1.45015
0
LINE
8
BLACK
6
CONTINUOUS
10
5.35135
20
-1.45015
11
5.46126
21
-1.46254
0
LINE
8
BLACK
6
CONTINUOUS
10
5.46126
20
-1.46254
11
5.56694
21
-1.49952
0
LINE
8
BLACK
6
CONTINUOUS
10
5.56694
20
-1.49952
11
5.66174
21
-1.55908
0
LINE
8
BLACK
6
CONTINUOUS
10
5.66174
20
-1.55908
11
5.74092
21
-1.63826
0
LINE
8
BLACK
6
CONTINUOUS
10
5.74092
20
-1.63826
11
5.80048
21
-1.73306
0
LINE
8
BLACK
6
CONTINUOUS
10
5.80048
20
-1.73306
11
5.83746
21
-1.83874
0
LINE
8
BLACK
6
CONTINUOUS
10
5.83746
20
-1.83874
11
5.85
21
-1.95
0
LINE
8
BLACK
6
CONTINUOUS
10
5.85
20
-1.95
11
5.85
21
-2.17027
0
LINE
8
BLACK
6
CONTINUOUS
10
5.85
20
-2.17027
11
5.84841
21
-2.17719
0
LINE
8
BLACK
6
CONTINUOUS
10
5.84841
20
-2.17719
11
5.86033
21
-2.22167
0
LINE
8
BLACK
6
CONTINUOUS
10
5.86033
20
-2.22167
11
5.89823
21
-2.25957
0
LINE
8
BLACK
6
CONTINUOUS
10
5.89823
20
-2.25957
11
5.94302
21
-2.27157
0
LINE
8
BLACK
6
CONTINUOUS
10
5.94302
20
-2.27157
11
5.95035
21
-2.26992
0
LINE
8
BLACK
6
CONTINUOUS
10
5.95035
20
-2.26992
11
5.95721
21
-2.27149
0
LINE
8
BLACK
6
CONTINUOUS
10
5.95721
20
-2.27149
11
6.00176
21
-2.25956
0
LINE
8
BLACK
6
CONTINUOUS
10
6.00176
20
-2.25956
11
6.03966
21
-2.22167
0
LINE
8
BLACK
6
CONTINUOUS
10
6.03966
20
-2.22167
11
6.05162
21
-2.17702
0
LINE
8
BLACK
6
CONTINUOUS
10
6.05162
20
-2.17702
11
6.05
21
-2.16992
0
LINE
8
BLACK
6
CONTINUOUS
10
6.05
20
-2.16992
11
6.05
21
-1.94965
0
LINE
8
BLACK
6
CONTINUOUS
10
6.05
20
-1.94965
11
6.05008
21
-1.94932
0
LINE
8
BLACK
6
CONTINUOUS
10
6.05008
20
-1.94932
11
6.06254
21
-1.83874
0
LINE
8
BLACK
6
CONTINUOUS
10
6.06254
20
-1.83874
11
6.09952
21
-1.73306
0
LINE
8
BLACK
6
CONTINUOUS
10
6.09952
20
-1.73306
11
6.15908
21
-1.63826
0
LINE
8
BLACK
6
CONTINUOUS
10
6.15908
20
-1.63826
11
6.23825
21
-1.55908
0
LINE
8
BLACK
6
CONTINUOUS
10
6.23825
20
-1.55908
11
6.33306
21
-1.49952
0
LINE
8
BLACK
6
CONTINUOUS
10
6.33306
20
-1.49952
11
6.43874
21
-1.46254
0
LINE
8
BLACK
6
CONTINUOUS
10
6.43874
20
-1.46254
11
6.55
21
-1.45
0
LINE
8
BLACK
6
CONTINUOUS
10
6.55
20
-1.45
11
7.76716
21
-1.45
0
LINE
8
BLACK
6
CONTINUOUS
10
7.76716
20
-1.45
11
8.01602
21
-1.20114
0
LINE
8
BLACK
6
CONTINUOUS
10
8.01602
20
-1.20114
11
8
21
-1.1
0
LINE
8
BLACK
6
CONTINUOUS
10
8
20
-1.1
11
8.01958
21
-0.976393
0
LINE
8
BLACK
6
CONTINUOUS
10
8.01958
20
-0.976393
11
8.07639
21
-0.864886
0
LINE
8
BLACK
6
CONTINUOUS
10
8.07639
20
-0.864886
11
8.16489
21
-0.776393
0
LINE
8
BLACK
6
CONTINUOUS
10
8.16489
20
-0.776393
11
8.27639
21
-0.719577
0
LINE
8
BLACK
6
CONTINUOUS
10
8.27639
20
-0.719577
11
8.4
21
-0.7
0
LINE
8
BLACK
6
CONTINUOUS
10
8.4
20
-0.7
11
8.52361
21
-0.719577
0
LINE
8
BLACK
6
CONTINUOUS
10
8.52361
20
-0.719577
11
8.63511
21
-0.776393
0
LINE
8
BLACK
6
CONTINUOUS
10
8.63511
20
-0.776393
11
8.72361
21
-0.864886
0
LINE
8
BLACK
6
CONTINUOUS
10
8.72361
20
-0.864886
11
8.78042
21
-0.976393
0
LINE
8
BLACK
6
CONTINUOUS
10
8.78042
20
-0.976393
11
8.8
21
-1.1
0
LINE
8
BLACK
6
CONTINUOUS
10
8.8
20
-1.1
11
8.78042
21
-1.22361
0
LINE
8
BLACK
6
CONTINUOUS
10
8.78042
20
-1.22361
11
8.72361
21
-1.33511
0
LINE
8
BLACK
6
CONTINUOUS
10
8.72361
20
-1.33511
11
8.63511
21
-1.42361
0
LINE
8
BLACK
6
CONTINUOUS
10
8.63511
20
-1.42361
11
8.52361
21
-1.48042
0
LINE
8
BLACK
6
CONTINUOUS
10
8.52361
20
-1.48042
11
8.4
21
-1.5
0
LINE
8
BLACK
6
CONTINUOUS
10
8.4
20
-1.5
11
8.29886
21
-1.48398
0
LINE
8
BLACK
6
CONTINUOUS
10
8.29886
20
-1.48398
11
7.99117
21
-1.79167
0
LINE
8
BLACK
6
CONTINUOUS
10
7.99117
20
-1.79167
11
7.96286
21
-1.8094
0
LINE
8
BLACK
6
CONTINUOUS
10
7.96286
20
-1.8094
11
7.93673
21
-1.83021
0
LINE
8
BLACK
6
CONTINUOUS
10
7.93673
20
-1.83021
11
7.92552
21
-1.83277
0
LINE
8
BLACK
6
CONTINUOUS
10
7.92552
20
-1.83277
11
7.91577
21
-1.83887
0
LINE
8
BLACK
6
CONTINUOUS
10
7.91577
20
-1.83887
11
7.88257
21
-1.84257
0
LINE
8
BLACK
6
CONTINUOUS
10
7.88257
20
-1.84257
11
7.85
21
-1.85
0
LINE
8
BLACK
6
CONTINUOUS
10
7.85
20
-1.85
11
6.54965
21
-1.85
0
LINE
8
BLACK
6
CONTINUOUS
10
6.54965
20
-1.85
11
6.54275
21
-1.84841
0
LINE
8
BLACK
6
CONTINUOUS
10
6.54275
20
-1.84841
11
6.49824
21
-1.86034
0
LINE
8
BLACK
6
CONTINUOUS
10
6.8
20
-0.50683
11
6.8
21
-0.50684
0
LINE
8
BLACK
6
CONTINUOUS
10
6.8
20
-0.50684
11
6.79843
21
-0.513679
0
LINE
8
BLACK
6
CONTINUOUS
10
6.79843
20
-0.513679
11
6.81036
21
-0.558244
0
LINE
8
BLACK
6
CONTINUOUS
10
6.81036
20
-0.558244
11
6.84825
21
-0.596131
0
LINE
8
BLACK
6
CONTINUOUS
10
6.84825
20
-0.596131
11
6.89302
21
-0.60813
0
LINE
8
BLACK
6
CONTINUOUS
10
6.89302
20
-0.60813
11
6.90035
21
-0.606472
0
LINE
8
BLACK
6
CONTINUOUS
10
6.90035
20
-0.606472
11
6.9073
21
-0.608071
0
LINE
8
BLACK
6
CONTINUOUS
10
6.9073
20
-0.608071
11
6.95177
21
-0.596156
0
LINE
8
BLACK
6
CONTINUOUS
10
6.95177
20
-0.596156
11
6.98966
21
-0.558258
0
LINE
8
BLACK
6
CONTINUOUS
10
6.98966
20
-0.558258
11
7.00162
21
-0.513596
0
LINE
8
BLACK
6
CONTINUOUS
10
7.00162
20
-0.513596
11
7
21
-0.506472
0
LINE
8
BLACK
6
CONTINUOUS
10
7
20
-0.506472
11
7
21
-0.299651
0
LINE
8
BLACK
6
CONTINUOUS
10
7
20
-0.299651
11
7.00008
21
-0.299316
0
LINE
8
BLACK
6
CONTINUOUS
10
7.00008
20
-0.299316
11
7.01254
21
-0.18874
0
LINE
8
BLACK
6
CONTINUOUS
10
7.01254
20
-0.18874
11
7.04952
21
-0.083058
0
LINE
8
BLACK
6
CONTINUOUS
10
7.04952
20
-0.083058
11
7.10908
21
0.011745
0
LINE
8
BLACK
6
CONTINUOUS
10
7.10908
20
0.011745
11
7.18825
21
0.090916
0
LINE
8
BLACK
6
CONTINUOUS
10
7.18825
20
0.090916
11
7.28306
21
0.150484
0
LINE
8
BLACK
6
CONTINUOUS
10
7.28306
20
0.150484
11
7.38874
21
0.187464
0
LINE
8
BLACK
6
CONTINUOUS
10
7.38874
20
0.187464
11
7.5
21
0.2
0
LINE
8
BLACK
6
CONTINUOUS
10
7.5
20
0.2
11
7.91716
21
0.2
0
LINE
8
BLACK
6
CONTINUOUS
10
7.91716
20
0.2
11
8.01602
21
0.298861
0
LINE
8
BLACK
6
CONTINUOUS
10
8.01602
20
0.298861
11
8
21
0.4
0
LINE
8
BLACK
6
CONTINUOUS
10
8
20
0.4
11
8.01958
21
0.523607
0
LINE
8
BLACK
6
CONTINUOUS
10
8.01958
20
0.523607
11
8.07639
21
0.635114
0
LINE
8
BLACK
6
CONTINUOUS
10
8.07639
20
0.635114
11
8.16489
21
0.723607
0
LINE
8
BLACK
6
CONTINUOUS
10
8.16489
20
0.723607
11
8.27639
21
0.780423
0
LINE
8
BLACK
6
CONTINUOUS
10
8.27639
20
0.780423
11
8.4
21
0.8
0
LINE
8
BLACK
6
CONTINUOUS
10
8.4
20
0.8
11
8.52361
21
0.780423
0
LINE
8
BLACK
6
CONTINUOUS
10
8.52361
20
0.780423
11
8.63511
21
0.723607
0
LINE
8
BLACK
6
CONTINUOUS
10
8.63511
20
0.723607
11
8.72361
21
0.635114
0
LINE
8
BLACK
6
CONTINUOUS
10
8.72361
20
0.635114
11
8.78042
21
0.523607
0
LINE
8
BLACK
6
CONTINUOUS
10
8.78042
20
0.523607
11
8.8
21
0.4
0
LINE
8
BLACK
6
CONTINUOUS
10
8.8
20
0.4
11
8.78042
21
0.276393
0
LINE
8
BLACK
6
CONTINUOUS
10
8.78042
20
0.276393
11
8.72361
21
0.164886
0
LINE
8
BLACK
6
CONTINUOUS
10
8.72361
20
0.164886
11
8.63511
21
0.076393
0
LINE
8
BLACK
6
CONTINUOUS
10
8.63511
20
0.076393
11
8.52361
21
0.019577
0
LINE
8
BLACK
6
CONTINUOUS
10
8.52361
20
0.019577
11
8.4
21
0
0
LINE
8
BLACK
6
CONTINUOUS
10
8.4
20
0
11
8.29886
21
0.016018
0
LINE
8
BLACK
6
CONTINUOUS
10
8.29886
20
0.016018
11
8.14118
21
-0.141668
0
LINE
8
BLACK
6
CONTINUOUS
10
8.14118
20
-0.141668
11
8.11286
21
-0.159398
0
LINE
8
BLACK
6
CONTINUOUS
10
8.11286
20
-0.159398
11
8.08673
21
-0.180215
0
LINE
8
BLACK
6
CONTINUOUS
10
8.08673
20
-0.180215
11
8.07552
21
-0.182772
0
LINE
8
BLACK
6
CONTINUOUS
10
8.07552
20
-0.182772
11
8.06577
21
-0.188875
0
LINE
8
BLACK
6
CONTINUOUS
10
8.06577
20
-0.188875
11
8.03257
21
-0.192571
0
LINE
8
BLACK
6
CONTINUOUS
10
8.03257
20
-0.192571
11
8
21
-0.2
0
LINE
8
BLACK
6
CONTINUOUS
10
8
20
-0.2
11
7.49965
21
-0.2
0
LINE
8
BLACK
6
CONTINUOUS
10
7.49965
20
-0.2
11
7.49275
21
-0.198414
0
LINE
8
BLACK
6
CONTINUOUS
10
7.49275
20
-0.198414
11
7.44824
21
-0.210342
0
LINE
8
BLACK
6
CONTINUOUS
10
7.44824
20
-0.210342
11
7.41034
21
-0.248236
0
LINE
8
BLACK
6
CONTINUOUS
10
7.41034
20
-0.248236
11
7.39838
21
-0.292888
0
LINE
8
BLACK
6
CONTINUOUS
10
7.39838
20
-0.292888
11
7.4
21
-0.3
0
LINE
8
BLACK
6
CONTINUOUS
10
7.4
20
-0.3
11
7.4
21
-0.506821
0
LINE
8
BLACK
6
CONTINUOUS
10
7.4
20
-0.506821
11
7.4
21
-0.506823
0
LINE
8
BLACK
6
CONTINUOUS
10
7.4
20
-0.506823
11
7.4
21
-0.507151
0
LINE
8
BLACK
6
CONTINUOUS
10
7.4
20
-0.507151
11
7.39985
21
-0.507802
0
LINE
8
BLACK
6
CONTINUOUS
10
7.39985
20
-0.507802
11
7.38747
21
-0.617721
0
LINE
8
BLACK
6
CONTINUOUS
10
7.38747
20
-0.617721
11
7.3505
21
-0.723412
0
LINE
8
BLACK
6
CONTINUOUS
10
7.3505
20
-0.723412
11
7.29093
21
-0.818224
0
LINE
8
BLACK
6
CONTINUOUS
10
7.29093
20
-0.818224
11
7.21176
21
-0.897403
0
LINE
8
BLACK
6
CONTINUOUS
10
7.21176
20
-0.897403
11
7.11695
21
-0.956979
0
LINE
8
BLACK
6
CONTINUOUS
10
7.11695
20
-0.956979
11
7.01127
21
-0.993962
0
LINE
8
BLACK
6
CONTINUOUS
10
7.01127
20
-0.993962
11
6.9
21
-1.0065
0
LINE
8
BLACK
6
CONTINUOUS
10
6.9
20
-1.0065
11
6.9
21
-1.00647
0
LINE
8
BLACK
6
CONTINUOUS
10
6.9
20
-1.00647
11
6.8993
21
-1.00647
0
LINE
8
BLACK
6
CONTINUOUS
10
6.8993
20
-1.00647
11
6.89929
21
-1.00647
0
LINE
8
BLACK
6
CONTINUOUS
10
6.89929
20
-1.00647
11
6.89865
21
-1.00632
0
LINE
8
BLACK
6
CONTINUOUS
10
6.89865
20
-1.00632
11
6.78874
21
-0.993935
0
LINE
8
BLACK
6
CONTINUOUS
10
6.78874
20
-0.993935
11
6.68306
21
-0.956953
0
LINE
8
BLACK
6
CONTINUOUS
10
6.68306
20
-0.956953
11
6.58826
21
-0.897381
0
LINE
8
BLACK
6
CONTINUOUS
10
6.58826
20
-0.897381
11
6.50909
21
-0.818207
0
LINE
8
BLACK
6
CONTINUOUS
10
6.50909
20
-0.818207
11
6.44953
21
-0.7234
0
LINE
8
BLACK
6
CONTINUOUS
10
6.44953
20
-0.7234
11
6.41255
21
-0.617715
0
LINE
8
BLACK
6
CONTINUOUS
10
6.41255
20
-0.617715
11
6.40006
21
-0.50673
0
LINE
8
BLACK
6
CONTINUOUS
10
6.40006
20
-0.50673
11
6.4
21
-0.506472
0
LINE
8
BLACK
6
CONTINUOUS
10
6.4
20
-0.506472
11
6.4
21
0.506821
0
LINE
8
BLACK
6
CONTINUOUS
10
6.4
20
0.506821
11
6.40159
21
0.513718
0
LINE
8
BLACK
6
CONTINUOUS
10
6.40159
20
0.513718
11
6.38966
21
0.558234
0
LINE
8
BLACK
6
CONTINUOUS
10
6.38966
20
0.558234
11
6.35176
21
0.596128
0
LINE
8
BLACK
6
CONTINUOUS
10
6.35176
20
0.596128
11
6.30697
21
0.608129
0
LINE
8
BLACK
6
CONTINUOUS
10
6.30697
20
0.608129
11
6.29965
21
0.606472
0
LINE
8
BLACK
6
CONTINUOUS
10
6.29965
20
0.606472
11
6.29275
21
0.608058
0
LINE
8
BLACK
6
CONTINUOUS
10
6.29275
20
0.608058
11
6.24825
21
0.596131
0
LINE
8
BLACK
6
CONTINUOUS
10
6.24825
20
0.596131
11
6.21036
21
0.558244
0
LINE
8
BLACK
6
CONTINUOUS
10
6.21036
20
0.558244
11
6.19839
21
0.513536
0
LINE
8
BLACK
6
CONTINUOUS
10
6.19839
20
0.513536
11
6.2
21
0.506472
0
LINE
8
BLACK
6
CONTINUOUS
10
6.2
20
0.506472
11
6.2
21
-0.506473
0
LINE
8
BLACK
6
CONTINUOUS
10
6.2
20
-0.506473
11
6.2
21
-0.507171
0
LINE
8
BLACK
6
CONTINUOUS
10
6.2
20
-0.507171
11
6.19985
21
-0.507823
0
LINE
8
BLACK
6
CONTINUOUS
10
6.19985
20
-0.507823
11
6.18746
21
-0.617733
0
LINE
8
BLACK
6
CONTINUOUS
10
6.18746
20
-0.617733
11
6.15048
21
-0.723414
0
LINE
8
BLACK
6
CONTINUOUS
10
6.15048
20
-0.723414
11
6.09091
21
-0.818216
0
LINE
8
BLACK
6
CONTINUOUS
10
6.09091
20
-0.818216
11
6.01174
21
-0.897387
0
LINE
8
BLACK
6
CONTINUOUS
10
6.01174
20
-0.897387
11
5.91694
21
-0.956955
0
LINE
8
BLACK
6
CONTINUOUS
10
5.91694
20
-0.956955
11
5.81126
21
-0.993934
0
LINE
8
BLACK
6
CONTINUOUS
10
5.81126
20
-0.993934
11
5.70002
21
-1.00647
0
LINE
8
BLACK
6
CONTINUOUS
10
5.70002
20
-1.00647
11
5.7
21
-1.00647
0
LINE
8
BLACK
6
CONTINUOUS
10
5.7
20
-1.00647
11
5.6993
21
-1.00647
0
LINE
8
BLACK
6
CONTINUOUS
10
5.6993
20
-1.00647
11
5.69865
21
-1.00632
0
LINE
8
BLACK
6
CONTINUOUS
10
5.69865
20
-1.00632
11
5.58874
21
-0.993935
0
LINE
8
BLACK
6
CONTINUOUS
10
5.58874
20
-0.993935
11
5.48306
21
-0.956953
0
LINE
8
BLACK
6
CONTINUOUS
10
5.48306
20
-0.956953
11
5.38826
21
-0.897381
0
LINE
8
BLACK
6
CONTINUOUS
10
5.38826
20
-0.897381
11
5.30909
21
-0.818207
0
LINE
8
BLACK
6
CONTINUOUS
10
5.30909
20
-0.818207
11
5.24953
21
-0.7234
0
LINE
8
BLACK
6
CONTINUOUS
10
5.24953
20
-0.7234
11
5.21255
21
-0.617715
0
LINE
8
BLACK
6
CONTINUOUS
10
5.21255
20
-0.617715
11
5.20006
21
-0.50673
0
LINE
8
BLACK
6
CONTINUOUS
10
5.20006
20
-0.50673
11
5.2
21
-0.506472
0
LINE
8
BLACK
6
CONTINUOUS
10
5.2
20
-0.506472
11
5.2
21
0.506821
0
LINE
8
BLACK
6
CONTINUOUS
10
5.2
20
0.506821
11
5.20159
21
0.513718
0
LINE
8
BLACK
6
CONTINUOUS
10
5.20159
20
0.513718
11
5.18966
21
0.558234
0
LINE
8
BLACK
6
CONTINUOUS
10
5.18966
20
0.558234
11
5.15176
21
0.596128
0
LINE
8
BLACK
6
CONTINUOUS
10
5.15176
20
0.596128
11
5.10697
21
0.608129
0
LINE
8
BLACK
6
CONTINUOUS
10
5.10697
20
0.608129
11
5.09965
21
0.606472
0
LINE
8
BLACK
6
CONTINUOUS
10
5.09965
20
0.606472
11
5.09275
21
0.608058
0
LINE
8
BLACK
6
CONTINUOUS
10
5.09275
20
0.608058
11
5.04825
21
0.596131
0
LINE
8
BLACK
6
CONTINUOUS
10
5.04825
20
0.596131
11
5.01036
21
0.558244
0
LINE
8
BLACK
6
CONTINUOUS
10
5.01036
20
0.558244
11
4.99839
21
0.513536
0
LINE
8
BLACK
6
CONTINUOUS
10
4.99839
20
0.513536
11
5
21
0.506472
0
LINE
8
BLACK
6
CONTINUOUS
10
5
20
0.506472
11
5
21
0.3
0
LINE
8
BLACK
6
CONTINUOUS
10
5
20
0.3
11
5
21
0.299302
0
LINE
8
BLACK
6
CONTINUOUS
10
5
20
0.299302
11
4.99985
21
0.29865
0
LINE
8
BLACK
6
CONTINUOUS
10
4.99985
20
0.29865
11
4.98746
21
0.18874
0
LINE
8
BLACK
6
CONTINUOUS
10
4.98746
20
0.18874
11
4.95048
21
0.083058
0
LINE
8
BLACK
6
CONTINUOUS
10
4.95048
20
0.083058
11
4.89092
21
-0.011745
0
LINE
8
BLACK
6
CONTINUOUS
10
4.89092
20
-0.011745
11
4.81175
21
-0.090916
0
LINE
8
BLACK
6
CONTINUOUS
10
4.81175
20
-0.090916
11
4.71694
21
-0.150484
0
LINE
8
BLACK
6
CONTINUOUS
10
4.71694
20
-0.150484
11
4.61126
21
-0.187464
0
LINE
8
BLACK
6
CONTINUOUS
10
4.61126
20
-0.187464
11
4.5
21
-0.2
0
LINE
8
BLACK
6
CONTINUOUS
10
4.5
20
-0.2
11
3.25
21
-0.2
0
LINE
8
BLACK
6
CONTINUOUS
10
3.25
20
-0.2
11
3.25
21
-0.5
0
LINE
8
BLACK
6
CONTINUOUS
10
3.25
20
-0.5
11
1.65
21
-0.5
0
LINE
8
BLACK
6
CONTINUOUS
10
1.65
20
-0.5
11
1.65
21
0.5
0
LINE
8
BLACK
6
CONTINUOUS
10
1.65
20
0.5
11
3.25
21
0.5
0
LINE
8
BLACK
6
CONTINUOUS
10
3.25
20
0.5
11
3.25
21
0.2
0
LINE
8
BLACK
6
CONTINUOUS
10
3.25
20
0.2
11
4.50035
21
0.2
0
LINE
8
BLACK
6
CONTINUOUS
10
4.50035
20
0.2
11
4.50725
21
0.198414
0
LINE
8
BLACK
6
CONTINUOUS
10
4.50725
20
0.198414
11
4.55176
21
0.210342
0
LINE
8
BLACK
6
CONTINUOUS
10
4.55176
20
0.210342
11
4.58966
21
0.248236
0
LINE
8
BLACK
6
CONTINUOUS
10
4.58966
20
0.248236
11
4.60162
21
0.292888
0
LINE
8
BLACK
6
CONTINUOUS
10
4.60162
20
0.292888
11
4.6
21
0.3
0
LINE
8
BLACK
6
CONTINUOUS
10
4.6
20
0.3
11
4.6
21
0.506821
0
LINE
8
BLACK
6
CONTINUOUS
10
4.6
20
0.506821
11
4.6
21
0.506823
0
LINE
8
BLACK
6
CONTINUOUS
10
4.6
20
0.506823
11
4.6
21
0.507151
0
LINE
8
BLACK
6
CONTINUOUS
10
4.6
20
0.507151
11
4.60021
21
0.508037
0
LINE
8
BLACK
6
CONTINUOUS
10
4.60021
20
0.508037
11
4.61255
21
0.617715
0
LINE
8
BLACK
6
CONTINUOUS
10
4.61255
20
0.617715
11
4.64953
21
0.7234
0
LINE
8
BLACK
6
CONTINUOUS
10
4.64953
20
0.7234
11
4.70909
21
0.818207
0
LINE
8
BLACK
6
CONTINUOUS
10
4.70909
20
0.818207
11
4.78826
21
0.897381
0
LINE
8
BLACK
6
CONTINUOUS
10
4.78826
20
0.897381
11
4.88306
21
0.956953
0
LINE
8
BLACK
6
CONTINUOUS
10
4.88306
20
0.956953
11
4.98874
21
0.993935
0
LINE
8
BLACK
6
CONTINUOUS
10
4.98874
20
0.993935
11
5.1
21
1.00647
0
LINE
8
BLACK
6
CONTINUOUS
10
5.1
20
1.00647
11
5.1007
21
1.00647
0
LINE
8
BLACK
6
CONTINUOUS
10
5.1007
20
1.00647
11
5.10137
21
1.00632
0
LINE
8
BLACK
6
CONTINUOUS
10
5.10137
20
1.00632
11
5.21126
21
0.993934
0
LINE
8
BLACK
6
CONTINUOUS
10
5.21126
20
0.993934
11
5.31694
21
0.956955
0
LINE
8
BLACK
6
CONTINUOUS
10
5.31694
20
0.956955
11
5.41174
21
0.897387
0
LINE
8
BLACK
6
CONTINUOUS
10
5.41174
20
0.897387
11
5.49091
21
0.818216
0
LINE
8
BLACK
6
CONTINUOUS
10
5.49091
20
0.818216
11
5.55048
21
0.723414
0
LINE
8
BLACK
6
CONTINUOUS
10
5.55048
20
0.723414
11
5.58746
21
0.617733
0
LINE
8
BLACK
6
CONTINUOUS
10
5.58746
20
0.617733
11
5.6
21
0.506473
0
LINE
8
BLACK
6
CONTINUOUS
10
5.6
20
0.506473
11
5.6
21
-0.506821
0
LINE
8
BLACK
6
CONTINUOUS
10
5.6
20
-0.506821
11
5.6
21
-0.50683
0
LINE
8
BLACK
6
CONTINUOUS
10
5.6
20
-0.50683
11
5.6
21
-0.50684
0
LINE
8
BLACK
6
CONTINUOUS
10
5.6
20
-0.50684
11
5.59843
21
-0.513679
0
LINE
8
BLACK
6
CONTINUOUS
10
5.59843
20
-0.513679
11
5.61036
21
-0.558244
0
LINE
8
BLACK
6
CONTINUOUS
10
5.61036
20
-0.558244
11
5.64825
21
-0.596131
0
LINE
8
BLACK
6
CONTINUOUS
10
5.64825
20
-0.596131
11
5.69302
21
-0.60813
0
LINE
8
BLACK
6
CONTINUOUS
10
5.69302
20
-0.60813
11
5.70035
21
-0.606472
0
LINE
8
BLACK
6
CONTINUOUS
10
5.70035
20
-0.606472
11
5.70724
21
-0.608057
0
LINE
8
BLACK
6
CONTINUOUS
10
5.70724
20
-0.608057
11
5.75176
21
-0.596128
0
LINE
8
BLACK
6
CONTINUOUS
10
5.75176
20
-0.596128
11
5.78966
21
-0.558234
0
LINE
8
BLACK
6
CONTINUOUS
10
5.78966
20
-0.558234
11
5.80162
21
-0.513583
0
LINE
8
BLACK
6
CONTINUOUS
10
5.80162
20
-0.513583
11
5.8
21
-0.506472
0
LINE
8
BLACK
6
CONTINUOUS
10
5.8
20
-0.506472
11
5.8
21
0.506821
0
LINE
8
BLACK
6
CONTINUOUS
10
5.8
20
0.506821
11
5.8
21
0.506823
0
LINE
8
BLACK
6
CONTINUOUS
10
5.8
20
0.506823
11
5.8
21
0.507151
0
LINE
8
BLACK
6
CONTINUOUS
10
5.8
20
0.507151
11
5.80021
21
0.508037
0
LINE
8
BLACK
6
CONTINUOUS
10
5.80021
20
0.508037
11
5.81255
21
0.617715
0
LINE
8
BLACK
6
CONTINUOUS
10
5.81255
20
0.617715
11
5.84953
21
0.7234
0
LINE
8
BLACK
6
CONTINUOUS
10
5.84953
20
0.7234
11
5.90909
21
0.818207
0
LINE
8
BLACK
6
CONTINUOUS
10
5.90909
20
0.818207
11
5.98826
21
0.897381
0
LINE
8
BLACK
6
CONTINUOUS
10
5.98826
20
0.897381
11
6.08306
21
0.956953
0
LINE
8
BLACK
6
CONTINUOUS
10
6.08306
20
0.956953
11
6.18874
21
0.993935
0
LINE
8
BLACK
6
CONTINUOUS
10
6.18874
20
0.993935
11
6.3
21
1.00647
0
LINE
8
BLACK
6
CONTINUOUS
10
6.3
20
1.00647
11
6.3007
21
1.00647
0
LINE
8
BLACK
6
CONTINUOUS
10
6.3007
20
1.00647
11
6.30137
21
1.00632
0
LINE
8
BLACK
6
CONTINUOUS
10
6.30137
20
1.00632
11
6.41126
21
0.993934
0
LINE
8
BLACK
6
CONTINUOUS
10
6.41126
20
0.993934
11
6.51694
21
0.956955
0
LINE
8
BLACK
6
CONTINUOUS
10
6.51694
20
0.956955
11
6.61174
21
0.897387
0
LINE
8
BLACK
6
CONTINUOUS
10
6.61174
20
0.897387
11
6.69091
21
0.818216
0
LINE
8
BLACK
6
CONTINUOUS
10
6.69091
20
0.818216
11
6.75048
21
0.723414
0
LINE
8
BLACK
6
CONTINUOUS
10
6.75048
20
0.723414
11
6.78746
21
0.617733
0
LINE
8
BLACK
6
CONTINUOUS
10
6.78746
20
0.617733
11
6.8
21
0.506473
0
LINE
8
BLACK
6
CONTINUOUS
10
6.8
20
0.506473
11
6.8
21
-0.506821
0
LINE
8
BLACK
6
CONTINUOUS
10
6.8
20
-0.506821
11
6.8
21
-0.50683
0
LINE
8
BLACK
6
CONTINUOUS
10
-5.69992
20
-0.299316
11
-5.68746
21
-0.18874
0
LINE
8
BLACK
6
CONTINUOUS
10
-5.68746
20
-0.18874
11
-5.65048
21
-0.083058
0
LINE
8
BLACK
6
CONTINUOUS
10
-5.65048
20
-0.083058
11
-5.59092
21
0.011745
0
LINE
8
BLACK
6
CONTINUOUS
10
-5.59092
20
0.011745
11
-5.51174
21
0.090916
0
LINE
8
BLACK
6
CONTINUOUS
10
-5.51174
20
0.090916
11
-5.41694
21
0.150484
0
LINE
8
BLACK
6
CONTINUOUS
10
-5.41694
20
0.150484
11
-5.31126
21
0.187464
0
LINE
8
BLACK
6
CONTINUOUS
10
-5.31126
20
0.187464
11
-5.2
21
0.2
0
LINE
8
BLACK
6
CONTINUOUS
10
-5.2
20
0.2
11
-3.25
21
0.2
0
LINE
8
BLACK
6
CONTINUOUS
10
-3.25
20
0.2
11
-3.25
21
0.5
0
LINE
8
BLACK
6
CONTINUOUS
10
-3.25
20
0.5
11
-1.65
21
0.5
0
LINE
8
BLACK
6
CONTINUOUS
10
-1.65
20
0.5
11
-1.65
21
-0.5
0
LINE
8
BLACK
6
CONTINUOUS
10
-1.65
20
-0.5
11
-3.25
21
-0.5
0
LINE
8
BLACK
6
CONTINUOUS
10
-3.25
20
-0.5
11
-3.25
21
-0.2
0
LINE
8
BLACK
6
CONTINUOUS
10
-3.25
20
-0.2
11
-5.20035
21
-0.2
0
LINE
8
BLACK
6
CONTINUOUS
10
-5.20035
20
-0.2
11
-5.20725
21
-0.198414
0
LINE
8
BLACK
6
CONTINUOUS
10
-5.20725
20
-0.198414
11
-5.25176
21
-0.210342
0
LINE
8
BLACK
6
CONTINUOUS
10
-5.25176
20
-0.210342
11
-5.28966
21
-0.248236
0
LINE
8
BLACK
6
CONTINUOUS
10
-5.28966
20
-0.248236
11
-5.30162
21
-0.292888
0
LINE
8
BLACK
6
CONTINUOUS
10
-5.30162
20
-0.292888
11
-5.3
21
-0.3
0
LINE
8
BLACK
6
CONTINUOUS
10
-5.3
20
-0.3
11
-5.3
21
-0.359583
0
LINE
8
BLACK
6
CONTINUOUS
10
-5.3
20
-0.359583
11
-5.3
21
-0.360281
0
LINE
8
BLACK
6
CONTINUOUS
10
-5.3
20
-0.360281
11
-5.30015
21
-0.360933
0
LINE
8
BLACK
6
CONTINUOUS
10
-5.30015
20
-0.360933
11
-5.31254
21
-0.470843
0
LINE
8
BLACK
6
CONTINUOUS
10
-5.31254
20
-0.470843
11
-5.34952
21
-0.576525
0
LINE
8
BLACK
6
CONTINUOUS
10
-5.34952
20
-0.576525
11
-5.40908
21
-0.671328
0
LINE
8
BLACK
6
CONTINUOUS
10
-5.40908
20
-0.671328
11
-5.48825
21
-0.750499
0
LINE
8
BLACK
6
CONTINUOUS
10
-5.48825
20
-0.750499
11
-5.58306
21
-0.810067
0
LINE
8
BLACK
6
CONTINUOUS
10
-5.58306
20
-0.810067
11
-5.68874
21
-0.847047
0
LINE
8
BLACK
6
CONTINUOUS
10
-5.68874
20
-0.847047
11
-5.8
21
-0.859583
0
LINE
8
BLACK
6
CONTINUOUS
10
-5.8
20
-0.859583
11
-5.8007
21
-0.859582
0
LINE
8
BLACK
6
CONTINUOUS
10
-5.8007
20
-0.859582
11
-5.80135
21
-0.859431
0
LINE
8
BLACK
6
CONTINUOUS
10
-5.80135
20
-0.859431
11
-5.91126
21
-0.847047
0
LINE
8
BLACK
6
CONTINUOUS
10
-5.91126
20
-0.847047
11
-6.01694
21
-0.810067
0
LINE
8
BLACK
6
CONTINUOUS
10
-6.01694
20
-0.810067
11
-6.11174
21
-0.750499
0
LINE
8
BLACK
6
CONTINUOUS
10
-6.11174
20
-0.750499
11
-6.19092
21
-0.671328
0
LINE
8
BLACK
6
CONTINUOUS
10
-6.19092
20
-0.671328
11
-6.25048
21
-0.576525
0
LINE
8
BLACK
6
CONTINUOUS
10
-6.25048
20
-0.576525
11
-6.28746
21
-0.470843
0
LINE
8
BLACK
6
CONTINUOUS
10
-6.28746
20
-0.470843
11
-6.3
21
-0.359583
0
LINE
8
BLACK
6
CONTINUOUS
10
-6.3
20
-0.359583
11
-6.3
21
-0.299651
0
LINE
8
BLACK
6
CONTINUOUS
10
-6.3
20
-0.299651
11
-6.29841
21
-0.292753
0
LINE
8
BLACK
6
CONTINUOUS
10
-6.29841
20
-0.292753
11
-6.31034
21
-0.248236
0
LINE
8
BLACK
6
CONTINUOUS
10
-6.31034
20
-0.248236
11
-6.34824
21
-0.210342
0
LINE
8
BLACK
6
CONTINUOUS
10
-6.34824
20
-0.210342
11
-6.39289
21
-0.198378
0
LINE
8
BLACK
6
CONTINUOUS
10
-6.39289
20
-0.198378
11
-6.4
21
-0.2
0
LINE
8
BLACK
6
CONTINUOUS
10
-6.4
20
-0.2
11
-8.40035
21
-0.2
0
LINE
8
BLACK
6
CONTINUOUS
10
-8.40035
20
-0.2
11
-8.43291
21
-0.192513
0
LINE
8
BLACK
6
CONTINUOUS
10
-8.43291
20
-0.192513
11
-8.4661
21
-0.18876
0
LINE
8
BLACK
6
CONTINUOUS
10
-8.4661
20
-0.18876
11
-8.47584
21
-0.182641
0
LINE
8
BLACK
6
CONTINUOUS
10
-8.47584
20
-0.182641
11
-8.48705
21
-0.180064
0
LINE
8
BLACK
6
CONTINUOUS
10
-8.48705
20
-0.180064
11
-8.51314
21
-0.159198
0
LINE
8
BLACK
6
CONTINUOUS
10
-8.51314
20
-0.159198
11
-8.54142
21
-0.141422
0
LINE
8
BLACK
6
CONTINUOUS
10
-8.54142
20
-0.141422
11
-8.79886
21
0.116018
0
LINE
8
BLACK
6
CONTINUOUS
10
-8.79886
20
0.116018
11
-8.9
21
0.1
0
LINE
8
BLACK
6
CONTINUOUS
10
-8.9
20
0.1
11
-9.02361
21
0.119577
0
LINE
8
BLACK
6
CONTINUOUS
10
-9.02361
20
0.119577
11
-9.13511
21
0.176393
0
LINE
8
BLACK
6
CONTINUOUS
10
-9.13511
20
0.176393
11
-9.22361
21
0.264886
0
LINE
8
BLACK
6
CONTINUOUS
10
-9.22361
20
0.264886
11
-9.28042
21
0.376393
0
LINE
8
BLACK
6
CONTINUOUS
10
-9.28042
20
0.376393
11
-9.3
21
0.5
0
LINE
8
BLACK
6
CONTINUOUS
10
-9.3
20
0.5
11
-9.28042
21
0.623607
0
LINE
8
BLACK
6
CONTINUOUS
10
-9.28042
20
0.623607
11
-9.22361
21
0.735114
0
LINE
8
BLACK
6
CONTINUOUS
10
-9.22361
20
0.735114
11
-9.13511
21
0.823607
0
LINE
8
BLACK
6
CONTINUOUS
10
-9.13511
20
0.823607
11
-9.02361
21
0.880423
0
LINE
8
BLACK
6
CONTINUOUS
10
-9.02361
20
0.880423
11
-8.9
21
0.9
0
LINE
8
BLACK
6
CONTINUOUS
10
-8.9
20
0.9
11
-8.77639
21
0.880423
0
LINE
8
BLACK
6
CONTINUOUS
10
-8.77639
20
0.880423
11
-8.66489
21
0.823607
0
LINE
8
BLACK
6
CONTINUOUS
10
-8.66489
20
0.823607
11
-8.57639
21
0.735114
0
LINE
8
BLACK
6
CONTINUOUS
10
-8.57639
20
0.735114
11
-8.51958
21
0.623607
0
LINE
8
BLACK
6
CONTINUOUS
10
-8.51958
20
0.623607
11
-8.5
21
0.5
0
LINE
8
BLACK
6
CONTINUOUS
10
-8.5
20
0.5
11
-8.51602
21
0.398861
0
LINE
8
BLACK
6
CONTINUOUS
10
-8.51602
20
0.398861
11
-8.31716
21
0.2
0
LINE
8
BLACK
6
CONTINUOUS
10
-8.31716
20
0.2
11
-6.39965
21
0.2
0
LINE
8
BLACK
6
CONTINUOUS
10
-6.39965
20
0.2
11
-6.39965
21
0.199999
0
LINE
8
BLACK
6
CONTINUOUS
10
-6.39965
20
0.199999
11
-6.3993
21
0.199999
0
LINE
8
BLACK
6
CONTINUOUS
10
-6.3993
20
0.199999
11
-6.39865
21
0.199848
0
LINE
8
BLACK
6
CONTINUOUS
10
-6.39865
20
0.199848
11
-6.28874
21
0.187464
0
LINE
8
BLACK
6
CONTINUOUS
10
-6.28874
20
0.187464
11
-6.18306
21
0.150484
0
LINE
8
BLACK
6
CONTINUOUS
10
-6.18306
20
0.150484
11
-6.08825
21
0.090916
0
LINE
8
BLACK
6
CONTINUOUS
10
-6.08825
20
0.090916
11
-6.00908
21
0.011745
0
LINE
8
BLACK
6
CONTINUOUS
10
-6.00908
20
0.011745
11
-5.94952
21
-0.083058
0
LINE
8
BLACK
6
CONTINUOUS
10
-5.94952
20
-0.083058
11
-5.91254
21
-0.18874
0
LINE
8
BLACK
6
CONTINUOUS
10
-5.91254
20
-0.18874
11
-5.9
21
-0.3
0
LINE
8
BLACK
6
CONTINUOUS
10
-5.9
20
-0.3
11
-5.9
21
-0.359583
0
LINE
8
BLACK
6
CONTINUOUS
10
-5.9
20
-0.359583
11
-5.9
21
-0.360281
0
LINE
8
BLACK
6
CONTINUOUS
10
-5.9
20
-0.360281
11
-5.90155
21
-0.366965
0
LINE
8
BLACK
6
CONTINUOUS
10
-5.90155
20
-0.366965
11
-5.88966
21
-0.411347
0
LINE
8
BLACK
6
CONTINUOUS
10
-5.88966
20
-0.411347
11
-5.85176
21
-0.449241
0
LINE
8
BLACK
6
CONTINUOUS
10
-5.85176
20
-0.449241
11
-5.80698
21
-0.461241
0
LINE
8
BLACK
6
CONTINUOUS
10
-5.80698
20
-0.461241
11
-5.79965
21
-0.459583
0
LINE
8
BLACK
6
CONTINUOUS
10
-5.79965
20
-0.459583
11
-5.79275
21
-0.461169
0
LINE
8
BLACK
6
CONTINUOUS
10
-5.79275
20
-0.461169
11
-5.74824
21
-0.449241
0
LINE
8
BLACK
6
CONTINUOUS
10
-5.74824
20
-0.449241
11
-5.71034
21
-0.411347
0
LINE
8
BLACK
6
CONTINUOUS
10
-5.71034
20
-0.411347
11
-5.69838
21
-0.366695
0
LINE
8
BLACK
6
CONTINUOUS
10
-5.69838
20
-0.366695
11
-5.7
21
-0.359583
0
LINE
8
BLACK
6
CONTINUOUS
10
-5.7
20
-0.359583
11
-5.7
21
-0.299651
0
LINE
8
BLACK
6
CONTINUOUS
10
-5.7
20
-0.299651
11
-5.69992
21
-0.299316
0
LINE
8
BLACK
6
CONTINUOUS
10
3.25
20
1.15
11
1.65
21
1.15
0
LINE
8
BLACK
6
CONTINUOUS
10
1.65
20
1.15
11
1.65
21
1.21967
0
LINE
8
BLACK
6
CONTINUOUS
10
1.65
20
1.21967
11
1.3531
21
0.922771
0
LINE
8
BLACK
6
CONTINUOUS
10
1.3531
20
0.922771
11
1.32361
21
0.864886
0
LINE
8
BLACK
6
CONTINUOUS
10
1.32361
20
0.864886
11
1.23511
21
0.776393
0
LINE
8
BLACK
6
CONTINUOUS
10
1.23511
20
0.776393
11
1.12361
21
0.719577
0
LINE
8
BLACK
6
CONTINUOUS
10
1.12361
20
0.719577
11
1
21
0.7
0
LINE
8
BLACK
6
CONTINUOUS
10
1
20
0.7
11
0.876393
21
0.719577
0
LINE
8
BLACK
6
CONTINUOUS
10
0.876393
20
0.719577
11
0.764886
21
0.776393
0
LINE
8
BLACK
6
CONTINUOUS
10
0.764886
20
0.776393
11
0.676393
21
0.864886
0
LINE
8
BLACK
6
CONTINUOUS
10
0.676393
20
0.864886
11
0.619577
21
0.976393
0
LINE
8
BLACK
6
CONTINUOUS
10
0.619577
20
0.976393
11
0.6
21
1.1
0
LINE
8
BLACK
6
CONTINUOUS
10
0.6
20
1.1
11
0.619577
21
1.22361
0
LINE
8
BLACK
6
CONTINUOUS
10
0.619577
20
1.22361
11
0.676393
21
1.33511
0
LINE
8
BLACK
6
CONTINUOUS
10
0.676393
20
1.33511
11
0.764886
21
1.42361
0
LINE
8
BLACK
6
CONTINUOUS
10
0.764886
20
1.42361
11
0.822771
21
1.4531
0
LINE
8
BLACK
6
CONTINUOUS
10
0.822771
20
1.4531
11
1.28483
21
1.91517
0
LINE
8
BLACK
6
CONTINUOUS
10
1.28483
20
1.91517
11
1.31415
21
1.93981
0
LINE
8
BLACK
6
CONTINUOUS
10
1.31415
20
1.93981
11
1.32016
21
1.94631
0
LINE
8
BLACK
6
CONTINUOUS
10
1.32016
20
1.94631
11
1.32497
21
1.9489
0
LINE
8
BLACK
6
CONTINUOUS
10
1.32497
20
1.9489
11
1.33437
21
1.95681
0
LINE
8
BLACK
6
CONTINUOUS
10
1.33437
20
1.95681
11
1.38202
21
1.97969
0
LINE
8
BLACK
6
CONTINUOUS
10
1.38202
20
1.97969
11
1.42853
21
2.00478
0
LINE
8
BLACK
6
CONTINUOUS
10
1.42853
20
2.00478
11
1.43733
21
2.00625
0
LINE
8
BLACK
6
CONTINUOUS
10
1.43733
20
2.00625
11
1.44538
21
2.01011
0
LINE
8
BLACK
6
CONTINUOUS
10
1.44538
20
2.01011
11
1.49787
21
2.01632
0
LINE
8
BLACK
6
CONTINUOUS
10
1.49787
20
2.01632
11
1.55
21
2.025
0
LINE
8
BLACK
6
CONTINUOUS
10
1.55
20
2.025
11
1.65
21
2.025
0
LINE
8
BLACK
6
CONTINUOUS
10
1.65
20
2.025
11
1.65
21
2.15
0
LINE
8
BLACK
6
CONTINUOUS
10
1.65
20
2.15
11
3.25
21
2.15
0
LINE
8
BLACK
6
CONTINUOUS
10
3.25
20
2.15
11
3.25
21
1.15
0
LINE
8
BLACK
6
CONTINUOUS
10
-1.65
20
2.025
11
-1.25
21
2.025
0
LINE
8
BLACK
6
CONTINUOUS
10
-1.25
20
2.025
11
-1.21185
21
2.02169
0
LINE
8
BLACK
6
CONTINUOUS
10
-1.21185
20
2.02169
11
-1.203
21
2.02204
0
LINE
8
BLACK
6
CONTINUOUS
10
-1.203
20
2.02204
11
-1.19776
21
2.02047
0
LINE
8
BLACK
6
CONTINUOUS
10
-1.19776
20
2.02047
11
-1.18553
21
2.01942
0
LINE
8
BLACK
6
CONTINUOUS
10
-1.18553
20
2.01942
11
-1.13566
21
2.0019
0
LINE
8
BLACK
6
CONTINUOUS
10
-1.13566
20
2.0019
11
-1.08502
21
1.98676
0
LINE
8
BLACK
6
CONTINUOUS
10
-1.08502
20
1.98676
11
-1.07776
21
1.98157
0
LINE
8
BLACK
6
CONTINUOUS
10
-1.07776
20
1.98157
11
-1.06934
21
1.97862
0
LINE
8
BLACK
6
CONTINUOUS
10
-1.06934
20
1.97862
11
-1.02783
21
1.94589
0
LINE
8
BLACK
6
CONTINUOUS
10
-1.02783
20
1.94589
11
-0.984835
21
1.91517
0
LINE
8
BLACK
6
CONTINUOUS
10
-0.984835
20
1.91517
11
-0.922771
21
1.8531
0
LINE
8
BLACK
6
CONTINUOUS
10
-0.922771
20
1.8531
11
-0.864886
21
1.82361
0
LINE
8
BLACK
6
CONTINUOUS
10
-0.864886
20
1.82361
11
-0.776393
21
1.73511
0
LINE
8
BLACK
6
CONTINUOUS
10
-0.776393
20
1.73511
11
-0.719577
21
1.62361
0
LINE
8
BLACK
6
CONTINUOUS
10
-0.719577
20
1.62361
11
-0.7
21
1.5
0
LINE
8
BLACK
6
CONTINUOUS
10
-0.7
20
1.5
11
-0.719577
21
1.37639
0
LINE
8
BLACK
6
CONTINUOUS
10
-0.719577
20
1.37639
11
-0.776393
21
1.26489
0
LINE
8
BLACK
6
CONTINUOUS
10
-0.776393
20
1.26489
11
-0.864886
21
1.17639
0
LINE
8
BLACK
6
CONTINUOUS
10
-0.864886
20
1.17639
11
-0.976393
21
1.11958
0
LINE
8
BLACK
6
CONTINUOUS
10
-0.976393
20
1.11958
11
-1.1
21
1.1
0
LINE
8
BLACK
6
CONTINUOUS
10
-1.1
20
1.1
11
-1.22361
21
1.11958
0
LINE
8
BLACK
6
CONTINUOUS
10
-1.22361
20
1.11958
11
-1.33511
21
1.17639
0
LINE
8
BLACK
6
CONTINUOUS
10
-1.33511
20
1.17639
11
-1.42361
21
1.26489
0
LINE
8
BLACK
6
CONTINUOUS
10
-1.42361
20
1.26489
11
-1.42876
21
1.275
0
LINE
8
BLACK
6
CONTINUOUS
10
-1.42876
20
1.275
11
-1.65
21
1.275
0
LINE
8
BLACK
6
CONTINUOUS
10
-1.65
20
1.275
11
-1.65
21
1.15
0
LINE
8
BLACK
6
CONTINUOUS
10
-1.65
20
1.15
11
-3.25
21
1.15
0
LINE
8
BLACK
6
CONTINUOUS
10
-3.25
20
1.15
11
-3.25
21
2.15
0
LINE
8
BLACK
6
CONTINUOUS
10
-3.25
20
2.15
11
-1.65
21
2.15
0
LINE
8
BLACK
6
CONTINUOUS
10
-1.65
20
2.15
11
-1.65
21
2.025
0
CIRCLE
8
BLACK
10
8.4
20
-1.1
40
0.2
0
CIRCLE
8
BLACK
10
8.4
20
0.4
40
0.2
0
CIRCLE
8
BLACK
10
-8.9
20
0.5
40
0.2
0
CIRCLE
8
BLACK
10
-7.7
20
-1.2
40
0.2
0
CIRCLE
8
BLACK
10
-1.1
20
1.5
40
0.2
0
CIRCLE
8
BLACK
10
1
20
1.1
40
0.2
  0
ENDSEC
  0
EOF
