  0
SECTION
  2
HEADER
  9
$ANGBASE
  50
0.0
  9
$ANGDIR
  70
1
  9
$MEASUREMENT
  70
1
  0
ENDSEC
  0
SECTION
  2
TABLES
  0
TABLE
  2
LTYPE
  70
4
  0
LTYPE
  5
40F
  2
CONTINUOUS
  70
0
  3
Solid line
  72
65
  73
0
  40
0.0
  0
LTYPE
  5
410
  2
DASHDOT
 70
0
  3
Dash Dot ____ _ ____ _
 72
65
 73
4
 40
2.0
 49
1.25
 49
-0.25
 49
0.25
 49
-0.25
  0
LTYPE
  5
411
  2
DASHED
 70
0
  3
Dashed __ __ __ __ __
 72
65
 73
2
 40
0.75
 49
0.5
 49
-0.25
  0
LTYPE
  5
43B
  2
DOTTED
 70
0
  3
Dotted .  .  .  .
 72
65
 73
2
 40
0.2
 49
0.0
 49
-0.2
  0
ENDTAB
  0
TABLE
  2
STYLE
  70
4
  0
STYLE
  2
KICAD
  70
0
  40
0
  41
1
  42
1
  50
0
  71
0
  3
isocp.shx
  0
STYLE
  2
KICADB
  70
0
  40
0
  41
1
  42
1
  50
0
  71
0
  3
isocp.shx
  0
STYLE
  2
KICADI
  70
0
  40
0
  41
1
  42
1
  50
15
  71
0
  3
isocp.shx
  0
STYLE
  2
KICADBI
  70
0
  40
0
  41
1
  42
1
  50
15
  71
0
  3
isocp.shx
  0
ENDTAB
  0
TABLE
  2
LAYER
  70
1
  0
LAYER
  2
BLACK
  70
0
  62
7
  6
CONTINUOUS
  0
ENDTAB
  0
ENDSEC
  0
SECTION
  2
ENTITIES
0
LINE
8
BLACK
6
CONTINUOUS
10
-3.0449
20
-11.4449
11
-3.0635
21
-11.4
0
LINE
8
BLACK
6
CONTINUOUS
10
-3.0635
20
-11.4
11
-3.0635
21
-10.8
0
LINE
8
BLACK
6
CONTINUOUS
10
-3.0635
20
-10.8
11
-3.0449
21
-10.7551
0
LINE
8
BLACK
6
CONTINUOUS
10
-3.0449
20
-10.7551
11
-3
21
-10.7365
0
LINE
8
BLACK
6
CONTINUOUS
10
-3
20
-10.7365
11
-2.9551
21
-10.7551
0
LINE
8
BLACK
6
CONTINUOUS
10
-2.9551
20
-10.7551
11
-2.9365
21
-10.8
0
LINE
8
BLACK
6
CONTINUOUS
10
-2.9365
20
-10.8
11
-2.9365
21
-11.3365
0
LINE
8
BLACK
6
CONTINUOUS
10
-2.9365
20
-11.3365
11
2.9365
21
-11.3365
0
LINE
8
BLACK
6
CONTINUOUS
10
2.9365
20
-11.3365
11
2.9365
21
-10.8
0
LINE
8
BLACK
6
CONTINUOUS
10
2.9365
20
-10.8
11
2.9551
21
-10.7551
0
LINE
8
BLACK
6
CONTINUOUS
10
2.9551
20
-10.7551
11
3
21
-10.7365
0
LINE
8
BLACK
6
CONTINUOUS
10
3
20
-10.7365
11
3.0449
21
-10.7551
0
LINE
8
BLACK
6
CONTINUOUS
10
3.0449
20
-10.7551
11
3.0635
21
-10.8
0
LINE
8
BLACK
6
CONTINUOUS
10
3.0635
20
-10.8
11
3.0635
21
-11.4
0
LINE
8
BLACK
6
CONTINUOUS
10
3.0635
20
-11.4
11
3.0449
21
-11.4449
0
LINE
8
BLACK
6
CONTINUOUS
10
3.0449
20
-11.4449
11
3
21
-11.4635
0
LINE
8
BLACK
6
CONTINUOUS
10
3
20
-11.4635
11
-3
21
-11.4635
0
LINE
8
BLACK
6
CONTINUOUS
10
-3
20
-11.4635
11
-3.0449
21
-11.4449
0
LINE
8
BLACK
6
CONTINUOUS
10
2.2449
20
-11.2051
11
2.2635
21
-11.25
0
LINE
8
BLACK
6
CONTINUOUS
10
2.2635
20
-11.25
11
2.2449
21
-11.2949
0
LINE
8
BLACK
6
CONTINUOUS
10
2.2449
20
-11.2949
11
2.2
21
-11.3135
0
LINE
8
BLACK
6
CONTINUOUS
10
2.2
20
-11.3135
11
-2.2
21
-11.3135
0
LINE
8
BLACK
6
CONTINUOUS
10
-2.2
20
-11.3135
11
-2.2449
21
-11.2949
0
LINE
8
BLACK
6
CONTINUOUS
10
-2.2449
20
-11.2949
11
-2.2635
21
-11.25
0
LINE
8
BLACK
6
CONTINUOUS
10
-2.2635
20
-11.25
11
-2.2449
21
-11.2051
0
LINE
8
BLACK
6
CONTINUOUS
10
-2.2449
20
-11.2051
11
-2.2
21
-11.1865
0
LINE
8
BLACK
6
CONTINUOUS
10
-2.2
20
-11.1865
11
2.2
21
-11.1865
0
LINE
8
BLACK
6
CONTINUOUS
10
2.2
20
-11.1865
11
2.2449
21
-11.2051
0
LINE
8
BLACK
6
CONTINUOUS
10
3.0449
20
-5.3551
11
3.0635
21
-5.4
0
LINE
8
BLACK
6
CONTINUOUS
10
3.0635
20
-5.4
11
3.0635
21
-8.1
0
LINE
8
BLACK
6
CONTINUOUS
10
3.0635
20
-8.1
11
3.0449
21
-8.1449
0
LINE
8
BLACK
6
CONTINUOUS
10
3.0449
20
-8.1449
11
3
21
-8.1635
0
LINE
8
BLACK
6
CONTINUOUS
10
3
20
-8.1635
11
2.9551
21
-8.1449
0
LINE
8
BLACK
6
CONTINUOUS
10
2.9551
20
-8.1449
11
2.9365
21
-8.1
0
LINE
8
BLACK
6
CONTINUOUS
10
2.9365
20
-8.1
11
2.9365
21
-5.4635
0
LINE
8
BLACK
6
CONTINUOUS
10
2.9365
20
-5.4635
11
1.45
21
-5.4635
0
LINE
8
BLACK
6
CONTINUOUS
10
1.45
20
-5.4635
11
1.4051
21
-5.4449
0
LINE
8
BLACK
6
CONTINUOUS
10
1.4051
20
-5.4449
11
1.3865
21
-5.4
0
LINE
8
BLACK
6
CONTINUOUS
10
1.3865
20
-5.4
11
1.4051
21
-5.3551
0
LINE
8
BLACK
6
CONTINUOUS
10
1.4051
20
-5.3551
11
1.45
21
-5.3365
0
LINE
8
BLACK
6
CONTINUOUS
10
1.45
20
-5.3365
11
3
21
-5.3365
0
LINE
8
BLACK
6
CONTINUOUS
10
3
20
-5.3365
11
3.0449
21
-5.3551
0
LINE
8
BLACK
6
CONTINUOUS
10
-1.4051
20
-5.3551
11
-1.3865
21
-5.4
0
LINE
8
BLACK
6
CONTINUOUS
10
-1.3865
20
-5.4
11
-1.4051
21
-5.4449
0
LINE
8
BLACK
6
CONTINUOUS
10
-1.4051
20
-5.4449
11
-1.45
21
-5.4635
0
LINE
8
BLACK
6
CONTINUOUS
10
-1.45
20
-5.4635
11
-2.9365
21
-5.4635
0
LINE
8
BLACK
6
CONTINUOUS
10
-2.9365
20
-5.4635
11
-2.9365
21
-8.1
0
LINE
8
BLACK
6
CONTINUOUS
10
-2.9365
20
-8.1
11
-2.9551
21
-8.1449
0
LINE
8
BLACK
6
CONTINUOUS
10
-2.9551
20
-8.1449
11
-3
21
-8.1635
0
LINE
8
BLACK
6
CONTINUOUS
10
-3
20
-8.1635
11
-3.0449
21
-8.1449
0
LINE
8
BLACK
6
CONTINUOUS
10
-3.0449
20
-8.1449
11
-3.0635
21
-8.1
0
LINE
8
BLACK
6
CONTINUOUS
10
-3.0635
20
-8.1
11
-3.0635
21
-5.4
0
LINE
8
BLACK
6
CONTINUOUS
10
-3.0635
20
-5.4
11
-3.0449
21
-5.3551
0
LINE
8
BLACK
6
CONTINUOUS
10
-3.0449
20
-5.3551
11
-3
21
-5.3365
0
LINE
8
BLACK
6
CONTINUOUS
10
-3
20
-5.3365
11
-1.45
21
-5.3365
0
LINE
8
BLACK
6
CONTINUOUS
10
-1.45
20
-5.3365
11
-1.4051
21
-5.3551
0
LINE
8
BLACK
6
CONTINUOUS
10
-5.30793
20
-6.91447
11
-5.3045
21
-6.91735
0
LINE
8
BLACK
6
CONTINUOUS
10
-5.3045
20
-6.91735
11
-5.30004
21
-6.91787
0
LINE
8
BLACK
6
CONTINUOUS
10
-5.30004
20
-6.91787
11
-5.20446
21
-6.96565
0
LINE
8
BLACK
6
CONTINUOUS
10
-5.20446
20
-6.96565
11
-5.18354
21
-6.98117
0
LINE
8
BLACK
6
CONTINUOUS
10
-5.18354
20
-6.98117
11
-5.17908
21
-6.99148
0
LINE
8
BLACK
6
CONTINUOUS
10
-5.17908
20
-6.99148
11
-5.17092
21
-6.9992
0
LINE
8
BLACK
6
CONTINUOUS
10
-5.17092
20
-6.9992
11
-5.12313
21
-7.09477
0
LINE
8
BLACK
6
CONTINUOUS
10
-5.12313
20
-7.09477
11
-5.11571
21
-7.11974
0
LINE
8
BLACK
6
CONTINUOUS
10
-5.11571
20
-7.11974
11
-5.11675
21
-7.1241
0
LINE
8
BLACK
6
CONTINUOUS
10
-5.11675
20
-7.1241
11
-5.11522
21
-7.12832
0
LINE
8
BLACK
6
CONTINUOUS
10
-5.11522
20
-7.12832
11
-5.11522
21
-7.22389
0
LINE
8
BLACK
6
CONTINUOUS
10
-5.11522
20
-7.22389
11
-5.11974
21
-7.24955
0
LINE
8
BLACK
6
CONTINUOUS
10
-5.11974
20
-7.24955
11
-5.1277
21
-7.25904
0
LINE
8
BLACK
6
CONTINUOUS
10
-5.1277
20
-7.25904
11
-5.13168
21
-7.27078
0
LINE
8
BLACK
6
CONTINUOUS
10
-5.13168
20
-7.27078
11
-5.14368
21
-7.27808
0
LINE
8
BLACK
6
CONTINUOUS
10
-5.14368
20
-7.27808
11
-5.15272
21
-7.28885
0
LINE
8
BLACK
6
CONTINUOUS
10
-5.15272
20
-7.28885
11
-5.16492
21
-7.291
0
LINE
8
BLACK
6
CONTINUOUS
10
-5.16492
20
-7.291
11
-5.17551
21
-7.29744
0
LINE
8
BLACK
6
CONTINUOUS
10
-5.17551
20
-7.29744
11
-5.59311
21
-7.38096
0
LINE
8
BLACK
6
CONTINUOUS
10
-5.59311
20
-7.38096
11
-5.59311
21
-7.49292
0
LINE
8
BLACK
6
CONTINUOUS
10
-5.59311
20
-7.49292
11
-5.56442
21
-7.55031
0
LINE
8
BLACK
6
CONTINUOUS
10
-5.56442
20
-7.55031
11
-5.50704
21
-7.579
0
LINE
8
BLACK
6
CONTINUOUS
10
-5.50704
20
-7.579
11
-5.35129
21
-7.579
0
LINE
8
BLACK
6
CONTINUOUS
10
-5.35129
20
-7.579
11
-5.27155
21
-7.53913
0
LINE
8
BLACK
6
CONTINUOUS
10
-5.27155
20
-7.53913
11
-5.24658
21
-7.5317
0
LINE
8
BLACK
6
CONTINUOUS
10
-5.24658
20
-7.5317
11
-5.19668
21
-7.54362
0
LINE
8
BLACK
6
CONTINUOUS
10
-5.19668
20
-7.54362
11
-5.16612
21
-7.58482
0
LINE
8
BLACK
6
CONTINUOUS
10
-5.16612
20
-7.58482
11
-5.16919
21
-7.63603
0
LINE
8
BLACK
6
CONTINUOUS
10
-5.16919
20
-7.63603
11
-5.20446
21
-7.67329
0
LINE
8
BLACK
6
CONTINUOUS
10
-5.20446
20
-7.67329
11
-5.30004
21
-7.72108
0
LINE
8
BLACK
6
CONTINUOUS
10
-5.30004
20
-7.72108
11
-5.32501
21
-7.72851
0
LINE
8
BLACK
6
CONTINUOUS
10
-5.32501
20
-7.72851
11
-5.32937
21
-7.72746
0
LINE
8
BLACK
6
CONTINUOUS
10
-5.32937
20
-7.72746
11
-5.33358
21
-7.729
0
LINE
8
BLACK
6
CONTINUOUS
10
-5.33358
20
-7.729
11
-5.52474
21
-7.729
0
LINE
8
BLACK
6
CONTINUOUS
10
-5.52474
20
-7.729
11
-5.55039
21
-7.72447
0
LINE
8
BLACK
6
CONTINUOUS
10
-5.55039
20
-7.72447
11
-5.55383
21
-7.72159
0
LINE
8
BLACK
6
CONTINUOUS
10
-5.55383
20
-7.72159
11
-5.55828
21
-7.72108
0
LINE
8
BLACK
6
CONTINUOUS
10
-5.55828
20
-7.72108
11
-5.65386
21
-7.67329
0
LINE
8
BLACK
6
CONTINUOUS
10
-5.65386
20
-7.67329
11
-5.67478
21
-7.65777
0
LINE
8
BLACK
6
CONTINUOUS
10
-5.67478
20
-7.65777
11
-5.67925
21
-7.64747
0
LINE
8
BLACK
6
CONTINUOUS
10
-5.67925
20
-7.64747
11
-5.6874
21
-7.63975
0
LINE
8
BLACK
6
CONTINUOUS
10
-5.6874
20
-7.63975
11
-5.73519
21
-7.54417
0
LINE
8
BLACK
6
CONTINUOUS
10
-5.73519
20
-7.54417
11
-5.74262
21
-7.5192
0
LINE
8
BLACK
6
CONTINUOUS
10
-5.74262
20
-7.5192
11
-5.74157
21
-7.51484
0
LINE
8
BLACK
6
CONTINUOUS
10
-5.74157
20
-7.51484
11
-5.74311
21
-7.51063
0
LINE
8
BLACK
6
CONTINUOUS
10
-5.74311
20
-7.51063
11
-5.74311
21
-7.12832
0
LINE
8
BLACK
6
CONTINUOUS
10
-5.74311
20
-7.12832
11
-5.73858
21
-7.10266
0
LINE
8
BLACK
6
CONTINUOUS
10
-5.73858
20
-7.10266
11
-5.7357
21
-7.09923
0
LINE
8
BLACK
6
CONTINUOUS
10
-5.7357
20
-7.09923
11
-5.73519
21
-7.09477
0
LINE
8
BLACK
6
CONTINUOUS
10
-5.73519
20
-7.09477
11
-5.6874
21
-6.9992
0
LINE
8
BLACK
6
CONTINUOUS
10
-5.6874
20
-6.9992
11
-5.67188
21
-6.97828
0
LINE
8
BLACK
6
CONTINUOUS
10
-5.67188
20
-6.97828
11
-5.66158
21
-6.97381
0
LINE
8
BLACK
6
CONTINUOUS
10
-5.66158
20
-6.97381
11
-5.65386
21
-6.96565
0
LINE
8
BLACK
6
CONTINUOUS
10
-5.65386
20
-6.96565
11
-5.55828
21
-6.91787
0
LINE
8
BLACK
6
CONTINUOUS
10
-5.55828
20
-6.91787
11
-5.53332
21
-6.91044
0
LINE
8
BLACK
6
CONTINUOUS
10
-5.53332
20
-6.91044
11
-5.52895
21
-6.91148
0
LINE
8
BLACK
6
CONTINUOUS
10
-5.52895
20
-6.91148
11
-5.52474
21
-6.90995
0
LINE
8
BLACK
6
CONTINUOUS
10
-5.52474
20
-6.90995
11
-5.33358
21
-6.90995
0
LINE
8
BLACK
6
CONTINUOUS
10
-5.33358
20
-6.90995
11
-5.30793
21
-6.91447
0
LINE
8
BLACK
6
CONTINUOUS
10
-5.50704
20
-7.05995
11
-5.56442
21
-7.08864
0
LINE
8
BLACK
6
CONTINUOUS
10
-5.56442
20
-7.08864
11
-5.59311
21
-7.14602
0
LINE
8
BLACK
6
CONTINUOUS
10
-5.59311
20
-7.14602
11
-5.59311
21
-7.22799
0
LINE
8
BLACK
6
CONTINUOUS
10
-5.59311
20
-7.22799
11
-5.26522
21
-7.16241
0
LINE
8
BLACK
6
CONTINUOUS
10
-5.26522
20
-7.16241
11
-5.26522
21
-7.14602
0
LINE
8
BLACK
6
CONTINUOUS
10
-5.26522
20
-7.14602
11
-5.29391
21
-7.08864
0
LINE
8
BLACK
6
CONTINUOUS
10
-5.29391
20
-7.08864
11
-5.35129
21
-7.05995
0
LINE
8
BLACK
6
CONTINUOUS
10
-5.35129
20
-7.05995
11
-5.50704
21
-7.05995
0
LINE
8
BLACK
6
CONTINUOUS
10
-7.26729
20
-6.91447
11
-7.26386
21
-6.91735
0
LINE
8
BLACK
6
CONTINUOUS
10
-7.26386
20
-6.91735
11
-7.2594
21
-6.91787
0
LINE
8
BLACK
6
CONTINUOUS
10
-7.2594
20
-6.91787
11
-7.16383
21
-6.96565
0
LINE
8
BLACK
6
CONTINUOUS
10
-7.16383
20
-6.96565
11
-7.14582
21
-6.97901
0
LINE
8
BLACK
6
CONTINUOUS
10
-7.14582
20
-6.97901
11
-7.14433
21
-6.9797
0
LINE
8
BLACK
6
CONTINUOUS
10
-7.14433
20
-6.9797
11
-7.09654
21
-7.02749
0
LINE
8
BLACK
6
CONTINUOUS
10
-7.09654
20
-7.02749
11
-7.08368
21
-7.04586
0
LINE
8
BLACK
6
CONTINUOUS
10
-7.08368
20
-7.04586
11
-7.08249
21
-7.04698
0
LINE
8
BLACK
6
CONTINUOUS
10
-7.08249
20
-7.04698
11
-7.0347
21
-7.14256
0
LINE
8
BLACK
6
CONTINUOUS
10
-7.0347
20
-7.14256
11
-7.02728
21
-7.16753
0
LINE
8
BLACK
6
CONTINUOUS
10
-7.02728
20
-7.16753
11
-7.02832
21
-7.17189
0
LINE
8
BLACK
6
CONTINUOUS
10
-7.02832
20
-7.17189
11
-7.02679
21
-7.1761
0
LINE
8
BLACK
6
CONTINUOUS
10
-7.02679
20
-7.1761
11
-7.02679
21
-7.46284
0
LINE
8
BLACK
6
CONTINUOUS
10
-7.02679
20
-7.46284
11
-7.03131
21
-7.48849
0
LINE
8
BLACK
6
CONTINUOUS
10
-7.03131
20
-7.48849
11
-7.03419
21
-7.49193
0
LINE
8
BLACK
6
CONTINUOUS
10
-7.03419
20
-7.49193
11
-7.0347
21
-7.49638
0
LINE
8
BLACK
6
CONTINUOUS
10
-7.0347
20
-7.49638
11
-7.08249
21
-7.59196
0
LINE
8
BLACK
6
CONTINUOUS
10
-7.08249
20
-7.59196
11
-7.09585
21
-7.60997
0
LINE
8
BLACK
6
CONTINUOUS
10
-7.09585
20
-7.60997
11
-7.09654
21
-7.61145
0
LINE
8
BLACK
6
CONTINUOUS
10
-7.09654
20
-7.61145
11
-7.14433
21
-7.65924
0
LINE
8
BLACK
6
CONTINUOUS
10
-7.14433
20
-7.65924
11
-7.1627
21
-7.6721
0
LINE
8
BLACK
6
CONTINUOUS
10
-7.1627
20
-7.6721
11
-7.16382
21
-7.67329
0
LINE
8
BLACK
6
CONTINUOUS
10
-7.16382
20
-7.67329
11
-7.2594
21
-7.72108
0
LINE
8
BLACK
6
CONTINUOUS
10
-7.2594
20
-7.72108
11
-7.28437
21
-7.72851
0
LINE
8
BLACK
6
CONTINUOUS
10
-7.28437
20
-7.72851
11
-7.28873
21
-7.72746
0
LINE
8
BLACK
6
CONTINUOUS
10
-7.28873
20
-7.72746
11
-7.29294
21
-7.729
0
LINE
8
BLACK
6
CONTINUOUS
10
-7.29294
20
-7.729
11
-7.43631
21
-7.729
0
LINE
8
BLACK
6
CONTINUOUS
10
-7.43631
20
-7.729
11
-7.46196
21
-7.72447
0
LINE
8
BLACK
6
CONTINUOUS
10
-7.46196
20
-7.72447
11
-7.4654
21
-7.72159
0
LINE
8
BLACK
6
CONTINUOUS
10
-7.4654
20
-7.72159
11
-7.46985
21
-7.72108
0
LINE
8
BLACK
6
CONTINUOUS
10
-7.46985
20
-7.72108
11
-7.56543
21
-7.67329
0
LINE
8
BLACK
6
CONTINUOUS
10
-7.56543
20
-7.67329
11
-7.58344
21
-7.65993
0
LINE
8
BLACK
6
CONTINUOUS
10
-7.58344
20
-7.65993
11
-7.58492
21
-7.65924
0
LINE
8
BLACK
6
CONTINUOUS
10
-7.58492
20
-7.65924
11
-7.63271
21
-7.61145
0
LINE
8
BLACK
6
CONTINUOUS
10
-7.63271
20
-7.61145
11
-7.64557
21
-7.59309
0
LINE
8
BLACK
6
CONTINUOUS
10
-7.64557
20
-7.59309
11
-7.64676
21
-7.59196
0
LINE
8
BLACK
6
CONTINUOUS
10
-7.64676
20
-7.59196
11
-7.69455
21
-7.49638
0
LINE
8
BLACK
6
CONTINUOUS
10
-7.69455
20
-7.49638
11
-7.70198
21
-7.47141
0
LINE
8
BLACK
6
CONTINUOUS
10
-7.70198
20
-7.47141
11
-7.70093
21
-7.46705
0
LINE
8
BLACK
6
CONTINUOUS
10
-7.70093
20
-7.46705
11
-7.70247
21
-7.46284
0
LINE
8
BLACK
6
CONTINUOUS
10
-7.70247
20
-7.46284
11
-7.70247
21
-7.1761
0
LINE
8
BLACK
6
CONTINUOUS
10
-7.70247
20
-7.1761
11
-7.69795
21
-7.15045
0
LINE
8
BLACK
6
CONTINUOUS
10
-7.69795
20
-7.15045
11
-7.69506
21
-7.14702
0
LINE
8
BLACK
6
CONTINUOUS
10
-7.69506
20
-7.14702
11
-7.69455
21
-7.14256
0
LINE
8
BLACK
6
CONTINUOUS
10
-7.69455
20
-7.14256
11
-7.64676
21
-7.04699
0
LINE
8
BLACK
6
CONTINUOUS
10
-7.64676
20
-7.04699
11
-7.6334
21
-7.02897
0
LINE
8
BLACK
6
CONTINUOUS
10
-7.6334
20
-7.02897
11
-7.63271
21
-7.02749
0
LINE
8
BLACK
6
CONTINUOUS
10
-7.63271
20
-7.02749
11
-7.58492
21
-6.9797
0
LINE
8
BLACK
6
CONTINUOUS
10
-7.58492
20
-6.9797
11
-7.56656
21
-6.96684
0
LINE
8
BLACK
6
CONTINUOUS
10
-7.56656
20
-6.96684
11
-7.56543
21
-6.96565
0
LINE
8
BLACK
6
CONTINUOUS
10
-7.56543
20
-6.96565
11
-7.46985
21
-6.91787
0
LINE
8
BLACK
6
CONTINUOUS
10
-7.46985
20
-6.91787
11
-7.44489
21
-6.91044
0
LINE
8
BLACK
6
CONTINUOUS
10
-7.44489
20
-6.91044
11
-7.44053
21
-6.91148
0
LINE
8
BLACK
6
CONTINUOUS
10
-7.44053
20
-6.91148
11
-7.43631
21
-6.90995
0
LINE
8
BLACK
6
CONTINUOUS
10
-7.43631
20
-6.90995
11
-7.29294
21
-6.90995
0
LINE
8
BLACK
6
CONTINUOUS
10
-7.29294
20
-6.90995
11
-7.26729
21
-6.91447
0
LINE
8
BLACK
6
CONTINUOUS
10
-7.41861
20
-7.05995
11
-7.48746
21
-7.09438
0
LINE
8
BLACK
6
CONTINUOUS
10
-7.48746
20
-7.09438
11
-7.51804
21
-7.12495
0
LINE
8
BLACK
6
CONTINUOUS
10
-7.51804
20
-7.12495
11
-7.55247
21
-7.19381
0
LINE
8
BLACK
6
CONTINUOUS
10
-7.55247
20
-7.19381
11
-7.55247
21
-7.44514
0
LINE
8
BLACK
6
CONTINUOUS
10
-7.55247
20
-7.44514
11
-7.51804
21
-7.51399
0
LINE
8
BLACK
6
CONTINUOUS
10
-7.51804
20
-7.51399
11
-7.48746
21
-7.54457
0
LINE
8
BLACK
6
CONTINUOUS
10
-7.48746
20
-7.54457
11
-7.41861
21
-7.579
0
LINE
8
BLACK
6
CONTINUOUS
10
-7.41861
20
-7.579
11
-7.31065
21
-7.579
0
LINE
8
BLACK
6
CONTINUOUS
10
-7.31065
20
-7.579
11
-7.24179
21
-7.54457
0
LINE
8
BLACK
6
CONTINUOUS
10
-7.24179
20
-7.54457
11
-7.21121
21
-7.51399
0
LINE
8
BLACK
6
CONTINUOUS
10
-7.21121
20
-7.51399
11
-7.17679
21
-7.44514
0
LINE
8
BLACK
6
CONTINUOUS
10
-7.17679
20
-7.44514
11
-7.17679
21
-7.19381
0
LINE
8
BLACK
6
CONTINUOUS
10
-7.17679
20
-7.19381
11
-7.21121
21
-7.12495
0
LINE
8
BLACK
6
CONTINUOUS
10
-7.21121
20
-7.12495
11
-7.24179
21
-7.09438
0
LINE
8
BLACK
6
CONTINUOUS
10
-7.24179
20
-7.09438
11
-7.31065
21
-7.05995
0
LINE
8
BLACK
6
CONTINUOUS
10
-7.31065
20
-7.05995
11
-7.41861
21
-7.05995
0
LINE
8
BLACK
6
CONTINUOUS
10
-6.72526
20
-6.92281
11
-6.69515
21
-6.96434
0
LINE
8
BLACK
6
CONTINUOUS
10
-6.69515
20
-6.96434
11
-6.56426
21
-7.42245
0
LINE
8
BLACK
6
CONTINUOUS
10
-6.56426
20
-7.42245
11
-6.45458
21
-7.14825
0
LINE
8
BLACK
6
CONTINUOUS
10
-6.45458
20
-7.14825
11
-6.44478
21
-7.13244
0
LINE
8
BLACK
6
CONTINUOUS
10
-6.44478
20
-7.13244
11
-6.44389
21
-7.12973
0
LINE
8
BLACK
6
CONTINUOUS
10
-6.44389
20
-7.12973
11
-6.4426
21
-7.12893
0
LINE
8
BLACK
6
CONTINUOUS
10
-6.4426
20
-7.12893
11
-6.44086
21
-7.12611
0
LINE
8
BLACK
6
CONTINUOUS
10
-6.44086
20
-7.12611
11
-6.42021
21
-7.11504
0
LINE
8
BLACK
6
CONTINUOUS
10
-6.42021
20
-7.11504
11
-6.40029
21
-7.10269
0
LINE
8
BLACK
6
CONTINUOUS
10
-6.40029
20
-7.10269
11
-6.39783
21
-7.10304
0
LINE
8
BLACK
6
CONTINUOUS
10
-6.39783
20
-7.10304
11
-6.39564
21
-7.10187
0
LINE
8
BLACK
6
CONTINUOUS
10
-6.39564
20
-7.10187
11
-6.3727
21
-7.10666
0
LINE
8
BLACK
6
CONTINUOUS
10
-6.3727
20
-7.10666
11
-6.34951
21
-7.11001
0
LINE
8
BLACK
6
CONTINUOUS
10
-6.34951
20
-7.11001
11
-6.34786
21
-7.11186
0
LINE
8
BLACK
6
CONTINUOUS
10
-6.34786
20
-7.11186
11
-6.34542
21
-7.11236
0
LINE
8
BLACK
6
CONTINUOUS
10
-6.34542
20
-7.11236
11
-6.33093
21
-7.13079
0
LINE
8
BLACK
6
CONTINUOUS
10
-6.33093
20
-7.13079
11
-6.31531
21
-7.14825
0
LINE
8
BLACK
6
CONTINUOUS
10
-6.31531
20
-7.14825
11
-6.20563
21
-7.42245
0
LINE
8
BLACK
6
CONTINUOUS
10
-6.20563
20
-7.42245
11
-6.07475
21
-6.96434
0
LINE
8
BLACK
6
CONTINUOUS
10
-6.07475
20
-6.96434
11
-6.06335
21
-6.94092
0
LINE
8
BLACK
6
CONTINUOUS
10
-6.06335
20
-6.94092
11
-6.02085
21
-6.91219
0
LINE
8
BLACK
6
CONTINUOUS
10
-6.02085
20
-6.91219
11
-5.96982
21
-6.91751
0
LINE
8
BLACK
6
CONTINUOUS
10
-5.96982
20
-6.91751
11
-5.93415
21
-6.95438
0
LINE
8
BLACK
6
CONTINUOUS
10
-5.93415
20
-6.95438
11
-5.93052
21
-7.00555
0
LINE
8
BLACK
6
CONTINUOUS
10
-5.93052
20
-7.00555
11
-6.12168
21
-7.6746
0
LINE
8
BLACK
6
CONTINUOUS
10
-6.12168
20
-7.6746
11
-6.13307
21
-7.69802
0
LINE
8
BLACK
6
CONTINUOUS
10
-6.13307
20
-7.69802
11
-6.13436
21
-7.6989
0
LINE
8
BLACK
6
CONTINUOUS
10
-6.13436
20
-7.6989
11
-6.13485
21
-7.70038
0
LINE
8
BLACK
6
CONTINUOUS
10
-6.13485
20
-7.70038
11
-6.15547
21
-7.71316
0
LINE
8
BLACK
6
CONTINUOUS
10
-6.15547
20
-7.71316
11
-6.17558
21
-7.72675
0
LINE
8
BLACK
6
CONTINUOUS
10
-6.17558
20
-7.72675
11
-6.17713
21
-7.72659
0
LINE
8
BLACK
6
CONTINUOUS
10
-6.17713
20
-7.72659
11
-6.17845
21
-7.72741
0
LINE
8
BLACK
6
CONTINUOUS
10
-6.17845
20
-7.72741
11
-6.20246
21
-7.72395
0
LINE
8
BLACK
6
CONTINUOUS
10
-6.20246
20
-7.72395
11
-6.2266
21
-7.72144
0
LINE
8
BLACK
6
CONTINUOUS
10
-6.2266
20
-7.72144
11
-6.22769
21
-7.72032
0
LINE
8
BLACK
6
CONTINUOUS
10
-6.22769
20
-7.72032
11
-6.22923
21
-7.7201
0
LINE
8
BLACK
6
CONTINUOUS
10
-6.22923
20
-7.7201
11
-6.2454
21
-7.70201
0
LINE
8
BLACK
6
CONTINUOUS
10
-6.2454
20
-7.70201
11
-6.26228
21
-7.68457
0
LINE
8
BLACK
6
CONTINUOUS
10
-6.26228
20
-7.68457
11
-6.26239
21
-7.68301
0
LINE
8
BLACK
6
CONTINUOUS
10
-6.26239
20
-7.68301
11
-6.26343
21
-7.68185
0
LINE
8
BLACK
6
CONTINUOUS
10
-6.26343
20
-7.68185
11
-6.38495
21
-7.37805
0
LINE
8
BLACK
6
CONTINUOUS
10
-6.38495
20
-7.37805
11
-6.50647
21
-7.68185
0
LINE
8
BLACK
6
CONTINUOUS
10
-6.50647
20
-7.68185
11
-6.5202
21
-7.70399
0
LINE
8
BLACK
6
CONTINUOUS
10
-6.5202
20
-7.70399
11
-6.52157
21
-7.70473
0
LINE
8
BLACK
6
CONTINUOUS
10
-6.52157
20
-7.70473
11
-6.5222
21
-7.70615
0
LINE
8
BLACK
6
CONTINUOUS
10
-6.5222
20
-7.70615
11
-6.54401
21
-7.71676
0
LINE
8
BLACK
6
CONTINUOUS
10
-6.54401
20
-7.71676
11
-6.56541
21
-7.72823
0
LINE
8
BLACK
6
CONTINUOUS
10
-6.56541
20
-7.72823
11
-6.56694
21
-7.72791
0
LINE
8
BLACK
6
CONTINUOUS
10
-6.56694
20
-7.72791
11
-6.56834
21
-7.72859
0
LINE
8
BLACK
6
CONTINUOUS
10
-6.56834
20
-7.72859
11
-6.59186
21
-7.7227
0
LINE
8
BLACK
6
CONTINUOUS
10
-6.59186
20
-7.7227
11
-6.61563
21
-7.71774
0
LINE
8
BLACK
6
CONTINUOUS
10
-6.61563
20
-7.71774
11
-6.61659
21
-7.71651
0
LINE
8
BLACK
6
CONTINUOUS
10
-6.61659
20
-7.71651
11
-6.6181
21
-7.71613
0
LINE
8
BLACK
6
CONTINUOUS
10
-6.6181
20
-7.71613
11
-6.63234
21
-7.6965
0
LINE
8
BLACK
6
CONTINUOUS
10
-6.63234
20
-7.6965
11
-6.64735
21
-7.67742
0
LINE
8
BLACK
6
CONTINUOUS
10
-6.64735
20
-7.67742
11
-6.6473
21
-7.67586
0
LINE
8
BLACK
6
CONTINUOUS
10
-6.6473
20
-7.67586
11
-6.64822
21
-7.6746
0
LINE
8
BLACK
6
CONTINUOUS
10
-6.64822
20
-7.6746
11
-6.83938
21
-7.00555
0
LINE
8
BLACK
6
CONTINUOUS
10
-6.83938
20
-7.00555
11
-6.84207
21
-6.97964
0
LINE
8
BLACK
6
CONTINUOUS
10
-6.84207
20
-6.97964
11
-6.82116
21
-6.9328
0
LINE
8
BLACK
6
CONTINUOUS
10
-6.82116
20
-6.9328
11
-6.77503
21
-6.91035
0
LINE
8
BLACK
6
CONTINUOUS
10
-6.77503
20
-6.91035
11
-6.72526
21
-6.92281
0
LINE
8
BLACK
6
CONTINUOUS
10
-4.44772
20
-6.91447
11
-4.40842
21
-6.94745
0
LINE
8
BLACK
6
CONTINUOUS
10
-4.40842
20
-6.94745
11
-4.39952
21
-6.99797
0
LINE
8
BLACK
6
CONTINUOUS
10
-4.39952
20
-6.99797
11
-4.42517
21
-7.0424
0
LINE
8
BLACK
6
CONTINUOUS
10
-4.42517
20
-7.0424
11
-4.47338
21
-7.05995
0
LINE
8
BLACK
6
CONTINUOUS
10
-4.47338
20
-7.05995
11
-4.55125
21
-7.05995
0
LINE
8
BLACK
6
CONTINUOUS
10
-4.55125
20
-7.05995
11
-4.62011
21
-7.09438
0
LINE
8
BLACK
6
CONTINUOUS
10
-4.62011
20
-7.09438
11
-4.65068
21
-7.12495
0
LINE
8
BLACK
6
CONTINUOUS
10
-4.65068
20
-7.12495
11
-4.68511
21
-7.19381
0
LINE
8
BLACK
6
CONTINUOUS
10
-4.68511
20
-7.19381
11
-4.68511
21
-7.654
0
LINE
8
BLACK
6
CONTINUOUS
10
-4.68511
20
-7.654
11
-4.68963
21
-7.67965
0
LINE
8
BLACK
6
CONTINUOUS
10
-4.68963
20
-7.67965
11
-4.72261
21
-7.71895
0
LINE
8
BLACK
6
CONTINUOUS
10
-4.72261
20
-7.71895
11
-4.77314
21
-7.72786
0
LINE
8
BLACK
6
CONTINUOUS
10
-4.77314
20
-7.72786
11
-4.81757
21
-7.70221
0
LINE
8
BLACK
6
CONTINUOUS
10
-4.81757
20
-7.70221
11
-4.83511
21
-7.654
0
LINE
8
BLACK
6
CONTINUOUS
10
-4.83511
20
-7.654
11
-4.83511
21
-6.98495
0
LINE
8
BLACK
6
CONTINUOUS
10
-4.83511
20
-6.98495
11
-4.83059
21
-6.9593
0
LINE
8
BLACK
6
CONTINUOUS
10
-4.83059
20
-6.9593
11
-4.79761
21
-6.92
0
LINE
8
BLACK
6
CONTINUOUS
10
-4.79761
20
-6.92
11
-4.74709
21
-6.91109
0
LINE
8
BLACK
6
CONTINUOUS
10
-4.74709
20
-6.91109
11
-4.70266
21
-6.93674
0
LINE
8
BLACK
6
CONTINUOUS
10
-4.70266
20
-6.93674
11
-4.69305
21
-6.96314
0
LINE
8
BLACK
6
CONTINUOUS
10
-4.69305
20
-6.96314
11
-4.6025
21
-6.91787
0
LINE
8
BLACK
6
CONTINUOUS
10
-4.6025
20
-6.91787
11
-4.57753
21
-6.91044
0
LINE
8
BLACK
6
CONTINUOUS
10
-4.57753
20
-6.91044
11
-4.57317
21
-6.91148
0
LINE
8
BLACK
6
CONTINUOUS
10
-4.57317
20
-6.91148
11
-4.56895
21
-6.90995
0
LINE
8
BLACK
6
CONTINUOUS
10
-4.56895
20
-6.90995
11
-4.47338
21
-6.90995
0
LINE
8
BLACK
6
CONTINUOUS
10
-4.47338
20
-6.90995
11
-4.44772
21
-6.91447
0
LINE
8
BLACK
6
CONTINUOUS
10
-8.17529
20
-6.57995
11
-8.17185
21
-6.58283
0
LINE
8
BLACK
6
CONTINUOUS
10
-8.17185
20
-6.58283
11
-8.1674
21
-6.58334
0
LINE
8
BLACK
6
CONTINUOUS
10
-8.1674
20
-6.58334
11
-8.07182
21
-6.63113
0
LINE
8
BLACK
6
CONTINUOUS
10
-8.07182
20
-6.63113
11
-8.05381
21
-6.64449
0
LINE
8
BLACK
6
CONTINUOUS
10
-8.05381
20
-6.64449
11
-8.05233
21
-6.64518
0
LINE
8
BLACK
6
CONTINUOUS
10
-8.05233
20
-6.64518
11
-8.00454
21
-6.69297
0
LINE
8
BLACK
6
CONTINUOUS
10
-8.00454
20
-6.69297
11
-7.99168
21
-6.71134
0
LINE
8
BLACK
6
CONTINUOUS
10
-7.99168
20
-6.71134
11
-7.99049
21
-6.71246
0
LINE
8
BLACK
6
CONTINUOUS
10
-7.99049
20
-6.71246
11
-7.9427
21
-6.80804
0
LINE
8
BLACK
6
CONTINUOUS
10
-7.9427
20
-6.80804
11
-7.93527
21
-6.833
0
LINE
8
BLACK
6
CONTINUOUS
10
-7.93527
20
-6.833
11
-7.93632
21
-6.83737
0
LINE
8
BLACK
6
CONTINUOUS
10
-7.93632
20
-6.83737
11
-7.93478
21
-6.84158
0
LINE
8
BLACK
6
CONTINUOUS
10
-7.93478
20
-6.84158
11
-7.93478
21
-6.98495
0
LINE
8
BLACK
6
CONTINUOUS
10
-7.93478
20
-6.98495
11
-7.93931
21
-7.0106
0
LINE
8
BLACK
6
CONTINUOUS
10
-7.93931
20
-7.0106
11
-7.94219
21
-7.01403
0
LINE
8
BLACK
6
CONTINUOUS
10
-7.94219
20
-7.01403
11
-7.9427
21
-7.01849
0
LINE
8
BLACK
6
CONTINUOUS
10
-7.9427
20
-7.01849
11
-7.99049
21
-7.11407
0
LINE
8
BLACK
6
CONTINUOUS
10
-7.99049
20
-7.11407
11
-8.00385
21
-7.13207
0
LINE
8
BLACK
6
CONTINUOUS
10
-8.00385
20
-7.13207
11
-8.00454
21
-7.13356
0
LINE
8
BLACK
6
CONTINUOUS
10
-8.00454
20
-7.13356
11
-8.05233
21
-7.18135
0
LINE
8
BLACK
6
CONTINUOUS
10
-8.05233
20
-7.18135
11
-8.0707
21
-7.19421
0
LINE
8
BLACK
6
CONTINUOUS
10
-8.0707
20
-7.19421
11
-8.07182
21
-7.1954
0
LINE
8
BLACK
6
CONTINUOUS
10
-8.07182
20
-7.1954
11
-8.1674
21
-7.24319
0
LINE
8
BLACK
6
CONTINUOUS
10
-8.1674
20
-7.24319
11
-8.19237
21
-7.25061
0
LINE
8
BLACK
6
CONTINUOUS
10
-8.19237
20
-7.25061
11
-8.19673
21
-7.24957
0
LINE
8
BLACK
6
CONTINUOUS
10
-8.19673
20
-7.24957
11
-8.20094
21
-7.2511
0
LINE
8
BLACK
6
CONTINUOUS
10
-8.20094
20
-7.2511
11
-8.50826
21
-7.2511
0
LINE
8
BLACK
6
CONTINUOUS
10
-8.50826
20
-7.2511
11
-8.50826
21
-7.654
0
LINE
8
BLACK
6
CONTINUOUS
10
-8.50826
20
-7.654
11
-8.51278
21
-7.67965
0
LINE
8
BLACK
6
CONTINUOUS
10
-8.51278
20
-7.67965
11
-8.54575
21
-7.71895
0
LINE
8
BLACK
6
CONTINUOUS
10
-8.54575
20
-7.71895
11
-8.59628
21
-7.72786
0
LINE
8
BLACK
6
CONTINUOUS
10
-8.59628
20
-7.72786
11
-8.64071
21
-7.70221
0
LINE
8
BLACK
6
CONTINUOUS
10
-8.64071
20
-7.70221
11
-8.65826
21
-7.654
0
LINE
8
BLACK
6
CONTINUOUS
10
-8.65826
20
-7.654
11
-8.65826
21
-6.65042
0
LINE
8
BLACK
6
CONTINUOUS
10
-8.65826
20
-6.65042
11
-8.65654
21
-6.64068
0
LINE
8
BLACK
6
CONTINUOUS
10
-8.65654
20
-6.64068
11
-8.65712
21
-6.6374
0
LINE
8
BLACK
6
CONTINUOUS
10
-8.65712
20
-6.6374
11
-8.65545
21
-6.63451
0
LINE
8
BLACK
6
CONTINUOUS
10
-8.65545
20
-6.63451
11
-8.65373
21
-6.62477
0
LINE
8
BLACK
6
CONTINUOUS
10
-8.65373
20
-6.62477
11
-8.64121
21
-6.60984
0
LINE
8
BLACK
6
CONTINUOUS
10
-8.64121
20
-6.60984
11
-8.63146
21
-6.59297
0
LINE
8
BLACK
6
CONTINUOUS
10
-8.63146
20
-6.59297
11
-8.6251
21
-6.59066
0
LINE
8
BLACK
6
CONTINUOUS
10
-8.6251
20
-6.59066
11
-8.62075
21
-6.58547
0
LINE
8
BLACK
6
CONTINUOUS
10
-8.62075
20
-6.58547
11
-8.60156
21
-6.58209
0
LINE
8
BLACK
6
CONTINUOUS
10
-8.60156
20
-6.58209
11
-8.58325
21
-6.57542
0
LINE
8
BLACK
6
CONTINUOUS
10
-8.58325
20
-6.57542
11
-8.20094
21
-6.57542
0
LINE
8
BLACK
6
CONTINUOUS
10
-8.20094
20
-6.57542
11
-8.17529
21
-6.57995
0
LINE
8
BLACK
6
CONTINUOUS
10
-8.50826
20
-6.72542
11
-8.50826
21
-7.1011
0
LINE
8
BLACK
6
CONTINUOUS
10
-8.50826
20
-7.1011
11
-8.21865
21
-7.1011
0
LINE
8
BLACK
6
CONTINUOUS
10
-8.21865
20
-7.1011
11
-8.14979
21
-7.06668
0
LINE
8
BLACK
6
CONTINUOUS
10
-8.14979
20
-7.06668
11
-8.11921
21
-7.0361
0
LINE
8
BLACK
6
CONTINUOUS
10
-8.11921
20
-7.0361
11
-8.08478
21
-6.96724
0
LINE
8
BLACK
6
CONTINUOUS
10
-8.08478
20
-6.96724
11
-8.08478
21
-6.85928
0
LINE
8
BLACK
6
CONTINUOUS
10
-8.08478
20
-6.85928
11
-8.11921
21
-6.79043
0
LINE
8
BLACK
6
CONTINUOUS
10
-8.11921
20
-6.79043
11
-8.14979
21
-6.75985
0
LINE
8
BLACK
6
CONTINUOUS
10
-8.14979
20
-6.75985
11
-8.21865
21
-6.72542
0
LINE
8
BLACK
6
CONTINUOUS
10
-8.21865
20
-6.72542
11
-8.50826
21
-6.72542
0
LINE
8
BLACK
6
CONTINUOUS
10
-1.8551
20
-3.6051
11
-1.8365
21
-3.65
0
LINE
8
BLACK
6
CONTINUOUS
10
-1.8365
20
-3.65
11
-1.8551
21
-3.6949
0
LINE
8
BLACK
6
CONTINUOUS
10
-1.8551
20
-3.6949
11
-1.9
21
-3.7135
0
LINE
8
BLACK
6
CONTINUOUS
10
-1.9
20
-3.7135
11
-3.8865
21
-3.7135
0
LINE
8
BLACK
6
CONTINUOUS
10
-3.8865
20
-3.7135
11
-3.8865
21
-7.65
0
LINE
8
BLACK
6
CONTINUOUS
10
-3.8865
20
-7.65
11
-3.9051
21
-7.6949
0
LINE
8
BLACK
6
CONTINUOUS
10
-3.9051
20
-7.6949
11
-3.95
21
-7.7135
0
LINE
8
BLACK
6
CONTINUOUS
10
-3.95
20
-7.7135
11
-3.9949
21
-7.6949
0
LINE
8
BLACK
6
CONTINUOUS
10
-3.9949
20
-7.6949
11
-4.0135
21
-7.65
0
LINE
8
BLACK
6
CONTINUOUS
10
-4.0135
20
-7.65
11
-4.0135
21
-3.65
0
LINE
8
BLACK
6
CONTINUOUS
10
-4.0135
20
-3.65
11
-3.9949
21
-3.6051
0
LINE
8
BLACK
6
CONTINUOUS
10
-3.9949
20
-3.6051
11
-3.95
21
-3.5865
0
LINE
8
BLACK
6
CONTINUOUS
10
-3.95
20
-3.5865
11
-1.9
21
-3.5865
0
LINE
8
BLACK
6
CONTINUOUS
10
-1.9
20
-3.5865
11
-1.8551
21
-3.6051
0
LINE
8
BLACK
6
CONTINUOUS
10
3.9949
20
-3.6051
11
4.0135
21
-3.65
0
LINE
8
BLACK
6
CONTINUOUS
10
4.0135
20
-3.65
11
4.0135
21
-7.65
0
LINE
8
BLACK
6
CONTINUOUS
10
4.0135
20
-7.65
11
3.9949
21
-7.6949
0
LINE
8
BLACK
6
CONTINUOUS
10
3.9949
20
-7.6949
11
3.95
21
-7.7135
0
LINE
8
BLACK
6
CONTINUOUS
10
3.95
20
-7.7135
11
3.9051
21
-7.6949
0
LINE
8
BLACK
6
CONTINUOUS
10
3.9051
20
-7.6949
11
3.8865
21
-7.65
0
LINE
8
BLACK
6
CONTINUOUS
10
3.8865
20
-7.65
11
3.8865
21
-3.7135
0
LINE
8
BLACK
6
CONTINUOUS
10
3.8865
20
-3.7135
11
1.9
21
-3.7135
0
LINE
8
BLACK
6
CONTINUOUS
10
1.9
20
-3.7135
11
1.8551
21
-3.6949
0
LINE
8
BLACK
6
CONTINUOUS
10
1.8551
20
-3.6949
11
1.8365
21
-3.65
0
LINE
8
BLACK
6
CONTINUOUS
10
1.8365
20
-3.65
11
1.8551
21
-3.6051
0
LINE
8
BLACK
6
CONTINUOUS
10
1.8551
20
-3.6051
11
1.9
21
-3.5865
0
LINE
8
BLACK
6
CONTINUOUS
10
1.9
20
-3.5865
11
3.95
21
-3.5865
0
LINE
8
BLACK
6
CONTINUOUS
10
3.95
20
-3.5865
11
3.9949
21
-3.6051
0
LINE
8
BLACK
6
CONTINUOUS
10
-5.62532
20
-4.97814
11
-5.62188
21
-4.97761
0
LINE
8
BLACK
6
CONTINUOUS
10
-5.62188
20
-4.97761
11
-5.61922
21
-4.97922
0
LINE
8
BLACK
6
CONTINUOUS
10
-5.61922
20
-4.97922
11
-5.61077
21
-4.9807
0
LINE
8
BLACK
6
CONTINUOUS
10
-5.61077
20
-4.9807
11
-5.59528
21
-4.9937
0
LINE
8
BLACK
6
CONTINUOUS
10
-5.59528
20
-4.9937
11
-5.57799
21
-5.00417
0
LINE
8
BLACK
6
CONTINUOUS
10
-5.57799
20
-5.00417
11
-5.57606
21
-5.00984
0
LINE
8
BLACK
6
CONTINUOUS
10
-5.57606
20
-5.00984
11
-5.57147
21
-5.01368
0
LINE
8
BLACK
6
CONTINUOUS
10
-5.57147
20
-5.01368
11
-5.56796
21
-5.0336
0
LINE
8
BLACK
6
CONTINUOUS
10
-5.56796
20
-5.0336
11
-5.56144
21
-5.05273
0
LINE
8
BLACK
6
CONTINUOUS
10
-5.56144
20
-5.05273
11
-5.5636
21
-5.05831
0
LINE
8
BLACK
6
CONTINUOUS
10
-5.5636
20
-5.05831
11
-5.56257
21
-5.06421
0
LINE
8
BLACK
6
CONTINUOUS
10
-5.56257
20
-5.06421
11
-5.57268
21
-5.08172
0
LINE
8
BLACK
6
CONTINUOUS
10
-5.57268
20
-5.08172
11
-5.57998
21
-5.10057
0
LINE
8
BLACK
6
CONTINUOUS
10
-5.57998
20
-5.10057
11
-5.80816
21
-5.36135
0
LINE
8
BLACK
6
CONTINUOUS
10
-5.80816
20
-5.36135
11
-5.80167
21
-5.36249
0
LINE
8
BLACK
6
CONTINUOUS
10
-5.80167
20
-5.36249
11
-5.79823
21
-5.36537
0
LINE
8
BLACK
6
CONTINUOUS
10
-5.79823
20
-5.36537
11
-5.79378
21
-5.36589
0
LINE
8
BLACK
6
CONTINUOUS
10
-5.79378
20
-5.36589
11
-5.69833
21
-5.41361
0
LINE
8
BLACK
6
CONTINUOUS
10
-5.69833
20
-5.41361
11
-5.68032
21
-5.42697
0
LINE
8
BLACK
6
CONTINUOUS
10
-5.68032
20
-5.42697
11
-5.67884
21
-5.42766
0
LINE
8
BLACK
6
CONTINUOUS
10
-5.67884
20
-5.42766
11
-5.63112
21
-5.47538
0
LINE
8
BLACK
6
CONTINUOUS
10
-5.63112
20
-5.47538
11
-5.61825
21
-5.49375
0
LINE
8
BLACK
6
CONTINUOUS
10
-5.61825
20
-5.49375
11
-5.61707
21
-5.49487
0
LINE
8
BLACK
6
CONTINUOUS
10
-5.61707
20
-5.49487
11
-5.56934
21
-5.59032
0
LINE
8
BLACK
6
CONTINUOUS
10
-5.56934
20
-5.59032
11
-5.56192
21
-5.61529
0
LINE
8
BLACK
6
CONTINUOUS
10
-5.56192
20
-5.61529
11
-5.56296
21
-5.61965
0
LINE
8
BLACK
6
CONTINUOUS
10
-5.56296
20
-5.61965
11
-5.56143
21
-5.62386
0
LINE
8
BLACK
6
CONTINUOUS
10
-5.56143
20
-5.62386
11
-5.56143
21
-5.86248
0
LINE
8
BLACK
6
CONTINUOUS
10
-5.56143
20
-5.86248
11
-5.56595
21
-5.88813
0
LINE
8
BLACK
6
CONTINUOUS
10
-5.56595
20
-5.88813
11
-5.56883
21
-5.89156
0
LINE
8
BLACK
6
CONTINUOUS
10
-5.56883
20
-5.89156
11
-5.56934
21
-5.89602
0
LINE
8
BLACK
6
CONTINUOUS
10
-5.56934
20
-5.89602
11
-5.61707
21
-5.99146
0
LINE
8
BLACK
6
CONTINUOUS
10
-5.61707
20
-5.99146
11
-5.63043
21
-6.00948
0
LINE
8
BLACK
6
CONTINUOUS
10
-5.63043
20
-6.00948
11
-5.63112
21
-6.01096
0
LINE
8
BLACK
6
CONTINUOUS
10
-5.63112
20
-6.01096
11
-5.67884
21
-6.05868
0
LINE
8
BLACK
6
CONTINUOUS
10
-5.67884
20
-6.05868
11
-5.69721
21
-6.07154
0
LINE
8
BLACK
6
CONTINUOUS
10
-5.69721
20
-6.07154
11
-5.69833
21
-6.07273
0
LINE
8
BLACK
6
CONTINUOUS
10
-5.69833
20
-6.07273
11
-5.79378
21
-6.12045
0
LINE
8
BLACK
6
CONTINUOUS
10
-5.79378
20
-6.12045
11
-5.81874
21
-6.12788
0
LINE
8
BLACK
6
CONTINUOUS
10
-5.81874
20
-6.12788
11
-5.82311
21
-6.12684
0
LINE
8
BLACK
6
CONTINUOUS
10
-5.82311
20
-6.12684
11
-5.82732
21
-6.12837
0
LINE
8
BLACK
6
CONTINUOUS
10
-5.82732
20
-6.12837
11
-6.11366
21
-6.12837
0
LINE
8
BLACK
6
CONTINUOUS
10
-6.11366
20
-6.12837
11
-6.13931
21
-6.12385
0
LINE
8
BLACK
6
CONTINUOUS
10
-6.13931
20
-6.12385
11
-6.14275
21
-6.12097
0
LINE
8
BLACK
6
CONTINUOUS
10
-6.14275
20
-6.12097
11
-6.1472
21
-6.12045
0
LINE
8
BLACK
6
CONTINUOUS
10
-6.1472
20
-6.12045
11
-6.24265
21
-6.07273
0
LINE
8
BLACK
6
CONTINUOUS
10
-6.24265
20
-6.07273
11
-6.26066
21
-6.05937
0
LINE
8
BLACK
6
CONTINUOUS
10
-6.26066
20
-6.05937
11
-6.26214
21
-6.05868
0
LINE
8
BLACK
6
CONTINUOUS
10
-6.26214
20
-6.05868
11
-6.30986
21
-6.01096
0
LINE
8
BLACK
6
CONTINUOUS
10
-6.30986
20
-6.01096
11
-6.3248
21
-5.98962
0
LINE
8
BLACK
6
CONTINUOUS
10
-6.3248
20
-5.98962
11
-6.32927
21
-5.93851
0
LINE
8
BLACK
6
CONTINUOUS
10
-6.32927
20
-5.93851
11
-6.29985
21
-5.89649
0
LINE
8
BLACK
6
CONTINUOUS
10
-6.29985
20
-5.89649
11
-6.25029
21
-5.88321
0
LINE
8
BLACK
6
CONTINUOUS
10
-6.25029
20
-5.88321
11
-6.2038
21
-5.90489
0
LINE
8
BLACK
6
CONTINUOUS
10
-6.2038
20
-5.90489
11
-6.16468
21
-5.94401
0
LINE
8
BLACK
6
CONTINUOUS
10
-6.16468
20
-5.94401
11
-6.09596
21
-5.97837
0
LINE
8
BLACK
6
CONTINUOUS
10
-6.09596
20
-5.97837
11
-5.84503
21
-5.97837
0
LINE
8
BLACK
6
CONTINUOUS
10
-5.84503
20
-5.97837
11
-5.7763
21
-5.94401
0
LINE
8
BLACK
6
CONTINUOUS
10
-5.7763
20
-5.94401
11
-5.74579
21
-5.9135
0
LINE
8
BLACK
6
CONTINUOUS
10
-5.74579
20
-5.9135
11
-5.71143
21
-5.84477
0
LINE
8
BLACK
6
CONTINUOUS
10
-5.71143
20
-5.84477
11
-5.71143
21
-5.64157
0
LINE
8
BLACK
6
CONTINUOUS
10
-5.71143
20
-5.64157
11
-5.74579
21
-5.57284
0
LINE
8
BLACK
6
CONTINUOUS
10
-5.74579
20
-5.57284
11
-5.7763
21
-5.54233
0
LINE
8
BLACK
6
CONTINUOUS
10
-5.7763
20
-5.54233
11
-5.84502
21
-5.50797
0
LINE
8
BLACK
6
CONTINUOUS
10
-5.84502
20
-5.50797
11
-5.97049
21
-5.50797
0
LINE
8
BLACK
6
CONTINUOUS
10
-5.97049
20
-5.50797
11
-5.9816
21
-5.50601
0
LINE
8
BLACK
6
CONTINUOUS
10
-5.9816
20
-5.50601
11
-5.98504
21
-5.50654
0
LINE
8
BLACK
6
CONTINUOUS
10
-5.98504
20
-5.50654
11
-5.9877
21
-5.50493
0
LINE
8
BLACK
6
CONTINUOUS
10
-5.9877
20
-5.50493
11
-5.99614
21
-5.50345
0
LINE
8
BLACK
6
CONTINUOUS
10
-5.99614
20
-5.50345
11
-6.01163
21
-5.49045
0
LINE
8
BLACK
6
CONTINUOUS
10
-6.01163
20
-5.49045
11
-6.02893
21
-5.47998
0
LINE
8
BLACK
6
CONTINUOUS
10
-6.02893
20
-5.47998
11
-6.03086
21
-5.47431
0
LINE
8
BLACK
6
CONTINUOUS
10
-6.03086
20
-5.47431
11
-6.03544
21
-5.47047
0
LINE
8
BLACK
6
CONTINUOUS
10
-6.03544
20
-5.47047
11
-6.03895
21
-5.45055
0
LINE
8
BLACK
6
CONTINUOUS
10
-6.03895
20
-5.45055
11
-6.04547
21
-5.43142
0
LINE
8
BLACK
6
CONTINUOUS
10
-6.04547
20
-5.43142
11
-6.04331
21
-5.42584
0
LINE
8
BLACK
6
CONTINUOUS
10
-6.04331
20
-5.42584
11
-6.04435
21
-5.41994
0
LINE
8
BLACK
6
CONTINUOUS
10
-6.04435
20
-5.41994
11
-6.03424
21
-5.40243
0
LINE
8
BLACK
6
CONTINUOUS
10
-6.03424
20
-5.40243
11
-6.02693
21
-5.38358
0
LINE
8
BLACK
6
CONTINUOUS
10
-6.02693
20
-5.38358
11
-5.80171
21
-5.12618
0
LINE
8
BLACK
6
CONTINUOUS
10
-5.80171
20
-5.12618
11
-6.25683
21
-5.12618
0
LINE
8
BLACK
6
CONTINUOUS
10
-6.25683
20
-5.12618
11
-6.28248
21
-5.12166
0
LINE
8
BLACK
6
CONTINUOUS
10
-6.28248
20
-5.12166
11
-6.32178
21
-5.08868
0
LINE
8
BLACK
6
CONTINUOUS
10
-6.32178
20
-5.08868
11
-6.33069
21
-5.03816
0
LINE
8
BLACK
6
CONTINUOUS
10
-6.33069
20
-5.03816
11
-6.30504
21
-4.99373
0
LINE
8
BLACK
6
CONTINUOUS
10
-6.30504
20
-4.99373
11
-6.25683
21
-4.97618
0
LINE
8
BLACK
6
CONTINUOUS
10
-6.25683
20
-4.97618
11
-5.63643
21
-4.97618
0
LINE
8
BLACK
6
CONTINUOUS
10
-5.63643
20
-4.97618
11
-5.62532
21
-4.97814
0
LINE
8
BLACK
6
CONTINUOUS
10
-6.49136
20
-4.99695
11
-6.46862
21
-5.04294
0
LINE
8
BLACK
6
CONTINUOUS
10
-6.46862
20
-5.04294
11
-6.48076
21
-5.09279
0
LINE
8
BLACK
6
CONTINUOUS
10
-6.48076
20
-5.09279
11
-6.78709
21
-5.55228
0
LINE
8
BLACK
6
CONTINUOUS
10
-6.78709
20
-5.55228
11
-6.48076
21
-6.01177
0
LINE
8
BLACK
6
CONTINUOUS
10
-6.48076
20
-6.01177
11
-6.4703
21
-6.03562
0
LINE
8
BLACK
6
CONTINUOUS
10
-6.4703
20
-6.03562
11
-6.47594
21
-6.08661
0
LINE
8
BLACK
6
CONTINUOUS
10
-6.47594
20
-6.08661
11
-6.51303
21
-6.12205
0
LINE
8
BLACK
6
CONTINUOUS
10
-6.51303
20
-6.12205
11
-6.56423
21
-6.12535
0
LINE
8
BLACK
6
CONTINUOUS
10
-6.56423
20
-6.12535
11
-6.60557
21
-6.09497
0
LINE
8
BLACK
6
CONTINUOUS
10
-6.60557
20
-6.09497
11
-6.87723
21
-5.68748
0
LINE
8
BLACK
6
CONTINUOUS
10
-6.87723
20
-5.68748
11
-7.14889
21
-6.09497
0
LINE
8
BLACK
6
CONTINUOUS
10
-7.14889
20
-6.09497
11
-7.16688
21
-6.11381
0
LINE
8
BLACK
6
CONTINUOUS
10
-7.16688
20
-6.11381
11
-7.21612
21
-6.12822
0
LINE
8
BLACK
6
CONTINUOUS
10
-7.21612
20
-6.12822
11
-7.2631
21
-6.1076
0
LINE
8
BLACK
6
CONTINUOUS
10
-7.2631
20
-6.1076
11
-7.28584
21
-6.06161
0
LINE
8
BLACK
6
CONTINUOUS
10
-7.28584
20
-6.06161
11
-7.2737
21
-6.01177
0
LINE
8
BLACK
6
CONTINUOUS
10
-7.2737
20
-6.01177
11
-6.96737
21
-5.55228
0
LINE
8
BLACK
6
CONTINUOUS
10
-6.96737
20
-5.55228
11
-7.2737
21
-5.09279
0
LINE
8
BLACK
6
CONTINUOUS
10
-7.2737
20
-5.09279
11
-7.28416
21
-5.06893
0
LINE
8
BLACK
6
CONTINUOUS
10
-7.28416
20
-5.06893
11
-7.27853
21
-5.01794
0
LINE
8
BLACK
6
CONTINUOUS
10
-7.27853
20
-5.01794
11
-7.24143
21
-4.9825
0
LINE
8
BLACK
6
CONTINUOUS
10
-7.24143
20
-4.9825
11
-7.19023
21
-4.9792
0
LINE
8
BLACK
6
CONTINUOUS
10
-7.19023
20
-4.9792
11
-7.14889
21
-5.00958
0
LINE
8
BLACK
6
CONTINUOUS
10
-7.14889
20
-5.00958
11
-6.87723
21
-5.41707
0
LINE
8
BLACK
6
CONTINUOUS
10
-6.87723
20
-5.41707
11
-6.60557
21
-5.00958
0
LINE
8
BLACK
6
CONTINUOUS
10
-6.60557
20
-5.00958
11
-6.58758
21
-4.99074
0
LINE
8
BLACK
6
CONTINUOUS
10
-6.58758
20
-4.99074
11
-6.53834
21
-4.97634
0
LINE
8
BLACK
6
CONTINUOUS
10
-6.53834
20
-4.97634
11
-6.49136
21
-4.99695
0
LINE
8
BLACK
6
CONTINUOUS
10
6.08704
20
-1.66099
11
6.19216
21
-1.70747
0
LINE
8
BLACK
6
CONTINUOUS
10
6.19216
20
-1.70747
11
6.27655
21
-1.78548
0
LINE
8
BLACK
6
CONTINUOUS
10
6.27655
20
-1.78548
11
6.33113
21
-1.88663
0
LINE
8
BLACK
6
CONTINUOUS
10
6.33113
20
-1.88663
11
6.35
21
-2
0
LINE
8
BLACK
6
CONTINUOUS
10
6.35
20
-2
11
6.35
21
-2.65
0
LINE
8
BLACK
6
CONTINUOUS
10
6.35
20
-2.65
11
7
21
-2.65
0
LINE
8
BLACK
6
CONTINUOUS
10
7
20
-2.65
11
7.06018
21
-2.65521
0
LINE
8
BLACK
6
CONTINUOUS
10
7.06018
20
-2.65521
11
7.16861
21
-2.69329
0
LINE
8
BLACK
6
CONTINUOUS
10
7.16861
20
-2.69329
11
7.25887
21
-2.76445
0
LINE
8
BLACK
6
CONTINUOUS
10
7.25887
20
-2.76445
11
7.32121
21
-2.861
0
LINE
8
BLACK
6
CONTINUOUS
10
7.32121
20
-2.861
11
7.34892
21
-2.97254
0
LINE
8
BLACK
6
CONTINUOUS
10
7.34892
20
-2.97254
11
7.339
21
-3.08704
0
LINE
8
BLACK
6
CONTINUOUS
10
7.339
20
-3.08704
11
7.29253
21
-3.19216
0
LINE
8
BLACK
6
CONTINUOUS
10
7.29253
20
-3.19216
11
7.21452
21
-3.27655
0
LINE
8
BLACK
6
CONTINUOUS
10
7.21452
20
-3.27655
11
7.11337
21
-3.33113
0
LINE
8
BLACK
6
CONTINUOUS
10
7.11337
20
-3.33113
11
7
21
-3.35
0
LINE
8
BLACK
6
CONTINUOUS
10
7
20
-3.35
11
6.35
21
-3.35
0
LINE
8
BLACK
6
CONTINUOUS
10
6.35
20
-3.35
11
6.35
21
-4
0
LINE
8
BLACK
6
CONTINUOUS
10
6.35
20
-4
11
6.34479
21
-4.06018
0
LINE
8
BLACK
6
CONTINUOUS
10
6.34479
20
-4.06018
11
6.30671
21
-4.16861
0
LINE
8
BLACK
6
CONTINUOUS
10
6.30671
20
-4.16861
11
6.23555
21
-4.25887
0
LINE
8
BLACK
6
CONTINUOUS
10
6.23555
20
-4.25887
11
6.139
21
-4.32121
0
LINE
8
BLACK
6
CONTINUOUS
10
6.139
20
-4.32121
11
6.02746
21
-4.34892
0
LINE
8
BLACK
6
CONTINUOUS
10
6.02746
20
-4.34892
11
5.91296
21
-4.339
0
LINE
8
BLACK
6
CONTINUOUS
10
5.91296
20
-4.339
11
5.80784
21
-4.29253
0
LINE
8
BLACK
6
CONTINUOUS
10
5.80784
20
-4.29253
11
5.72345
21
-4.21452
0
LINE
8
BLACK
6
CONTINUOUS
10
5.72345
20
-4.21452
11
5.66887
21
-4.11337
0
LINE
8
BLACK
6
CONTINUOUS
10
5.66887
20
-4.11337
11
5.65
21
-4
0
LINE
8
BLACK
6
CONTINUOUS
10
5.65
20
-4
11
5.65
21
-3.35
0
LINE
8
BLACK
6
CONTINUOUS
10
5.65
20
-3.35
11
5
21
-3.35
0
LINE
8
BLACK
6
CONTINUOUS
10
5
20
-3.35
11
4.93982
21
-3.34479
0
LINE
8
BLACK
6
CONTINUOUS
10
4.93982
20
-3.34479
11
4.83139
21
-3.30671
0
LINE
8
BLACK
6
CONTINUOUS
10
4.83139
20
-3.30671
11
4.74113
21
-3.23555
0
LINE
8
BLACK
6
CONTINUOUS
10
4.74113
20
-3.23555
11
4.67879
21
-3.139
0
LINE
8
BLACK
6
CONTINUOUS
10
4.67879
20
-3.139
11
4.65108
21
-3.02746
0
LINE
8
BLACK
6
CONTINUOUS
10
4.65108
20
-3.02746
11
4.661
21
-2.91296
0
LINE
8
BLACK
6
CONTINUOUS
10
4.661
20
-2.91296
11
4.70747
21
-2.80784
0
LINE
8
BLACK
6
CONTINUOUS
10
4.70747
20
-2.80784
11
4.78548
21
-2.72345
0
LINE
8
BLACK
6
CONTINUOUS
10
4.78548
20
-2.72345
11
4.88663
21
-2.66887
0
LINE
8
BLACK
6
CONTINUOUS
10
4.88663
20
-2.66887
11
5
21
-2.65
0
LINE
8
BLACK
6
CONTINUOUS
10
5
20
-2.65
11
5.65
21
-2.65
0
LINE
8
BLACK
6
CONTINUOUS
10
5.65
20
-2.65
11
5.65
21
-2
0
LINE
8
BLACK
6
CONTINUOUS
10
5.65
20
-2
11
5.65521
21
-1.93982
0
LINE
8
BLACK
6
CONTINUOUS
10
5.65521
20
-1.93982
11
5.69329
21
-1.83138
0
LINE
8
BLACK
6
CONTINUOUS
10
5.69329
20
-1.83138
11
5.76445
21
-1.74113
0
LINE
8
BLACK
6
CONTINUOUS
10
5.76445
20
-1.74113
11
5.861
21
-1.67878
0
LINE
8
BLACK
6
CONTINUOUS
10
5.861
20
-1.67878
11
5.97254
21
-1.65108
0
LINE
8
BLACK
6
CONTINUOUS
10
5.97254
20
-1.65108
11
6.08704
21
-1.66099
0
LINE
8
BLACK
6
CONTINUOUS
10
-0.704329
20
-3.71903
11
-0.623223
21
-3.77322
0
LINE
8
BLACK
6
CONTINUOUS
10
-0.623223
20
-3.77322
11
-0.56903
21
-3.85433
0
LINE
8
BLACK
6
CONTINUOUS
10
-0.56903
20
-3.85433
11
-0.55
21
-3.95
0
LINE
8
BLACK
6
CONTINUOUS
10
-0.55
20
-3.95
11
-0.56903
21
-4.04567
0
LINE
8
BLACK
6
CONTINUOUS
10
-0.56903
20
-4.04567
11
-0.623223
21
-4.12678
0
LINE
8
BLACK
6
CONTINUOUS
10
-0.623223
20
-4.12678
11
-0.704329
21
-4.18097
0
LINE
8
BLACK
6
CONTINUOUS
10
-0.704329
20
-4.18097
11
-0.8
21
-4.2
0
LINE
8
BLACK
6
CONTINUOUS
10
-0.8
20
-4.2
11
-0.895671
21
-4.18097
0
LINE
8
BLACK
6
CONTINUOUS
10
-0.895671
20
-4.18097
11
-0.976777
21
-4.12678
0
LINE
8
BLACK
6
CONTINUOUS
10
-0.976777
20
-4.12678
11
-1.03097
21
-4.04567
0
LINE
8
BLACK
6
CONTINUOUS
10
-1.03097
20
-4.04567
11
-1.05
21
-3.95
0
LINE
8
BLACK
6
CONTINUOUS
10
-1.05
20
-3.95
11
-1.03097
21
-3.85433
0
LINE
8
BLACK
6
CONTINUOUS
10
-1.03097
20
-3.85433
11
-0.976777
21
-3.77322
0
LINE
8
BLACK
6
CONTINUOUS
10
-0.976777
20
-3.77322
11
-0.895671
21
-3.71903
0
LINE
8
BLACK
6
CONTINUOUS
10
-0.895671
20
-3.71903
11
-0.8
21
-3.7
0
LINE
8
BLACK
6
CONTINUOUS
10
-0.8
20
-3.7
11
-0.704329
21
-3.71903
0
LINE
8
BLACK
6
CONTINUOUS
10
-4.93982
20
-2.65521
11
-4.83139
21
-2.69329
0
LINE
8
BLACK
6
CONTINUOUS
10
-4.83139
20
-2.69329
11
-4.74113
21
-2.76445
0
LINE
8
BLACK
6
CONTINUOUS
10
-4.74113
20
-2.76445
11
-4.67879
21
-2.861
0
LINE
8
BLACK
6
CONTINUOUS
10
-4.67879
20
-2.861
11
-4.65108
21
-2.97254
0
LINE
8
BLACK
6
CONTINUOUS
10
-4.65108
20
-2.97254
11
-4.661
21
-3.08704
0
LINE
8
BLACK
6
CONTINUOUS
10
-4.661
20
-3.08704
11
-4.70747
21
-3.19216
0
LINE
8
BLACK
6
CONTINUOUS
10
-4.70747
20
-3.19216
11
-4.78548
21
-3.27655
0
LINE
8
BLACK
6
CONTINUOUS
10
-4.78548
20
-3.27655
11
-4.88663
21
-3.33113
0
LINE
8
BLACK
6
CONTINUOUS
10
-4.88663
20
-3.33113
11
-5
21
-3.35
0
LINE
8
BLACK
6
CONTINUOUS
10
-5
20
-3.35
11
-7
21
-3.35
0
LINE
8
BLACK
6
CONTINUOUS
10
-7
20
-3.35
11
-7.06018
21
-3.34479
0
LINE
8
BLACK
6
CONTINUOUS
10
-7.06018
20
-3.34479
11
-7.16861
21
-3.30671
0
LINE
8
BLACK
6
CONTINUOUS
10
-7.16861
20
-3.30671
11
-7.25887
21
-3.23555
0
LINE
8
BLACK
6
CONTINUOUS
10
-7.25887
20
-3.23555
11
-7.32121
21
-3.139
0
LINE
8
BLACK
6
CONTINUOUS
10
-7.32121
20
-3.139
11
-7.34892
21
-3.02746
0
LINE
8
BLACK
6
CONTINUOUS
10
-7.34892
20
-3.02746
11
-7.339
21
-2.91296
0
LINE
8
BLACK
6
CONTINUOUS
10
-7.339
20
-2.91296
11
-7.29253
21
-2.80784
0
LINE
8
BLACK
6
CONTINUOUS
10
-7.29253
20
-2.80784
11
-7.21452
21
-2.72345
0
LINE
8
BLACK
6
CONTINUOUS
10
-7.21452
20
-2.72345
11
-7.11337
21
-2.66887
0
LINE
8
BLACK
6
CONTINUOUS
10
-7.11337
20
-2.66887
11
-7
21
-2.65
0
LINE
8
BLACK
6
CONTINUOUS
10
-7
20
-2.65
11
-5
21
-2.65
0
LINE
8
BLACK
6
CONTINUOUS
10
-5
20
-2.65
11
-4.93982
21
-2.65521
0
LINE
8
BLACK
6
CONTINUOUS
10
-2.05433
20
-2.41903
11
-1.97322
21
-2.47322
0
LINE
8
BLACK
6
CONTINUOUS
10
-1.97322
20
-2.47322
11
-1.91903
21
-2.55433
0
LINE
8
BLACK
6
CONTINUOUS
10
-1.91903
20
-2.55433
11
-1.9
21
-2.65
0
LINE
8
BLACK
6
CONTINUOUS
10
-1.9
20
-2.65
11
-1.91903
21
-2.74567
0
LINE
8
BLACK
6
CONTINUOUS
10
-1.91903
20
-2.74567
11
-1.97322
21
-2.82678
0
LINE
8
BLACK
6
CONTINUOUS
10
-1.97322
20
-2.82678
11
-2.05433
21
-2.88097
0
LINE
8
BLACK
6
CONTINUOUS
10
-2.05433
20
-2.88097
11
-2.15
21
-2.9
0
LINE
8
BLACK
6
CONTINUOUS
10
-2.15
20
-2.9
11
-2.24567
21
-2.88097
0
LINE
8
BLACK
6
CONTINUOUS
10
-2.24567
20
-2.88097
11
-2.32678
21
-2.82678
0
LINE
8
BLACK
6
CONTINUOUS
10
-2.32678
20
-2.82678
11
-2.38097
21
-2.74567
0
LINE
8
BLACK
6
CONTINUOUS
10
-2.38097
20
-2.74567
11
-2.4
21
-2.65
0
LINE
8
BLACK
6
CONTINUOUS
10
-2.4
20
-2.65
11
-2.38097
21
-2.55433
0
LINE
8
BLACK
6
CONTINUOUS
10
-2.38097
20
-2.55433
11
-2.32678
21
-2.47322
0
LINE
8
BLACK
6
CONTINUOUS
10
-2.32678
20
-2.47322
11
-2.24567
21
-2.41903
0
LINE
8
BLACK
6
CONTINUOUS
10
-2.24567
20
-2.41903
11
-2.15
21
-2.4
0
LINE
8
BLACK
6
CONTINUOUS
10
-2.15
20
-2.4
11
-2.05433
21
-2.41903
0
LINE
8
BLACK
6
CONTINUOUS
10
9.58962
20
-1.50955
11
9.59699
21
-1.5089
0
LINE
8
BLACK
6
CONTINUOUS
10
9.59699
20
-1.5089
11
9.72709
21
-1.54376
0
LINE
8
BLACK
6
CONTINUOUS
10
9.72709
20
-1.54376
11
9.74741
21
-1.55324
0
LINE
8
BLACK
6
CONTINUOUS
10
9.74741
20
-1.55324
11
9.749
21
-1.55362
0
LINE
8
BLACK
6
CONTINUOUS
10
9.749
20
-1.55362
11
9.83786
21
-1.61229
0
LINE
8
BLACK
6
CONTINUOUS
10
9.83786
20
-1.61229
11
9.85677
21
-1.6302
0
LINE
8
BLACK
6
CONTINUOUS
10
9.85677
20
-1.6302
11
9.85805
21
-1.6345
0
LINE
8
BLACK
6
CONTINUOUS
10
9.85805
20
-1.6345
11
9.86149
21
-1.63738
0
LINE
8
BLACK
6
CONTINUOUS
10
9.86149
20
-1.63738
11
9.95672
21
-1.80233
0
LINE
8
BLACK
6
CONTINUOUS
10
9.95672
20
-1.80233
11
9.96563
21
-1.82681
0
LINE
8
BLACK
6
CONTINUOUS
10
9.96563
20
-1.82681
11
9.96486
21
-1.83123
0
LINE
8
BLACK
6
CONTINUOUS
10
9.96486
20
-1.83123
11
9.96664
21
-1.83534
0
LINE
8
BLACK
6
CONTINUOUS
10
9.96664
20
-1.83534
11
9.97302
21
-1.94163
0
LINE
8
BLACK
6
CONTINUOUS
10
9.97302
20
-1.94163
11
9.97045
21
-1.96391
0
LINE
8
BLACK
6
CONTINUOUS
10
9.97045
20
-1.96391
11
9.9706
21
-1.96553
0
LINE
8
BLACK
6
CONTINUOUS
10
9.9706
20
-1.96553
11
9.93574
21
-2.09563
0
LINE
8
BLACK
6
CONTINUOUS
10
9.93574
20
-2.09563
11
9.92473
21
-2.11924
0
LINE
8
BLACK
6
CONTINUOUS
10
9.92473
20
-2.11924
11
9.91867
21
-2.12348
0
LINE
8
BLACK
6
CONTINUOUS
10
9.91867
20
-2.12348
11
9.91543
21
-2.13014
0
LINE
8
BLACK
6
CONTINUOUS
10
9.91543
20
-2.13014
11
9.77428
21
-2.26661
0
LINE
8
BLACK
6
CONTINUOUS
10
9.77428
20
-2.26661
11
9.76187
21
-2.27499
0
LINE
8
BLACK
6
CONTINUOUS
10
9.76187
20
-2.27499
11
9.75964
21
-2.27765
0
LINE
8
BLACK
6
CONTINUOUS
10
9.75964
20
-2.27765
11
9.47097
21
-2.44432
0
LINE
8
BLACK
6
CONTINUOUS
10
9.47097
20
-2.44432
11
9.4569
21
-2.44943
0
LINE
8
BLACK
6
CONTINUOUS
10
9.4569
20
-2.44943
11
9.4541
21
-2.45147
0
LINE
8
BLACK
6
CONTINUOUS
10
9.4541
20
-2.45147
11
9.26533
21
-2.50547
0
LINE
8
BLACK
6
CONTINUOUS
10
9.26533
20
-2.50547
11
9.23942
21
-2.50818
0
LINE
8
BLACK
6
CONTINUOUS
10
9.23942
20
-2.50818
11
9.23266
21
-2.50516
0
LINE
8
BLACK
6
CONTINUOUS
10
9.23266
20
-2.50516
11
9.22529
21
-2.50581
0
LINE
8
BLACK
6
CONTINUOUS
10
9.22529
20
-2.50581
11
9.0952
21
-2.47095
0
LINE
8
BLACK
6
CONTINUOUS
10
9.0952
20
-2.47095
11
9.07487
21
-2.46147
0
LINE
8
BLACK
6
CONTINUOUS
10
9.07487
20
-2.46147
11
9.07328
21
-2.46109
0
LINE
8
BLACK
6
CONTINUOUS
10
9.07328
20
-2.46109
11
8.98442
21
-2.40242
0
LINE
8
BLACK
6
CONTINUOUS
10
8.98442
20
-2.40242
11
8.96551
21
-2.38451
0
LINE
8
BLACK
6
CONTINUOUS
10
8.96551
20
-2.38451
11
8.96423
21
-2.38022
0
LINE
8
BLACK
6
CONTINUOUS
10
8.96423
20
-2.38022
11
8.96079
21
-2.37733
0
LINE
8
BLACK
6
CONTINUOUS
10
8.96079
20
-2.37733
11
8.86556
21
-2.21238
0
LINE
8
BLACK
6
CONTINUOUS
10
8.86556
20
-2.21238
11
8.85665
21
-2.1879
0
LINE
8
BLACK
6
CONTINUOUS
10
8.85665
20
-2.1879
11
8.85743
21
-2.18348
0
LINE
8
BLACK
6
CONTINUOUS
10
8.85743
20
-2.18348
11
8.85564
21
-2.17937
0
LINE
8
BLACK
6
CONTINUOUS
10
8.85564
20
-2.17937
11
8.84926
21
-2.07308
0
LINE
8
BLACK
6
CONTINUOUS
10
8.84926
20
-2.07308
11
8.85183
21
-2.05081
0
LINE
8
BLACK
6
CONTINUOUS
10
8.85183
20
-2.05081
11
8.85168
21
-2.04918
0
LINE
8
BLACK
6
CONTINUOUS
10
8.85168
20
-2.04918
11
8.88654
21
-1.91908
0
LINE
8
BLACK
6
CONTINUOUS
10
8.88654
20
-1.91908
11
8.89755
21
-1.89547
0
LINE
8
BLACK
6
CONTINUOUS
10
8.89755
20
-1.89547
11
8.90362
21
-1.89123
0
LINE
8
BLACK
6
CONTINUOUS
10
8.90362
20
-1.89123
11
8.90686
21
-1.88457
0
LINE
8
BLACK
6
CONTINUOUS
10
8.90686
20
-1.88457
11
9.048
21
-1.7481
0
LINE
8
BLACK
6
CONTINUOUS
10
9.048
20
-1.7481
11
9.06041
21
-1.73972
0
LINE
8
BLACK
6
CONTINUOUS
10
9.06041
20
-1.73972
11
9.06264
21
-1.73706
0
LINE
8
BLACK
6
CONTINUOUS
10
9.06264
20
-1.73706
11
9.35131
21
-1.57039
0
LINE
8
BLACK
6
CONTINUOUS
10
9.35131
20
-1.57039
11
9.36538
21
-1.56527
0
LINE
8
BLACK
6
CONTINUOUS
10
9.36538
20
-1.56527
11
9.36819
21
-1.56324
0
LINE
8
BLACK
6
CONTINUOUS
10
9.36819
20
-1.56324
11
9.55695
21
-1.50924
0
LINE
8
BLACK
6
CONTINUOUS
10
9.55695
20
-1.50924
11
9.58286
21
-1.50653
0
LINE
8
BLACK
6
CONTINUOUS
10
9.58286
20
-1.50653
11
9.58962
21
-1.50955
0
LINE
8
BLACK
6
CONTINUOUS
10
9.41831
20
-1.70492
11
9.14563
21
-1.86235
0
LINE
8
BLACK
6
CONTINUOUS
10
9.14563
20
-1.86235
11
9.02606
21
-1.97797
0
LINE
8
BLACK
6
CONTINUOUS
10
9.02606
20
-1.97797
11
8.99972
21
-2.07625
0
LINE
8
BLACK
6
CONTINUOUS
10
8.99972
20
-2.07625
11
9.00431
21
-2.15271
0
LINE
8
BLACK
6
CONTINUOUS
10
9.00431
20
-2.15271
11
9.08185
21
-2.287
0
LINE
8
BLACK
6
CONTINUOUS
10
9.08185
20
-2.287
11
9.14577
21
-2.32921
0
LINE
8
BLACK
6
CONTINUOUS
10
9.14577
20
-2.32921
11
9.24405
21
-2.35554
0
LINE
8
BLACK
6
CONTINUOUS
10
9.24405
20
-2.35554
11
9.40397
21
-2.30979
0
LINE
8
BLACK
6
CONTINUOUS
10
9.40397
20
-2.30979
11
9.67665
21
-2.15236
0
LINE
8
BLACK
6
CONTINUOUS
10
9.67665
20
-2.15236
11
9.79623
21
-2.03674
0
LINE
8
BLACK
6
CONTINUOUS
10
9.79623
20
-2.03674
11
9.82256
21
-1.93847
0
LINE
8
BLACK
6
CONTINUOUS
10
9.82256
20
-1.93847
11
9.81797
21
-1.862
0
LINE
8
BLACK
6
CONTINUOUS
10
9.81797
20
-1.862
11
9.74044
21
-1.72771
0
LINE
8
BLACK
6
CONTINUOUS
10
9.74044
20
-1.72771
11
9.67651
21
-1.6855
0
LINE
8
BLACK
6
CONTINUOUS
10
9.67651
20
-1.6855
11
9.57823
21
-1.65917
0
LINE
8
BLACK
6
CONTINUOUS
10
9.57823
20
-1.65917
11
9.41831
21
-1.70492
0
LINE
8
BLACK
6
CONTINUOUS
10
9.1366
20
-0.619212
11
9.13823
21
-0.619069
0
LINE
8
BLACK
6
CONTINUOUS
10
9.13823
20
-0.619069
11
9.20328
21
-0.636498
0
LINE
8
BLACK
6
CONTINUOUS
10
9.20328
20
-0.636498
11
9.2236
21
-0.645976
0
LINE
8
BLACK
6
CONTINUOUS
10
9.2236
20
-0.645976
11
9.22519
21
-0.646355
0
LINE
8
BLACK
6
CONTINUOUS
10
9.22519
20
-0.646355
11
9.31405
21
-0.705024
0
LINE
8
BLACK
6
CONTINUOUS
10
9.31405
20
-0.705024
11
9.33296
21
-0.722932
0
LINE
8
BLACK
6
CONTINUOUS
10
9.33296
20
-0.722932
11
9.33424
21
-0.72723
0
LINE
8
BLACK
6
CONTINUOUS
10
9.33424
20
-0.72723
11
9.33768
21
-0.730112
0
LINE
8
BLACK
6
CONTINUOUS
10
9.33768
20
-0.730112
11
9.43291
21
-0.89507
0
LINE
8
BLACK
6
CONTINUOUS
10
9.43291
20
-0.89507
11
9.44182
21
-0.919547
0
LINE
8
BLACK
6
CONTINUOUS
10
9.44182
20
-0.919547
11
9.44104
21
-0.923963
0
LINE
8
BLACK
6
CONTINUOUS
10
9.44104
20
-0.923963
11
9.44283
21
-0.928076
0
LINE
8
BLACK
6
CONTINUOUS
10
9.44283
20
-0.928076
11
9.44921
21
-1.03436
0
LINE
8
BLACK
6
CONTINUOUS
10
9.44921
20
-1.03436
11
9.44664
21
-1.05664
0
LINE
8
BLACK
6
CONTINUOUS
10
9.44664
20
-1.05664
11
9.44679
21
-1.05827
0
LINE
8
BLACK
6
CONTINUOUS
10
9.44679
20
-1.05827
11
9.42936
21
-1.12332
0
LINE
8
BLACK
6
CONTINUOUS
10
9.42936
20
-1.12332
11
9.41988
21
-1.14364
0
LINE
8
BLACK
6
CONTINUOUS
10
9.41988
20
-1.14364
11
9.4195
21
-1.14523
0
LINE
8
BLACK
6
CONTINUOUS
10
9.4195
20
-1.14523
11
9.36083
21
-1.23409
0
LINE
8
BLACK
6
CONTINUOUS
10
9.36083
20
-1.23409
11
9.34292
21
-1.253
0
LINE
8
BLACK
6
CONTINUOUS
10
9.34292
20
-1.253
11
9.33863
21
-1.25428
0
LINE
8
BLACK
6
CONTINUOUS
10
9.33863
20
-1.25428
11
9.33574
21
-1.25772
0
LINE
8
BLACK
6
CONTINUOUS
10
9.33574
20
-1.25772
11
8.63468
21
-1.66248
0
LINE
8
BLACK
6
CONTINUOUS
10
8.63468
20
-1.66248
11
8.6102
21
-1.67139
0
LINE
8
BLACK
6
CONTINUOUS
10
8.6102
20
-1.67139
11
8.55968
21
-1.66248
0
LINE
8
BLACK
6
CONTINUOUS
10
8.55968
20
-1.66248
11
8.5267
21
-1.62318
0
LINE
8
BLACK
6
CONTINUOUS
10
8.5267
20
-1.62318
11
8.5267
21
-1.57188
0
LINE
8
BLACK
6
CONTINUOUS
10
8.5267
20
-1.57188
11
8.55968
21
-1.53258
0
LINE
8
BLACK
6
CONTINUOUS
10
8.55968
20
-1.53258
11
9.24541
21
-1.13667
0
LINE
8
BLACK
6
CONTINUOUS
10
9.24541
20
-1.13667
11
9.28762
21
-1.07274
0
LINE
8
BLACK
6
CONTINUOUS
10
9.28762
20
-1.07274
11
9.29875
21
-1.0312
0
LINE
8
BLACK
6
CONTINUOUS
10
9.29875
20
-1.0312
11
9.29416
21
-0.954738
0
LINE
8
BLACK
6
CONTINUOUS
10
9.29416
20
-0.954738
11
9.21662
21
-0.820444
0
LINE
8
BLACK
6
CONTINUOUS
10
9.21662
20
-0.820444
11
9.1527
21
-0.778239
0
LINE
8
BLACK
6
CONTINUOUS
10
9.1527
20
-0.778239
11
9.11116
21
-0.767108
0
LINE
8
BLACK
6
CONTINUOUS
10
9.11116
20
-0.767108
11
9.0347
21
-0.771697
0
LINE
8
BLACK
6
CONTINUOUS
10
9.0347
20
-0.771697
11
8.34896
21
-1.16761
0
LINE
8
BLACK
6
CONTINUOUS
10
8.34896
20
-1.16761
11
8.32448
21
-1.17652
0
LINE
8
BLACK
6
CONTINUOUS
10
8.32448
20
-1.17652
11
8.27396
21
-1.16761
0
LINE
8
BLACK
6
CONTINUOUS
10
8.27396
20
-1.16761
11
8.24099
21
-1.12831
0
LINE
8
BLACK
6
CONTINUOUS
10
8.24099
20
-1.12831
11
8.24099
21
-1.077
0
LINE
8
BLACK
6
CONTINUOUS
10
8.24099
20
-1.077
11
8.27396
21
-1.0377
0
LINE
8
BLACK
6
CONTINUOUS
10
8.27396
20
-1.0377
11
8.97503
21
-0.632941
0
LINE
8
BLACK
6
CONTINUOUS
10
8.97503
20
-0.632941
11
8.99951
21
-0.624032
0
LINE
8
BLACK
6
CONTINUOUS
10
8.99951
20
-0.624032
11
9.00392
21
-0.624811
0
LINE
8
BLACK
6
CONTINUOUS
10
9.00392
20
-0.624811
11
9.00804
21
-0.623028
0
LINE
8
BLACK
6
CONTINUOUS
10
9.00804
20
-0.623028
11
9.11432
21
-0.616649
0
LINE
8
BLACK
6
CONTINUOUS
10
9.11432
20
-0.616649
11
9.1366
21
-0.619212
0
LINE
8
BLACK
6
CONTINUOUS
10
-9.09866
20
-0.914869
11
-8.23263
21
-1.41487
0
LINE
8
BLACK
6
CONTINUOUS
10
-8.23263
20
-1.41487
11
-8.21268
21
-1.43161
0
LINE
8
BLACK
6
CONTINUOUS
10
-8.21268
20
-1.43161
11
-8.19513
21
-1.47982
0
LINE
8
BLACK
6
CONTINUOUS
10
-8.19513
20
-1.47982
11
-8.21268
21
-1.52803
0
LINE
8
BLACK
6
CONTINUOUS
10
-8.21268
20
-1.52803
11
-8.25711
21
-1.55368
0
LINE
8
BLACK
6
CONTINUOUS
10
-8.25711
20
-1.55368
11
-8.30763
21
-1.54477
0
LINE
8
BLACK
6
CONTINUOUS
10
-8.30763
20
-1.54477
11
-9.17366
21
-1.04477
0
LINE
8
BLACK
6
CONTINUOUS
10
-9.17366
20
-1.04477
11
-9.19361
21
-1.02803
0
LINE
8
BLACK
6
CONTINUOUS
10
-9.19361
20
-1.02803
11
-9.21116
21
-0.979821
0
LINE
8
BLACK
6
CONTINUOUS
10
-9.21116
20
-0.979821
11
-9.19361
21
-0.931611
0
LINE
8
BLACK
6
CONTINUOUS
10
-9.19361
20
-0.931611
11
-9.14918
21
-0.905961
0
LINE
8
BLACK
6
CONTINUOUS
10
-9.14918
20
-0.905961
11
-9.09866
21
-0.914869
0
LINE
8
BLACK
6
CONTINUOUS
10
-8.57485
20
-0.007605
11
-7.70882
21
-0.507605
0
LINE
8
BLACK
6
CONTINUOUS
10
-7.70882
20
-0.507605
11
-7.68887
21
-0.524348
0
LINE
8
BLACK
6
CONTINUOUS
10
-7.68887
20
-0.524348
11
-7.68649
21
-0.530867
0
LINE
8
BLACK
6
CONTINUOUS
10
-7.68649
20
-0.530867
11
-7.6812
21
-0.535347
0
LINE
8
BLACK
6
CONTINUOUS
10
-7.6812
20
-0.535347
11
-7.67793
21
-0.55439
0
LINE
8
BLACK
6
CONTINUOUS
10
-7.67793
20
-0.55439
11
-7.67132
21
-0.572557
0
LINE
8
BLACK
6
CONTINUOUS
10
-7.67132
20
-0.572557
11
-7.67369
21
-0.579076
0
LINE
8
BLACK
6
CONTINUOUS
10
-7.67369
20
-0.579076
11
-7.67252
21
-0.58591
0
LINE
8
BLACK
6
CONTINUOUS
10
-7.67252
20
-0.58591
11
-7.68225
21
-0.602599
0
LINE
8
BLACK
6
CONTINUOUS
10
-7.68225
20
-0.602599
11
-7.68887
21
-0.620767
0
LINE
8
BLACK
6
CONTINUOUS
10
-7.68887
20
-0.620767
11
-7.69488
21
-0.624236
0
LINE
8
BLACK
6
CONTINUOUS
10
-7.69488
20
-0.624236
11
-7.69837
21
-0.630224
0
LINE
8
BLACK
6
CONTINUOUS
10
-7.69837
20
-0.630224
11
-7.71656
21
-0.636752
0
LINE
8
BLACK
6
CONTINUOUS
10
-7.71656
20
-0.636752
11
-7.7333
21
-0.646417
0
LINE
8
BLACK
6
CONTINUOUS
10
-7.7333
20
-0.646417
11
-7.74013
21
-0.645213
0
LINE
8
BLACK
6
CONTINUOUS
10
-7.74013
20
-0.645213
11
-7.74665
21
-0.647556
0
LINE
8
BLACK
6
CONTINUOUS
10
-7.74665
20
-0.647556
11
-8.61598
21
-0.643685
0
LINE
8
BLACK
6
CONTINUOUS
10
-8.61598
20
-0.643685
11
-7.99454
21
-1.00248
0
LINE
8
BLACK
6
CONTINUOUS
10
-7.99454
20
-1.00248
11
-7.97458
21
-1.01922
0
LINE
8
BLACK
6
CONTINUOUS
10
-7.97458
20
-1.01922
11
-7.95704
21
-1.06743
0
LINE
8
BLACK
6
CONTINUOUS
10
-7.95704
20
-1.06743
11
-7.97458
21
-1.11564
0
LINE
8
BLACK
6
CONTINUOUS
10
-7.97458
20
-1.11564
11
-8.01901
21
-1.14129
0
LINE
8
BLACK
6
CONTINUOUS
10
-8.01901
20
-1.14129
11
-8.06954
21
-1.13238
0
LINE
8
BLACK
6
CONTINUOUS
10
-8.06954
20
-1.13238
11
-8.93556
21
-0.63238
0
LINE
8
BLACK
6
CONTINUOUS
10
-8.93556
20
-0.63238
11
-8.95552
21
-0.615637
0
LINE
8
BLACK
6
CONTINUOUS
10
-8.95552
20
-0.615637
11
-8.95789
21
-0.609119
0
LINE
8
BLACK
6
CONTINUOUS
10
-8.95789
20
-0.609119
11
-8.96318
21
-0.604638
0
LINE
8
BLACK
6
CONTINUOUS
10
-8.96318
20
-0.604638
11
-8.96645
21
-0.585592
0
LINE
8
BLACK
6
CONTINUOUS
10
-8.96645
20
-0.585592
11
-8.97306
21
-0.567428
0
LINE
8
BLACK
6
CONTINUOUS
10
-8.97306
20
-0.567428
11
-8.97069
21
-0.560911
0
LINE
8
BLACK
6
CONTINUOUS
10
-8.97069
20
-0.560911
11
-8.97186
21
-0.554075
0
LINE
8
BLACK
6
CONTINUOUS
10
-8.97186
20
-0.554075
11
-8.96212
21
-0.537379
0
LINE
8
BLACK
6
CONTINUOUS
10
-8.96212
20
-0.537379
11
-8.95551
21
-0.519218
0
LINE
8
BLACK
6
CONTINUOUS
10
-8.95551
20
-0.519218
11
-8.94951
21
-0.51575
0
LINE
8
BLACK
6
CONTINUOUS
10
-8.94951
20
-0.51575
11
-8.94601
21
-0.509761
0
LINE
8
BLACK
6
CONTINUOUS
10
-8.94601
20
-0.509761
11
-8.92782
21
-0.503232
0
LINE
8
BLACK
6
CONTINUOUS
10
-8.92782
20
-0.503232
11
-8.91108
21
-0.493568
0
LINE
8
BLACK
6
CONTINUOUS
10
-8.91108
20
-0.493568
11
-8.90425
21
-0.494772
0
LINE
8
BLACK
6
CONTINUOUS
10
-8.90425
20
-0.494772
11
-8.89773
21
-0.492429
0
LINE
8
BLACK
6
CONTINUOUS
10
-8.89773
20
-0.492429
11
-8.0284
21
-0.4963
0
LINE
8
BLACK
6
CONTINUOUS
10
-8.0284
20
-0.4963
11
-8.64985
21
-0.137509
0
LINE
8
BLACK
6
CONTINUOUS
10
-8.64985
20
-0.137509
11
-8.6698
21
-0.120766
0
LINE
8
BLACK
6
CONTINUOUS
10
-8.6698
20
-0.120766
11
-8.68735
21
-0.072557
0
LINE
8
BLACK
6
CONTINUOUS
10
-8.68735
20
-0.072557
11
-8.6698
21
-0.024347
0
LINE
8
BLACK
6
CONTINUOUS
10
-8.6698
20
-0.024347
11
-8.62537
21
0.001303
0
LINE
8
BLACK
6
CONTINUOUS
10
-8.62537
20
0.001303
11
-8.57485
21
-0.007605
0
LINE
8
BLACK
6
CONTINUOUS
10
10.7076
20
0.162909
11
10.7361
21
0.120222
0
LINE
8
BLACK
6
CONTINUOUS
10
10.7361
20
0.120222
11
10.7304
21
0.06923
0
LINE
8
BLACK
6
CONTINUOUS
10
10.7304
20
0.06923
11
10.5139
21
-0.368598
0
LINE
8
BLACK
6
CONTINUOUS
10
10.5139
20
-0.368598
11
11.0014
21
-0.400033
0
LINE
8
BLACK
6
CONTINUOUS
10
11.0014
20
-0.400033
11
11.0267
21
-0.406197
0
LINE
8
BLACK
6
CONTINUOUS
10
11.0267
20
-0.406197
11
11.0638
21
-0.441635
0
LINE
8
BLACK
6
CONTINUOUS
10
11.0638
20
-0.441635
11
11.0694
21
-0.492628
0
LINE
8
BLACK
6
CONTINUOUS
10
11.0694
20
-0.492628
11
11.0409
21
-0.535314
0
LINE
8
BLACK
6
CONTINUOUS
10
11.0409
20
-0.535314
11
10.9917
21
-0.549722
0
LINE
8
BLACK
6
CONTINUOUS
10
10.9917
20
-0.549722
11
10.4419
21
-0.514265
0
LINE
8
BLACK
6
CONTINUOUS
10
10.4419
20
-0.514265
11
10.1977
21
-1.00812
0
LINE
8
BLACK
6
CONTINUOUS
10
10.1977
20
-1.00812
11
10.1823
21
-1.02911
0
LINE
8
BLACK
6
CONTINUOUS
10
10.1823
20
-1.02911
11
10.1353
21
-1.04972
0
LINE
8
BLACK
6
CONTINUOUS
10
10.1353
20
-1.04972
11
10.0861
21
-1.03531
0
LINE
8
BLACK
6
CONTINUOUS
10
10.0861
20
-1.03531
11
10.0576
21
-0.992627
0
LINE
8
BLACK
6
CONTINUOUS
10
10.0576
20
-0.992627
11
10.0633
21
-0.941635
0
LINE
8
BLACK
6
CONTINUOUS
10
10.0633
20
-0.941635
11
10.2798
21
-0.503807
0
LINE
8
BLACK
6
CONTINUOUS
10
10.2798
20
-0.503807
11
9.79235
21
-0.472372
0
LINE
8
BLACK
6
CONTINUOUS
10
9.79235
20
-0.472372
11
9.76704
21
-0.466207
0
LINE
8
BLACK
6
CONTINUOUS
10
9.76704
20
-0.466207
11
9.72994
21
-0.430769
0
LINE
8
BLACK
6
CONTINUOUS
10
9.72994
20
-0.430769
11
9.72431
21
-0.379776
0
LINE
8
BLACK
6
CONTINUOUS
10
9.72431
20
-0.379776
11
9.75277
21
-0.33709
0
LINE
8
BLACK
6
CONTINUOUS
10
9.75277
20
-0.33709
11
9.802
21
-0.322682
0
LINE
8
BLACK
6
CONTINUOUS
10
9.802
20
-0.322682
11
10.3518
21
-0.358139
0
LINE
8
BLACK
6
CONTINUOUS
10
10.3518
20
-0.358139
11
10.596
21
0.135714
0
LINE
8
BLACK
6
CONTINUOUS
10
10.596
20
0.135714
11
10.6114
21
0.156704
0
LINE
8
BLACK
6
CONTINUOUS
10
10.6114
20
0.156704
11
10.6584
21
0.177316
0
LINE
8
BLACK
6
CONTINUOUS
10
10.6584
20
0.177316
11
10.7076
21
0.162909
0
LINE
8
BLACK
6
CONTINUOUS
10
8.90546
20
-0.001592
11
8.93844
21
-0.040892
0
LINE
8
BLACK
6
CONTINUOUS
10
8.93844
20
-0.040892
11
8.93844
21
-0.092195
0
LINE
8
BLACK
6
CONTINUOUS
10
8.93844
20
-0.092195
11
8.90546
21
-0.131496
0
LINE
8
BLACK
6
CONTINUOUS
10
8.90546
20
-0.131496
11
8.10439
21
-0.593996
0
LINE
8
BLACK
6
CONTINUOUS
10
8.10439
20
-0.593996
11
8.20975
21
-0.77648
0
LINE
8
BLACK
6
CONTINUOUS
10
8.20975
20
-0.77648
11
8.21866
21
-0.800957
0
LINE
8
BLACK
6
CONTINUOUS
10
8.21866
20
-0.800957
11
8.20975
21
-0.85148
0
LINE
8
BLACK
6
CONTINUOUS
10
8.20975
20
-0.85148
11
8.17045
21
-0.884458
0
LINE
8
BLACK
6
CONTINUOUS
10
8.17045
20
-0.884458
11
8.11914
21
-0.884457
0
LINE
8
BLACK
6
CONTINUOUS
10
8.11914
20
-0.884457
11
8.07984
21
-0.85148
0
LINE
8
BLACK
6
CONTINUOUS
10
8.07984
20
-0.85148
11
7.79413
21
-0.356608
0
LINE
8
BLACK
6
CONTINUOUS
10
7.79413
20
-0.356608
11
7.78522
21
-0.332131
0
LINE
8
BLACK
6
CONTINUOUS
10
7.78522
20
-0.332131
11
7.79413
21
-0.281608
0
LINE
8
BLACK
6
CONTINUOUS
10
7.79413
20
-0.281608
11
7.83343
21
-0.24863
0
LINE
8
BLACK
6
CONTINUOUS
10
7.83343
20
-0.24863
11
7.88473
21
-0.248631
0
LINE
8
BLACK
6
CONTINUOUS
10
7.88473
20
-0.248631
11
7.92403
21
-0.281608
0
LINE
8
BLACK
6
CONTINUOUS
10
7.92403
20
-0.281608
11
8.02939
21
-0.464092
0
LINE
8
BLACK
6
CONTINUOUS
10
8.02939
20
-0.464092
11
8.83046
21
-0.001592
0
LINE
8
BLACK
6
CONTINUOUS
10
8.83046
20
-0.001592
11
8.85494
21
0.007317
0
LINE
8
BLACK
6
CONTINUOUS
10
8.85494
20
0.007317
11
8.90546
21
-0.001592
0
LINE
8
BLACK
6
CONTINUOUS
10
-10.3155
20
0.418771
11
-10.2784
21
0.383333
0
LINE
8
BLACK
6
CONTINUOUS
10
-10.2784
20
0.383333
11
-10.0343
21
-0.11052
0
LINE
8
BLACK
6
CONTINUOUS
10
-10.0343
20
-0.11052
11
-9.48448
21
-0.075063
0
LINE
8
BLACK
6
CONTINUOUS
10
-9.48448
20
-0.075063
11
-9.45859
21
-0.077926
0
LINE
8
BLACK
6
CONTINUOUS
10
-9.45859
20
-0.077926
11
-9.41725
21
-0.108305
0
LINE
8
BLACK
6
CONTINUOUS
10
-9.41725
20
-0.108305
11
-9.40511
21
-0.158151
0
LINE
8
BLACK
6
CONTINUOUS
10
-9.40511
20
-0.158151
11
-9.42785
21
-0.204139
0
LINE
8
BLACK
6
CONTINUOUS
10
-9.42785
20
-0.204139
11
-9.47483
21
-0.224752
0
LINE
8
BLACK
6
CONTINUOUS
10
-9.47483
20
-0.224752
11
-9.96224
21
-0.256187
0
LINE
8
BLACK
6
CONTINUOUS
10
-9.96224
20
-0.256187
11
-9.74576
21
-0.694016
0
LINE
8
BLACK
6
CONTINUOUS
10
-9.74576
20
-0.694016
11
-9.73844
21
-0.719015
0
LINE
8
BLACK
6
CONTINUOUS
10
-9.73844
20
-0.719015
11
-9.75058
21
-0.76886
0
LINE
8
BLACK
6
CONTINUOUS
10
-9.75058
20
-0.76886
11
-9.79193
21
-0.79924
0
LINE
8
BLACK
6
CONTINUOUS
10
-9.79193
20
-0.79924
11
-9.84312
21
-0.795937
0
LINE
8
BLACK
6
CONTINUOUS
10
-9.84312
20
-0.795937
11
-9.88022
21
-0.7605
0
LINE
8
BLACK
6
CONTINUOUS
10
-9.88022
20
-0.7605
11
-10.1244
21
-0.266646
0
LINE
8
BLACK
6
CONTINUOUS
10
-10.1244
20
-0.266646
11
-10.6742
21
-0.302103
0
LINE
8
BLACK
6
CONTINUOUS
10
-10.6742
20
-0.302103
11
-10.7001
21
-0.29924
0
LINE
8
BLACK
6
CONTINUOUS
10
-10.7001
20
-0.29924
11
-10.7414
21
-0.268861
0
LINE
8
BLACK
6
CONTINUOUS
10
-10.7414
20
-0.268861
11
-10.7536
21
-0.219015
0
LINE
8
BLACK
6
CONTINUOUS
10
-10.7536
20
-0.219015
11
-10.7308
21
-0.173027
0
LINE
8
BLACK
6
CONTINUOUS
10
-10.7308
20
-0.173027
11
-10.6838
21
-0.152413
0
LINE
8
BLACK
6
CONTINUOUS
10
-10.6838
20
-0.152413
11
-10.1964
21
-0.120978
0
LINE
8
BLACK
6
CONTINUOUS
10
-10.1964
20
-0.120978
11
-10.4129
21
0.316849
0
LINE
8
BLACK
6
CONTINUOUS
10
-10.4129
20
0.316849
11
-10.4202
21
0.341848
0
LINE
8
BLACK
6
CONTINUOUS
10
-10.4202
20
0.341848
11
-10.4081
21
0.391694
0
LINE
8
BLACK
6
CONTINUOUS
10
-10.4081
20
0.391694
11
-10.3667
21
0.422073
0
LINE
8
BLACK
6
CONTINUOUS
10
-10.3667
20
0.422073
11
-10.3155
21
0.418771
0
LINE
8
BLACK
6
CONTINUOUS
10
10.2365
20
0.956496
11
10.2758
21
0.923519
0
LINE
8
BLACK
6
CONTINUOUS
10
10.2758
20
0.923519
11
10.5853
21
0.387408
0
LINE
8
BLACK
6
CONTINUOUS
10
10.5853
20
0.387408
11
10.5909
21
0.372023
0
LINE
8
BLACK
6
CONTINUOUS
10
10.5909
20
0.372023
11
10.5928
21
0.369319
0
LINE
8
BLACK
6
CONTINUOUS
10
10.5928
20
0.369319
11
10.5926
21
0.367305
0
LINE
8
BLACK
6
CONTINUOUS
10
10.5926
20
0.367305
11
10.5942
21
0.362931
0
LINE
8
BLACK
6
CONTINUOUS
10
10.5942
20
0.362931
11
10.5903
21
0.340699
0
LINE
8
BLACK
6
CONTINUOUS
10
10.5903
20
0.340699
11
10.5883
21
0.318211
0
LINE
8
BLACK
6
CONTINUOUS
10
10.5883
20
0.318211
11
10.5859
21
0.315786
0
LINE
8
BLACK
6
CONTINUOUS
10
10.5859
20
0.315786
11
10.5853
21
0.312408
0
LINE
8
BLACK
6
CONTINUOUS
10
10.5853
20
0.312408
11
10.568
21
0.297898
0
LINE
8
BLACK
6
CONTINUOUS
10
10.568
20
0.297898
11
10.552
21
0.281935
0
LINE
8
BLACK
6
CONTINUOUS
10
10.552
20
0.281935
11
10.5486
21
0.281636
0
LINE
8
BLACK
6
CONTINUOUS
10
10.5486
20
0.281636
11
10.546
21
0.279431
0
LINE
8
BLACK
6
CONTINUOUS
10
10.546
20
0.279431
11
10.5234
21
0.279431
0
LINE
8
BLACK
6
CONTINUOUS
10
10.5234
20
0.279431
11
10.5009
21
0.277464
0
LINE
8
BLACK
6
CONTINUOUS
10
10.5009
20
0.277464
11
9.73745
21
0.482039
0
LINE
8
BLACK
6
CONTINUOUS
10
9.73745
20
0.482039
11
9.61919
21
0.457839
0
LINE
8
BLACK
6
CONTINUOUS
10
9.61919
20
0.457839
11
9.56258
21
0.425157
0
LINE
8
BLACK
6
CONTINUOUS
10
9.56258
20
0.425157
11
9.52038
21
0.361231
0
LINE
8
BLACK
6
CONTINUOUS
10
9.52038
20
0.361231
11
9.50925
21
0.319695
0
LINE
8
BLACK
6
CONTINUOUS
10
9.50925
20
0.319695
11
9.51384
21
0.24323
0
LINE
8
BLACK
6
CONTINUOUS
10
9.51384
20
0.24323
11
9.61518
21
0.067699
0
LINE
8
BLACK
6
CONTINUOUS
10
9.61518
20
0.067699
11
9.67911
21
0.025491
0
LINE
8
BLACK
6
CONTINUOUS
10
9.67911
20
0.025491
11
9.7324
21
0.011211
0
LINE
8
BLACK
6
CONTINUOUS
10
9.7324
20
0.011211
11
9.75601
21
0.000203
0
LINE
8
BLACK
6
CONTINUOUS
10
9.75601
20
0.000203
11
9.78543
21
-0.041822
0
LINE
8
BLACK
6
CONTINUOUS
10
9.78543
20
-0.041822
11
9.78096
21
-0.09293
0
LINE
8
BLACK
6
CONTINUOUS
10
9.78096
20
-0.09293
11
9.74468
21
-0.129206
0
LINE
8
BLACK
6
CONTINUOUS
10
9.74468
20
-0.129206
11
9.69358
21
-0.133677
0
LINE
8
BLACK
6
CONTINUOUS
10
9.69358
20
-0.133677
11
9.62853
21
-0.116247
0
LINE
8
BLACK
6
CONTINUOUS
10
9.62853
20
-0.116247
11
9.60821
21
-0.106772
0
LINE
8
BLACK
6
CONTINUOUS
10
9.60821
20
-0.106772
11
9.60662
21
-0.106392
0
LINE
8
BLACK
6
CONTINUOUS
10
9.60662
20
-0.106392
11
9.51776
21
-0.047724
0
LINE
8
BLACK
6
CONTINUOUS
10
9.51776
20
-0.047724
11
9.49884
21
-0.029815
0
LINE
8
BLACK
6
CONTINUOUS
10
9.49884
20
-0.029815
11
9.49756
21
-0.025517
0
LINE
8
BLACK
6
CONTINUOUS
10
9.49756
20
-0.025517
11
9.49413
21
-0.022635
0
LINE
8
BLACK
6
CONTINUOUS
10
9.49413
20
-0.022635
11
9.37508
21
0.183562
0
LINE
8
BLACK
6
CONTINUOUS
10
9.37508
20
0.183562
11
9.36617
21
0.208039
0
LINE
8
BLACK
6
CONTINUOUS
10
9.36617
20
0.208039
11
9.36695
21
0.212455
0
LINE
8
BLACK
6
CONTINUOUS
10
9.36695
20
0.212455
11
9.36517
21
0.216568
0
LINE
8
BLACK
6
CONTINUOUS
10
9.36517
20
0.216568
11
9.35879
21
0.322856
0
LINE
8
BLACK
6
CONTINUOUS
10
9.35879
20
0.322856
11
9.36135
21
0.345132
0
LINE
8
BLACK
6
CONTINUOUS
10
9.36135
20
0.345132
11
9.36121
21
0.346762
0
LINE
8
BLACK
6
CONTINUOUS
10
9.36121
20
0.346762
11
9.37864
21
0.411811
0
LINE
8
BLACK
6
CONTINUOUS
10
9.37864
20
0.411811
11
9.38811
21
0.432133
0
LINE
8
BLACK
6
CONTINUOUS
10
9.38811
20
0.432133
11
9.38849
21
0.433723
0
LINE
8
BLACK
6
CONTINUOUS
10
9.38849
20
0.433723
11
9.44716
21
0.522581
0
LINE
8
BLACK
6
CONTINUOUS
10
9.44716
20
0.522581
11
9.46507
21
0.541496
0
LINE
8
BLACK
6
CONTINUOUS
10
9.46507
20
0.541496
11
9.46937
21
0.542774
0
LINE
8
BLACK
6
CONTINUOUS
10
9.46937
20
0.542774
11
9.47225
21
0.546209
0
LINE
8
BLACK
6
CONTINUOUS
10
9.47225
20
0.546209
11
9.55473
21
0.593828
0
LINE
8
BLACK
6
CONTINUOUS
10
9.55473
20
0.593828
11
9.5758
21
0.601497
0
LINE
8
BLACK
6
CONTINUOUS
10
9.5758
20
0.601497
11
9.57719
21
0.602353
0
LINE
8
BLACK
6
CONTINUOUS
10
9.57719
20
0.602353
11
9.72472
21
0.632542
0
LINE
8
BLACK
6
CONTINUOUS
10
9.72472
20
0.632542
11
9.75076
21
0.633254
0
LINE
8
BLACK
6
CONTINUOUS
10
9.75076
20
0.633254
11
9.7547
21
0.631118
0
LINE
8
BLACK
6
CONTINUOUS
10
9.7547
20
0.631118
11
9.75917
21
0.631509
0
LINE
8
BLACK
6
CONTINUOUS
10
9.75917
20
0.631509
11
10.3649
21
0.469215
0
LINE
8
BLACK
6
CONTINUOUS
10
10.3649
20
0.469215
11
10.1459
21
0.848519
0
LINE
8
BLACK
6
CONTINUOUS
10
10.1459
20
0.848519
11
10.137
21
0.872996
0
LINE
8
BLACK
6
CONTINUOUS
10
10.137
20
0.872996
11
10.1459
21
0.923519
0
LINE
8
BLACK
6
CONTINUOUS
10
10.1459
20
0.923519
11
10.1852
21
0.956497
0
LINE
8
BLACK
6
CONTINUOUS
10
10.1852
20
0.956497
11
10.2365
21
0.956496
0
LINE
8
BLACK
6
CONTINUOUS
10
6.12154
20
0.070176
11
5.34654
21
1.41251
0
LINE
8
BLACK
6
CONTINUOUS
10
5.34654
20
1.41251
11
5.3402
21
1.4607
0
LINE
8
BLACK
6
CONTINUOUS
10
5.3402
20
1.4607
11
5.36979
21
1.49926
0
LINE
8
BLACK
6
CONTINUOUS
10
5.36979
20
1.49926
11
5.41797
21
1.5056
0
LINE
8
BLACK
6
CONTINUOUS
10
5.41797
20
1.5056
11
5.45653
21
1.47601
0
LINE
8
BLACK
6
CONTINUOUS
10
5.45653
20
1.47601
11
6.19978
21
0.188667
0
LINE
8
BLACK
6
CONTINUOUS
10
6.19978
20
0.188667
11
8.48306
21
1.50692
0
LINE
8
BLACK
6
CONTINUOUS
10
8.48306
20
1.50692
11
8.53124
21
1.51326
0
LINE
8
BLACK
6
CONTINUOUS
10
8.53124
20
1.51326
11
8.5698
21
1.48367
0
LINE
8
BLACK
6
CONTINUOUS
10
8.5698
20
1.48367
11
8.57614
21
1.43549
0
LINE
8
BLACK
6
CONTINUOUS
10
8.57614
20
1.43549
11
8.54656
21
1.39693
0
LINE
8
BLACK
6
CONTINUOUS
10
8.54656
20
1.39693
11
6.20829
21
0.046931
0
LINE
8
BLACK
6
CONTINUOUS
10
6.20829
20
0.046931
11
6.1601
21
0.040588
0
LINE
8
BLACK
6
CONTINUOUS
10
6.1601
20
0.040588
11
6.12154
21
0.070174
0
LINE
8
BLACK
6
CONTINUOUS
10
6.12154
20
0.070174
11
6.12154
21
0.070176
0
LINE
8
BLACK
6
CONTINUOUS
10
-8.48306
20
1.50692
11
-6.19978
21
0.188667
0
LINE
8
BLACK
6
CONTINUOUS
10
-6.19978
20
0.188667
11
-5.45653
21
1.47601
0
LINE
8
BLACK
6
CONTINUOUS
10
-5.45653
20
1.47601
11
-5.41797
21
1.5056
0
LINE
8
BLACK
6
CONTINUOUS
10
-5.41797
20
1.5056
11
-5.36979
21
1.49926
0
LINE
8
BLACK
6
CONTINUOUS
10
-5.36979
20
1.49926
11
-5.3402
21
1.4607
0
LINE
8
BLACK
6
CONTINUOUS
10
-5.3402
20
1.4607
11
-5.34654
21
1.41251
0
LINE
8
BLACK
6
CONTINUOUS
10
-5.34654
20
1.41251
11
-6.12154
21
0.070174
0
LINE
8
BLACK
6
CONTINUOUS
10
-6.12154
20
0.070174
11
-6.1601
21
0.040588
0
LINE
8
BLACK
6
CONTINUOUS
10
-6.1601
20
0.040588
11
-6.20829
21
0.046931
0
LINE
8
BLACK
6
CONTINUOUS
10
-6.20829
20
0.046931
11
-6.20829
21
0.046933
0
LINE
8
BLACK
6
CONTINUOUS
10
-6.20829
20
0.046933
11
-8.54656
21
1.39693
0
LINE
8
BLACK
6
CONTINUOUS
10
-8.54656
20
1.39693
11
-8.57614
21
1.43549
0
LINE
8
BLACK
6
CONTINUOUS
10
-8.57614
20
1.43549
11
-8.5698
21
1.48367
0
LINE
8
BLACK
6
CONTINUOUS
10
-8.5698
20
1.48367
11
-8.53124
21
1.51326
0
LINE
8
BLACK
6
CONTINUOUS
10
-8.53124
20
1.51326
11
-8.48306
21
1.50692
0
LINE
8
BLACK
6
CONTINUOUS
10
-10.0277
20
0.956283
11
-10.006
21
0.954882
0
LINE
8
BLACK
6
CONTINUOUS
10
-10.006
20
0.954882
11
-10.0029
21
0.951903
0
LINE
8
BLACK
6
CONTINUOUS
10
-10.0029
20
0.951903
11
-9.99866
21
0.951154
0
LINE
8
BLACK
6
CONTINUOUS
10
-9.99866
20
0.951154
11
-9.19758
21
0.488654
0
LINE
8
BLACK
6
CONTINUOUS
10
-9.19758
20
0.488654
11
-9.09223
21
0.671138
0
LINE
8
BLACK
6
CONTINUOUS
10
-9.09223
20
0.671138
11
-9.07548
21
0.691092
0
LINE
8
BLACK
6
CONTINUOUS
10
-9.07548
20
0.691092
11
-9.02727
21
0.708638
0
LINE
8
BLACK
6
CONTINUOUS
10
-9.02727
20
0.708638
11
-8.97906
21
0.691092
0
LINE
8
BLACK
6
CONTINUOUS
10
-8.97906
20
0.691092
11
-8.95341
21
0.646662
0
LINE
8
BLACK
6
CONTINUOUS
10
-8.95341
20
0.646662
11
-8.96232
21
0.596138
0
LINE
8
BLACK
6
CONTINUOUS
10
-8.96232
20
0.596138
11
-9.24804
21
0.101266
0
LINE
8
BLACK
6
CONTINUOUS
10
-9.24804
20
0.101266
11
-9.26478
21
0.081312
0
LINE
8
BLACK
6
CONTINUOUS
10
-9.26478
20
0.081312
11
-9.31299
21
0.063766
0
LINE
8
BLACK
6
CONTINUOUS
10
-9.31299
20
0.063766
11
-9.3612
21
0.081312
0
LINE
8
BLACK
6
CONTINUOUS
10
-9.3612
20
0.081312
11
-9.38685
21
0.125742
0
LINE
8
BLACK
6
CONTINUOUS
10
-9.38685
20
0.125742
11
-9.37794
21
0.176266
0
LINE
8
BLACK
6
CONTINUOUS
10
-9.37794
20
0.176266
11
-9.27258
21
0.35875
0
LINE
8
BLACK
6
CONTINUOUS
10
-9.27258
20
0.35875
11
-9.87561
21
0.706907
0
LINE
8
BLACK
6
CONTINUOUS
10
-9.87561
20
0.706907
11
-9.85275
21
0.621608
0
LINE
8
BLACK
6
CONTINUOUS
10
-9.85275
20
0.621608
11
-9.8508
21
0.599269
0
LINE
8
BLACK
6
CONTINUOUS
10
-9.8508
20
0.599269
11
-9.85033
21
0.597703
0
LINE
8
BLACK
6
CONTINUOUS
10
-9.85033
20
0.597703
11
-9.85671
21
0.491415
0
LINE
8
BLACK
6
CONTINUOUS
10
-9.85671
20
0.491415
11
-9.86276
21
0.46608
0
LINE
8
BLACK
6
CONTINUOUS
10
-9.86276
20
0.46608
11
-9.89804
21
0.428827
0
LINE
8
BLACK
6
CONTINUOUS
10
-9.89804
20
0.428827
11
-9.949
21
0.422961
0
LINE
8
BLACK
6
CONTINUOUS
10
-9.949
20
0.422961
11
-9.99182
21
0.451229
0
LINE
8
BLACK
6
CONTINUOUS
10
-9.99182
20
0.451229
11
-10.0064
21
0.500403
0
LINE
8
BLACK
6
CONTINUOUS
10
-10.0064
20
0.500403
11
-10.0008
21
0.59454
0
LINE
8
BLACK
6
CONTINUOUS
10
-10.0008
20
0.59454
11
-10.0306
21
0.705711
0
LINE
8
BLACK
6
CONTINUOUS
10
-10.0306
20
0.705711
11
-10.1034
21
0.85296
0
LINE
8
BLACK
6
CONTINUOUS
10
-10.1034
20
0.85296
11
-10.1107
21
0.877959
0
LINE
8
BLACK
6
CONTINUOUS
10
-10.1107
20
0.877959
11
-10.1097
21
0.88215
0
LINE
8
BLACK
6
CONTINUOUS
10
-10.1097
20
0.88215
11
-10.1112
21
0.886202
0
LINE
8
BLACK
6
CONTINUOUS
10
-10.1112
20
0.886202
11
-10.1037
21
0.906653
0
LINE
8
BLACK
6
CONTINUOUS
10
-10.1037
20
0.906653
11
-10.0986
21
0.927805
0
LINE
8
BLACK
6
CONTINUOUS
10
-10.0986
20
0.927805
11
-10.0951
21
0.930359
0
LINE
8
BLACK
6
CONTINUOUS
10
-10.0951
20
0.930359
11
-10.0936
21
0.934412
0
LINE
8
BLACK
6
CONTINUOUS
10
-10.0936
20
0.934412
11
-10.0748
21
0.945295
0
LINE
8
BLACK
6
CONTINUOUS
10
-10.0748
20
0.945295
11
-10.0572
21
0.958184
0
LINE
8
BLACK
6
CONTINUOUS
10
-10.0572
20
0.958184
11
-10.0529
21
0.957906
0
LINE
8
BLACK
6
CONTINUOUS
10
-10.0529
20
0.957906
11
-10.0492
21
0.960062
0
LINE
8
BLACK
6
CONTINUOUS
10
-10.0492
20
0.960062
11
-10.0277
21
0.956283
0
LINE
8
BLACK
6
CONTINUOUS
10
3.91647
20
1.51315
11
3.99758
21
1.45896
0
LINE
8
BLACK
6
CONTINUOUS
10
3.99758
20
1.45896
11
4.05177
21
1.37785
0
LINE
8
BLACK
6
CONTINUOUS
10
4.05177
20
1.37785
11
4.0708
21
1.28218
0
LINE
8
BLACK
6
CONTINUOUS
10
4.0708
20
1.28218
11
4.05177
21
1.18651
0
LINE
8
BLACK
6
CONTINUOUS
10
4.05177
20
1.18651
11
3.99758
21
1.1054
0
LINE
8
BLACK
6
CONTINUOUS
10
3.99758
20
1.1054
11
3.91647
21
1.05121
0
LINE
8
BLACK
6
CONTINUOUS
10
3.91647
20
1.05121
11
3.8208
21
1.03218
0
LINE
8
BLACK
6
CONTINUOUS
10
3.8208
20
1.03218
11
3.72513
21
1.05121
0
LINE
8
BLACK
6
CONTINUOUS
10
3.72513
20
1.05121
11
3.64402
21
1.1054
0
LINE
8
BLACK
6
CONTINUOUS
10
3.64402
20
1.1054
11
3.58983
21
1.18651
0
LINE
8
BLACK
6
CONTINUOUS
10
3.58983
20
1.18651
11
3.5708
21
1.28218
0
LINE
8
BLACK
6
CONTINUOUS
10
3.5708
20
1.28218
11
3.58983
21
1.37785
0
LINE
8
BLACK
6
CONTINUOUS
10
3.58983
20
1.37785
11
3.64402
21
1.45896
0
LINE
8
BLACK
6
CONTINUOUS
10
3.64402
20
1.45896
11
3.72513
21
1.51315
0
LINE
8
BLACK
6
CONTINUOUS
10
3.72513
20
1.51315
11
3.8208
21
1.53218
0
LINE
8
BLACK
6
CONTINUOUS
10
3.8208
20
1.53218
11
3.91647
21
1.51315
0
LINE
8
BLACK
6
CONTINUOUS
10
-2.92513
20
2.89879
11
-2.84402
21
2.8446
0
LINE
8
BLACK
6
CONTINUOUS
10
-2.84402
20
2.8446
11
-2.78983
21
2.76349
0
LINE
8
BLACK
6
CONTINUOUS
10
-2.78983
20
2.76349
11
-2.7708
21
2.66782
0
LINE
8
BLACK
6
CONTINUOUS
10
-2.7708
20
2.66782
11
-2.78983
21
2.57215
0
LINE
8
BLACK
6
CONTINUOUS
10
-2.78983
20
2.57215
11
-2.84402
21
2.49104
0
LINE
8
BLACK
6
CONTINUOUS
10
-2.84402
20
2.49104
11
-2.92513
21
2.43685
0
LINE
8
BLACK
6
CONTINUOUS
10
-2.92513
20
2.43685
11
-3.0208
21
2.41782
0
LINE
8
BLACK
6
CONTINUOUS
10
-3.0208
20
2.41782
11
-3.11647
21
2.43685
0
LINE
8
BLACK
6
CONTINUOUS
10
-3.11647
20
2.43685
11
-3.19758
21
2.49104
0
LINE
8
BLACK
6
CONTINUOUS
10
-3.19758
20
2.49104
11
-3.25177
21
2.57215
0
LINE
8
BLACK
6
CONTINUOUS
10
-3.25177
20
2.57215
11
-3.2708
21
2.66782
0
LINE
8
BLACK
6
CONTINUOUS
10
-3.2708
20
2.66782
11
-3.25177
21
2.76349
0
LINE
8
BLACK
6
CONTINUOUS
10
-3.25177
20
2.76349
11
-3.19758
21
2.8446
0
LINE
8
BLACK
6
CONTINUOUS
10
-3.19758
20
2.8446
11
-3.11647
21
2.89879
0
LINE
8
BLACK
6
CONTINUOUS
10
-3.11647
20
2.89879
11
-3.0208
21
2.91782
0
LINE
8
BLACK
6
CONTINUOUS
10
-3.0208
20
2.91782
11
-2.92513
21
2.89879
0
LINE
8
BLACK
6
CONTINUOUS
10
8.42768
20
8.32983
11
11.4277
21
3.13367
0
LINE
8
BLACK
6
CONTINUOUS
10
11.4277
20
3.13367
11
11.434
21
3.08549
0
LINE
8
BLACK
6
CONTINUOUS
10
11.434
20
3.08549
11
11.4044
21
3.04693
0
LINE
8
BLACK
6
CONTINUOUS
10
11.4044
20
3.04693
11
10.8848
21
2.74693
0
LINE
8
BLACK
6
CONTINUOUS
10
10.8848
20
2.74693
11
10.8366
21
2.74059
0
LINE
8
BLACK
6
CONTINUOUS
10
10.8366
20
2.74059
11
10.7981
21
2.77017
0
LINE
8
BLACK
6
CONTINUOUS
10
10.7981
20
2.77017
11
10.7917
21
2.81836
0
LINE
8
BLACK
6
CONTINUOUS
10
10.7917
20
2.81836
11
10.8213
21
2.85692
0
LINE
8
BLACK
6
CONTINUOUS
10
10.8213
20
2.85692
11
11.2859
21
3.12517
0
LINE
8
BLACK
6
CONTINUOUS
10
11.2859
20
3.12517
11
8.34945
21
8.21133
0
LINE
8
BLACK
6
CONTINUOUS
10
8.34945
20
8.21133
11
7.88482
21
7.94308
0
LINE
8
BLACK
6
CONTINUOUS
10
7.88482
20
7.94308
11
7.83664
21
7.93674
0
LINE
8
BLACK
6
CONTINUOUS
10
7.83664
20
7.93674
11
7.79808
21
7.96633
0
LINE
8
BLACK
6
CONTINUOUS
10
7.79808
20
7.96633
11
7.79174
21
8.01451
0
LINE
8
BLACK
6
CONTINUOUS
10
7.79174
20
8.01451
11
7.82132
21
8.05307
0
LINE
8
BLACK
6
CONTINUOUS
10
7.82132
20
8.05307
11
8.34094
21
8.35307
0
LINE
8
BLACK
6
CONTINUOUS
10
8.34094
20
8.35307
11
8.38912
21
8.35941
0
LINE
8
BLACK
6
CONTINUOUS
10
8.38912
20
8.35941
11
8.42768
21
8.32983
0
LINE
8
BLACK
6
CONTINUOUS
10
-8.34094
20
8.35307
11
-7.82132
21
8.05307
0
LINE
8
BLACK
6
CONTINUOUS
10
-7.82132
20
8.05307
11
-7.79174
21
8.01451
0
LINE
8
BLACK
6
CONTINUOUS
10
-7.79174
20
8.01451
11
-7.79808
21
7.96633
0
LINE
8
BLACK
6
CONTINUOUS
10
-7.79808
20
7.96633
11
-7.83664
21
7.93674
0
LINE
8
BLACK
6
CONTINUOUS
10
-7.83664
20
7.93674
11
-7.88482
21
7.94308
0
LINE
8
BLACK
6
CONTINUOUS
10
-7.88482
20
7.94308
11
-8.34945
21
8.21133
0
LINE
8
BLACK
6
CONTINUOUS
10
-8.34945
20
8.21133
11
-11.2859
21
3.12517
0
LINE
8
BLACK
6
CONTINUOUS
10
-11.2859
20
3.12517
11
-10.8213
21
2.85692
0
LINE
8
BLACK
6
CONTINUOUS
10
-10.8213
20
2.85692
11
-10.7917
21
2.81836
0
LINE
8
BLACK
6
CONTINUOUS
10
-10.7917
20
2.81836
11
-10.7981
21
2.77017
0
LINE
8
BLACK
6
CONTINUOUS
10
-10.7981
20
2.77017
11
-10.8366
21
2.74059
0
LINE
8
BLACK
6
CONTINUOUS
10
-10.8366
20
2.74059
11
-10.8848
21
2.74693
0
LINE
8
BLACK
6
CONTINUOUS
10
-10.8848
20
2.74693
11
-11.4044
21
3.04693
0
LINE
8
BLACK
6
CONTINUOUS
10
-11.4044
20
3.04693
11
-11.434
21
3.08549
0
LINE
8
BLACK
6
CONTINUOUS
10
-11.434
20
3.08549
11
-11.4277
21
3.13367
0
LINE
8
BLACK
6
CONTINUOUS
10
-11.4277
20
3.13367
11
-8.42768
21
8.32982
0
LINE
8
BLACK
6
CONTINUOUS
10
-8.42768
20
8.32982
11
-8.42768
21
8.32983
0
LINE
8
BLACK
6
CONTINUOUS
10
-8.42768
20
8.32983
11
-8.38912
21
8.35941
0
LINE
8
BLACK
6
CONTINUOUS
10
-8.38912
20
8.35941
11
-8.34094
21
8.35307
0
LINE
8
BLACK
6
CONTINUOUS
10
5.5698
20
6.67983
11
5.57614
21
6.63164
0
LINE
8
BLACK
6
CONTINUOUS
10
5.57614
20
6.63164
11
5.54656
21
6.59308
0
LINE
8
BLACK
6
CONTINUOUS
10
5.54656
20
6.59308
11
3.26328
21
5.27483
0
LINE
8
BLACK
6
CONTINUOUS
10
3.26328
20
5.27483
11
4.00653
21
3.98749
0
LINE
8
BLACK
6
CONTINUOUS
10
4.00653
20
3.98749
11
4.01287
21
3.9393
0
LINE
8
BLACK
6
CONTINUOUS
10
4.01287
20
3.9393
11
3.98329
21
3.90074
0
LINE
8
BLACK
6
CONTINUOUS
10
3.98329
20
3.90074
11
3.9351
21
3.8944
0
LINE
8
BLACK
6
CONTINUOUS
10
3.9351
20
3.8944
11
3.89654
21
3.92399
0
LINE
8
BLACK
6
CONTINUOUS
10
3.89654
20
3.92399
11
3.12154
21
5.26633
0
LINE
8
BLACK
6
CONTINUOUS
10
3.12154
20
5.26633
11
3.1152
21
5.31451
0
LINE
8
BLACK
6
CONTINUOUS
10
3.1152
20
5.31451
11
3.14479
21
5.35307
0
LINE
8
BLACK
6
CONTINUOUS
10
3.14479
20
5.35307
11
5.48306
21
6.70307
0
LINE
8
BLACK
6
CONTINUOUS
10
5.48306
20
6.70307
11
5.53124
21
6.70941
0
LINE
8
BLACK
6
CONTINUOUS
10
5.53124
20
6.70941
11
5.5698
21
6.67983
0
LINE
8
BLACK
6
CONTINUOUS
10
-5.48306
20
6.70307
11
-3.14479
21
5.35307
0
LINE
8
BLACK
6
CONTINUOUS
10
-3.14479
20
5.35307
11
-3.1152
21
5.31451
0
LINE
8
BLACK
6
CONTINUOUS
10
-3.1152
20
5.31451
11
-3.12154
21
5.26633
0
LINE
8
BLACK
6
CONTINUOUS
10
-3.12154
20
5.26633
11
-3.89654
21
3.92399
0
LINE
8
BLACK
6
CONTINUOUS
10
-3.89654
20
3.92399
11
-3.9351
21
3.8944
0
LINE
8
BLACK
6
CONTINUOUS
10
-3.9351
20
3.8944
11
-3.98329
21
3.90074
0
LINE
8
BLACK
6
CONTINUOUS
10
-3.98329
20
3.90074
11
-4.01287
21
3.9393
0
LINE
8
BLACK
6
CONTINUOUS
10
-4.01287
20
3.9393
11
-4.00653
21
3.98749
0
LINE
8
BLACK
6
CONTINUOUS
10
-4.00653
20
3.98749
11
-3.26328
21
5.27483
0
LINE
8
BLACK
6
CONTINUOUS
10
-3.26328
20
5.27483
11
-5.54656
21
6.59308
0
LINE
8
BLACK
6
CONTINUOUS
10
-5.54656
20
6.59308
11
-5.57614
21
6.63164
0
LINE
8
BLACK
6
CONTINUOUS
10
-5.57614
20
6.63164
11
-5.5698
21
6.67983
0
LINE
8
BLACK
6
CONTINUOUS
10
-5.5698
20
6.67983
11
-5.53124
21
6.70941
0
LINE
8
BLACK
6
CONTINUOUS
10
-5.53124
20
6.70941
11
-5.48306
21
6.70307
0
LINE
8
BLACK
6
CONTINUOUS
10
2.12309
20
8.95396
11
2.15867
21
8.9505
0
LINE
8
BLACK
6
CONTINUOUS
10
2.15867
20
8.9505
11
3.5247
21
8.58447
0
LINE
8
BLACK
6
CONTINUOUS
10
3.5247
20
8.58447
11
3.58147
21
8.56386
0
LINE
8
BLACK
6
CONTINUOUS
10
3.58147
20
8.56386
11
3.59291
21
8.55605
0
LINE
8
BLACK
6
CONTINUOUS
10
3.59291
20
8.55605
11
3.60593
21
8.55132
0
LINE
8
BLACK
6
CONTINUOUS
10
3.60593
20
8.55132
11
3.64012
21
8.52379
0
LINE
8
BLACK
6
CONTINUOUS
10
3.64012
20
8.52379
11
3.67636
21
8.49902
0
LINE
8
BLACK
6
CONTINUOUS
10
3.67636
20
8.49902
11
3.68465
21
8.48792
0
LINE
8
BLACK
6
CONTINUOUS
10
3.68465
20
8.48792
11
3.69544
21
8.47923
0
LINE
8
BLACK
6
CONTINUOUS
10
3.69544
20
8.47923
11
3.71887
21
8.4421
0
LINE
8
BLACK
6
CONTINUOUS
10
3.71887
20
8.4421
11
3.74513
21
8.40693
0
LINE
8
BLACK
6
CONTINUOUS
10
3.74513
20
8.40693
11
3.74937
21
8.39374
0
LINE
8
BLACK
6
CONTINUOUS
10
3.74937
20
8.39374
11
3.75676
21
8.38203
0
LINE
8
BLACK
6
CONTINUOUS
10
3.75676
20
8.38203
11
3.7669
21
8.33931
0
LINE
8
BLACK
6
CONTINUOUS
10
3.7669
20
8.33931
11
3.78036
21
8.29753
0
LINE
8
BLACK
6
CONTINUOUS
10
3.78036
20
8.29753
11
3.7801
21
8.28368
0
LINE
8
BLACK
6
CONTINUOUS
10
3.7801
20
8.28368
11
3.7833
21
8.2702
0
LINE
8
BLACK
6
CONTINUOUS
10
3.7833
20
8.2702
11
3.77906
21
8.2265
0
LINE
8
BLACK
6
CONTINUOUS
10
3.77906
20
8.2265
11
3.77825
21
8.18262
0
LINE
8
BLACK
6
CONTINUOUS
10
3.77825
20
8.18262
11
3.77353
21
8.1696
0
LINE
8
BLACK
6
CONTINUOUS
10
3.77353
20
8.1696
11
3.77219
21
8.15581
0
LINE
8
BLACK
6
CONTINUOUS
10
3.77219
20
8.15581
11
3.40616
21
6.78979
0
LINE
8
BLACK
6
CONTINUOUS
10
3.40616
20
6.78979
11
3.40225
21
6.77901
0
LINE
8
BLACK
6
CONTINUOUS
10
3.40225
20
6.77901
11
3.40152
21
6.77396
0
LINE
8
BLACK
6
CONTINUOUS
10
3.40152
20
6.77396
11
3.39775
21
6.76661
0
LINE
8
BLACK
6
CONTINUOUS
10
3.39775
20
6.76661
11
3.38555
21
6.73301
0
LINE
8
BLACK
6
CONTINUOUS
10
3.38555
20
6.73301
11
3.36538
21
6.7035
0
LINE
8
BLACK
6
CONTINUOUS
10
3.36538
20
6.7035
11
3.34907
21
6.6717
0
LINE
8
BLACK
6
CONTINUOUS
10
3.34907
20
6.6717
11
3.33317
21
6.65637
0
LINE
8
BLACK
6
CONTINUOUS
10
3.33317
20
6.65637
11
3.3207
21
6.63812
0
LINE
8
BLACK
6
CONTINUOUS
10
3.3207
20
6.63812
11
3.29206
21
6.61674
0
LINE
8
BLACK
6
CONTINUOUS
10
3.29206
20
6.61674
11
3.26633
21
6.59193
0
LINE
8
BLACK
6
CONTINUOUS
10
3.26633
20
6.59193
11
3.24632
21
6.58258
0
LINE
8
BLACK
6
CONTINUOUS
10
3.24632
20
6.58258
11
3.22861
21
6.56936
0
LINE
8
BLACK
6
CONTINUOUS
10
3.22861
20
6.56936
11
3.19459
21
6.5584
0
LINE
8
BLACK
6
CONTINUOUS
10
3.19459
20
6.5584
11
3.16221
21
6.54327
0
LINE
8
BLACK
6
CONTINUOUS
10
3.16221
20
6.54327
11
3.14025
21
6.5409
0
LINE
8
BLACK
6
CONTINUOUS
10
3.14025
20
6.5409
11
3.11922
21
6.53413
0
LINE
8
BLACK
6
CONTINUOUS
10
3.11922
20
6.53413
11
3.08348
21
6.53478
0
LINE
8
BLACK
6
CONTINUOUS
10
3.08348
20
6.53478
11
3.04794
21
6.53095
0
LINE
8
BLACK
6
CONTINUOUS
10
3.04794
20
6.53095
11
3.02639
21
6.53583
0
LINE
8
BLACK
6
CONTINUOUS
10
3.02639
20
6.53583
11
3.00431
21
6.53624
0
LINE
8
BLACK
6
CONTINUOUS
10
3.00431
20
6.53624
11
2.9707
21
6.54843
0
LINE
8
BLACK
6
CONTINUOUS
10
2.9707
20
6.54843
11
2.93584
21
6.55632
0
LINE
8
BLACK
6
CONTINUOUS
10
2.93584
20
6.55632
11
2.91704
21
6.56791
0
LINE
8
BLACK
6
CONTINUOUS
10
2.91704
20
6.56791
11
2.89627
21
6.57545
0
LINE
8
BLACK
6
CONTINUOUS
10
2.89627
20
6.57545
11
2.86843
21
6.59787
0
LINE
8
BLACK
6
CONTINUOUS
10
2.86843
20
6.59787
11
2.838
21
6.61663
0
LINE
8
BLACK
6
CONTINUOUS
10
2.838
20
6.61663
11
2.82397
21
6.63369
0
LINE
8
BLACK
6
CONTINUOUS
10
2.82397
20
6.63369
11
2.80676
21
6.64754
0
LINE
8
BLACK
6
CONTINUOUS
10
2.80676
20
6.64754
11
2.78769
21
6.67777
0
LINE
8
BLACK
6
CONTINUOUS
10
2.78769
20
6.67777
11
2.76498
21
6.70538
0
LINE
8
BLACK
6
CONTINUOUS
10
2.76498
20
6.70538
11
2.41292
21
7.31515
0
LINE
8
BLACK
6
CONTINUOUS
10
2.41292
20
7.31515
11
1.15653
21
6.68695
0
LINE
8
BLACK
6
CONTINUOUS
10
1.15653
20
6.68695
11
1.12022
21
6.67256
0
LINE
8
BLACK
6
CONTINUOUS
10
1.12022
20
6.67256
11
1.11337
21
6.66887
0
LINE
8
BLACK
6
CONTINUOUS
10
1.11337
20
6.66887
11
1.1091
21
6.66816
0
LINE
8
BLACK
6
CONTINUOUS
10
1.1091
20
6.66816
11
1.10037
21
6.6647
0
LINE
8
BLACK
6
CONTINUOUS
10
1.10037
20
6.6647
11
1.05004
21
6.65833
0
LINE
8
BLACK
6
CONTINUOUS
10
1.05004
20
6.65833
11
1
21
6.65
0
LINE
8
BLACK
6
CONTINUOUS
10
1
20
6.65
11
-1
21
6.65
0
LINE
8
BLACK
6
CONTINUOUS
10
-1
20
6.65
11
-1.0389
21
6.65337
0
LINE
8
BLACK
6
CONTINUOUS
10
-1.0389
20
6.65337
11
-1.04668
21
6.65313
0
LINE
8
BLACK
6
CONTINUOUS
10
-1.04668
20
6.65313
11
-1.05082
21
6.6544
0
LINE
8
BLACK
6
CONTINUOUS
10
-1.05082
20
6.6544
11
-1.06017
21
6.65521
0
LINE
8
BLACK
6
CONTINUOUS
10
-1.06017
20
6.65521
11
-1.10802
21
6.67201
0
LINE
8
BLACK
6
CONTINUOUS
10
-1.10802
20
6.67201
11
-1.15653
21
6.68695
0
LINE
8
BLACK
6
CONTINUOUS
10
-1.15653
20
6.68695
11
-3.15652
21
7.68695
0
LINE
8
BLACK
6
CONTINUOUS
10
-3.15652
20
7.68695
11
-3.20802
21
7.71852
0
LINE
8
BLACK
6
CONTINUOUS
10
-3.20802
20
7.71852
11
-3.28798
21
7.80108
0
LINE
8
BLACK
6
CONTINUOUS
10
-3.28798
20
7.80108
11
-3.33688
21
7.90508
0
LINE
8
BLACK
6
CONTINUOUS
10
-3.33688
20
7.90508
11
-3.34947
21
8.01932
0
LINE
8
BLACK
6
CONTINUOUS
10
-3.34947
20
8.01932
11
-3.32436
21
8.13148
0
LINE
8
BLACK
6
CONTINUOUS
10
-3.32436
20
8.13148
11
-3.26429
21
8.22946
0
LINE
8
BLACK
6
CONTINUOUS
10
-3.26429
20
8.22946
11
-3.17571
21
8.3027
0
LINE
8
BLACK
6
CONTINUOUS
10
-3.17571
20
8.3027
11
-3.06819
21
8.34329
0
LINE
8
BLACK
6
CONTINUOUS
10
-3.06819
20
8.34329
11
-2.95332
21
8.34687
0
LINE
8
BLACK
6
CONTINUOUS
10
-2.95332
20
8.34687
11
-2.84347
21
8.31305
0
LINE
8
BLACK
6
CONTINUOUS
10
-2.84347
20
8.31305
11
-0.917375
21
7.35
0
LINE
8
BLACK
6
CONTINUOUS
10
-0.917375
20
7.35
11
0.917375
21
7.35
0
LINE
8
BLACK
6
CONTINUOUS
10
0.917375
20
7.35
11
2.06229
21
7.92246
0
LINE
8
BLACK
6
CONTINUOUS
10
2.06229
20
7.92246
11
1.76498
21
8.43742
0
LINE
8
BLACK
6
CONTINUOUS
10
1.76498
20
8.43742
11
1.76013
21
8.44781
0
LINE
8
BLACK
6
CONTINUOUS
10
1.76013
20
8.44781
11
1.75707
21
8.4519
0
LINE
8
BLACK
6
CONTINUOUS
10
1.75707
20
8.4519
11
1.75454
21
8.45976
0
LINE
8
BLACK
6
CONTINUOUS
10
1.75454
20
8.45976
11
1.7394
21
8.49214
0
LINE
8
BLACK
6
CONTINUOUS
10
1.7394
20
8.49214
11
1.7328
21
8.52727
0
LINE
8
BLACK
6
CONTINUOUS
10
1.7328
20
8.52727
11
1.72184
21
8.5613
0
LINE
8
BLACK
6
CONTINUOUS
10
1.72184
20
8.5613
11
1.72225
21
8.58338
0
LINE
8
BLACK
6
CONTINUOUS
10
1.72225
20
8.58338
11
1.71816
21
8.6051
0
LINE
8
BLACK
6
CONTINUOUS
10
1.71816
20
8.6051
11
1.72329
21
8.64047
0
LINE
8
BLACK
6
CONTINUOUS
10
1.72329
20
8.64047
11
1.72395
21
8.67621
0
LINE
8
BLACK
6
CONTINUOUS
10
1.72395
20
8.67621
11
1.73149
21
8.69697
0
LINE
8
BLACK
6
CONTINUOUS
10
1.73149
20
8.69697
11
1.73466
21
8.71884
0
LINE
8
BLACK
6
CONTINUOUS
10
1.73466
20
8.71884
11
1.75097
21
8.75064
0
LINE
8
BLACK
6
CONTINUOUS
10
1.75097
20
8.75064
11
1.76316
21
8.78424
0
LINE
8
BLACK
6
CONTINUOUS
10
1.76316
20
8.78424
11
1.77702
21
8.80145
0
LINE
8
BLACK
6
CONTINUOUS
10
1.77702
20
8.80145
11
1.7871
21
8.8211
0
LINE
8
BLACK
6
CONTINUOUS
10
1.7871
20
8.8211
11
1.81283
21
8.84591
0
LINE
8
BLACK
6
CONTINUOUS
10
1.81283
20
8.84591
11
1.83526
21
8.87375
0
LINE
8
BLACK
6
CONTINUOUS
10
1.83526
20
8.87375
11
1.85394
21
8.88554
0
LINE
8
BLACK
6
CONTINUOUS
10
1.85394
20
8.88554
11
1.86984
21
8.90087
0
LINE
8
BLACK
6
CONTINUOUS
10
1.86984
20
8.90087
11
1.90223
21
8.916
0
LINE
8
BLACK
6
CONTINUOUS
10
1.90223
20
8.916
11
1.93246
21
8.93508
0
LINE
8
BLACK
6
CONTINUOUS
10
1.93246
20
8.93508
11
1.95395
21
8.94018
0
LINE
8
BLACK
6
CONTINUOUS
10
1.95395
20
8.94018
11
1.97396
21
8.94953
0
LINE
8
BLACK
6
CONTINUOUS
10
1.97396
20
8.94953
11
2.0095
21
8.95336
0
LINE
8
BLACK
6
CONTINUOUS
10
2.0095
20
8.95336
11
2.04428
21
8.96162
0
LINE
8
BLACK
6
CONTINUOUS
10
2.04428
20
8.96162
11
2.06627
21
8.95948
0
LINE
8
BLACK
6
CONTINUOUS
10
2.06627
20
8.95948
11
2.08823
21
8.96185
0
LINE
8
BLACK
6
CONTINUOUS
10
2.08823
20
8.96185
11
2.12309
21
8.95396
  0
ENDSEC
  0
EOF
