  0
SECTION
  2
HEADER
  9
$ANGBASE
  50
0.0
  9
$ANGDIR
  70
1
  9
$MEASUREMENT
  70
1
  0
ENDSEC
  0
SECTION
  2
TABLES
  0
TABLE
  2
LTYPE
  70
4
  0
LTYPE
  5
40F
  2
CONTINUOUS
  70
0
  3
Solid line
  72
65
  73
0
  40
0.0
  0
LTYPE
  5
410
  2
DASHDOT
 70
0
  3
Dash Dot ____ _ ____ _
 72
65
 73
4
 40
2.0
 49
1.25
 49
-0.25
 49
0.25
 49
-0.25
  0
LTYPE
  5
411
  2
DASHED
 70
0
  3
Dashed __ __ __ __ __
 72
65
 73
2
 40
0.75
 49
0.5
 49
-0.25
  0
LTYPE
  5
43B
  2
DOTTED
 70
0
  3
Dotted .  .  .  .
 72
65
 73
2
 40
0.2
 49
0.0
 49
-0.2
  0
ENDTAB
  0
TABLE
  2
STYLE
  70
4
  0
STYLE
  2
KICAD
  70
0
  40
0
  41
1
  42
1
  50
0
  71
0
  3
isocp.shx
  0
STYLE
  2
KICADB
  70
0
  40
0
  41
1
  42
1
  50
0
  71
0
  3
isocp.shx
  0
STYLE
  2
KICADI
  70
0
  40
0
  41
1
  42
1
  50
15
  71
0
  3
isocp.shx
  0
STYLE
  2
KICADBI
  70
0
  40
0
  41
1
  42
1
  50
15
  71
0
  3
isocp.shx
  0
ENDTAB
  0
TABLE
  2
LAYER
  70
1
  0
LAYER
  2
BLACK
  70
0
  62
7
  6
CONTINUOUS
  0
ENDTAB
  0
ENDSEC
  0
SECTION
  2
ENTITIES
0
LINE
8
BLACK
6
CONTINUOUS
10
-12.0206
20
0.840566
11
-11.955
21
1.51026
0
LINE
8
BLACK
6
CONTINUOUS
10
-11.955
20
1.51026
11
-11.852
21
2.17526
0
LINE
8
BLACK
6
CONTINUOUS
10
-11.852
20
2.17526
11
-11.7121
21
2.83346
0
LINE
8
BLACK
6
CONTINUOUS
10
-11.7121
20
2.83346
11
-11.5357
21
3.48283
0
LINE
8
BLACK
6
CONTINUOUS
10
-11.5357
20
3.48283
11
-11.3233
21
4.12134
0
LINE
8
BLACK
6
CONTINUOUS
10
-11.3233
20
4.12134
11
-11.0756
21
4.747
0
LINE
8
BLACK
6
CONTINUOUS
10
-11.0756
20
4.747
11
-10.7933
21
5.35785
0
LINE
8
BLACK
6
CONTINUOUS
10
-10.7933
20
5.35785
11
-10.4774
21
5.952
0
LINE
8
BLACK
6
CONTINUOUS
10
-10.4774
20
5.952
11
-10.1288
21
6.52758
0
LINE
8
BLACK
6
CONTINUOUS
10
-10.1288
20
6.52758
11
-9.74865
21
7.08281
0
LINE
8
BLACK
6
CONTINUOUS
10
-9.74865
20
7.08281
11
-9.33808
21
7.61595
0
LINE
8
BLACK
6
CONTINUOUS
10
-9.33808
20
7.61595
11
-8.89839
21
8.12534
0
LINE
8
BLACK
6
CONTINUOUS
10
-8.89839
20
8.12534
11
-8.43094
21
8.6094
0
LINE
8
BLACK
6
CONTINUOUS
10
-8.43094
20
8.6094
11
-7.93721
21
9.0666
0
LINE
8
BLACK
6
CONTINUOUS
10
-7.93721
20
9.0666
11
-7.41872
21
9.49553
0
LINE
8
BLACK
6
CONTINUOUS
10
-7.41872
20
9.49553
11
-6.8771
21
9.89485
0
LINE
8
BLACK
6
CONTINUOUS
10
-6.8771
20
9.89485
11
-6.31403
21
10.2633
0
LINE
8
BLACK
6
CONTINUOUS
10
-6.31403
20
10.2633
11
-5.73127
21
10.5998
0
LINE
8
BLACK
6
CONTINUOUS
10
-5.73127
20
10.5998
11
-5.13064
21
10.9032
0
LINE
8
BLACK
6
CONTINUOUS
10
-5.13064
20
10.9032
11
-4.51401
21
11.1726
0
LINE
8
BLACK
6
CONTINUOUS
10
-4.51401
20
11.1726
11
-3.8833
21
11.4071
0
LINE
8
BLACK
6
CONTINUOUS
10
-3.8833
20
11.4071
11
-3.24048
21
11.6061
0
LINE
8
BLACK
6
CONTINUOUS
10
-3.24048
20
11.6061
11
-2.58756
21
11.7689
0
LINE
8
BLACK
6
CONTINUOUS
10
-2.58756
20
11.7689
11
-1.92657
21
11.895
0
LINE
8
BLACK
6
CONTINUOUS
10
-1.92657
20
11.895
11
-1.25957
21
11.984
0
LINE
8
BLACK
6
CONTINUOUS
10
-1.25957
20
11.984
11
-0.58864
21
12.0356
0
LINE
8
BLACK
6
CONTINUOUS
10
-0.58864
20
12.0356
11
0.084124
21
12.0497
0
LINE
8
BLACK
6
CONTINUOUS
10
0.084124
20
12.0497
11
0.756626
21
12.0262
0
LINE
8
BLACK
6
CONTINUOUS
10
0.756626
20
12.0262
11
1.42677
21
11.9652
0
LINE
8
BLACK
6
CONTINUOUS
10
1.42677
20
11.9652
11
2.09246
21
11.8669
0
LINE
8
BLACK
6
CONTINUOUS
10
2.09246
20
11.8669
11
2.75163
21
11.7316
0
LINE
8
BLACK
6
CONTINUOUS
10
2.75163
20
11.7316
11
3.40221
21
11.5597
0
LINE
8
BLACK
6
CONTINUOUS
10
3.40221
20
11.5597
11
4.04219
21
11.3518
0
LINE
8
BLACK
6
CONTINUOUS
10
4.04219
20
11.3518
11
4.66956
21
11.1085
0
LINE
8
BLACK
6
CONTINUOUS
10
4.66956
20
11.1085
11
5.28237
21
10.8305
0
LINE
8
BLACK
6
CONTINUOUS
10
5.28237
20
10.8305
11
5.87871
21
10.5187
0
LINE
8
BLACK
6
CONTINUOUS
10
5.87871
20
10.5187
11
6.45671
21
10.1742
0
LINE
8
BLACK
6
CONTINUOUS
10
6.45671
20
10.1742
11
7.01458
21
9.79786
0
LINE
8
BLACK
6
CONTINUOUS
10
7.01458
20
9.79786
11
7.55058
21
9.39102
0
LINE
8
BLACK
6
CONTINUOUS
10
7.55058
20
9.39102
11
8.06302
21
8.95489
0
LINE
8
BLACK
6
CONTINUOUS
10
8.06302
20
8.95489
11
8.55033
21
8.49084
0
LINE
8
BLACK
6
CONTINUOUS
10
8.55033
20
8.49084
11
9.01097
21
8.00031
0
LINE
8
BLACK
6
CONTINUOUS
10
9.01097
20
8.00031
11
9.44351
21
7.48483
0
LINE
8
BLACK
6
CONTINUOUS
10
9.44351
20
7.48483
11
9.8466
21
6.94601
0
LINE
8
BLACK
6
CONTINUOUS
10
9.8466
20
6.94601
11
10.219
21
6.38553
0
LINE
8
BLACK
6
CONTINUOUS
10
10.219
20
6.38553
11
10.5595
21
5.80513
0
LINE
8
BLACK
6
CONTINUOUS
10
10.5595
20
5.80513
11
10.8671
21
5.20663
0
LINE
8
BLACK
6
CONTINUOUS
10
10.8671
20
5.20663
11
11.1408
21
4.5919
0
LINE
8
BLACK
6
CONTINUOUS
10
11.1408
20
4.5919
11
11.3797
21
3.96284
0
LINE
8
BLACK
6
CONTINUOUS
10
11.3797
20
3.96284
11
11.5832
21
3.32143
0
LINE
8
BLACK
6
CONTINUOUS
10
11.5832
20
3.32143
11
11.7505
21
2.66966
0
LINE
8
BLACK
6
CONTINUOUS
10
11.7505
20
2.66966
11
11.8813
21
2.00956
0
LINE
8
BLACK
6
CONTINUOUS
10
11.8813
20
2.00956
11
11.9749
21
1.3432
0
LINE
8
BLACK
6
CONTINUOUS
10
11.9749
20
1.3432
11
12.0312
21
0.672649
0
LINE
8
BLACK
6
CONTINUOUS
10
12.0312
20
0.672649
11
12.05
21
0
0
LINE
8
BLACK
6
CONTINUOUS
10
12.05
20
0
11
12.0453
21
-0.336456
0
LINE
8
BLACK
6
CONTINUOUS
10
12.0453
20
-0.336456
11
12.0077
21
-1.00832
0
LINE
8
BLACK
6
CONTINUOUS
10
12.0077
20
-1.00832
11
11.9327
21
-1.67704
0
LINE
8
BLACK
6
CONTINUOUS
10
11.9327
20
-1.67704
11
11.8205
21
-2.34052
0
LINE
8
BLACK
6
CONTINUOUS
10
11.8205
20
-2.34052
11
11.6714
21
-2.99671
0
LINE
8
BLACK
6
CONTINUOUS
10
11.6714
20
-2.99671
11
11.4859
21
-3.64356
0
LINE
8
BLACK
6
CONTINUOUS
10
11.4859
20
-3.64356
11
11.2646
21
-4.27904
0
LINE
8
BLACK
6
CONTINUOUS
10
11.2646
20
-4.27904
11
11.0082
21
-4.90118
0
LINE
8
BLACK
6
CONTINUOUS
10
11.0082
20
-4.90118
11
10.7175
21
-5.50803
0
LINE
8
BLACK
6
CONTINUOUS
10
10.7175
20
-5.50803
11
10.3933
21
-6.09771
0
LINE
8
BLACK
6
CONTINUOUS
10
10.3933
20
-6.09771
11
10.0367
21
-6.66837
0
LINE
8
BLACK
6
CONTINUOUS
10
10.0367
20
-6.66837
11
9.64881
21
-7.21823
0
LINE
8
BLACK
6
CONTINUOUS
10
9.64881
20
-7.21823
11
9.23084
21
-7.74559
0
LINE
8
BLACK
6
CONTINUOUS
10
9.23084
20
-7.74559
11
8.78407
21
-8.24879
0
LINE
8
BLACK
6
CONTINUOUS
10
8.78407
20
-8.24879
11
8.30992
21
-8.72627
0
LINE
8
BLACK
6
CONTINUOUS
10
8.30992
20
-8.72627
11
7.80984
21
-9.17654
0
LINE
8
BLACK
6
CONTINUOUS
10
7.80984
20
-9.17654
11
7.28542
21
-9.59819
0
LINE
8
BLACK
6
CONTINUOUS
10
7.28542
20
-9.59819
11
6.73827
21
-9.9899
0
LINE
8
BLACK
6
CONTINUOUS
10
6.73827
20
-9.9899
11
6.17012
21
-10.3505
0
LINE
8
BLACK
6
CONTINUOUS
10
6.17012
20
-10.3505
11
5.58272
21
-10.6788
0
LINE
8
BLACK
6
CONTINUOUS
10
5.58272
20
-10.6788
11
4.97791
21
-10.9737
0
LINE
8
BLACK
6
CONTINUOUS
10
4.97791
20
-10.9737
11
4.35758
21
-11.2345
0
LINE
8
BLACK
6
CONTINUOUS
10
4.35758
20
-11.2345
11
3.72365
21
-11.4602
0
LINE
8
BLACK
6
CONTINUOUS
10
3.72365
20
-11.4602
11
3.07812
21
-11.6502
0
LINE
8
BLACK
6
CONTINUOUS
10
3.07812
20
-11.6502
11
2.42299
21
-11.8039
0
LINE
8
BLACK
6
CONTINUOUS
10
2.42299
20
-11.8039
11
1.7603
21
-11.9207
0
LINE
8
BLACK
6
CONTINUOUS
10
1.7603
20
-11.9207
11
1.09212
21
-12.0004
0
LINE
8
BLACK
6
CONTINUOUS
10
1.09212
20
-12.0004
11
0.420539
21
-12.0427
0
LINE
8
BLACK
6
CONTINUOUS
10
0.420539
20
-12.0427
11
-0.252356
21
-12.0474
0
LINE
8
BLACK
6
CONTINUOUS
10
-0.252356
20
-12.0474
11
-0.924464
21
-12.0145
0
LINE
8
BLACK
6
CONTINUOUS
10
-0.924464
20
-12.0145
11
-1.59369
21
-11.9441
0
LINE
8
BLACK
6
CONTINUOUS
10
-1.59369
20
-11.9441
11
-2.25794
21
-11.8366
0
LINE
8
BLACK
6
CONTINUOUS
10
-2.25794
20
-11.8366
11
-2.91516
21
-11.6921
0
LINE
8
BLACK
6
CONTINUOUS
10
-2.91516
20
-11.6921
11
-3.56328
21
-11.5111
0
LINE
8
BLACK
6
CONTINUOUS
10
-3.56328
20
-11.5111
11
-4.20029
21
-11.2942
0
LINE
8
BLACK
6
CONTINUOUS
10
-4.20029
20
-11.2942
11
-4.82421
21
-11.0422
0
LINE
8
BLACK
6
CONTINUOUS
10
-4.82421
20
-11.0422
11
-5.43307
21
-10.7557
0
LINE
8
BLACK
6
CONTINUOUS
10
-5.43307
20
-10.7557
11
-6.025
21
-10.4356
0
LINE
8
BLACK
6
CONTINUOUS
10
-6.025
20
-10.4356
11
-6.59814
21
-10.083
0
LINE
8
BLACK
6
CONTINUOUS
10
-6.59814
20
-10.083
11
-7.1507
21
-9.69897
0
LINE
8
BLACK
6
CONTINUOUS
10
-7.1507
20
-9.69897
11
-7.68096
21
-9.28468
0
LINE
8
BLACK
6
CONTINUOUS
10
-7.68096
20
-9.28468
11
-8.18727
21
-8.84145
0
LINE
8
BLACK
6
CONTINUOUS
10
-8.18727
20
-8.84145
11
-8.66804
21
-8.37063
0
LINE
8
BLACK
6
CONTINUOUS
10
-8.66804
20
-8.37063
11
-9.12179
21
-7.87372
0
LINE
8
BLACK
6
CONTINUOUS
10
-9.12179
20
-7.87372
11
-9.54709
21
-7.35225
0
LINE
8
BLACK
6
CONTINUOUS
10
-9.54709
20
-7.35225
11
-9.94262
21
-6.80785
0
LINE
8
BLACK
6
CONTINUOUS
10
-9.94262
20
-6.80785
11
-10.3071
21
-6.24222
0
LINE
8
BLACK
6
CONTINUOUS
10
-10.3071
20
-6.24222
11
-10.6395
21
-5.65713
0
LINE
8
BLACK
6
CONTINUOUS
10
-10.6395
20
-5.65713
11
-10.9387
21
-5.0544
0
LINE
8
BLACK
6
CONTINUOUS
10
-10.9387
20
-5.0544
11
-11.2038
21
-4.4359
0
LINE
8
BLACK
6
CONTINUOUS
10
-11.2038
20
-4.4359
11
-11.434
21
-3.80357
0
LINE
8
BLACK
6
CONTINUOUS
10
-11.434
20
-3.80357
11
-11.6284
21
-3.15938
0
LINE
8
BLACK
6
CONTINUOUS
10
-11.6284
20
-3.15938
11
-11.7867
21
-2.50534
0
LINE
8
BLACK
6
CONTINUOUS
10
-11.7867
20
-2.50534
11
-11.9082
21
-1.84348
0
LINE
8
BLACK
6
CONTINUOUS
10
-11.9082
20
-1.84348
11
-11.9925
21
-1.17587
0
LINE
8
BLACK
6
CONTINUOUS
10
-11.9925
20
-1.17587
11
-12.0394
21
-0.504602
0
LINE
8
BLACK
6
CONTINUOUS
10
-12.0394
20
-0.504602
11
-12.0488
21
0.166916
0
LINE
8
BLACK
6
CONTINUOUS
10
-12.0488
20
0.166916
11
-12.0488
21
0.168244
0
LINE
8
BLACK
6
CONTINUOUS
10
-12.0488
20
0.168244
11
-12.0206
21
0.840566
0
LINE
8
BLACK
6
CONTINUOUS
10
-11.8978
20
-1.16659
11
-11.8141
21
-1.82893
0
LINE
8
BLACK
6
CONTINUOUS
10
-11.8141
20
-1.82893
11
-11.6936
21
-2.48556
0
LINE
8
BLACK
6
CONTINUOUS
10
-11.6936
20
-2.48556
11
-11.5367
21
-3.13444
0
LINE
8
BLACK
6
CONTINUOUS
10
-11.5367
20
-3.13444
11
-11.3437
21
-3.77354
0
LINE
8
BLACK
6
CONTINUOUS
10
-11.3437
20
-3.77354
11
-11.1154
21
-4.40088
0
LINE
8
BLACK
6
CONTINUOUS
10
-11.1154
20
-4.40088
11
-10.8524
21
-5.0145
0
LINE
8
BLACK
6
CONTINUOUS
10
-10.8524
20
-5.0145
11
-10.5555
21
-5.61247
0
LINE
8
BLACK
6
CONTINUOUS
10
-10.5555
20
-5.61247
11
-10.2258
21
-6.19295
0
LINE
8
BLACK
6
CONTINUOUS
10
-10.2258
20
-6.19295
11
-9.86413
21
-6.75411
0
LINE
8
BLACK
6
CONTINUOUS
10
-9.86413
20
-6.75411
11
-9.47172
21
-7.29421
0
LINE
8
BLACK
6
CONTINUOUS
10
-9.47172
20
-7.29421
11
-9.04978
21
-7.81156
0
LINE
8
BLACK
6
CONTINUOUS
10
-9.04978
20
-7.81156
11
-8.59962
21
-8.30455
0
LINE
8
BLACK
6
CONTINUOUS
10
-8.59962
20
-8.30455
11
-8.12264
21
-8.77165
0
LINE
8
BLACK
6
CONTINUOUS
10
-8.12264
20
-8.77165
11
-7.62032
21
-9.21139
0
LINE
8
BLACK
6
CONTINUOUS
10
-7.62032
20
-9.21139
11
-7.09425
21
-9.6224
0
LINE
8
BLACK
6
CONTINUOUS
10
-7.09425
20
-9.6224
11
-6.54605
21
-10.0034
0
LINE
8
BLACK
6
CONTINUOUS
10
-6.54605
20
-10.0034
11
-5.97744
21
-10.3532
0
LINE
8
BLACK
6
CONTINUOUS
10
-5.97744
20
-10.3532
11
-5.39018
21
-10.6708
0
LINE
8
BLACK
6
CONTINUOUS
10
-5.39018
20
-10.6708
11
-4.78612
21
-10.955
0
LINE
8
BLACK
6
CONTINUOUS
10
-4.78612
20
-10.955
11
-4.16714
21
-11.2051
0
LINE
8
BLACK
6
CONTINUOUS
10
-4.16714
20
-11.2051
11
-3.53515
21
-11.4202
0
LINE
8
BLACK
6
CONTINUOUS
10
-3.53515
20
-11.4202
11
-2.89215
21
-11.5998
0
LINE
8
BLACK
6
CONTINUOUS
10
-2.89215
20
-11.5998
11
-2.24012
21
-11.7431
0
LINE
8
BLACK
6
CONTINUOUS
10
-2.24012
20
-11.7431
11
-1.58111
21
-11.8499
0
LINE
8
BLACK
6
CONTINUOUS
10
-1.58111
20
-11.8499
11
-0.917166
21
-11.9196
0
LINE
8
BLACK
6
CONTINUOUS
10
-0.917166
20
-11.9196
11
-0.250364
21
-11.9523
0
LINE
8
BLACK
6
CONTINUOUS
10
-0.250364
20
-11.9523
11
0.417219
21
-11.9476
0
LINE
8
BLACK
6
CONTINUOUS
10
0.417219
20
-11.9476
11
1.0835
21
-11.9057
0
LINE
8
BLACK
6
CONTINUOUS
10
1.0835
20
-11.9057
11
1.7464
21
-11.8266
0
LINE
8
BLACK
6
CONTINUOUS
10
1.7464
20
-11.8266
11
2.40386
21
-11.7107
0
LINE
8
BLACK
6
CONTINUOUS
10
2.40386
20
-11.7107
11
3.05382
21
-11.5583
0
LINE
8
BLACK
6
CONTINUOUS
10
3.05382
20
-11.5583
11
3.69426
21
-11.3698
0
LINE
8
BLACK
6
CONTINUOUS
10
3.69426
20
-11.3698
11
4.32318
21
-11.1458
0
LINE
8
BLACK
6
CONTINUOUS
10
4.32318
20
-11.1458
11
4.93861
21
-10.8871
0
LINE
8
BLACK
6
CONTINUOUS
10
4.93861
20
-10.8871
11
5.53865
21
-10.5945
0
LINE
8
BLACK
6
CONTINUOUS
10
5.53865
20
-10.5945
11
6.12141
21
-10.2688
0
LINE
8
BLACK
6
CONTINUOUS
10
6.12141
20
-10.2688
11
6.68508
21
-9.91104
0
LINE
8
BLACK
6
CONTINUOUS
10
6.68508
20
-9.91104
11
7.22791
21
-9.52242
0
LINE
8
BLACK
6
CONTINUOUS
10
7.22791
20
-9.52242
11
7.74819
21
-9.10409
0
LINE
8
BLACK
6
CONTINUOUS
10
7.74819
20
-9.10409
11
8.24432
21
-8.65738
0
LINE
8
BLACK
6
CONTINUOUS
10
8.24432
20
-8.65738
11
8.71473
21
-8.18367
0
LINE
8
BLACK
6
CONTINUOUS
10
8.71473
20
-8.18367
11
9.15797
21
-7.68445
0
LINE
8
BLACK
6
CONTINUOUS
10
9.15797
20
-7.68445
11
9.57264
21
-7.16125
0
LINE
8
BLACK
6
CONTINUOUS
10
9.57264
20
-7.16125
11
9.95747
21
-6.61573
0
LINE
8
BLACK
6
CONTINUOUS
10
9.95747
20
-6.61573
11
10.3112
21
-6.04957
0
LINE
8
BLACK
6
CONTINUOUS
10
10.3112
20
-6.04957
11
10.6329
21
-5.46455
0
LINE
8
BLACK
6
CONTINUOUS
10
10.6329
20
-5.46455
11
10.9213
21
-4.86249
0
LINE
8
BLACK
6
CONTINUOUS
10
10.9213
20
-4.86249
11
11.1757
21
-4.24526
0
LINE
8
BLACK
6
CONTINUOUS
10
11.1757
20
-4.24526
11
11.3953
21
-3.61479
0
LINE
8
BLACK
6
CONTINUOUS
10
11.3953
20
-3.61479
11
11.5793
21
-2.97306
0
LINE
8
BLACK
6
CONTINUOUS
10
11.5793
20
-2.97306
11
11.7272
21
-2.32205
0
LINE
8
BLACK
6
CONTINUOUS
10
11.7272
20
-2.32205
11
11.8385
21
-1.6638
0
LINE
8
BLACK
6
CONTINUOUS
10
11.8385
20
-1.6638
11
11.9129
21
-1.00036
0
LINE
8
BLACK
6
CONTINUOUS
10
11.9129
20
-1.00036
11
11.9502
21
-0.3338
0
LINE
8
BLACK
6
CONTINUOUS
10
11.9502
20
-0.3338
11
11.9549
21
0
0
LINE
8
BLACK
6
CONTINUOUS
10
11.9549
20
0
11
11.9362
21
0.667339
0
LINE
8
BLACK
6
CONTINUOUS
10
11.9362
20
0.667339
11
11.8804
21
1.3326
0
LINE
8
BLACK
6
CONTINUOUS
10
11.8804
20
1.3326
11
11.7875
21
1.9937
0
LINE
8
BLACK
6
CONTINUOUS
10
11.7875
20
1.9937
11
11.6578
21
2.64858
0
LINE
8
BLACK
6
CONTINUOUS
10
11.6578
20
2.64858
11
11.4918
21
3.29521
0
LINE
8
BLACK
6
CONTINUOUS
10
11.4918
20
3.29521
11
11.2899
21
3.93156
0
LINE
8
BLACK
6
CONTINUOUS
10
11.2899
20
3.93156
11
11.0528
21
4.55565
0
LINE
8
BLACK
6
CONTINUOUS
10
11.0528
20
4.55565
11
10.7813
21
5.16553
0
LINE
8
BLACK
6
CONTINUOUS
10
10.7813
20
5.16553
11
10.4761
21
5.7593
0
LINE
8
BLACK
6
CONTINUOUS
10
10.4761
20
5.7593
11
10.1383
21
6.33512
0
LINE
8
BLACK
6
CONTINUOUS
10
10.1383
20
6.33512
11
9.76886
21
6.89118
0
LINE
8
BLACK
6
CONTINUOUS
10
9.76886
20
6.89118
11
9.36896
21
7.42574
0
LINE
8
BLACK
6
CONTINUOUS
10
9.36896
20
7.42574
11
8.93983
21
7.93715
0
LINE
8
BLACK
6
CONTINUOUS
10
8.93983
20
7.93715
11
8.48283
21
8.42381
0
LINE
8
BLACK
6
CONTINUOUS
10
8.48283
20
8.42381
11
7.99937
21
8.8842
0
LINE
8
BLACK
6
CONTINUOUS
10
7.99937
20
8.8842
11
7.49097
21
9.31689
0
LINE
8
BLACK
6
CONTINUOUS
10
7.49097
20
9.31689
11
6.95921
21
9.72052
0
LINE
8
BLACK
6
CONTINUOUS
10
6.95921
20
9.72052
11
6.40574
21
10.0938
0
LINE
8
BLACK
6
CONTINUOUS
10
6.40574
20
10.0938
11
5.8323
21
10.4357
0
LINE
8
BLACK
6
CONTINUOUS
10
5.8323
20
10.4357
11
5.24067
21
10.745
0
LINE
8
BLACK
6
CONTINUOUS
10
5.24067
20
10.745
11
4.6327
21
11.0208
0
LINE
8
BLACK
6
CONTINUOUS
10
4.6327
20
11.0208
11
4.01028
21
11.2622
0
LINE
8
BLACK
6
CONTINUOUS
10
4.01028
20
11.2622
11
3.37536
21
11.4685
0
LINE
8
BLACK
6
CONTINUOUS
10
3.37536
20
11.4685
11
2.72991
21
11.639
0
LINE
8
BLACK
6
CONTINUOUS
10
2.72991
20
11.639
11
2.07594
21
11.7733
0
LINE
8
BLACK
6
CONTINUOUS
10
2.07594
20
11.7733
11
1.41551
21
11.8708
0
LINE
8
BLACK
6
CONTINUOUS
10
1.41551
20
11.8708
11
0.750653
21
11.9313
0
LINE
8
BLACK
6
CONTINUOUS
10
0.750653
20
11.9313
11
0.08346
21
11.9546
0
LINE
8
BLACK
6
CONTINUOUS
10
0.08346
20
11.9546
11
-0.583993
21
11.9406
0
LINE
8
BLACK
6
CONTINUOUS
10
-0.583993
20
11.9406
11
-1.24962
21
11.8894
0
LINE
8
BLACK
6
CONTINUOUS
10
-1.24962
20
11.8894
11
-1.91136
21
11.8011
0
LINE
8
BLACK
6
CONTINUOUS
10
-1.91136
20
11.8011
11
-2.56713
21
11.676
0
LINE
8
BLACK
6
CONTINUOUS
10
-2.56713
20
11.676
11
-3.2149
21
11.5145
0
LINE
8
BLACK
6
CONTINUOUS
10
-3.2149
20
11.5145
11
-3.85265
21
11.3171
0
LINE
8
BLACK
6
CONTINUOUS
10
-3.85265
20
11.3171
11
-4.47837
21
11.0844
0
LINE
8
BLACK
6
CONTINUOUS
10
-4.47837
20
11.0844
11
-5.09014
21
10.8171
0
LINE
8
BLACK
6
CONTINUOUS
10
-5.09014
20
10.8171
11
-5.68603
21
10.5161
0
LINE
8
BLACK
6
CONTINUOUS
10
-5.68603
20
10.5161
11
-6.26419
21
10.1823
0
LINE
8
BLACK
6
CONTINUOUS
10
-6.26419
20
10.1823
11
-6.82281
21
9.81674
0
LINE
8
BLACK
6
CONTINUOUS
10
-6.82281
20
9.81674
11
-7.36016
21
9.42057
0
LINE
8
BLACK
6
CONTINUOUS
10
-7.36016
20
9.42057
11
-7.87455
21
8.99503
0
LINE
8
BLACK
6
CONTINUOUS
10
-7.87455
20
8.99503
11
-8.36439
21
8.54143
0
LINE
8
BLACK
6
CONTINUOUS
10
-8.36439
20
8.54143
11
-8.82814
21
8.0612
0
LINE
8
BLACK
6
CONTINUOUS
10
-8.82814
20
8.0612
11
-9.26436
21
7.55583
0
LINE
8
BLACK
6
CONTINUOUS
10
-9.26436
20
7.55583
11
-9.6717
21
7.0269
0
LINE
8
BLACK
6
CONTINUOUS
10
-9.6717
20
7.0269
11
-10.0489
21
6.47605
0
LINE
8
BLACK
6
CONTINUOUS
10
-10.0489
20
6.47605
11
-10.3947
21
5.90501
0
LINE
8
BLACK
6
CONTINUOUS
10
-10.3947
20
5.90501
11
-10.7081
21
5.31556
0
LINE
8
BLACK
6
CONTINUOUS
10
-10.7081
20
5.31556
11
-10.9881
21
4.70953
0
LINE
8
BLACK
6
CONTINUOUS
10
-10.9881
20
4.70953
11
-11.2339
21
4.08881
0
LINE
8
BLACK
6
CONTINUOUS
10
-11.2339
20
4.08881
11
-11.4446
21
3.45534
0
LINE
8
BLACK
6
CONTINUOUS
10
-11.4446
20
3.45534
11
-11.6197
21
2.81109
0
LINE
8
BLACK
6
CONTINUOUS
10
-11.6197
20
2.81109
11
-11.7585
21
2.15808
0
LINE
8
BLACK
6
CONTINUOUS
10
-11.7585
20
2.15808
11
-11.8606
21
1.49834
0
LINE
8
BLACK
6
CONTINUOUS
10
-11.8606
20
1.49834
11
-11.9258
21
0.83393
0
LINE
8
BLACK
6
CONTINUOUS
10
-11.9258
20
0.83393
11
-11.9537
21
0.166916
0
LINE
8
BLACK
6
CONTINUOUS
10
-11.9537
20
0.166916
11
-11.9444
21
-0.500618
0
LINE
8
BLACK
6
CONTINUOUS
10
-11.9444
20
-0.500618
11
-11.8978
21
-1.16659
  0
ENDSEC
  0
EOF
