  0
SECTION
  2
HEADER
  9
$ANGBASE
  50
0.0
  9
$ANGDIR
  70
1
  9
$MEASUREMENT
  70
1
  0
ENDSEC
  0
SECTION
  2
TABLES
  0
TABLE
  2
LTYPE
  70
4
  0
LTYPE
  5
40F
  2
CONTINUOUS
  70
0
  3
Solid line
  72
65
  73
0
  40
0.0
  0
LTYPE
  5
410
  2
DASHDOT
 70
0
  3
Dash Dot ____ _ ____ _
 72
65
 73
4
 40
2.0
 49
1.25
 49
-0.25
 49
0.25
 49
-0.25
  0
LTYPE
  5
411
  2
DASHED
 70
0
  3
Dashed __ __ __ __ __
 72
65
 73
2
 40
0.75
 49
0.5
 49
-0.25
  0
LTYPE
  5
43B
  2
DOTTED
 70
0
  3
Dotted .  .  .  .
 72
65
 73
2
 40
0.2
 49
0.0
 49
-0.2
  0
ENDTAB
  0
TABLE
  2
STYLE
  70
4
  0
STYLE
  2
KICAD
  70
0
  40
0
  41
1
  42
1
  50
0
  71
0
  3
isocp.shx
  0
STYLE
  2
KICADB
  70
0
  40
0
  41
1
  42
1
  50
0
  71
0
  3
isocp.shx
  0
STYLE
  2
KICADI
  70
0
  40
0
  41
1
  42
1
  50
15
  71
0
  3
isocp.shx
  0
STYLE
  2
KICADBI
  70
0
  40
0
  41
1
  42
1
  50
15
  71
0
  3
isocp.shx
  0
ENDTAB
  0
TABLE
  2
LAYER
  70
1
  0
LAYER
  2
BLACK
  70
0
  62
7
  6
CONTINUOUS
  0
ENDTAB
  0
ENDSEC
  0
SECTION
  2
ENTITIES
0
LINE
8
BLACK
6
CONTINUOUS
10
4.1
20
-11.45
11
2.6
21
-11.45
0
LINE
8
BLACK
6
CONTINUOUS
10
2.6
20
-11.45
11
2.6
21
-10.4
0
LINE
8
BLACK
6
CONTINUOUS
10
2.6
20
-10.4
11
2.15
21
-10.4
0
LINE
8
BLACK
6
CONTINUOUS
10
2.15
20
-10.4
11
2.15
21
-8.5
0
LINE
8
BLACK
6
CONTINUOUS
10
2.15
20
-8.5
11
2.6
21
-8.5
0
LINE
8
BLACK
6
CONTINUOUS
10
2.6
20
-8.5
11
2.6
21
-8.05
0
LINE
8
BLACK
6
CONTINUOUS
10
2.6
20
-8.05
11
4.1
21
-8.05
0
LINE
8
BLACK
6
CONTINUOUS
10
4.1
20
-8.05
11
4.1
21
-11.45
0
LINE
8
BLACK
6
CONTINUOUS
10
-2.6
20
-8.5
11
-2.15
21
-8.5
0
LINE
8
BLACK
6
CONTINUOUS
10
-2.15
20
-8.5
11
-2.15
21
-10.4
0
LINE
8
BLACK
6
CONTINUOUS
10
-2.15
20
-10.4
11
-2.6
21
-10.4
0
LINE
8
BLACK
6
CONTINUOUS
10
-2.6
20
-10.4
11
-2.6
21
-11.45
0
LINE
8
BLACK
6
CONTINUOUS
10
-2.6
20
-11.45
11
-4.1
21
-11.45
0
LINE
8
BLACK
6
CONTINUOUS
10
-4.1
20
-11.45
11
-4.1
21
-8.05
0
LINE
8
BLACK
6
CONTINUOUS
10
-4.1
20
-8.05
11
-2.6
21
-8.05
0
LINE
8
BLACK
6
CONTINUOUS
10
-2.6
20
-8.05
11
-2.6
21
-8.5
0
LINE
8
BLACK
6
CONTINUOUS
10
-0.976393
20
1.88042
11
-0.864886
21
1.82361
0
LINE
8
BLACK
6
CONTINUOUS
10
-0.864886
20
1.82361
11
-0.776393
21
1.73511
0
LINE
8
BLACK
6
CONTINUOUS
10
-0.776393
20
1.73511
11
-0.746899
21
1.67723
0
LINE
8
BLACK
6
CONTINUOUS
10
-0.746899
20
1.67723
11
-0.234835
21
1.16517
0
LINE
8
BLACK
6
CONTINUOUS
10
-0.234835
20
1.16517
11
-0.210192
21
1.13585
0
LINE
8
BLACK
6
CONTINUOUS
10
-0.210192
20
1.13585
11
-0.203692
21
1.12984
0
LINE
8
BLACK
6
CONTINUOUS
10
-0.203692
20
1.12984
11
-0.201094
21
1.12502
0
LINE
8
BLACK
6
CONTINUOUS
10
-0.201094
20
1.12502
11
-0.193194
21
1.11563
0
LINE
8
BLACK
6
CONTINUOUS
10
-0.193194
20
1.11563
11
-0.170317
21
1.06798
0
LINE
8
BLACK
6
CONTINUOUS
10
-0.170317
20
1.06798
11
-0.145218
21
1.02147
0
LINE
8
BLACK
6
CONTINUOUS
10
-0.145218
20
1.02147
11
-0.143753
21
1.01266
0
LINE
8
BLACK
6
CONTINUOUS
10
-0.143753
20
1.01266
11
-0.13989
21
1.00462
0
LINE
8
BLACK
6
CONTINUOUS
10
-0.13989
20
1.00462
11
-0.133678
21
0.952135
0
LINE
8
BLACK
6
CONTINUOUS
10
-0.133678
20
0.952135
11
-0.125
21
0.9
0
LINE
8
BLACK
6
CONTINUOUS
10
-0.125
20
0.9
11
-0.125
21
-1.7
0
LINE
8
BLACK
6
CONTINUOUS
10
-0.125
20
-1.7
11
-0.128305
21
-1.73815
0
LINE
8
BLACK
6
CONTINUOUS
10
-0.128305
20
-1.73815
11
-0.127957
21
-1.747
0
LINE
8
BLACK
6
CONTINUOUS
10
-0.127957
20
-1.747
11
-0.129525
21
-1.75224
0
LINE
8
BLACK
6
CONTINUOUS
10
-0.129525
20
-1.75224
11
-0.130584
21
-1.76447
0
LINE
8
BLACK
6
CONTINUOUS
10
-0.130584
20
-1.76447
11
-0.148097
21
-1.81434
0
LINE
8
BLACK
6
CONTINUOUS
10
-0.148097
20
-1.81434
11
-0.16324
21
-1.86498
0
LINE
8
BLACK
6
CONTINUOUS
10
-0.16324
20
-1.86498
11
-0.168428
21
-1.87224
0
LINE
8
BLACK
6
CONTINUOUS
10
-0.168428
20
-1.87224
11
-0.171385
21
-1.88066
0
LINE
8
BLACK
6
CONTINUOUS
10
-0.171385
20
-1.88066
11
-0.204112
21
-1.92217
0
LINE
8
BLACK
6
CONTINUOUS
10
-0.204112
20
-1.92217
11
-0.234835
21
-1.96516
0
LINE
8
BLACK
6
CONTINUOUS
10
-0.234835
20
-1.96516
11
-0.51967
21
-2.25
0
LINE
8
BLACK
6
CONTINUOUS
10
-0.51967
20
-2.25
11
-0.5
21
-2.25
0
LINE
8
BLACK
6
CONTINUOUS
10
-0.5
20
-2.25
11
-0.5
21
-4.6
0
LINE
8
BLACK
6
CONTINUOUS
10
-0.5
20
-4.6
11
-0.4
21
-4.6
0
LINE
8
BLACK
6
CONTINUOUS
10
-0.4
20
-4.6
11
-0.4
21
-5.72432
0
LINE
8
BLACK
6
CONTINUOUS
10
-0.4
20
-5.72432
11
-0.38989
21
-5.74538
0
LINE
8
BLACK
6
CONTINUOUS
10
-0.38989
20
-5.74538
11
-0.375416
21
-5.86766
0
LINE
8
BLACK
6
CONTINUOUS
10
-0.375416
20
-5.86766
11
-0.4
21
-5.98185
0
LINE
8
BLACK
6
CONTINUOUS
10
-0.4
20
-5.98185
11
-0.4
21
-7.1
0
LINE
8
BLACK
6
CONTINUOUS
10
-0.4
20
-7.1
11
-1.1
21
-7.1
0
LINE
8
BLACK
6
CONTINUOUS
10
-1.1
20
-7.1
11
-1.1
21
-6.03033
0
LINE
8
BLACK
6
CONTINUOUS
10
-1.1
20
-6.03033
11
-1.26516
21
-5.86516
0
LINE
8
BLACK
6
CONTINUOUS
10
-1.26516
20
-5.86516
11
-1.28981
21
-5.83585
0
LINE
8
BLACK
6
CONTINUOUS
10
-1.28981
20
-5.83585
11
-1.29631
21
-5.82984
0
LINE
8
BLACK
6
CONTINUOUS
10
-1.29631
20
-5.82984
11
-1.29891
21
-5.82503
0
LINE
8
BLACK
6
CONTINUOUS
10
-1.29891
20
-5.82503
11
-1.30681
21
-5.81563
0
LINE
8
BLACK
6
CONTINUOUS
10
-1.30681
20
-5.81563
11
-1.32968
21
-5.76798
0
LINE
8
BLACK
6
CONTINUOUS
10
-1.32968
20
-5.76798
11
-1.33939
21
-5.75
0
LINE
8
BLACK
6
CONTINUOUS
10
-1.33939
20
-5.75
11
-1.5
21
-5.75
0
LINE
8
BLACK
6
CONTINUOUS
10
-1.5
20
-5.75
11
-1.5
21
-2.25
0
LINE
8
BLACK
6
CONTINUOUS
10
-1.5
20
-2.25
11
-1.375
21
-2.25
0
LINE
8
BLACK
6
CONTINUOUS
10
-1.375
20
-2.25
11
-1.375
21
-2.2
0
LINE
8
BLACK
6
CONTINUOUS
10
-1.375
20
-2.2
11
-1.37169
21
-2.16185
0
LINE
8
BLACK
6
CONTINUOUS
10
-1.37169
20
-2.16185
11
-1.37204
21
-2.153
0
LINE
8
BLACK
6
CONTINUOUS
10
-1.37204
20
-2.153
11
-1.37047
21
-2.14776
0
LINE
8
BLACK
6
CONTINUOUS
10
-1.37047
20
-2.14776
11
-1.36942
21
-2.13553
0
LINE
8
BLACK
6
CONTINUOUS
10
-1.36942
20
-2.13553
11
-1.3519
21
-2.08566
0
LINE
8
BLACK
6
CONTINUOUS
10
-1.3519
20
-2.08566
11
-1.33676
21
-2.03502
0
LINE
8
BLACK
6
CONTINUOUS
10
-1.33676
20
-2.03502
11
-1.33157
21
-2.02776
0
LINE
8
BLACK
6
CONTINUOUS
10
-1.33157
20
-2.02776
11
-1.32861
21
-2.01934
0
LINE
8
BLACK
6
CONTINUOUS
10
-1.32861
20
-2.01934
11
-1.29589
21
-1.97783
0
LINE
8
BLACK
6
CONTINUOUS
10
-1.29589
20
-1.97783
11
-1.26516
21
-1.93483
0
LINE
8
BLACK
6
CONTINUOUS
10
-1.26516
20
-1.93483
11
-0.875
21
-1.54467
0
LINE
8
BLACK
6
CONTINUOUS
10
-0.875
20
-1.54467
11
-0.875
21
0.74467
0
LINE
8
BLACK
6
CONTINUOUS
10
-0.875
20
0.74467
11
-1.27723
21
1.1469
0
LINE
8
BLACK
6
CONTINUOUS
10
-1.27723
20
1.1469
11
-1.33511
21
1.17639
0
LINE
8
BLACK
6
CONTINUOUS
10
-1.33511
20
1.17639
11
-1.42361
21
1.26489
0
LINE
8
BLACK
6
CONTINUOUS
10
-1.42361
20
1.26489
11
-1.48042
21
1.37639
0
LINE
8
BLACK
6
CONTINUOUS
10
-1.48042
20
1.37639
11
-1.5
21
1.5
0
LINE
8
BLACK
6
CONTINUOUS
10
-1.5
20
1.5
11
-1.48042
21
1.62361
0
LINE
8
BLACK
6
CONTINUOUS
10
-1.48042
20
1.62361
11
-1.42361
21
1.73511
0
LINE
8
BLACK
6
CONTINUOUS
10
-1.42361
20
1.73511
11
-1.33511
21
1.82361
0
LINE
8
BLACK
6
CONTINUOUS
10
-1.33511
20
1.82361
11
-1.22361
21
1.88042
0
LINE
8
BLACK
6
CONTINUOUS
10
-1.22361
20
1.88042
11
-1.1
21
1.9
0
LINE
8
BLACK
6
CONTINUOUS
10
-1.1
20
1.9
11
-0.976393
21
1.88042
0
LINE
8
BLACK
6
CONTINUOUS
10
1.12361
20
1.48042
11
1.23511
21
1.42361
0
LINE
8
BLACK
6
CONTINUOUS
10
1.23511
20
1.42361
11
1.32361
21
1.33511
0
LINE
8
BLACK
6
CONTINUOUS
10
1.32361
20
1.33511
11
1.38042
21
1.22361
0
LINE
8
BLACK
6
CONTINUOUS
10
1.38042
20
1.22361
11
1.4
21
1.1
0
LINE
8
BLACK
6
CONTINUOUS
10
1.4
20
1.1
11
1.38042
21
0.976393
0
LINE
8
BLACK
6
CONTINUOUS
10
1.38042
20
0.976393
11
1.32361
21
0.864886
0
LINE
8
BLACK
6
CONTINUOUS
10
1.32361
20
0.864886
11
1.23511
21
0.776393
0
LINE
8
BLACK
6
CONTINUOUS
10
1.23511
20
0.776393
11
1.17723
21
0.746899
0
LINE
8
BLACK
6
CONTINUOUS
10
1.17723
20
0.746899
11
0.875
21
0.44467
0
LINE
8
BLACK
6
CONTINUOUS
10
0.875
20
0.44467
11
0.875
21
-1.64467
0
LINE
8
BLACK
6
CONTINUOUS
10
0.875
20
-1.64467
11
1.26516
21
-2.03483
0
LINE
8
BLACK
6
CONTINUOUS
10
1.26516
20
-2.03483
11
1.28981
21
-2.06415
0
LINE
8
BLACK
6
CONTINUOUS
10
1.28981
20
-2.06415
11
1.29631
21
-2.07016
0
LINE
8
BLACK
6
CONTINUOUS
10
1.29631
20
-2.07016
11
1.29891
21
-2.07497
0
LINE
8
BLACK
6
CONTINUOUS
10
1.29891
20
-2.07497
11
1.30681
21
-2.08437
0
LINE
8
BLACK
6
CONTINUOUS
10
1.30681
20
-2.08437
11
1.32969
21
-2.13202
0
LINE
8
BLACK
6
CONTINUOUS
10
1.32969
20
-2.13202
11
1.35478
21
-2.17853
0
LINE
8
BLACK
6
CONTINUOUS
10
1.35478
20
-2.17853
11
1.35625
21
-2.18733
0
LINE
8
BLACK
6
CONTINUOUS
10
1.35625
20
-2.18733
11
1.36011
21
-2.19538
0
LINE
8
BLACK
6
CONTINUOUS
10
1.36011
20
-2.19538
11
1.36632
21
-2.24788
0
LINE
8
BLACK
6
CONTINUOUS
10
1.36632
20
-2.24788
11
1.36668
21
-2.25
0
LINE
8
BLACK
6
CONTINUOUS
10
1.36668
20
-2.25
11
1.5
21
-2.25
0
LINE
8
BLACK
6
CONTINUOUS
10
1.5
20
-2.25
11
1.5
21
-5.75
0
LINE
8
BLACK
6
CONTINUOUS
10
1.5
20
-5.75
11
1.34124
21
-5.75
0
LINE
8
BLACK
6
CONTINUOUS
10
1.34124
20
-5.75
11
1.33676
21
-5.76498
0
LINE
8
BLACK
6
CONTINUOUS
10
1.33676
20
-5.76498
11
1.33157
21
-5.77224
0
LINE
8
BLACK
6
CONTINUOUS
10
1.33157
20
-5.77224
11
1.32861
21
-5.78066
0
LINE
8
BLACK
6
CONTINUOUS
10
1.32861
20
-5.78066
11
1.29589
21
-5.82217
0
LINE
8
BLACK
6
CONTINUOUS
10
1.29589
20
-5.82217
11
1.26516
21
-5.86516
0
LINE
8
BLACK
6
CONTINUOUS
10
1.26516
20
-5.86516
11
1.1
21
-6.03033
0
LINE
8
BLACK
6
CONTINUOUS
10
1.1
20
-6.03033
11
1.1
21
-7.1
0
LINE
8
BLACK
6
CONTINUOUS
10
1.1
20
-7.1
11
0.4
21
-7.1
0
LINE
8
BLACK
6
CONTINUOUS
10
0.4
20
-7.1
11
0.4
21
-5.97053
0
LINE
8
BLACK
6
CONTINUOUS
10
0.4
20
-5.97053
11
0.382791
21
-5.92604
0
LINE
8
BLACK
6
CONTINUOUS
10
0.382791
20
-5.92604
11
0.377957
21
-5.803
0
LINE
8
BLACK
6
CONTINUOUS
10
0.377957
20
-5.803
11
0.4
21
-5.72929
0
LINE
8
BLACK
6
CONTINUOUS
10
0.4
20
-5.72929
11
0.4
21
-4.6
0
LINE
8
BLACK
6
CONTINUOUS
10
0.4
20
-4.6
11
0.5
21
-4.6
0
LINE
8
BLACK
6
CONTINUOUS
10
0.5
20
-4.6
11
0.5
21
-2.33033
0
LINE
8
BLACK
6
CONTINUOUS
10
0.5
20
-2.33033
11
0.234835
21
-2.06516
0
LINE
8
BLACK
6
CONTINUOUS
10
0.234835
20
-2.06516
11
0.210192
21
-2.03585
0
LINE
8
BLACK
6
CONTINUOUS
10
0.210192
20
-2.03585
11
0.203692
21
-2.02984
0
LINE
8
BLACK
6
CONTINUOUS
10
0.203692
20
-2.02984
11
0.201094
21
-2.02502
0
LINE
8
BLACK
6
CONTINUOUS
10
0.201094
20
-2.02502
11
0.193194
21
-2.01563
0
LINE
8
BLACK
6
CONTINUOUS
10
0.193194
20
-2.01563
11
0.170317
21
-1.96798
0
LINE
8
BLACK
6
CONTINUOUS
10
0.170317
20
-1.96798
11
0.145218
21
-1.92147
0
LINE
8
BLACK
6
CONTINUOUS
10
0.145218
20
-1.92147
11
0.143753
21
-1.91266
0
LINE
8
BLACK
6
CONTINUOUS
10
0.143753
20
-1.91266
11
0.13989
21
-1.90462
0
LINE
8
BLACK
6
CONTINUOUS
10
0.13989
20
-1.90462
11
0.133678
21
-1.85213
0
LINE
8
BLACK
6
CONTINUOUS
10
0.133678
20
-1.85213
11
0.125
21
-1.8
0
LINE
8
BLACK
6
CONTINUOUS
10
0.125
20
-1.8
11
0.125
21
0.6
0
LINE
8
BLACK
6
CONTINUOUS
10
0.125
20
0.6
11
0.128305
21
0.638154
0
LINE
8
BLACK
6
CONTINUOUS
10
0.128305
20
0.638154
11
0.127957
21
0.647
0
LINE
8
BLACK
6
CONTINUOUS
10
0.127957
20
0.647
11
0.129525
21
0.652242
0
LINE
8
BLACK
6
CONTINUOUS
10
0.129525
20
0.652242
11
0.130584
21
0.664473
0
LINE
8
BLACK
6
CONTINUOUS
10
0.130584
20
0.664473
11
0.148097
21
0.714344
0
LINE
8
BLACK
6
CONTINUOUS
10
0.148097
20
0.714344
11
0.16324
21
0.764977
0
LINE
8
BLACK
6
CONTINUOUS
10
0.16324
20
0.764977
11
0.168428
21
0.772236
0
LINE
8
BLACK
6
CONTINUOUS
10
0.168428
20
0.772236
11
0.171385
21
0.780658
0
LINE
8
BLACK
6
CONTINUOUS
10
0.171385
20
0.780658
11
0.204112
21
0.822173
0
LINE
8
BLACK
6
CONTINUOUS
10
0.204112
20
0.822173
11
0.234835
21
0.865165
0
LINE
8
BLACK
6
CONTINUOUS
10
0.234835
20
0.865165
11
0.646899
21
1.27723
0
LINE
8
BLACK
6
CONTINUOUS
10
0.646899
20
1.27723
11
0.676393
21
1.33511
0
LINE
8
BLACK
6
CONTINUOUS
10
0.676393
20
1.33511
11
0.764886
21
1.42361
0
LINE
8
BLACK
6
CONTINUOUS
10
0.764886
20
1.42361
11
0.876393
21
1.48042
0
LINE
8
BLACK
6
CONTINUOUS
10
0.876393
20
1.48042
11
1
21
1.5
0
LINE
8
BLACK
6
CONTINUOUS
10
1
20
1.5
11
1.12361
21
1.48042
0
LINE
8
BLACK
6
CONTINUOUS
10
6.08704
20
-1.66099
11
6.19216
21
-1.70747
0
LINE
8
BLACK
6
CONTINUOUS
10
6.19216
20
-1.70747
11
6.27655
21
-1.78548
0
LINE
8
BLACK
6
CONTINUOUS
10
6.27655
20
-1.78548
11
6.33113
21
-1.88663
0
LINE
8
BLACK
6
CONTINUOUS
10
6.33113
20
-1.88663
11
6.35
21
-2
0
LINE
8
BLACK
6
CONTINUOUS
10
6.35
20
-2
11
6.35
21
-2.65
0
LINE
8
BLACK
6
CONTINUOUS
10
6.35
20
-2.65
11
7
21
-2.65
0
LINE
8
BLACK
6
CONTINUOUS
10
7
20
-2.65
11
7.06018
21
-2.65521
0
LINE
8
BLACK
6
CONTINUOUS
10
7.06018
20
-2.65521
11
7.16861
21
-2.69329
0
LINE
8
BLACK
6
CONTINUOUS
10
7.16861
20
-2.69329
11
7.25887
21
-2.76445
0
LINE
8
BLACK
6
CONTINUOUS
10
7.25887
20
-2.76445
11
7.32121
21
-2.861
0
LINE
8
BLACK
6
CONTINUOUS
10
7.32121
20
-2.861
11
7.34892
21
-2.97254
0
LINE
8
BLACK
6
CONTINUOUS
10
7.34892
20
-2.97254
11
7.339
21
-3.08704
0
LINE
8
BLACK
6
CONTINUOUS
10
7.339
20
-3.08704
11
7.29253
21
-3.19216
0
LINE
8
BLACK
6
CONTINUOUS
10
7.29253
20
-3.19216
11
7.21452
21
-3.27655
0
LINE
8
BLACK
6
CONTINUOUS
10
7.21452
20
-3.27655
11
7.11337
21
-3.33113
0
LINE
8
BLACK
6
CONTINUOUS
10
7.11337
20
-3.33113
11
7
21
-3.35
0
LINE
8
BLACK
6
CONTINUOUS
10
7
20
-3.35
11
6.35
21
-3.35
0
LINE
8
BLACK
6
CONTINUOUS
10
6.35
20
-3.35
11
6.35
21
-4
0
LINE
8
BLACK
6
CONTINUOUS
10
6.35
20
-4
11
6.34479
21
-4.06018
0
LINE
8
BLACK
6
CONTINUOUS
10
6.34479
20
-4.06018
11
6.30671
21
-4.16861
0
LINE
8
BLACK
6
CONTINUOUS
10
6.30671
20
-4.16861
11
6.23555
21
-4.25887
0
LINE
8
BLACK
6
CONTINUOUS
10
6.23555
20
-4.25887
11
6.139
21
-4.32121
0
LINE
8
BLACK
6
CONTINUOUS
10
6.139
20
-4.32121
11
6.02746
21
-4.34892
0
LINE
8
BLACK
6
CONTINUOUS
10
6.02746
20
-4.34892
11
5.91296
21
-4.339
0
LINE
8
BLACK
6
CONTINUOUS
10
5.91296
20
-4.339
11
5.80784
21
-4.29253
0
LINE
8
BLACK
6
CONTINUOUS
10
5.80784
20
-4.29253
11
5.72345
21
-4.21452
0
LINE
8
BLACK
6
CONTINUOUS
10
5.72345
20
-4.21452
11
5.66887
21
-4.11337
0
LINE
8
BLACK
6
CONTINUOUS
10
5.66887
20
-4.11337
11
5.65
21
-4
0
LINE
8
BLACK
6
CONTINUOUS
10
5.65
20
-4
11
5.65
21
-3.35
0
LINE
8
BLACK
6
CONTINUOUS
10
5.65
20
-3.35
11
5
21
-3.35
0
LINE
8
BLACK
6
CONTINUOUS
10
5
20
-3.35
11
4.93982
21
-3.34479
0
LINE
8
BLACK
6
CONTINUOUS
10
4.93982
20
-3.34479
11
4.83139
21
-3.30671
0
LINE
8
BLACK
6
CONTINUOUS
10
4.83139
20
-3.30671
11
4.74113
21
-3.23555
0
LINE
8
BLACK
6
CONTINUOUS
10
4.74113
20
-3.23555
11
4.67879
21
-3.139
0
LINE
8
BLACK
6
CONTINUOUS
10
4.67879
20
-3.139
11
4.65108
21
-3.02746
0
LINE
8
BLACK
6
CONTINUOUS
10
4.65108
20
-3.02746
11
4.661
21
-2.91296
0
LINE
8
BLACK
6
CONTINUOUS
10
4.661
20
-2.91296
11
4.70747
21
-2.80784
0
LINE
8
BLACK
6
CONTINUOUS
10
4.70747
20
-2.80784
11
4.78548
21
-2.72345
0
LINE
8
BLACK
6
CONTINUOUS
10
4.78548
20
-2.72345
11
4.88663
21
-2.66887
0
LINE
8
BLACK
6
CONTINUOUS
10
4.88663
20
-2.66887
11
5
21
-2.65
0
LINE
8
BLACK
6
CONTINUOUS
10
5
20
-2.65
11
5.65
21
-2.65
0
LINE
8
BLACK
6
CONTINUOUS
10
5.65
20
-2.65
11
5.65
21
-2
0
LINE
8
BLACK
6
CONTINUOUS
10
5.65
20
-2
11
5.65521
21
-1.93982
0
LINE
8
BLACK
6
CONTINUOUS
10
5.65521
20
-1.93982
11
5.69329
21
-1.83138
0
LINE
8
BLACK
6
CONTINUOUS
10
5.69329
20
-1.83138
11
5.76445
21
-1.74113
0
LINE
8
BLACK
6
CONTINUOUS
10
5.76445
20
-1.74113
11
5.861
21
-1.67878
0
LINE
8
BLACK
6
CONTINUOUS
10
5.861
20
-1.67878
11
5.97254
21
-1.65108
0
LINE
8
BLACK
6
CONTINUOUS
10
5.97254
20
-1.65108
11
6.08704
21
-1.66099
0
LINE
8
BLACK
6
CONTINUOUS
10
-4.93982
20
-2.65521
11
-4.83139
21
-2.69329
0
LINE
8
BLACK
6
CONTINUOUS
10
-4.83139
20
-2.69329
11
-4.74113
21
-2.76445
0
LINE
8
BLACK
6
CONTINUOUS
10
-4.74113
20
-2.76445
11
-4.67879
21
-2.861
0
LINE
8
BLACK
6
CONTINUOUS
10
-4.67879
20
-2.861
11
-4.65108
21
-2.97254
0
LINE
8
BLACK
6
CONTINUOUS
10
-4.65108
20
-2.97254
11
-4.661
21
-3.08704
0
LINE
8
BLACK
6
CONTINUOUS
10
-4.661
20
-3.08704
11
-4.70747
21
-3.19216
0
LINE
8
BLACK
6
CONTINUOUS
10
-4.70747
20
-3.19216
11
-4.78548
21
-3.27655
0
LINE
8
BLACK
6
CONTINUOUS
10
-4.78548
20
-3.27655
11
-4.88663
21
-3.33113
0
LINE
8
BLACK
6
CONTINUOUS
10
-4.88663
20
-3.33113
11
-5
21
-3.35
0
LINE
8
BLACK
6
CONTINUOUS
10
-5
20
-3.35
11
-7
21
-3.35
0
LINE
8
BLACK
6
CONTINUOUS
10
-7
20
-3.35
11
-7.06018
21
-3.34479
0
LINE
8
BLACK
6
CONTINUOUS
10
-7.06018
20
-3.34479
11
-7.16861
21
-3.30671
0
LINE
8
BLACK
6
CONTINUOUS
10
-7.16861
20
-3.30671
11
-7.25887
21
-3.23555
0
LINE
8
BLACK
6
CONTINUOUS
10
-7.25887
20
-3.23555
11
-7.32121
21
-3.139
0
LINE
8
BLACK
6
CONTINUOUS
10
-7.32121
20
-3.139
11
-7.34892
21
-3.02746
0
LINE
8
BLACK
6
CONTINUOUS
10
-7.34892
20
-3.02746
11
-7.339
21
-2.91296
0
LINE
8
BLACK
6
CONTINUOUS
10
-7.339
20
-2.91296
11
-7.29253
21
-2.80784
0
LINE
8
BLACK
6
CONTINUOUS
10
-7.29253
20
-2.80784
11
-7.21452
21
-2.72345
0
LINE
8
BLACK
6
CONTINUOUS
10
-7.21452
20
-2.72345
11
-7.11337
21
-2.66887
0
LINE
8
BLACK
6
CONTINUOUS
10
-7.11337
20
-2.66887
11
-7
21
-2.65
0
LINE
8
BLACK
6
CONTINUOUS
10
-7
20
-2.65
11
-5
21
-2.65
0
LINE
8
BLACK
6
CONTINUOUS
10
-5
20
-2.65
11
-4.93982
21
-2.65521
0
LINE
8
BLACK
6
CONTINUOUS
10
-4.18372
20
1.95359
11
-4.25433
21
1.83128
0
LINE
8
BLACK
6
CONTINUOUS
10
-4.25433
20
1.83128
11
-4.05601
21
1.71863
0
LINE
8
BLACK
6
CONTINUOUS
10
-4.05601
20
1.71863
11
-4.03631
21
1.70055
0
LINE
8
BLACK
6
CONTINUOUS
10
-4.03631
20
1.70055
11
-4.01368
21
1.68632
0
LINE
8
BLACK
6
CONTINUOUS
10
-4.01368
20
1.68632
11
-3.95833
21
1.63098
0
LINE
8
BLACK
6
CONTINUOUS
10
-3.95833
20
1.63098
11
-3.9406
21
1.60266
0
LINE
8
BLACK
6
CONTINUOUS
10
-3.9406
20
1.60266
11
-3.91978
21
1.57654
0
LINE
8
BLACK
6
CONTINUOUS
10
-3.91978
20
1.57654
11
-3.91723
21
1.56533
0
LINE
8
BLACK
6
CONTINUOUS
10
-3.91723
20
1.56533
11
-3.91112
21
1.55558
0
LINE
8
BLACK
6
CONTINUOUS
10
-3.91112
20
1.55558
11
-3.90743
21
1.52238
0
LINE
8
BLACK
6
CONTINUOUS
10
-3.90743
20
1.52238
11
-3.9
21
1.48981
0
LINE
8
BLACK
6
CONTINUOUS
10
-3.9
20
1.48981
11
-3.9
21
1.09965
0
LINE
8
BLACK
6
CONTINUOUS
10
-3.9
20
1.09965
11
-3.90312
21
1.08608
0
LINE
8
BLACK
6
CONTINUOUS
10
-3.90312
20
1.08608
11
-3.90194
21
1.0722
0
LINE
8
BLACK
6
CONTINUOUS
10
-3.90194
20
1.0722
11
-3.91298
21
1.0432
0
LINE
8
BLACK
6
CONTINUOUS
10
-3.91298
20
1.0432
11
-3.91994
21
1.01295
0
LINE
8
BLACK
6
CONTINUOUS
10
-3.91994
20
1.01295
11
-3.92863
21
1.00208
0
LINE
8
BLACK
6
CONTINUOUS
10
-3.92863
20
1.00208
11
-3.93359
21
0.98906
0
LINE
8
BLACK
6
CONTINUOUS
10
-3.93359
20
0.98906
11
-4.13378
21
0.68877
0
LINE
8
BLACK
6
CONTINUOUS
10
-4.13378
20
0.68877
11
-4.14088
21
0.682071
0
LINE
8
BLACK
6
CONTINUOUS
10
-4.14088
20
0.682071
11
-4.14522
21
0.673332
0
LINE
8
BLACK
6
CONTINUOUS
10
-4.14522
20
0.673332
11
-4.17294
21
0.651792
0
LINE
8
BLACK
6
CONTINUOUS
10
-4.17294
20
0.651792
11
-4.19846
21
0.627692
0
LINE
8
BLACK
6
CONTINUOUS
10
-4.19846
20
0.627692
11
-4.20776
21
0.624731
0
LINE
8
BLACK
6
CONTINUOUS
10
-4.20776
20
0.624731
11
-4.21547
21
0.618743
0
LINE
8
BLACK
6
CONTINUOUS
10
-4.21547
20
0.618743
11
-4.24978
21
0.611354
0
LINE
8
BLACK
6
CONTINUOUS
10
-4.24978
20
0.611354
11
-4.28323
21
0.600704
0
LINE
8
BLACK
6
CONTINUOUS
10
-4.28323
20
0.600704
11
-4.29289
21
0.602069
0
LINE
8
BLACK
6
CONTINUOUS
10
-4.29289
20
0.602069
11
-4.30243
21
0.600015
0
LINE
8
BLACK
6
CONTINUOUS
10
-4.30243
20
0.600015
11
-6.78692
21
0.63024
0
LINE
8
BLACK
6
CONTINUOUS
10
-6.78692
20
0.63024
11
-7.5
21
-0.082843
0
LINE
8
BLACK
6
CONTINUOUS
10
-7.5
20
-0.082843
11
-7.5
21
-0.858501
0
LINE
8
BLACK
6
CONTINUOUS
10
-7.5
20
-0.858501
11
-7.46489
21
-0.876393
0
LINE
8
BLACK
6
CONTINUOUS
10
-7.46489
20
-0.876393
11
-7.37639
21
-0.964886
0
LINE
8
BLACK
6
CONTINUOUS
10
-7.37639
20
-0.964886
11
-7.31958
21
-1.07639
0
LINE
8
BLACK
6
CONTINUOUS
10
-7.31958
20
-1.07639
11
-7.3
21
-1.2
0
LINE
8
BLACK
6
CONTINUOUS
10
-7.3
20
-1.2
11
-7.31958
21
-1.32361
0
LINE
8
BLACK
6
CONTINUOUS
10
-7.31958
20
-1.32361
11
-7.37639
21
-1.43511
0
LINE
8
BLACK
6
CONTINUOUS
10
-7.37639
20
-1.43511
11
-7.46489
21
-1.52361
0
LINE
8
BLACK
6
CONTINUOUS
10
-7.46489
20
-1.52361
11
-7.57639
21
-1.58042
0
LINE
8
BLACK
6
CONTINUOUS
10
-7.57639
20
-1.58042
11
-7.7
21
-1.6
0
LINE
8
BLACK
6
CONTINUOUS
10
-7.7
20
-1.6
11
-7.82361
21
-1.58042
0
LINE
8
BLACK
6
CONTINUOUS
10
-7.82361
20
-1.58042
11
-7.93511
21
-1.52361
0
LINE
8
BLACK
6
CONTINUOUS
10
-7.93511
20
-1.52361
11
-8.02361
21
-1.43511
0
LINE
8
BLACK
6
CONTINUOUS
10
-8.02361
20
-1.43511
11
-8.08042
21
-1.32361
0
LINE
8
BLACK
6
CONTINUOUS
10
-8.08042
20
-1.32361
11
-8.1
21
-1.2
0
LINE
8
BLACK
6
CONTINUOUS
10
-8.1
20
-1.2
11
-8.08042
21
-1.07639
0
LINE
8
BLACK
6
CONTINUOUS
10
-8.08042
20
-1.07639
11
-8.02361
21
-0.964886
0
LINE
8
BLACK
6
CONTINUOUS
10
-8.02361
20
-0.964886
11
-7.93511
21
-0.876393
0
LINE
8
BLACK
6
CONTINUOUS
10
-7.93511
20
-0.876393
11
-7.9
21
-0.858501
0
LINE
8
BLACK
6
CONTINUOUS
10
-7.9
20
-0.858501
11
-7.9
21
0.000349
0
LINE
8
BLACK
6
CONTINUOUS
10
-7.9
20
0.000349
11
-7.89251
21
0.032909
0
LINE
8
BLACK
6
CONTINUOUS
10
-7.89251
20
0.032909
11
-7.88876
21
0.066102
0
LINE
8
BLACK
6
CONTINUOUS
10
-7.88876
20
0.066102
11
-7.88264
21
0.075837
0
LINE
8
BLACK
6
CONTINUOUS
10
-7.88264
20
0.075837
11
-7.88006
21
0.087046
0
LINE
8
BLACK
6
CONTINUOUS
10
-7.88006
20
0.087046
11
-7.85919
21
0.113141
0
LINE
8
BLACK
6
CONTINUOUS
10
-7.85919
20
0.113141
11
-7.84142
21
0.141421
0
LINE
8
BLACK
6
CONTINUOUS
10
-7.84142
20
0.141421
11
-7.00992
21
0.972918
0
LINE
8
BLACK
6
CONTINUOUS
10
-7.00992
20
0.972918
11
-6.9806
21
0.991279
0
LINE
8
BLACK
6
CONTINUOUS
10
-6.9806
20
0.991279
11
-6.95328
21
1.01251
0
LINE
8
BLACK
6
CONTINUOUS
10
-6.95328
20
1.01251
11
-6.94324
21
1.01467
0
LINE
8
BLACK
6
CONTINUOUS
10
-6.94324
20
1.01467
11
-6.93452
21
1.02012
0
LINE
8
BLACK
6
CONTINUOUS
10
-6.93452
20
1.02012
11
-6.90014
21
1.02395
0
LINE
8
BLACK
6
CONTINUOUS
10
-6.90014
20
1.02395
11
-6.86632
21
1.03123
0
LINE
8
BLACK
6
CONTINUOUS
10
-6.86632
20
1.03123
11
-4.40617
21
1.00131
0
LINE
8
BLACK
6
CONTINUOUS
10
-4.40617
20
1.00131
11
-4.3
21
1.16056
0
LINE
8
BLACK
6
CONTINUOUS
10
-4.3
20
1.16056
11
-4.3
21
1.3972
0
LINE
8
BLACK
6
CONTINUOUS
10
-4.3
20
1.3972
11
-4.45433
21
1.48487
0
LINE
8
BLACK
6
CONTINUOUS
10
-4.45433
20
1.48487
11
-4.53372
21
1.34737
0
LINE
8
BLACK
6
CONTINUOUS
10
-4.53372
20
1.34737
11
-6.69878
21
2.59737
0
LINE
8
BLACK
6
CONTINUOUS
10
-6.69878
20
2.59737
11
-6.34878
21
3.20359
0
LINE
8
BLACK
6
CONTINUOUS
10
-6.34878
20
3.20359
11
-4.18372
21
1.95359
0
LINE
8
BLACK
6
CONTINUOUS
10
5.94878
20
3.89641
11
3.78372
21
2.64641
0
LINE
8
BLACK
6
CONTINUOUS
10
3.78372
20
2.64641
11
3.70312
21
2.78601
0
LINE
8
BLACK
6
CONTINUOUS
10
3.70312
20
2.78601
11
3.68171
21
2.77372
0
LINE
8
BLACK
6
CONTINUOUS
10
3.68171
20
2.77372
11
3.60922
21
2.33878
0
LINE
8
BLACK
6
CONTINUOUS
10
3.60922
20
2.33878
11
4.51129
21
0.805266
0
LINE
8
BLACK
6
CONTINUOUS
10
4.51129
20
0.805266
11
6.59127
21
0.89981
0
LINE
8
BLACK
6
CONTINUOUS
10
6.59127
20
0.89981
11
6.62851
21
0.89301
0
LINE
8
BLACK
6
CONTINUOUS
10
6.62851
20
0.89301
11
6.6661
21
0.88876
0
LINE
8
BLACK
6
CONTINUOUS
10
6.6661
20
0.88876
11
6.67196
21
0.885076
0
LINE
8
BLACK
6
CONTINUOUS
10
6.67196
20
0.885076
11
6.67878
21
0.883831
0
LINE
8
BLACK
6
CONTINUOUS
10
6.67878
20
0.883831
11
6.70939
21
0.861552
0
LINE
8
BLACK
6
CONTINUOUS
10
6.70939
20
0.861552
11
6.74142
21
0.841421
0
LINE
8
BLACK
6
CONTINUOUS
10
6.74142
20
0.841421
11
8.29886
21
-0.716018
0
LINE
8
BLACK
6
CONTINUOUS
10
8.29886
20
-0.716018
11
8.4
21
-0.7
0
LINE
8
BLACK
6
CONTINUOUS
10
8.4
20
-0.7
11
8.52361
21
-0.719577
0
LINE
8
BLACK
6
CONTINUOUS
10
8.52361
20
-0.719577
11
8.63511
21
-0.776393
0
LINE
8
BLACK
6
CONTINUOUS
10
8.63511
20
-0.776393
11
8.72361
21
-0.864886
0
LINE
8
BLACK
6
CONTINUOUS
10
8.72361
20
-0.864886
11
8.78042
21
-0.976393
0
LINE
8
BLACK
6
CONTINUOUS
10
8.78042
20
-0.976393
11
8.8
21
-1.1
0
LINE
8
BLACK
6
CONTINUOUS
10
8.8
20
-1.1
11
8.78042
21
-1.22361
0
LINE
8
BLACK
6
CONTINUOUS
10
8.78042
20
-1.22361
11
8.72361
21
-1.33511
0
LINE
8
BLACK
6
CONTINUOUS
10
8.72361
20
-1.33511
11
8.63511
21
-1.42361
0
LINE
8
BLACK
6
CONTINUOUS
10
8.63511
20
-1.42361
11
8.52361
21
-1.48042
0
LINE
8
BLACK
6
CONTINUOUS
10
8.52361
20
-1.48042
11
8.4
21
-1.5
0
LINE
8
BLACK
6
CONTINUOUS
10
8.4
20
-1.5
11
8.27639
21
-1.48042
0
LINE
8
BLACK
6
CONTINUOUS
10
8.27639
20
-1.48042
11
8.16489
21
-1.42361
0
LINE
8
BLACK
6
CONTINUOUS
10
8.16489
20
-1.42361
11
8.07639
21
-1.33511
0
LINE
8
BLACK
6
CONTINUOUS
10
8.07639
20
-1.33511
11
8.01958
21
-1.22361
0
LINE
8
BLACK
6
CONTINUOUS
10
8.01958
20
-1.22361
11
8
21
-1.1
0
LINE
8
BLACK
6
CONTINUOUS
10
8
20
-1.1
11
8.01602
21
-0.998861
0
LINE
8
BLACK
6
CONTINUOUS
10
8.01602
20
-0.998861
11
6.52096
21
0.4962
0
LINE
8
BLACK
6
CONTINUOUS
10
6.52096
20
0.4962
11
4.40873
21
0.40019
0
LINE
8
BLACK
6
CONTINUOUS
10
4.40873
20
0.40019
11
4.39033
21
0.40355
0
LINE
8
BLACK
6
CONTINUOUS
10
4.39033
20
0.40355
11
4.3717
21
0.402013
0
LINE
8
BLACK
6
CONTINUOUS
10
4.3717
20
0.402013
11
4.34712
21
0.411439
0
LINE
8
BLACK
6
CONTINUOUS
10
4.34712
20
0.411439
11
4.32122
21
0.416169
0
LINE
8
BLACK
6
CONTINUOUS
10
4.32122
20
0.416169
11
4.3061
21
0.427174
0
LINE
8
BLACK
6
CONTINUOUS
10
4.3061
20
0.427174
11
4.28864
21
0.43387
0
LINE
8
BLACK
6
CONTINUOUS
10
4.28864
20
0.43387
11
4.27058
21
0.453025
0
LINE
8
BLACK
6
CONTINUOUS
10
4.27058
20
0.453025
11
4.24929
21
0.468518
0
LINE
8
BLACK
6
CONTINUOUS
10
4.24929
20
0.468518
11
4.24044
21
0.484991
0
LINE
8
BLACK
6
CONTINUOUS
10
4.24044
20
0.484991
11
4.22761
21
0.498596
0
LINE
8
BLACK
6
CONTINUOUS
10
4.22761
20
0.498596
11
3.22744
21
2.1989
0
LINE
8
BLACK
6
CONTINUOUS
10
3.22744
20
2.1989
11
3.22
21
2.22247
0
LINE
8
BLACK
6
CONTINUOUS
10
3.22
20
2.22247
11
3.20798
21
2.24408
0
LINE
8
BLACK
6
CONTINUOUS
10
3.20798
20
2.24408
11
3.20678
21
2.26436
0
LINE
8
BLACK
6
CONTINUOUS
10
3.20678
20
2.26436
11
3.20066
21
2.28373
0
LINE
8
BLACK
6
CONTINUOUS
10
3.20066
20
2.28373
11
3.20418
21
2.3082
0
LINE
8
BLACK
6
CONTINUOUS
10
3.20418
20
2.3082
11
3.20272
21
2.33288
0
LINE
8
BLACK
6
CONTINUOUS
10
3.20272
20
2.33288
11
3.30278
21
2.93322
0
LINE
8
BLACK
6
CONTINUOUS
10
3.30278
20
2.93322
11
3.31921
21
2.97307
0
LINE
8
BLACK
6
CONTINUOUS
10
3.31921
20
2.97307
11
3.33504
21
3.01308
0
LINE
8
BLACK
6
CONTINUOUS
10
3.33504
20
3.01308
11
3.33613
21
3.01409
0
LINE
8
BLACK
6
CONTINUOUS
10
3.33613
20
3.01409
11
3.3367
21
3.01546
0
LINE
8
BLACK
6
CONTINUOUS
10
3.3367
20
3.01546
11
3.36878
21
3.04424
0
LINE
8
BLACK
6
CONTINUOUS
10
3.36878
20
3.04424
11
3.4004
21
3.07343
0
LINE
8
BLACK
6
CONTINUOUS
10
3.4004
20
3.07343
11
3.50312
21
3.13242
0
LINE
8
BLACK
6
CONTINUOUS
10
3.50312
20
3.13242
11
3.43372
21
3.25263
0
LINE
8
BLACK
6
CONTINUOUS
10
3.43372
20
3.25263
11
5.59878
21
4.50263
0
LINE
8
BLACK
6
CONTINUOUS
10
5.59878
20
4.50263
11
5.94878
21
3.89641
0
LINE
8
BLACK
6
CONTINUOUS
10
6.41923
20
3.08157
11
6.44877
21
3.08831
0
LINE
8
BLACK
6
CONTINUOUS
10
6.44877
20
3.08831
11
6.48349
21
3.09932
0
LINE
8
BLACK
6
CONTINUOUS
10
6.48349
20
3.09932
11
6.49181
21
3.09813
0
LINE
8
BLACK
6
CONTINUOUS
10
6.49181
20
3.09813
11
6.5
21
3.1
0
LINE
8
BLACK
6
CONTINUOUS
10
6.5
20
3.1
11
7.20035
21
3.1
0
LINE
8
BLACK
6
CONTINUOUS
10
7.20035
20
3.1
11
7.2191
21
3.09569
0
LINE
8
BLACK
6
CONTINUOUS
10
7.2191
20
3.09569
11
7.23832
21
3.09629
0
LINE
8
BLACK
6
CONTINUOUS
10
7.23832
20
3.09629
11
7.26191
21
3.08584
0
LINE
8
BLACK
6
CONTINUOUS
10
7.26191
20
3.08584
11
7.28705
21
3.08006
0
LINE
8
BLACK
6
CONTINUOUS
10
7.28705
20
3.08006
11
7.30207
21
3.06805
0
LINE
8
BLACK
6
CONTINUOUS
10
7.30207
20
3.06805
11
7.31966
21
3.06026
0
LINE
8
BLACK
6
CONTINUOUS
10
7.31966
20
3.06026
11
7.33638
21
3.04061
0
LINE
8
BLACK
6
CONTINUOUS
10
7.33638
20
3.04061
11
7.35652
21
3.0245
0
LINE
8
BLACK
6
CONTINUOUS
10
7.35652
20
3.0245
11
7.36485
21
3.00716
0
LINE
8
BLACK
6
CONTINUOUS
10
7.36485
20
3.00716
11
7.37732
21
2.99251
0
LINE
8
BLACK
6
CONTINUOUS
10
7.37732
20
2.99251
11
8.53429
21
0.774979
0
LINE
8
BLACK
6
CONTINUOUS
10
8.53429
20
0.774979
11
8.63511
21
0.723607
0
LINE
8
BLACK
6
CONTINUOUS
10
8.63511
20
0.723607
11
8.72361
21
0.635114
0
LINE
8
BLACK
6
CONTINUOUS
10
8.72361
20
0.635114
11
8.78042
21
0.523607
0
LINE
8
BLACK
6
CONTINUOUS
10
8.78042
20
0.523607
11
8.8
21
0.4
0
LINE
8
BLACK
6
CONTINUOUS
10
8.8
20
0.4
11
8.78042
21
0.276393
0
LINE
8
BLACK
6
CONTINUOUS
10
8.78042
20
0.276393
11
8.72361
21
0.164886
0
LINE
8
BLACK
6
CONTINUOUS
10
8.72361
20
0.164886
11
8.63511
21
0.076393
0
LINE
8
BLACK
6
CONTINUOUS
10
8.63511
20
0.076393
11
8.52361
21
0.019577
0
LINE
8
BLACK
6
CONTINUOUS
10
8.52361
20
0.019577
11
8.4
21
0
0
LINE
8
BLACK
6
CONTINUOUS
10
8.4
20
0
11
8.27639
21
0.019577
0
LINE
8
BLACK
6
CONTINUOUS
10
8.27639
20
0.019577
11
8.16489
21
0.076393
0
LINE
8
BLACK
6
CONTINUOUS
10
8.16489
20
0.076393
11
8.07639
21
0.164886
0
LINE
8
BLACK
6
CONTINUOUS
10
8.07639
20
0.164886
11
8.01958
21
0.276393
0
LINE
8
BLACK
6
CONTINUOUS
10
8.01958
20
0.276393
11
8
21
0.4
0
LINE
8
BLACK
6
CONTINUOUS
10
8
20
0.4
11
8.01958
21
0.523607
0
LINE
8
BLACK
6
CONTINUOUS
10
8.01958
20
0.523607
11
8.07639
21
0.635114
0
LINE
8
BLACK
6
CONTINUOUS
10
8.07639
20
0.635114
11
8.12877
21
0.68749
0
LINE
8
BLACK
6
CONTINUOUS
10
8.12877
20
0.68749
11
7.07876
21
2.7
0
LINE
8
BLACK
6
CONTINUOUS
10
7.07876
20
2.7
11
6.63953
21
2.7
0
LINE
8
BLACK
6
CONTINUOUS
10
6.63953
20
2.7
11
6.69878
21
2.59737
0
LINE
8
BLACK
6
CONTINUOUS
10
6.69878
20
2.59737
11
4.53372
21
1.34737
0
LINE
8
BLACK
6
CONTINUOUS
10
4.53372
20
1.34737
11
4.18372
21
1.95359
0
LINE
8
BLACK
6
CONTINUOUS
10
4.18372
20
1.95359
11
6.34878
21
3.20359
0
LINE
8
BLACK
6
CONTINUOUS
10
6.34878
20
3.20359
11
6.41923
21
3.08157
0
LINE
8
BLACK
6
CONTINUOUS
10
-3.43372
20
3.25263
11
-3.78372
21
2.64641
0
LINE
8
BLACK
6
CONTINUOUS
10
-3.78372
20
2.64641
11
-5.94878
21
3.89641
0
LINE
8
BLACK
6
CONTINUOUS
10
-5.94878
20
3.89641
11
-5.86132
21
4.0479
0
LINE
8
BLACK
6
CONTINUOUS
10
-5.86132
20
4.0479
11
-5.93126
21
4.08939
0
LINE
8
BLACK
6
CONTINUOUS
10
-5.93126
20
4.08939
11
-6.4771
21
4.08939
0
LINE
8
BLACK
6
CONTINUOUS
10
-6.4771
20
4.08939
11
-8.55181
21
0.686866
0
LINE
8
BLACK
6
CONTINUOUS
10
-8.55181
20
0.686866
11
-8.51958
21
0.623607
0
LINE
8
BLACK
6
CONTINUOUS
10
-8.51958
20
0.623607
11
-8.5
21
0.5
0
LINE
8
BLACK
6
CONTINUOUS
10
-8.5
20
0.5
11
-8.51958
21
0.376393
0
LINE
8
BLACK
6
CONTINUOUS
10
-8.51958
20
0.376393
11
-8.57639
21
0.264886
0
LINE
8
BLACK
6
CONTINUOUS
10
-8.57639
20
0.264886
11
-8.66489
21
0.176393
0
LINE
8
BLACK
6
CONTINUOUS
10
-8.66489
20
0.176393
11
-8.77639
21
0.119577
0
LINE
8
BLACK
6
CONTINUOUS
10
-8.77639
20
0.119577
11
-8.9
21
0.1
0
LINE
8
BLACK
6
CONTINUOUS
10
-8.9
20
0.1
11
-9.02361
21
0.119577
0
LINE
8
BLACK
6
CONTINUOUS
10
-9.02361
20
0.119577
11
-9.13511
21
0.176393
0
LINE
8
BLACK
6
CONTINUOUS
10
-9.13511
20
0.176393
11
-9.22361
21
0.264886
0
LINE
8
BLACK
6
CONTINUOUS
10
-9.22361
20
0.264886
11
-9.28042
21
0.376393
0
LINE
8
BLACK
6
CONTINUOUS
10
-9.28042
20
0.376393
11
-9.3
21
0.5
0
LINE
8
BLACK
6
CONTINUOUS
10
-9.3
20
0.5
11
-9.28042
21
0.623607
0
LINE
8
BLACK
6
CONTINUOUS
10
-9.28042
20
0.623607
11
-9.22361
21
0.735114
0
LINE
8
BLACK
6
CONTINUOUS
10
-9.22361
20
0.735114
11
-9.13511
21
0.823607
0
LINE
8
BLACK
6
CONTINUOUS
10
-9.13511
20
0.823607
11
-9.02361
21
0.880423
0
LINE
8
BLACK
6
CONTINUOUS
10
-9.02361
20
0.880423
11
-8.9
21
0.9
0
LINE
8
BLACK
6
CONTINUOUS
10
-8.9
20
0.9
11
-8.89119
21
0.898606
0
LINE
8
BLACK
6
CONTINUOUS
10
-8.89119
20
0.898606
11
-6.75997
21
4.39381
0
LINE
8
BLACK
6
CONTINUOUS
10
-6.75997
20
4.39381
11
-6.75117
21
4.40283
0
LINE
8
BLACK
6
CONTINUOUS
10
-6.75117
20
4.40283
11
-6.7457
21
4.41417
0
LINE
8
BLACK
6
CONTINUOUS
10
-6.7457
20
4.41417
11
-6.72041
21
4.43432
0
LINE
8
BLACK
6
CONTINUOUS
10
-6.72041
20
4.43432
11
-6.69781
21
4.45746
0
LINE
8
BLACK
6
CONTINUOUS
10
-6.69781
20
4.45746
11
-6.68598
21
4.46176
0
LINE
8
BLACK
6
CONTINUOUS
10
-6.68598
20
4.46176
11
-6.67613
21
4.46961
0
LINE
8
BLACK
6
CONTINUOUS
10
-6.67613
20
4.46961
11
-6.6446
21
4.4768
0
LINE
8
BLACK
6
CONTINUOUS
10
-6.6446
20
4.4768
11
-6.61421
21
4.48785
0
LINE
8
BLACK
6
CONTINUOUS
10
-6.61421
20
4.48785
11
-6.60167
21
4.48659
0
LINE
8
BLACK
6
CONTINUOUS
10
-6.60167
20
4.48659
11
-6.58939
21
4.48939
0
LINE
8
BLACK
6
CONTINUOUS
10
-6.58939
20
4.48939
11
-5.85925
21
4.48939
0
LINE
8
BLACK
6
CONTINUOUS
10
-5.85925
20
4.48939
11
-5.82669
21
4.48191
0
LINE
8
BLACK
6
CONTINUOUS
10
-5.82669
20
4.48191
11
-5.7935
21
4.47815
0
LINE
8
BLACK
6
CONTINUOUS
10
-5.7935
20
4.47815
11
-5.78376
21
4.47204
0
LINE
8
BLACK
6
CONTINUOUS
10
-5.78376
20
4.47204
11
-5.77256
21
4.46946
0
LINE
8
BLACK
6
CONTINUOUS
10
-5.77256
20
4.46946
11
-5.74646
21
4.44859
0
LINE
8
BLACK
6
CONTINUOUS
10
-5.74646
20
4.44859
11
-5.71818
21
4.43081
0
LINE
8
BLACK
6
CONTINUOUS
10
-5.71818
20
4.43081
11
-5.71145
21
4.42409
0
LINE
8
BLACK
6
CONTINUOUS
10
-5.71145
20
4.42409
11
-5.6613
21
4.39434
0
LINE
8
BLACK
6
CONTINUOUS
10
-5.6613
20
4.39434
11
-5.59878
21
4.50263
0
LINE
8
BLACK
6
CONTINUOUS
10
-5.59878
20
4.50263
11
-3.43372
21
3.25263
0
LINE
8
BLACK
6
CONTINUOUS
10
10.6317
20
2.38542
11
8.98622
21
1.43542
0
LINE
8
BLACK
6
CONTINUOUS
10
8.98622
20
1.43542
11
8.43622
21
2.38804
0
LINE
8
BLACK
6
CONTINUOUS
10
8.43622
20
2.38804
11
10.0817
21
3.33804
0
LINE
8
BLACK
6
CONTINUOUS
10
10.0817
20
3.33804
11
10.6317
21
2.38542
0
LINE
8
BLACK
6
CONTINUOUS
10
-8.43622
20
2.38804
11
-8.98622
21
1.43542
0
LINE
8
BLACK
6
CONTINUOUS
10
-8.98622
20
1.43542
11
-10.6317
21
2.38542
0
LINE
8
BLACK
6
CONTINUOUS
10
-10.6317
20
2.38542
11
-10.0817
21
3.33804
0
LINE
8
BLACK
6
CONTINUOUS
10
-10.0817
20
3.33804
11
-8.43622
21
2.38804
0
LINE
8
BLACK
6
CONTINUOUS
10
-5.73622
20
7.06458
11
-6.28622
21
6.11196
0
LINE
8
BLACK
6
CONTINUOUS
10
-6.28622
20
6.11196
11
-7.93166
21
7.06195
0
LINE
8
BLACK
6
CONTINUOUS
10
-7.93166
20
7.06195
11
-7.38166
21
8.01458
0
LINE
8
BLACK
6
CONTINUOUS
10
-7.38166
20
8.01458
11
-5.73622
21
7.06458
0
LINE
8
BLACK
6
CONTINUOUS
10
7.93166
20
7.06195
11
6.28622
21
6.11196
0
LINE
8
BLACK
6
CONTINUOUS
10
6.28622
20
6.11196
11
5.73622
21
7.06458
0
LINE
8
BLACK
6
CONTINUOUS
10
5.73622
20
7.06458
11
7.38166
21
8.01458
0
LINE
8
BLACK
6
CONTINUOUS
10
7.38166
20
8.01458
11
7.93166
21
7.06195
0
LINE
8
BLACK
6
CONTINUOUS
10
2.12309
20
8.95396
11
2.15867
21
8.9505
0
LINE
8
BLACK
6
CONTINUOUS
10
2.15867
20
8.9505
11
3.5247
21
8.58447
0
LINE
8
BLACK
6
CONTINUOUS
10
3.5247
20
8.58447
11
3.58147
21
8.56386
0
LINE
8
BLACK
6
CONTINUOUS
10
3.58147
20
8.56386
11
3.59291
21
8.55605
0
LINE
8
BLACK
6
CONTINUOUS
10
3.59291
20
8.55605
11
3.60593
21
8.55132
0
LINE
8
BLACK
6
CONTINUOUS
10
3.60593
20
8.55132
11
3.64012
21
8.52379
0
LINE
8
BLACK
6
CONTINUOUS
10
3.64012
20
8.52379
11
3.67636
21
8.49902
0
LINE
8
BLACK
6
CONTINUOUS
10
3.67636
20
8.49902
11
3.68465
21
8.48792
0
LINE
8
BLACK
6
CONTINUOUS
10
3.68465
20
8.48792
11
3.69544
21
8.47923
0
LINE
8
BLACK
6
CONTINUOUS
10
3.69544
20
8.47923
11
3.71887
21
8.4421
0
LINE
8
BLACK
6
CONTINUOUS
10
3.71887
20
8.4421
11
3.74513
21
8.40693
0
LINE
8
BLACK
6
CONTINUOUS
10
3.74513
20
8.40693
11
3.74937
21
8.39374
0
LINE
8
BLACK
6
CONTINUOUS
10
3.74937
20
8.39374
11
3.75676
21
8.38203
0
LINE
8
BLACK
6
CONTINUOUS
10
3.75676
20
8.38203
11
3.7669
21
8.33931
0
LINE
8
BLACK
6
CONTINUOUS
10
3.7669
20
8.33931
11
3.78036
21
8.29753
0
LINE
8
BLACK
6
CONTINUOUS
10
3.78036
20
8.29753
11
3.7801
21
8.28368
0
LINE
8
BLACK
6
CONTINUOUS
10
3.7801
20
8.28368
11
3.7833
21
8.2702
0
LINE
8
BLACK
6
CONTINUOUS
10
3.7833
20
8.2702
11
3.77906
21
8.2265
0
LINE
8
BLACK
6
CONTINUOUS
10
3.77906
20
8.2265
11
3.77825
21
8.18262
0
LINE
8
BLACK
6
CONTINUOUS
10
3.77825
20
8.18262
11
3.77353
21
8.1696
0
LINE
8
BLACK
6
CONTINUOUS
10
3.77353
20
8.1696
11
3.77219
21
8.15581
0
LINE
8
BLACK
6
CONTINUOUS
10
3.77219
20
8.15581
11
3.40616
21
6.78979
0
LINE
8
BLACK
6
CONTINUOUS
10
3.40616
20
6.78979
11
3.40225
21
6.77901
0
LINE
8
BLACK
6
CONTINUOUS
10
3.40225
20
6.77901
11
3.40152
21
6.77396
0
LINE
8
BLACK
6
CONTINUOUS
10
3.40152
20
6.77396
11
3.39775
21
6.76661
0
LINE
8
BLACK
6
CONTINUOUS
10
3.39775
20
6.76661
11
3.38555
21
6.73301
0
LINE
8
BLACK
6
CONTINUOUS
10
3.38555
20
6.73301
11
3.36538
21
6.7035
0
LINE
8
BLACK
6
CONTINUOUS
10
3.36538
20
6.7035
11
3.34907
21
6.6717
0
LINE
8
BLACK
6
CONTINUOUS
10
3.34907
20
6.6717
11
3.33317
21
6.65637
0
LINE
8
BLACK
6
CONTINUOUS
10
3.33317
20
6.65637
11
3.3207
21
6.63812
0
LINE
8
BLACK
6
CONTINUOUS
10
3.3207
20
6.63812
11
3.29206
21
6.61674
0
LINE
8
BLACK
6
CONTINUOUS
10
3.29206
20
6.61674
11
3.26633
21
6.59193
0
LINE
8
BLACK
6
CONTINUOUS
10
3.26633
20
6.59193
11
3.24632
21
6.58258
0
LINE
8
BLACK
6
CONTINUOUS
10
3.24632
20
6.58258
11
3.22861
21
6.56936
0
LINE
8
BLACK
6
CONTINUOUS
10
3.22861
20
6.56936
11
3.19459
21
6.5584
0
LINE
8
BLACK
6
CONTINUOUS
10
3.19459
20
6.5584
11
3.16221
21
6.54327
0
LINE
8
BLACK
6
CONTINUOUS
10
3.16221
20
6.54327
11
3.14025
21
6.5409
0
LINE
8
BLACK
6
CONTINUOUS
10
3.14025
20
6.5409
11
3.11922
21
6.53413
0
LINE
8
BLACK
6
CONTINUOUS
10
3.11922
20
6.53413
11
3.08348
21
6.53478
0
LINE
8
BLACK
6
CONTINUOUS
10
3.08348
20
6.53478
11
3.04794
21
6.53095
0
LINE
8
BLACK
6
CONTINUOUS
10
3.04794
20
6.53095
11
3.02639
21
6.53583
0
LINE
8
BLACK
6
CONTINUOUS
10
3.02639
20
6.53583
11
3.00431
21
6.53624
0
LINE
8
BLACK
6
CONTINUOUS
10
3.00431
20
6.53624
11
2.9707
21
6.54843
0
LINE
8
BLACK
6
CONTINUOUS
10
2.9707
20
6.54843
11
2.93584
21
6.55632
0
LINE
8
BLACK
6
CONTINUOUS
10
2.93584
20
6.55632
11
2.91704
21
6.56791
0
LINE
8
BLACK
6
CONTINUOUS
10
2.91704
20
6.56791
11
2.89627
21
6.57545
0
LINE
8
BLACK
6
CONTINUOUS
10
2.89627
20
6.57545
11
2.86843
21
6.59787
0
LINE
8
BLACK
6
CONTINUOUS
10
2.86843
20
6.59787
11
2.838
21
6.61663
0
LINE
8
BLACK
6
CONTINUOUS
10
2.838
20
6.61663
11
2.82397
21
6.63369
0
LINE
8
BLACK
6
CONTINUOUS
10
2.82397
20
6.63369
11
2.80676
21
6.64754
0
LINE
8
BLACK
6
CONTINUOUS
10
2.80676
20
6.64754
11
2.78769
21
6.67777
0
LINE
8
BLACK
6
CONTINUOUS
10
2.78769
20
6.67777
11
2.76498
21
6.70538
0
LINE
8
BLACK
6
CONTINUOUS
10
2.76498
20
6.70538
11
2.41292
21
7.31515
0
LINE
8
BLACK
6
CONTINUOUS
10
2.41292
20
7.31515
11
1.15653
21
6.68695
0
LINE
8
BLACK
6
CONTINUOUS
10
1.15653
20
6.68695
11
1.12022
21
6.67256
0
LINE
8
BLACK
6
CONTINUOUS
10
1.12022
20
6.67256
11
1.11337
21
6.66887
0
LINE
8
BLACK
6
CONTINUOUS
10
1.11337
20
6.66887
11
1.1091
21
6.66816
0
LINE
8
BLACK
6
CONTINUOUS
10
1.1091
20
6.66816
11
1.10037
21
6.6647
0
LINE
8
BLACK
6
CONTINUOUS
10
1.10037
20
6.6647
11
1.05004
21
6.65833
0
LINE
8
BLACK
6
CONTINUOUS
10
1.05004
20
6.65833
11
1
21
6.65
0
LINE
8
BLACK
6
CONTINUOUS
10
1
20
6.65
11
-1
21
6.65
0
LINE
8
BLACK
6
CONTINUOUS
10
-1
20
6.65
11
-1.0389
21
6.65337
0
LINE
8
BLACK
6
CONTINUOUS
10
-1.0389
20
6.65337
11
-1.04668
21
6.65313
0
LINE
8
BLACK
6
CONTINUOUS
10
-1.04668
20
6.65313
11
-1.05082
21
6.6544
0
LINE
8
BLACK
6
CONTINUOUS
10
-1.05082
20
6.6544
11
-1.06017
21
6.65521
0
LINE
8
BLACK
6
CONTINUOUS
10
-1.06017
20
6.65521
11
-1.10802
21
6.67201
0
LINE
8
BLACK
6
CONTINUOUS
10
-1.10802
20
6.67201
11
-1.15653
21
6.68695
0
LINE
8
BLACK
6
CONTINUOUS
10
-1.15653
20
6.68695
11
-3.15652
21
7.68695
0
LINE
8
BLACK
6
CONTINUOUS
10
-3.15652
20
7.68695
11
-3.20802
21
7.71852
0
LINE
8
BLACK
6
CONTINUOUS
10
-3.20802
20
7.71852
11
-3.28798
21
7.80108
0
LINE
8
BLACK
6
CONTINUOUS
10
-3.28798
20
7.80108
11
-3.33688
21
7.90508
0
LINE
8
BLACK
6
CONTINUOUS
10
-3.33688
20
7.90508
11
-3.34947
21
8.01932
0
LINE
8
BLACK
6
CONTINUOUS
10
-3.34947
20
8.01932
11
-3.32436
21
8.13148
0
LINE
8
BLACK
6
CONTINUOUS
10
-3.32436
20
8.13148
11
-3.26429
21
8.22946
0
LINE
8
BLACK
6
CONTINUOUS
10
-3.26429
20
8.22946
11
-3.17571
21
8.3027
0
LINE
8
BLACK
6
CONTINUOUS
10
-3.17571
20
8.3027
11
-3.06819
21
8.34329
0
LINE
8
BLACK
6
CONTINUOUS
10
-3.06819
20
8.34329
11
-2.95332
21
8.34687
0
LINE
8
BLACK
6
CONTINUOUS
10
-2.95332
20
8.34687
11
-2.84347
21
8.31305
0
LINE
8
BLACK
6
CONTINUOUS
10
-2.84347
20
8.31305
11
-0.917375
21
7.35
0
LINE
8
BLACK
6
CONTINUOUS
10
-0.917375
20
7.35
11
0.917375
21
7.35
0
LINE
8
BLACK
6
CONTINUOUS
10
0.917375
20
7.35
11
2.06229
21
7.92246
0
LINE
8
BLACK
6
CONTINUOUS
10
2.06229
20
7.92246
11
1.76498
21
8.43742
0
LINE
8
BLACK
6
CONTINUOUS
10
1.76498
20
8.43742
11
1.76013
21
8.44781
0
LINE
8
BLACK
6
CONTINUOUS
10
1.76013
20
8.44781
11
1.75707
21
8.4519
0
LINE
8
BLACK
6
CONTINUOUS
10
1.75707
20
8.4519
11
1.75454
21
8.45976
0
LINE
8
BLACK
6
CONTINUOUS
10
1.75454
20
8.45976
11
1.7394
21
8.49214
0
LINE
8
BLACK
6
CONTINUOUS
10
1.7394
20
8.49214
11
1.7328
21
8.52727
0
LINE
8
BLACK
6
CONTINUOUS
10
1.7328
20
8.52727
11
1.72184
21
8.5613
0
LINE
8
BLACK
6
CONTINUOUS
10
1.72184
20
8.5613
11
1.72225
21
8.58338
0
LINE
8
BLACK
6
CONTINUOUS
10
1.72225
20
8.58338
11
1.71816
21
8.6051
0
LINE
8
BLACK
6
CONTINUOUS
10
1.71816
20
8.6051
11
1.72329
21
8.64047
0
LINE
8
BLACK
6
CONTINUOUS
10
1.72329
20
8.64047
11
1.72395
21
8.67621
0
LINE
8
BLACK
6
CONTINUOUS
10
1.72395
20
8.67621
11
1.73149
21
8.69697
0
LINE
8
BLACK
6
CONTINUOUS
10
1.73149
20
8.69697
11
1.73466
21
8.71884
0
LINE
8
BLACK
6
CONTINUOUS
10
1.73466
20
8.71884
11
1.75097
21
8.75064
0
LINE
8
BLACK
6
CONTINUOUS
10
1.75097
20
8.75064
11
1.76316
21
8.78424
0
LINE
8
BLACK
6
CONTINUOUS
10
1.76316
20
8.78424
11
1.77702
21
8.80145
0
LINE
8
BLACK
6
CONTINUOUS
10
1.77702
20
8.80145
11
1.7871
21
8.8211
0
LINE
8
BLACK
6
CONTINUOUS
10
1.7871
20
8.8211
11
1.81283
21
8.84591
0
LINE
8
BLACK
6
CONTINUOUS
10
1.81283
20
8.84591
11
1.83526
21
8.87375
0
LINE
8
BLACK
6
CONTINUOUS
10
1.83526
20
8.87375
11
1.85394
21
8.88554
0
LINE
8
BLACK
6
CONTINUOUS
10
1.85394
20
8.88554
11
1.86984
21
8.90087
0
LINE
8
BLACK
6
CONTINUOUS
10
1.86984
20
8.90087
11
1.90223
21
8.916
0
LINE
8
BLACK
6
CONTINUOUS
10
1.90223
20
8.916
11
1.93246
21
8.93508
0
LINE
8
BLACK
6
CONTINUOUS
10
1.93246
20
8.93508
11
1.95395
21
8.94018
0
LINE
8
BLACK
6
CONTINUOUS
10
1.95395
20
8.94018
11
1.97396
21
8.94953
0
LINE
8
BLACK
6
CONTINUOUS
10
1.97396
20
8.94953
11
2.0095
21
8.95336
0
LINE
8
BLACK
6
CONTINUOUS
10
2.0095
20
8.95336
11
2.04428
21
8.96162
0
LINE
8
BLACK
6
CONTINUOUS
10
2.04428
20
8.96162
11
2.06627
21
8.95948
0
LINE
8
BLACK
6
CONTINUOUS
10
2.06627
20
8.95948
11
2.08823
21
8.96185
0
LINE
8
BLACK
6
CONTINUOUS
10
2.08823
20
8.96185
11
2.12309
21
8.95396
0
CIRCLE
8
BLACK
10
8.4
20
-1.1
40
0.2
0
CIRCLE
8
BLACK
10
8.4
20
0.4
40
0.2
0
CIRCLE
8
BLACK
10
-8.9
20
0.5
40
0.2
0
CIRCLE
8
BLACK
10
-7.7
20
-1.2
40
0.2
0
CIRCLE
8
BLACK
10
-1.1
20
1.5
40
0.2
0
CIRCLE
8
BLACK
10
1
20
1.1
40
0.2
  0
ENDSEC
  0
EOF
