  0
SECTION
  2
HEADER
  9
$ANGBASE
  50
0.0
  9
$ANGDIR
  70
1
  9
$MEASUREMENT
  70
1
  0
ENDSEC
  0
SECTION
  2
TABLES
  0
TABLE
  2
LTYPE
  70
4
  0
LTYPE
  5
40F
  2
CONTINUOUS
  70
0
  3
Solid line
  72
65
  73
0
  40
0.0
  0
LTYPE
  5
410
  2
DASHDOT
 70
0
  3
Dash Dot ____ _ ____ _
 72
65
 73
4
 40
2.0
 49
1.25
 49
-0.25
 49
0.25
 49
-0.25
  0
LTYPE
  5
411
  2
DASHED
 70
0
  3
Dashed __ __ __ __ __
 72
65
 73
2
 40
0.75
 49
0.5
 49
-0.25
  0
LTYPE
  5
43B
  2
DOTTED
 70
0
  3
Dotted .  .  .  .
 72
65
 73
2
 40
0.2
 49
0.0
 49
-0.2
  0
ENDTAB
  0
TABLE
  2
STYLE
  70
4
  0
STYLE
  2
KICAD
  70
0
  40
0
  41
1
  42
1
  50
0
  71
0
  3
isocp.shx
  0
STYLE
  2
KICADB
  70
0
  40
0
  41
1
  42
1
  50
0
  71
0
  3
isocp.shx
  0
STYLE
  2
KICADI
  70
0
  40
0
  41
1
  42
1
  50
15
  71
0
  3
isocp.shx
  0
STYLE
  2
KICADBI
  70
0
  40
0
  41
1
  42
1
  50
15
  71
0
  3
isocp.shx
  0
ENDTAB
  0
TABLE
  2
LAYER
  70
1
  0
LAYER
  2
BLACK
  70
0
  62
7
  6
CONTINUOUS
  0
ENDTAB
  0
ENDSEC
  0
SECTION
  2
ENTITIES
0
LINE
8
BLACK
6
CONTINUOUS
10
-1.65
20
-2.15
11
-3.25
21
-2.15
0
LINE
8
BLACK
6
CONTINUOUS
10
-3.25
20
-2.15
11
-3.25
21
-1.9
0
LINE
8
BLACK
6
CONTINUOUS
10
-3.25
20
-1.9
11
-3.9585
21
-1.9
0
LINE
8
BLACK
6
CONTINUOUS
10
-3.9585
20
-1.9
11
-3.97639
21
-1.93511
0
LINE
8
BLACK
6
CONTINUOUS
10
-3.97639
20
-1.93511
11
-4.06489
21
-2.02361
0
LINE
8
BLACK
6
CONTINUOUS
10
-4.06489
20
-2.02361
11
-4.17639
21
-2.08042
0
LINE
8
BLACK
6
CONTINUOUS
10
-4.17639
20
-2.08042
11
-4.3
21
-2.1
0
LINE
8
BLACK
6
CONTINUOUS
10
-4.3
20
-2.1
11
-4.42361
21
-2.08042
0
LINE
8
BLACK
6
CONTINUOUS
10
-4.42361
20
-2.08042
11
-4.53511
21
-2.02361
0
LINE
8
BLACK
6
CONTINUOUS
10
-4.53511
20
-2.02361
11
-4.62361
21
-1.93511
0
LINE
8
BLACK
6
CONTINUOUS
10
-4.62361
20
-1.93511
11
-4.68042
21
-1.82361
0
LINE
8
BLACK
6
CONTINUOUS
10
-4.68042
20
-1.82361
11
-4.7
21
-1.7
0
LINE
8
BLACK
6
CONTINUOUS
10
-4.7
20
-1.7
11
-4.68042
21
-1.57639
0
LINE
8
BLACK
6
CONTINUOUS
10
-4.68042
20
-1.57639
11
-4.62361
21
-1.46489
0
LINE
8
BLACK
6
CONTINUOUS
10
-4.62361
20
-1.46489
11
-4.53511
21
-1.37639
0
LINE
8
BLACK
6
CONTINUOUS
10
-4.53511
20
-1.37639
11
-4.42361
21
-1.31958
0
LINE
8
BLACK
6
CONTINUOUS
10
-4.42361
20
-1.31958
11
-4.3
21
-1.3
0
LINE
8
BLACK
6
CONTINUOUS
10
-4.3
20
-1.3
11
-4.17639
21
-1.31958
0
LINE
8
BLACK
6
CONTINUOUS
10
-4.17639
20
-1.31958
11
-4.06489
21
-1.37639
0
LINE
8
BLACK
6
CONTINUOUS
10
-4.06489
20
-1.37639
11
-3.97639
21
-1.46489
0
LINE
8
BLACK
6
CONTINUOUS
10
-3.97639
20
-1.46489
11
-3.9585
21
-1.5
0
LINE
8
BLACK
6
CONTINUOUS
10
-3.9585
20
-1.5
11
-3.25
21
-1.5
0
LINE
8
BLACK
6
CONTINUOUS
10
-3.25
20
-1.5
11
-3.25
21
-1.15
0
LINE
8
BLACK
6
CONTINUOUS
10
-3.25
20
-1.15
11
-1.65
21
-1.15
0
LINE
8
BLACK
6
CONTINUOUS
10
-1.65
20
-1.15
11
-1.65
21
-2.15
0
LINE
8
BLACK
6
CONTINUOUS
10
4.62361
20
-0.819577
11
4.73511
21
-0.876393
0
LINE
8
BLACK
6
CONTINUOUS
10
4.73511
20
-0.876393
11
4.82361
21
-0.964886
0
LINE
8
BLACK
6
CONTINUOUS
10
4.82361
20
-0.964886
11
4.88042
21
-1.07639
0
LINE
8
BLACK
6
CONTINUOUS
10
4.88042
20
-1.07639
11
4.9
21
-1.2
0
LINE
8
BLACK
6
CONTINUOUS
10
4.9
20
-1.2
11
4.88042
21
-1.32361
0
LINE
8
BLACK
6
CONTINUOUS
10
4.88042
20
-1.32361
11
4.82361
21
-1.43511
0
LINE
8
BLACK
6
CONTINUOUS
10
4.82361
20
-1.43511
11
4.73511
21
-1.52361
0
LINE
8
BLACK
6
CONTINUOUS
10
4.73511
20
-1.52361
11
4.62361
21
-1.58042
0
LINE
8
BLACK
6
CONTINUOUS
10
4.62361
20
-1.58042
11
4.5
21
-1.6
0
LINE
8
BLACK
6
CONTINUOUS
10
4.5
20
-1.6
11
4.39886
21
-1.58398
0
LINE
8
BLACK
6
CONTINUOUS
10
4.39886
20
-1.58398
11
4.14117
21
-1.84167
0
LINE
8
BLACK
6
CONTINUOUS
10
4.14117
20
-1.84167
11
4.11286
21
-1.8594
0
LINE
8
BLACK
6
CONTINUOUS
10
4.11286
20
-1.8594
11
4.08673
21
-1.88021
0
LINE
8
BLACK
6
CONTINUOUS
10
4.08673
20
-1.88021
11
4.07552
21
-1.88277
0
LINE
8
BLACK
6
CONTINUOUS
10
4.07552
20
-1.88277
11
4.06577
21
-1.88887
0
LINE
8
BLACK
6
CONTINUOUS
10
4.06577
20
-1.88887
11
4.03257
21
-1.89257
0
LINE
8
BLACK
6
CONTINUOUS
10
4.03257
20
-1.89257
11
4
21
-1.9
0
LINE
8
BLACK
6
CONTINUOUS
10
4
20
-1.9
11
3.25
21
-1.9
0
LINE
8
BLACK
6
CONTINUOUS
10
3.25
20
-1.9
11
3.25
21
-2.15
0
LINE
8
BLACK
6
CONTINUOUS
10
3.25
20
-2.15
11
1.65
21
-2.15
0
LINE
8
BLACK
6
CONTINUOUS
10
1.65
20
-2.15
11
1.65
21
-1.15
0
LINE
8
BLACK
6
CONTINUOUS
10
1.65
20
-1.15
11
3.25
21
-1.15
0
LINE
8
BLACK
6
CONTINUOUS
10
3.25
20
-1.15
11
3.25
21
-1.5
0
LINE
8
BLACK
6
CONTINUOUS
10
3.25
20
-1.5
11
3.91716
21
-1.5
0
LINE
8
BLACK
6
CONTINUOUS
10
3.91716
20
-1.5
11
4.11602
21
-1.30114
0
LINE
8
BLACK
6
CONTINUOUS
10
4.11602
20
-1.30114
11
4.1
21
-1.2
0
LINE
8
BLACK
6
CONTINUOUS
10
4.1
20
-1.2
11
4.11958
21
-1.07639
0
LINE
8
BLACK
6
CONTINUOUS
10
4.11958
20
-1.07639
11
4.17639
21
-0.964886
0
LINE
8
BLACK
6
CONTINUOUS
10
4.17639
20
-0.964886
11
4.26489
21
-0.876393
0
LINE
8
BLACK
6
CONTINUOUS
10
4.26489
20
-0.876393
11
4.37639
21
-0.819577
0
LINE
8
BLACK
6
CONTINUOUS
10
4.37639
20
-0.819577
11
4.5
21
-0.8
0
LINE
8
BLACK
6
CONTINUOUS
10
4.5
20
-0.8
11
4.62361
21
-0.819577
0
LINE
8
BLACK
6
CONTINUOUS
10
-3.87639
20
0.980423
11
-3.76489
21
0.923607
0
LINE
8
BLACK
6
CONTINUOUS
10
-3.76489
20
0.923607
11
-3.67639
21
0.835114
0
LINE
8
BLACK
6
CONTINUOUS
10
-3.67639
20
0.835114
11
-3.61958
21
0.723607
0
LINE
8
BLACK
6
CONTINUOUS
10
-3.61958
20
0.723607
11
-3.6
21
0.6
0
LINE
8
BLACK
6
CONTINUOUS
10
-3.6
20
0.6
11
-3.61958
21
0.476393
0
LINE
8
BLACK
6
CONTINUOUS
10
-3.61958
20
0.476393
11
-3.67639
21
0.364886
0
LINE
8
BLACK
6
CONTINUOUS
10
-3.67639
20
0.364886
11
-3.76489
21
0.276393
0
LINE
8
BLACK
6
CONTINUOUS
10
-3.76489
20
0.276393
11
-3.78387
21
0.266717
0
LINE
8
BLACK
6
CONTINUOUS
10
-3.78387
20
0.266717
11
-3.71716
21
0.2
0
LINE
8
BLACK
6
CONTINUOUS
10
-3.71716
20
0.2
11
-3.25
21
0.2
0
LINE
8
BLACK
6
CONTINUOUS
10
-3.25
20
0.2
11
-3.25
21
0.5
0
LINE
8
BLACK
6
CONTINUOUS
10
-3.25
20
0.5
11
-1.65
21
0.5
0
LINE
8
BLACK
6
CONTINUOUS
10
-1.65
20
0.5
11
-1.65
21
-0.5
0
LINE
8
BLACK
6
CONTINUOUS
10
-1.65
20
-0.5
11
-3.25
21
-0.5
0
LINE
8
BLACK
6
CONTINUOUS
10
-3.25
20
-0.5
11
-3.25
21
-0.2
0
LINE
8
BLACK
6
CONTINUOUS
10
-3.25
20
-0.2
11
-3.80035
21
-0.2
0
LINE
8
BLACK
6
CONTINUOUS
10
-3.80035
20
-0.2
11
-3.83291
21
-0.192513
0
LINE
8
BLACK
6
CONTINUOUS
10
-3.83291
20
-0.192513
11
-3.8661
21
-0.18876
0
LINE
8
BLACK
6
CONTINUOUS
10
-3.8661
20
-0.18876
11
-3.87584
21
-0.182641
0
LINE
8
BLACK
6
CONTINUOUS
10
-3.87584
20
-0.182641
11
-3.88705
21
-0.180064
0
LINE
8
BLACK
6
CONTINUOUS
10
-3.88705
20
-0.180064
11
-3.91314
21
-0.159198
0
LINE
8
BLACK
6
CONTINUOUS
10
-3.91314
20
-0.159198
11
-3.94142
21
-0.141422
0
LINE
8
BLACK
6
CONTINUOUS
10
-3.94142
20
-0.141422
11
-4.14167
21
0.058825
0
LINE
8
BLACK
6
CONTINUOUS
10
-4.14167
20
0.058825
11
-4.1594
21
0.087144
0
LINE
8
BLACK
6
CONTINUOUS
10
-4.1594
20
0.087144
11
-4.18021
21
0.113268
0
LINE
8
BLACK
6
CONTINUOUS
10
-4.18021
20
0.113268
11
-4.18277
21
0.124479
0
LINE
8
BLACK
6
CONTINUOUS
10
-4.18277
20
0.124479
11
-4.18887
21
0.134226
0
LINE
8
BLACK
6
CONTINUOUS
10
-4.18887
20
0.134226
11
-4.19257
21
0.167431
0
LINE
8
BLACK
6
CONTINUOUS
10
-4.19257
20
0.167431
11
-4.2
21
0.2
0
LINE
8
BLACK
6
CONTINUOUS
10
-4.2
20
0.2
11
-4.2
21
0.258501
0
LINE
8
BLACK
6
CONTINUOUS
10
-4.2
20
0.258501
11
-4.23511
21
0.276393
0
LINE
8
BLACK
6
CONTINUOUS
10
-4.23511
20
0.276393
11
-4.32361
21
0.364886
0
LINE
8
BLACK
6
CONTINUOUS
10
-4.32361
20
0.364886
11
-4.38042
21
0.476393
0
LINE
8
BLACK
6
CONTINUOUS
10
-4.38042
20
0.476393
11
-4.4
21
0.6
0
LINE
8
BLACK
6
CONTINUOUS
10
-4.4
20
0.6
11
-4.38042
21
0.723607
0
LINE
8
BLACK
6
CONTINUOUS
10
-4.38042
20
0.723607
11
-4.32361
21
0.835114
0
LINE
8
BLACK
6
CONTINUOUS
10
-4.32361
20
0.835114
11
-4.23511
21
0.923607
0
LINE
8
BLACK
6
CONTINUOUS
10
-4.23511
20
0.923607
11
-4.12361
21
0.980423
0
LINE
8
BLACK
6
CONTINUOUS
10
-4.12361
20
0.980423
11
-4
21
1
0
LINE
8
BLACK
6
CONTINUOUS
10
-4
20
1
11
-3.87639
21
0.980423
0
LINE
8
BLACK
6
CONTINUOUS
10
4.96687
20
0.568543
11
5.07838
21
0.511727
0
LINE
8
BLACK
6
CONTINUOUS
10
5.07838
20
0.511727
11
5.16687
21
0.423234
0
LINE
8
BLACK
6
CONTINUOUS
10
5.16687
20
0.423234
11
5.22369
21
0.311727
0
LINE
8
BLACK
6
CONTINUOUS
10
5.22369
20
0.311727
11
5.24327
21
0.18812
0
LINE
8
BLACK
6
CONTINUOUS
10
5.24327
20
0.18812
11
5.22369
21
0.064513
0
LINE
8
BLACK
6
CONTINUOUS
10
5.22369
20
0.064513
11
5.16687
21
-0.046994
0
LINE
8
BLACK
6
CONTINUOUS
10
5.16687
20
-0.046994
11
5.07838
21
-0.135487
0
LINE
8
BLACK
6
CONTINUOUS
10
5.07838
20
-0.135487
11
4.96687
21
-0.192303
0
LINE
8
BLACK
6
CONTINUOUS
10
4.96687
20
-0.192303
11
4.84327
21
-0.21188
0
LINE
8
BLACK
6
CONTINUOUS
10
4.84327
20
-0.21188
11
4.71966
21
-0.192303
0
LINE
8
BLACK
6
CONTINUOUS
10
4.71966
20
-0.192303
11
4.71436
21
-0.189605
0
LINE
8
BLACK
6
CONTINUOUS
10
4.71436
20
-0.189605
11
4.68771
21
-0.192571
0
LINE
8
BLACK
6
CONTINUOUS
10
4.68771
20
-0.192571
11
4.65515
21
-0.2
0
LINE
8
BLACK
6
CONTINUOUS
10
4.65515
20
-0.2
11
3.25
21
-0.2
0
LINE
8
BLACK
6
CONTINUOUS
10
3.25
20
-0.2
11
3.25
21
-0.5
0
LINE
8
BLACK
6
CONTINUOUS
10
3.25
20
-0.5
11
1.65
21
-0.5
0
LINE
8
BLACK
6
CONTINUOUS
10
1.65
20
-0.5
11
1.65
21
0.5
0
LINE
8
BLACK
6
CONTINUOUS
10
1.65
20
0.5
11
3.25
21
0.5
0
LINE
8
BLACK
6
CONTINUOUS
10
3.25
20
0.5
11
3.25
21
0.2
0
LINE
8
BLACK
6
CONTINUOUS
10
3.25
20
0.2
11
4.44515
21
0.2
0
LINE
8
BLACK
6
CONTINUOUS
10
4.44515
20
0.2
11
4.46284
21
0.311727
0
LINE
8
BLACK
6
CONTINUOUS
10
4.46284
20
0.311727
11
4.51966
21
0.423234
0
LINE
8
BLACK
6
CONTINUOUS
10
4.51966
20
0.423234
11
4.60815
21
0.511727
0
LINE
8
BLACK
6
CONTINUOUS
10
4.60815
20
0.511727
11
4.71966
21
0.568543
0
LINE
8
BLACK
6
CONTINUOUS
10
4.71966
20
0.568543
11
4.84327
21
0.58812
0
LINE
8
BLACK
6
CONTINUOUS
10
4.84327
20
0.58812
11
4.96687
21
0.568543
0
LINE
8
BLACK
6
CONTINUOUS
10
3.25
20
1.15
11
1.65
21
1.15
0
LINE
8
BLACK
6
CONTINUOUS
10
1.65
20
1.15
11
1.65
21
1.21967
0
LINE
8
BLACK
6
CONTINUOUS
10
1.65
20
1.21967
11
1.3531
21
0.922771
0
LINE
8
BLACK
6
CONTINUOUS
10
1.3531
20
0.922771
11
1.32361
21
0.864886
0
LINE
8
BLACK
6
CONTINUOUS
10
1.32361
20
0.864886
11
1.23511
21
0.776393
0
LINE
8
BLACK
6
CONTINUOUS
10
1.23511
20
0.776393
11
1.12361
21
0.719577
0
LINE
8
BLACK
6
CONTINUOUS
10
1.12361
20
0.719577
11
1
21
0.7
0
LINE
8
BLACK
6
CONTINUOUS
10
1
20
0.7
11
0.876393
21
0.719577
0
LINE
8
BLACK
6
CONTINUOUS
10
0.876393
20
0.719577
11
0.764886
21
0.776393
0
LINE
8
BLACK
6
CONTINUOUS
10
0.764886
20
0.776393
11
0.676393
21
0.864886
0
LINE
8
BLACK
6
CONTINUOUS
10
0.676393
20
0.864886
11
0.619577
21
0.976393
0
LINE
8
BLACK
6
CONTINUOUS
10
0.619577
20
0.976393
11
0.6
21
1.1
0
LINE
8
BLACK
6
CONTINUOUS
10
0.6
20
1.1
11
0.619577
21
1.22361
0
LINE
8
BLACK
6
CONTINUOUS
10
0.619577
20
1.22361
11
0.676393
21
1.33511
0
LINE
8
BLACK
6
CONTINUOUS
10
0.676393
20
1.33511
11
0.764886
21
1.42361
0
LINE
8
BLACK
6
CONTINUOUS
10
0.764886
20
1.42361
11
0.822771
21
1.4531
0
LINE
8
BLACK
6
CONTINUOUS
10
0.822771
20
1.4531
11
1.28483
21
1.91517
0
LINE
8
BLACK
6
CONTINUOUS
10
1.28483
20
1.91517
11
1.31415
21
1.93981
0
LINE
8
BLACK
6
CONTINUOUS
10
1.31415
20
1.93981
11
1.32016
21
1.94631
0
LINE
8
BLACK
6
CONTINUOUS
10
1.32016
20
1.94631
11
1.32497
21
1.9489
0
LINE
8
BLACK
6
CONTINUOUS
10
1.32497
20
1.9489
11
1.33437
21
1.95681
0
LINE
8
BLACK
6
CONTINUOUS
10
1.33437
20
1.95681
11
1.38202
21
1.97969
0
LINE
8
BLACK
6
CONTINUOUS
10
1.38202
20
1.97969
11
1.42853
21
2.00478
0
LINE
8
BLACK
6
CONTINUOUS
10
1.42853
20
2.00478
11
1.43733
21
2.00625
0
LINE
8
BLACK
6
CONTINUOUS
10
1.43733
20
2.00625
11
1.44538
21
2.01011
0
LINE
8
BLACK
6
CONTINUOUS
10
1.44538
20
2.01011
11
1.49787
21
2.01632
0
LINE
8
BLACK
6
CONTINUOUS
10
1.49787
20
2.01632
11
1.55
21
2.025
0
LINE
8
BLACK
6
CONTINUOUS
10
1.55
20
2.025
11
1.65
21
2.025
0
LINE
8
BLACK
6
CONTINUOUS
10
1.65
20
2.025
11
1.65
21
2.15
0
LINE
8
BLACK
6
CONTINUOUS
10
1.65
20
2.15
11
3.25
21
2.15
0
LINE
8
BLACK
6
CONTINUOUS
10
3.25
20
2.15
11
3.25
21
1.15
0
LINE
8
BLACK
6
CONTINUOUS
10
-1.65
20
2.025
11
-1.25
21
2.025
0
LINE
8
BLACK
6
CONTINUOUS
10
-1.25
20
2.025
11
-1.21185
21
2.02169
0
LINE
8
BLACK
6
CONTINUOUS
10
-1.21185
20
2.02169
11
-1.203
21
2.02204
0
LINE
8
BLACK
6
CONTINUOUS
10
-1.203
20
2.02204
11
-1.19776
21
2.02047
0
LINE
8
BLACK
6
CONTINUOUS
10
-1.19776
20
2.02047
11
-1.18553
21
2.01942
0
LINE
8
BLACK
6
CONTINUOUS
10
-1.18553
20
2.01942
11
-1.13566
21
2.0019
0
LINE
8
BLACK
6
CONTINUOUS
10
-1.13566
20
2.0019
11
-1.08502
21
1.98676
0
LINE
8
BLACK
6
CONTINUOUS
10
-1.08502
20
1.98676
11
-1.07776
21
1.98157
0
LINE
8
BLACK
6
CONTINUOUS
10
-1.07776
20
1.98157
11
-1.06934
21
1.97862
0
LINE
8
BLACK
6
CONTINUOUS
10
-1.06934
20
1.97862
11
-1.02783
21
1.94589
0
LINE
8
BLACK
6
CONTINUOUS
10
-1.02783
20
1.94589
11
-0.984835
21
1.91517
0
LINE
8
BLACK
6
CONTINUOUS
10
-0.984835
20
1.91517
11
-0.922771
21
1.8531
0
LINE
8
BLACK
6
CONTINUOUS
10
-0.922771
20
1.8531
11
-0.864886
21
1.82361
0
LINE
8
BLACK
6
CONTINUOUS
10
-0.864886
20
1.82361
11
-0.776393
21
1.73511
0
LINE
8
BLACK
6
CONTINUOUS
10
-0.776393
20
1.73511
11
-0.719577
21
1.62361
0
LINE
8
BLACK
6
CONTINUOUS
10
-0.719577
20
1.62361
11
-0.7
21
1.5
0
LINE
8
BLACK
6
CONTINUOUS
10
-0.7
20
1.5
11
-0.719577
21
1.37639
0
LINE
8
BLACK
6
CONTINUOUS
10
-0.719577
20
1.37639
11
-0.776393
21
1.26489
0
LINE
8
BLACK
6
CONTINUOUS
10
-0.776393
20
1.26489
11
-0.864886
21
1.17639
0
LINE
8
BLACK
6
CONTINUOUS
10
-0.864886
20
1.17639
11
-0.976393
21
1.11958
0
LINE
8
BLACK
6
CONTINUOUS
10
-0.976393
20
1.11958
11
-1.1
21
1.1
0
LINE
8
BLACK
6
CONTINUOUS
10
-1.1
20
1.1
11
-1.22361
21
1.11958
0
LINE
8
BLACK
6
CONTINUOUS
10
-1.22361
20
1.11958
11
-1.33511
21
1.17639
0
LINE
8
BLACK
6
CONTINUOUS
10
-1.33511
20
1.17639
11
-1.42361
21
1.26489
0
LINE
8
BLACK
6
CONTINUOUS
10
-1.42361
20
1.26489
11
-1.42876
21
1.275
0
LINE
8
BLACK
6
CONTINUOUS
10
-1.42876
20
1.275
11
-1.65
21
1.275
0
LINE
8
BLACK
6
CONTINUOUS
10
-1.65
20
1.275
11
-1.65
21
1.15
0
LINE
8
BLACK
6
CONTINUOUS
10
-1.65
20
1.15
11
-3.25
21
1.15
0
LINE
8
BLACK
6
CONTINUOUS
10
-3.25
20
1.15
11
-3.25
21
2.15
0
LINE
8
BLACK
6
CONTINUOUS
10
-3.25
20
2.15
11
-1.65
21
2.15
0
LINE
8
BLACK
6
CONTINUOUS
10
-1.65
20
2.15
11
-1.65
21
2.025
0
CIRCLE
8
BLACK
10
-1.1
20
1.5
40
0.2
0
CIRCLE
8
BLACK
10
1
20
1.1
40
0.2
0
CIRCLE
8
BLACK
10
4.84327
20
0.18812
40
0.2
0
CIRCLE
8
BLACK
10
4.5
20
-1.2
40
0.2
0
CIRCLE
8
BLACK
10
-4.3
20
-1.7
40
0.2
0
CIRCLE
8
BLACK
10
-4
20
0.6
40
0.2
  0
ENDSEC
  0
EOF
