  0
SECTION
  2
HEADER
  9
$ANGBASE
  50
0.0
  9
$ANGDIR
  70
1
  9
$MEASUREMENT
  70
1
  0
ENDSEC
  0
SECTION
  2
TABLES
  0
TABLE
  2
LTYPE
  70
4
  0
LTYPE
  5
40F
  2
CONTINUOUS
  70
0
  3
Solid line
  72
65
  73
0
  40
0.0
  0
LTYPE
  5
410
  2
DASHDOT
 70
0
  3
Dash Dot ____ _ ____ _
 72
65
 73
4
 40
2.0
 49
1.25
 49
-0.25
 49
0.25
 49
-0.25
  0
LTYPE
  5
411
  2
DASHED
 70
0
  3
Dashed __ __ __ __ __
 72
65
 73
2
 40
0.75
 49
0.5
 49
-0.25
  0
LTYPE
  5
43B
  2
DOTTED
 70
0
  3
Dotted .  .  .  .
 72
65
 73
2
 40
0.2
 49
0.0
 49
-0.2
  0
ENDTAB
  0
TABLE
  2
STYLE
  70
4
  0
STYLE
  2
KICAD
  70
0
  40
0
  41
1
  42
1
  50
0
  71
0
  3
isocp.shx
  0
STYLE
  2
KICADB
  70
0
  40
0
  41
1
  42
1
  50
0
  71
0
  3
isocp.shx
  0
STYLE
  2
KICADI
  70
0
  40
0
  41
1
  42
1
  50
15
  71
0
  3
isocp.shx
  0
STYLE
  2
KICADBI
  70
0
  40
0
  41
1
  42
1
  50
15
  71
0
  3
isocp.shx
  0
ENDTAB
  0
TABLE
  2
LAYER
  70
1
  0
LAYER
  2
BLACK
  70
0
  62
7
  6
CONTINUOUS
  0
ENDTAB
  0
ENDSEC
  0
SECTION
  2
ENTITIES
0
LINE
8
BLACK
6
CONTINUOUS
10
-2.6
20
-8.5
11
-2.15
21
-8.5
0
LINE
8
BLACK
6
CONTINUOUS
10
-2.15
20
-8.5
11
-2.15
21
-10.4
0
LINE
8
BLACK
6
CONTINUOUS
10
-2.15
20
-10.4
11
-2.6
21
-10.4
0
LINE
8
BLACK
6
CONTINUOUS
10
-2.6
20
-10.4
11
-2.6
21
-11.45
0
LINE
8
BLACK
6
CONTINUOUS
10
-2.6
20
-11.45
11
-4.1
21
-11.45
0
LINE
8
BLACK
6
CONTINUOUS
10
-4.1
20
-11.45
11
-4.1
21
-8.05
0
LINE
8
BLACK
6
CONTINUOUS
10
-4.1
20
-8.05
11
-2.6
21
-8.05
0
LINE
8
BLACK
6
CONTINUOUS
10
-2.6
20
-8.05
11
-2.6
21
-8.5
0
LINE
8
BLACK
6
CONTINUOUS
10
4.1
20
-11.45
11
2.6
21
-11.45
0
LINE
8
BLACK
6
CONTINUOUS
10
2.6
20
-11.45
11
2.6
21
-10.4
0
LINE
8
BLACK
6
CONTINUOUS
10
2.6
20
-10.4
11
2.15
21
-10.4
0
LINE
8
BLACK
6
CONTINUOUS
10
2.15
20
-10.4
11
2.15
21
-8.5
0
LINE
8
BLACK
6
CONTINUOUS
10
2.15
20
-8.5
11
2.6
21
-8.5
0
LINE
8
BLACK
6
CONTINUOUS
10
2.6
20
-8.5
11
2.6
21
-8.05
0
LINE
8
BLACK
6
CONTINUOUS
10
2.6
20
-8.05
11
4.1
21
-8.05
0
LINE
8
BLACK
6
CONTINUOUS
10
4.1
20
-8.05
11
4.1
21
-11.45
0
LINE
8
BLACK
6
CONTINUOUS
10
-0.5
20
-4.6
11
-0.4
21
-4.6
0
LINE
8
BLACK
6
CONTINUOUS
10
-0.4
20
-4.6
11
-0.4
21
-7.1
0
LINE
8
BLACK
6
CONTINUOUS
10
-0.4
20
-7.1
11
-1.1
21
-7.1
0
LINE
8
BLACK
6
CONTINUOUS
10
-1.1
20
-7.1
11
-1.1
21
-5.75
0
LINE
8
BLACK
6
CONTINUOUS
10
-1.1
20
-5.75
11
-1.5
21
-5.75
0
LINE
8
BLACK
6
CONTINUOUS
10
-1.5
20
-5.75
11
-1.5
21
-2.25
0
LINE
8
BLACK
6
CONTINUOUS
10
-1.5
20
-2.25
11
-0.5
21
-2.25
0
LINE
8
BLACK
6
CONTINUOUS
10
-0.5
20
-2.25
11
-0.5
21
-4.6
0
LINE
8
BLACK
6
CONTINUOUS
10
1.5
20
-5.75
11
1.1
21
-5.75
0
LINE
8
BLACK
6
CONTINUOUS
10
1.1
20
-5.75
11
1.1
21
-7.1
0
LINE
8
BLACK
6
CONTINUOUS
10
1.1
20
-7.1
11
0.4
21
-7.1
0
LINE
8
BLACK
6
CONTINUOUS
10
0.4
20
-7.1
11
0.4
21
-4.6
0
LINE
8
BLACK
6
CONTINUOUS
10
0.4
20
-4.6
11
0.5
21
-4.6
0
LINE
8
BLACK
6
CONTINUOUS
10
0.5
20
-4.6
11
0.5
21
-2.25
0
LINE
8
BLACK
6
CONTINUOUS
10
0.5
20
-2.25
11
1.5
21
-2.25
0
LINE
8
BLACK
6
CONTINUOUS
10
1.5
20
-2.25
11
1.5
21
-5.75
0
LINE
8
BLACK
6
CONTINUOUS
10
6.69878
20
2.59737
11
4.53372
21
1.34737
0
LINE
8
BLACK
6
CONTINUOUS
10
4.53372
20
1.34737
11
4.18372
21
1.95359
0
LINE
8
BLACK
6
CONTINUOUS
10
4.18372
20
1.95359
11
6.34878
21
3.20359
0
LINE
8
BLACK
6
CONTINUOUS
10
6.34878
20
3.20359
11
6.69878
21
2.59737
0
LINE
8
BLACK
6
CONTINUOUS
10
-4.18372
20
1.95359
11
-4.53372
21
1.34737
0
LINE
8
BLACK
6
CONTINUOUS
10
-4.53372
20
1.34737
11
-6.69878
21
2.59737
0
LINE
8
BLACK
6
CONTINUOUS
10
-6.69878
20
2.59737
11
-6.34878
21
3.20359
0
LINE
8
BLACK
6
CONTINUOUS
10
-6.34878
20
3.20359
11
-4.18372
21
1.95359
0
LINE
8
BLACK
6
CONTINUOUS
10
10.6317
20
2.38542
11
8.98622
21
1.43542
0
LINE
8
BLACK
6
CONTINUOUS
10
8.98622
20
1.43542
11
8.43622
21
2.38804
0
LINE
8
BLACK
6
CONTINUOUS
10
8.43622
20
2.38804
11
10.0817
21
3.33804
0
LINE
8
BLACK
6
CONTINUOUS
10
10.0817
20
3.33804
11
10.6317
21
2.38542
0
LINE
8
BLACK
6
CONTINUOUS
10
-8.43622
20
2.38804
11
-8.98622
21
1.43542
0
LINE
8
BLACK
6
CONTINUOUS
10
-8.98622
20
1.43542
11
-10.6317
21
2.38542
0
LINE
8
BLACK
6
CONTINUOUS
10
-10.6317
20
2.38542
11
-10.0817
21
3.33804
0
LINE
8
BLACK
6
CONTINUOUS
10
-10.0817
20
3.33804
11
-8.43622
21
2.38804
0
LINE
8
BLACK
6
CONTINUOUS
10
5.94878
20
3.89641
11
3.78372
21
2.64641
0
LINE
8
BLACK
6
CONTINUOUS
10
3.78372
20
2.64641
11
3.43372
21
3.25263
0
LINE
8
BLACK
6
CONTINUOUS
10
3.43372
20
3.25263
11
5.59878
21
4.50263
0
LINE
8
BLACK
6
CONTINUOUS
10
5.59878
20
4.50263
11
5.94878
21
3.89641
0
LINE
8
BLACK
6
CONTINUOUS
10
-3.43372
20
3.25263
11
-3.78372
21
2.64641
0
LINE
8
BLACK
6
CONTINUOUS
10
-3.78372
20
2.64641
11
-5.94878
21
3.89641
0
LINE
8
BLACK
6
CONTINUOUS
10
-5.94878
20
3.89641
11
-5.59878
21
4.50263
0
LINE
8
BLACK
6
CONTINUOUS
10
-5.59878
20
4.50263
11
-3.43372
21
3.25263
0
LINE
8
BLACK
6
CONTINUOUS
10
7.93166
20
7.06195
11
6.28622
21
6.11196
0
LINE
8
BLACK
6
CONTINUOUS
10
6.28622
20
6.11196
11
5.73622
21
7.06458
0
LINE
8
BLACK
6
CONTINUOUS
10
5.73622
20
7.06458
11
7.38166
21
8.01458
0
LINE
8
BLACK
6
CONTINUOUS
10
7.38166
20
8.01458
11
7.93166
21
7.06195
0
LINE
8
BLACK
6
CONTINUOUS
10
-5.73622
20
7.06458
11
-6.28622
21
6.11196
0
LINE
8
BLACK
6
CONTINUOUS
10
-6.28622
20
6.11196
11
-7.93166
21
7.06195
0
LINE
8
BLACK
6
CONTINUOUS
10
-7.93166
20
7.06195
11
-7.38166
21
8.01458
0
LINE
8
BLACK
6
CONTINUOUS
10
-7.38166
20
8.01458
11
-5.73622
21
7.06458
  0
ENDSEC
  0
EOF
