<?xml version='1.0' encoding='ASCII' standalone='yes'?>
<svg xmlns:svg="http://www.w3.org/2000/svg" xmlns="http://www.w3.org/2000/svg" xmlns:xlink="http://www.w3.org/1999/xlink" version="1.1" width="29.700220cm" height="21.000720cm" viewBox="0 0 297002200 210007200">
<title>SVG Picture created as MateLightScrewCap-B_Cu.svg date 2022/10/08 15:42:53 </title>
  <desc>Picture generated by PCBNEW </desc>
<g style="fill:#2626FD; fill-opacity:1.000000;stroke:#2626FD; stroke-opacity:1.000000; stroke-linecap:round; stroke-linejoin:round;" transform="translate(0 0) scale(1 1)">
</g>
<g style="fill:#2626FD; fill-opacity:0.0;  stroke:#2626FD; stroke-width:0.000000; stroke-opacity:1;  stroke-linecap:round; stroke-linejoin:round;">
<g>
</g>
<g>
</g>
<g>
</g>
<g>
</g>
<g>
</g>
<g style="fill:#2626FD; fill-opacity:0.0;  stroke:#2626FD; stroke-width:0.000000; stroke-opacity:1;  stroke-linecap:round; stroke-linejoin:round;">
</g>
<g style="fill:#2626FD; fill-opacity:0.0;  stroke:#2626FD; stroke-width:7.578103; stroke-opacity:1;  stroke-linecap:round; stroke-linejoin:round;">
</g>
<g style="fill:#2626FD; fill-opacity:1.0;  stroke:#2626FD; stroke-width:7.578103; stroke-opacity:1;  stroke-linecap:round; stroke-linejoin:round;">
<path style="fill:#2626FD; fill-opacity:1.0;  stroke:#2626FD; stroke-width:7.578103; stroke-opacity:1;  stroke-linecap:round; stroke-linejoin:round;fill-rule:evenodd;" d="M 161004971.492564,100034554.343693 161004971.492564,107612656.975885 173129935.704072,107612656.975885 173129935.704072,100034554.343693 Z"/> 
<path style="fill:#2626FD; fill-opacity:1.0;  stroke:#2626FD; stroke-width:7.578103; stroke-opacity:1;  stroke-linecap:round; stroke-linejoin:round;fill-rule:evenodd;" d="M 161004971.492564,87530685.000575 161004971.492564,95108787.632767 173129935.704072,95108787.632767 173129935.704072,87530685.000575 Z"/> 
<path style="fill:#2626FD; fill-opacity:1.0;  stroke:#2626FD; stroke-width:7.578103; stroke-opacity:1;  stroke-linecap:round; stroke-linejoin:round;fill-rule:evenodd;" d="M 161004971.492564,75026815.657457 161004971.492564,82604918.289650 173129935.704072,82604918.289650 173129935.704072,75026815.657457 Z"/> 
<path style="fill:#2626FD; fill-opacity:1.0;  stroke:#2626FD; stroke-width:7.578103; stroke-opacity:1;  stroke-linecap:round; stroke-linejoin:round;fill-rule:evenodd;" d="M 123872268.594820,100034554.343693 123872268.594820,107612656.975885 135997232.806328,107612656.975885 135997232.806328,100034554.343693 Z"/> 
<path style="fill:#2626FD; fill-opacity:1.0;  stroke:#2626FD; stroke-width:7.578103; stroke-opacity:1;  stroke-linecap:round; stroke-linejoin:round;fill-rule:evenodd;" d="M 123872268.594820,87530685.000575 123872268.594820,95108787.632767 135997232.806328,95108787.632767 135997232.806328,87530685.000575 Z"/> 
<path style="fill:#2626FD; fill-opacity:1.0;  stroke:#2626FD; stroke-width:7.578103; stroke-opacity:1;  stroke-linecap:round; stroke-linejoin:round;fill-rule:evenodd;" d="M 123872268.594820,75026815.657457 123872268.594820,82604918.289650 135997232.806328,82604918.289650 135997232.806328,75026815.657457 Z"/> 
</g>
<g>
</g>
<g style="fill:#2626FD; fill-opacity:1.0;  stroke:#2626FD; stroke-width:7.578103; stroke-opacity:1;  stroke-linecap:round; stroke-linejoin:round;">
<circle cx="156837015.044858" cy="79952582.368382" r="3031241.052877"/> 
</g>
<g style="fill:#2626FD; fill-opacity:1.0;  stroke:#2626FD; stroke-width:160655.775802; stroke-opacity:1;  stroke-linecap:round; stroke-linejoin:round;">
</g>
<g style="fill:#2626FD; fill-opacity:1.0;  stroke:#2626FD; stroke-width:7.578103; stroke-opacity:1;  stroke-linecap:round; stroke-linejoin:round;">
<circle cx="140922999.517253" cy="82983823.421259" r="3031241.052877"/> 
</g>
<g style="fill:#2626FD; fill-opacity:1.0;  stroke:#2626FD; stroke-width:160655.775802; stroke-opacity:1;  stroke-linecap:round; stroke-linejoin:round;">
</g>
<g style="fill:#2626FD; fill-opacity:1.0;  stroke:#2626FD; stroke-width:7.578103; stroke-opacity:1;  stroke-linecap:round; stroke-linejoin:round;">
<circle cx="84845040.039028" cy="88288495.263794" r="3031241.052877"/> 
</g>
<g style="fill:#2626FD; fill-opacity:1.0;  stroke:#2626FD; stroke-width:160655.775802; stroke-opacity:1;  stroke-linecap:round; stroke-linejoin:round;">
</g>
<g style="fill:#2626FD; fill-opacity:1.0;  stroke:#2626FD; stroke-width:7.578103; stroke-opacity:1;  stroke-linecap:round; stroke-linejoin:round;">
<circle cx="84845040.039028" cy="99655649.212083" r="3031241.052877"/> 
</g>
<g style="fill:#2626FD; fill-opacity:1.0;  stroke:#2626FD; stroke-width:160655.775802; stroke-opacity:1;  stroke-linecap:round; stroke-linejoin:round;">
</g>
<g style="fill:#2626FD; fill-opacity:1.0;  stroke:#2626FD; stroke-width:7.578103; stroke-opacity:1;  stroke-linecap:round; stroke-linejoin:round;">
<circle cx="206852492.417329" cy="100413459.475302" r="3031241.052877"/> 
</g>
<g style="fill:#2626FD; fill-opacity:1.0;  stroke:#2626FD; stroke-width:160655.775802; stroke-opacity:1;  stroke-linecap:round; stroke-linejoin:round;">
</g>
<g style="fill:#2626FD; fill-opacity:1.0;  stroke:#2626FD; stroke-width:7.578103; stroke-opacity:1;  stroke-linecap:round; stroke-linejoin:round;">
<circle cx="215946215.575960" cy="87530685.000575" r="3031241.052877"/> 
</g>
<g style="fill:#2626FD; fill-opacity:1.0;  stroke:#2626FD; stroke-width:160655.775802; stroke-opacity:1;  stroke-linecap:round; stroke-linejoin:round;">
</g>
<g>
</g>
<g style="fill:#2626FD; fill-opacity:1.0;  stroke:#2626FD; stroke-width:160655.775802; stroke-opacity:1;  stroke-linecap:round; stroke-linejoin:round;">
</g>
<g style="fill:#2626FD; fill-opacity:1.0;  stroke:#2626FD; stroke-width:5683576.974144; stroke-opacity:1;  stroke-linecap:round; stroke-linejoin:round;">
</g>
<g style="fill:#2626FD; fill-opacity:0.0;  stroke:#2626FD; stroke-width:5683576.974144; stroke-opacity:1;  stroke-linecap:round; stroke-linejoin:round;">
<path d="M157973730 78815866 L156837015 79952582 "/>
<path d="M167067453 78815866 L157973730 78815866 "/>
<path d="M129934750 78815866 L136755043 78815866 "/>
<path d="M136755043 78815866 L140922999 82983823 "/>
</g>
<g style="fill:#2626FD; fill-opacity:0.0;  stroke:#2626FD; stroke-width:3031241.052877; stroke-opacity:1;  stroke-linecap:round; stroke-linejoin:round;">
<path d="M98485624 95157833 L98485624 93593167 "/>
<path d="M103032486 91319736 L103032486 95157833 "/>
<path d="M112126209 87481639 L112126209 89046305 "/>
<path d="M107579347 91319736 L107579347 87481639 "/>
<path d="M114399640 91319736 L123214292 91319736 "/>
<path d="M98485624 93593167 L98485624 87481639 "/>
<path d="M107579347 95157833 L107579347 91319736 "/>
<path d="M87876281 91319736 L91665332 91319736 "/>
<path d="M123214292 91319736 L129934750 91319736 "/>
<path d="M84845040 88288495 L87876281 91319736 "/>
<path d="M103032486 87481639 L103032486 91319736 "/>
<path d="M93938763 93593167 L93938763 95157833 "/>
<path d="M93938763.207561 95157833.113004 A2273430.789658 2273430.789658 0.0 0 0 96212193.987317 97431476.089534"/>
<path d="M93938763.197659 93593167.106329 A2273430.789658 2273430.789658 0.0 0 0 91665332.408001 91319736.316671"/>
<path d="M112125997.318146 87481639.500534 A2273218.602784 2273218.602784 0.0 0 0 109852778.725264 85208208.730682"/>
<path d="M103032486.356341 95157833.113003 A2273430.789658 2273430.789658 0.0 0 0 105305917.145948 97431248.746456"/>
<path d="M105305917.145948 97431263.902661 A2273218.602784 2273218.602784 0.0 0 0 107579135.738831 95157833.132808"/>
<path d="M103032274.159515 87481639.500534 A2273218.602784 2273218.602784 0.0 0 0 100759055.566632 85208208.730682"/>
<path d="M112126209.514921 89046305.527013 A2273430.789658 2273430.789658 0.0 0 0 114399640.304579 91319736.316671"/>
<path d="M109852778.725264 85208223.886887 A2273430.789658 2273430.789658 0.0 0 0 107579347.935656 87481639.520339"/>
<path d="M100759055.566632 85208223.886887 A2273430.789658 2273430.789658 0.0 0 0 98485624.777025 87481639.520339"/>
<path d="M96212193.987317 97431263.902661 A2273218.602784 2273218.602784 0.0 0 0 98485412.580200 95157833.132808"/>
<path d="M113933624 103823605 L129934750 103823605 "/>
<path d="M101137960 106097036 L101137960 107763582 "/>
<path d="M105684822 107763582 L105684822 106097036 "/>
<path d="M107958253 103823605 L113933624 103823605 "/>
<path d="M84845040 99655649 L89012996 103823605 "/>
<path d="M89012996 103823605 L98864529 103823605 "/>
<path d="M101137960.698242 106097036.449447 A2273430.789658 2273430.789658 0.0 0 0 98864529.908584 103823605.659789"/>
<path d="M103411391.487900 110037013.257566 A2273552.039300 2273552.039300 0.0 0 0 105684943.523966 107763582.474374"/>
<path d="M107958253.067215 103823605.659789 A2273430.789658 2273430.789658 0.0 0 0 105684822.277558 106097036.449447"/>
<path d="M101137960.701475 107763582.467908 A2273430.789658 2273430.789658 0.0 0 0 103411391.487900 110036892.007924"/>
<path d="M176295407 103823605 L167067453 103823605 "/>
<path d="M191317382 108471650 L191317382 106097036 "/>
<path d="M206852492 100413459 L203442346 103823605 "/>
<path d="M203442346 103823605 L198137674 103823605 "/>
<path d="M195864243 106097036 L195864243 108471650 "/>
<path d="M189043951 103823605 L176295407 103823605 "/>
<path d="M198137674.390307 103823605.659789 A2273430.789658 2273430.789658 0.0 0 0 195864243.600650 106097036.449447"/>
<path d="M191317382.021334 108471650.065450 A2273430.789658 2273430.789658 0.0 0 0 193590812.810992 110745080.855107"/>
<path d="M191317382.021334 106097036.449447 A2273430.789658 2273430.789658 0.0 0 0 189043951.231676 103823605.659789"/>
<path d="M193590812.810992 110745080.855107 A2273430.789658 2273430.789658 0.0 0 0 195864243.600650 108471650.065450"/>
<path d="M187907235 91319736 L167557408 91319736 "/>
<path d="M212157164 91319736 L197000958 91319736 "/>
<path d="M215946215 87530685 L212157164 91319736 "/>
<path d="M190180666 94044693 L190180666 93593167 "/>
<path d="M194727528 93593167 L194727528 94044693 "/>
<path d="M167557408 91319736 L167067453 91319736 "/>
<path d="M197000958.995478 91319736.316671 A2273430.789658 2273430.789658 0.0 0 0 194727528.205821 93593167.106329"/>
<path d="M192454097.416163 96318123.985121 A2273430.789658 2273430.789658 0.0 0 0 194727528.205821 94044693.195463"/>
<path d="M190180666.626505 94044693.195463 A2273430.789658 2273430.789658 0.0 0 0 192454097.416163 96318123.985121"/>
<path d="M190180666.626505 93593167.106329 A2273430.789658 2273430.789658 0.0 0 0 187907235.836847 91319736.316671"/>
</g>
<g>
</g>
</g>
<g style="fill:#000000; fill-opacity:0.0;  stroke:#000000; stroke-width:3031241.052877; stroke-opacity:1;  stroke-linecap:round; stroke-linejoin:round;">
</g>
<g style="fill:#000000; fill-opacity:1.0;  stroke:#000000; stroke-width:7.578103; stroke-opacity:1;  stroke-linecap:round; stroke-linejoin:round;">
<circle cx="156837015.044858" cy="79952582.368382" r="1515620.526439"/> 
</g>
<g style="fill:#000000; fill-opacity:1.0;  stroke:#000000; stroke-width:160655.775802; stroke-opacity:1;  stroke-linecap:round; stroke-linejoin:round;">
</g>
<g style="fill:#000000; fill-opacity:1.0;  stroke:#000000; stroke-width:7.578103; stroke-opacity:1;  stroke-linecap:round; stroke-linejoin:round;">
<circle cx="140922999.517253" cy="82983823.421259" r="1515620.526439"/> 
</g>
<g style="fill:#000000; fill-opacity:1.0;  stroke:#000000; stroke-width:160655.775802; stroke-opacity:1;  stroke-linecap:round; stroke-linejoin:round;">
</g>
<g style="fill:#000000; fill-opacity:1.0;  stroke:#000000; stroke-width:7.578103; stroke-opacity:1;  stroke-linecap:round; stroke-linejoin:round;">
<circle cx="84845040.039028" cy="88288495.263794" r="1515620.526439"/> 
</g>
<g style="fill:#000000; fill-opacity:1.0;  stroke:#000000; stroke-width:160655.775802; stroke-opacity:1;  stroke-linecap:round; stroke-linejoin:round;">
</g>
<g style="fill:#000000; fill-opacity:1.0;  stroke:#000000; stroke-width:7.578103; stroke-opacity:1;  stroke-linecap:round; stroke-linejoin:round;">
<circle cx="84845040.039028" cy="99655649.212083" r="1515620.526439"/> 
</g>
<g style="fill:#000000; fill-opacity:1.0;  stroke:#000000; stroke-width:160655.775802; stroke-opacity:1;  stroke-linecap:round; stroke-linejoin:round;">
</g>
<g style="fill:#000000; fill-opacity:1.0;  stroke:#000000; stroke-width:7.578103; stroke-opacity:1;  stroke-linecap:round; stroke-linejoin:round;">
<circle cx="206852492.417329" cy="100413459.475302" r="1515620.526439"/> 
</g>
<g style="fill:#000000; fill-opacity:1.0;  stroke:#000000; stroke-width:160655.775802; stroke-opacity:1;  stroke-linecap:round; stroke-linejoin:round;">
</g>
<g style="fill:#000000; fill-opacity:1.0;  stroke:#000000; stroke-width:7.578103; stroke-opacity:1;  stroke-linecap:round; stroke-linejoin:round;">
<circle cx="215946215.575960" cy="87530685.000575" r="1515620.526439"/> 
</g>
<g style="fill:#000000; fill-opacity:1.0;  stroke:#000000; stroke-width:160655.775802; stroke-opacity:1;  stroke-linecap:round; stroke-linejoin:round;">
</g>
<g style="fill:#2626FD; fill-opacity:1.0;  stroke:#2626FD; stroke-width:160655.775802; stroke-opacity:1;  stroke-linecap:round; stroke-linejoin:round;">
</g> 
<svg:g><svg:g><svg:title>SVG Picture created as MateLightScrewCap-B_Cu_pads.svg date 2022/10/08 15:42:53 </svg:title>
  <svg:desc>Picture generated by PCBNEW </svg:desc>
<svg:g style="fill:#C2C200; fill-opacity:1.000000;stroke:#C2C200; stroke-opacity:1.000000; stroke-linecap:round; stroke-linejoin:round;" transform="translate(0 0) scale(1 1)">
</svg:g>
<svg:g style="fill:#C2C200; fill-opacity:0.0;  stroke:#C2C200; stroke-width:0.000000; stroke-opacity:1;  stroke-linecap:round; stroke-linejoin:round;">
<svg:g>
</svg:g>
<svg:g>
</svg:g>
<svg:g>
</svg:g>
<svg:g>
</svg:g>
<svg:g>
</svg:g>
<svg:g>
</svg:g>
<svg:g>
</svg:g>
<svg:g>
</svg:g>
</svg:g>
<svg:g style="fill:#000000; fill-opacity:0.0;  stroke:#000000; stroke-width:0.000000; stroke-opacity:1;  stroke-linecap:round; stroke-linejoin:round;">
</svg:g>
<svg:g style="fill:#000000; fill-opacity:1.0;  stroke:#000000; stroke-width:7.578103; stroke-opacity:1;  stroke-linecap:round; stroke-linejoin:round;">
<svg:circle cx="156837015.044858" cy="79952582.368382" r="-3.789051"/> 
</svg:g>
<svg:g style="fill:#000000; fill-opacity:1.0;  stroke:#000000; stroke-width:160655.775802; stroke-opacity:1;  stroke-linecap:round; stroke-linejoin:round;">
</svg:g>
<svg:g style="fill:#000000; fill-opacity:1.0;  stroke:#000000; stroke-width:7.578103; stroke-opacity:1;  stroke-linecap:round; stroke-linejoin:round;">
<svg:circle cx="140922999.517253" cy="82983823.421259" r="-3.789051"/> 
</svg:g>
<svg:g style="fill:#000000; fill-opacity:1.0;  stroke:#000000; stroke-width:160655.775802; stroke-opacity:1;  stroke-linecap:round; stroke-linejoin:round;">
</svg:g>
<svg:g style="fill:#000000; fill-opacity:1.0;  stroke:#000000; stroke-width:7.578103; stroke-opacity:1;  stroke-linecap:round; stroke-linejoin:round;">
<svg:circle cx="84845040.039028" cy="88288495.263794" r="-3.789051"/> 
</svg:g>
<svg:g style="fill:#000000; fill-opacity:1.0;  stroke:#000000; stroke-width:160655.775802; stroke-opacity:1;  stroke-linecap:round; stroke-linejoin:round;">
</svg:g>
<svg:g style="fill:#000000; fill-opacity:1.0;  stroke:#000000; stroke-width:7.578103; stroke-opacity:1;  stroke-linecap:round; stroke-linejoin:round;">
<svg:circle cx="84845040.039028" cy="99655649.212083" r="-3.789051"/> 
</svg:g>
<svg:g style="fill:#000000; fill-opacity:1.0;  stroke:#000000; stroke-width:160655.775802; stroke-opacity:1;  stroke-linecap:round; stroke-linejoin:round;">
</svg:g>
<svg:g style="fill:#000000; fill-opacity:1.0;  stroke:#000000; stroke-width:7.578103; stroke-opacity:1;  stroke-linecap:round; stroke-linejoin:round;">
<svg:circle cx="206852492.417329" cy="100413459.475302" r="-3.789051"/> 
</svg:g>
<svg:g style="fill:#000000; fill-opacity:1.0;  stroke:#000000; stroke-width:160655.775802; stroke-opacity:1;  stroke-linecap:round; stroke-linejoin:round;">
</svg:g>
<svg:g style="fill:#000000; fill-opacity:1.0;  stroke:#000000; stroke-width:7.578103; stroke-opacity:1;  stroke-linecap:round; stroke-linejoin:round;">
<svg:circle cx="215946215.575960" cy="87530685.000575" r="-3.789051"/> 
</svg:g>
<svg:g style="fill:#000000; fill-opacity:1.0;  stroke:#000000; stroke-width:160655.775802; stroke-opacity:1;  stroke-linecap:round; stroke-linejoin:round;">
</svg:g>
<svg:g style="fill:#C2C200; fill-opacity:1.0;  stroke:#C2C200; stroke-width:160655.775802; stroke-opacity:1;  stroke-linecap:round; stroke-linejoin:round;">
</svg:g> 
</svg:g></svg:g><svg:g><svg:g><svg:title>SVG Picture created as MateLightScrewCap-B_Cu_vias_3.svg date 2022/10/08 15:42:53 </svg:title>
  <svg:desc>Picture generated by PCBNEW </svg:desc>
<svg:g style="fill:#C2C2C2; fill-opacity:1.000000;stroke:#C2C2C2; stroke-opacity:1.000000; stroke-linecap:round; stroke-linejoin:round;" transform="translate(0 0) scale(1 1)">
</svg:g>
<svg:g style="fill:#C2C2C2; fill-opacity:0.0;  stroke:#C2C2C2; stroke-width:0.000000; stroke-opacity:1;  stroke-linecap:round; stroke-linejoin:round;">
<svg:g>
</svg:g>
<svg:g>
</svg:g>
<svg:g>
</svg:g>
<svg:g>
</svg:g>
<svg:g>
</svg:g>
<svg:g>
</svg:g>
<svg:g style="fill:#C2C2C2; fill-opacity:0.0;  stroke:#C2C2C2; stroke-width:0.000000; stroke-opacity:1;  stroke-linecap:round; stroke-linejoin:round;">
</svg:g>
<svg:g style="fill:#C2C2C2; fill-opacity:1.0;  stroke:#C2C2C2; stroke-width:7.578103; stroke-opacity:1;  stroke-linecap:round; stroke-linejoin:round;">
<svg:circle cx="156837015.044858" cy="79952582.368382" r="3031241.052877"/> 
</svg:g>
<svg:g style="fill:#C2C2C2; fill-opacity:1.0;  stroke:#C2C2C2; stroke-width:160655.775802; stroke-opacity:1;  stroke-linecap:round; stroke-linejoin:round;">
</svg:g>
<svg:g style="fill:#C2C2C2; fill-opacity:1.0;  stroke:#C2C2C2; stroke-width:7.578103; stroke-opacity:1;  stroke-linecap:round; stroke-linejoin:round;">
<svg:circle cx="140922999.517253" cy="82983823.421259" r="3031241.052877"/> 
</svg:g>
<svg:g style="fill:#C2C2C2; fill-opacity:1.0;  stroke:#C2C2C2; stroke-width:160655.775802; stroke-opacity:1;  stroke-linecap:round; stroke-linejoin:round;">
</svg:g>
<svg:g style="fill:#C2C2C2; fill-opacity:1.0;  stroke:#C2C2C2; stroke-width:7.578103; stroke-opacity:1;  stroke-linecap:round; stroke-linejoin:round;">
<svg:circle cx="84845040.039028" cy="88288495.263794" r="3031241.052877"/> 
</svg:g>
<svg:g style="fill:#C2C2C2; fill-opacity:1.0;  stroke:#C2C2C2; stroke-width:160655.775802; stroke-opacity:1;  stroke-linecap:round; stroke-linejoin:round;">
</svg:g>
<svg:g style="fill:#C2C2C2; fill-opacity:1.0;  stroke:#C2C2C2; stroke-width:7.578103; stroke-opacity:1;  stroke-linecap:round; stroke-linejoin:round;">
<svg:circle cx="84845040.039028" cy="99655649.212083" r="3031241.052877"/> 
</svg:g>
<svg:g style="fill:#C2C2C2; fill-opacity:1.0;  stroke:#C2C2C2; stroke-width:160655.775802; stroke-opacity:1;  stroke-linecap:round; stroke-linejoin:round;">
</svg:g>
<svg:g style="fill:#C2C2C2; fill-opacity:1.0;  stroke:#C2C2C2; stroke-width:7.578103; stroke-opacity:1;  stroke-linecap:round; stroke-linejoin:round;">
<svg:circle cx="206852492.417329" cy="100413459.475302" r="3031241.052877"/> 
</svg:g>
<svg:g style="fill:#C2C2C2; fill-opacity:1.0;  stroke:#C2C2C2; stroke-width:160655.775802; stroke-opacity:1;  stroke-linecap:round; stroke-linejoin:round;">
</svg:g>
<svg:g style="fill:#C2C2C2; fill-opacity:1.0;  stroke:#C2C2C2; stroke-width:7.578103; stroke-opacity:1;  stroke-linecap:round; stroke-linejoin:round;">
<svg:circle cx="215946215.575960" cy="87530685.000575" r="3031241.052877"/> 
</svg:g>
<svg:g style="fill:#C2C2C2; fill-opacity:1.0;  stroke:#C2C2C2; stroke-width:160655.775802; stroke-opacity:1;  stroke-linecap:round; stroke-linejoin:round;">
</svg:g>
<svg:g>
</svg:g>
<svg:g>
</svg:g>
</svg:g>
<svg:g style="fill:#000000; fill-opacity:1.0;  stroke:#000000; stroke-width:160655.775802; stroke-opacity:1;  stroke-linecap:round; stroke-linejoin:round;">
</svg:g>
<svg:g style="fill:#000000; fill-opacity:1.0;  stroke:#000000; stroke-width:7.578103; stroke-opacity:1;  stroke-linecap:round; stroke-linejoin:round;">
<svg:circle cx="156837015.044858" cy="79952582.368382" r="1515620.526439"/> 
</svg:g>
<svg:g style="fill:#000000; fill-opacity:1.0;  stroke:#000000; stroke-width:160655.775802; stroke-opacity:1;  stroke-linecap:round; stroke-linejoin:round;">
</svg:g>
<svg:g style="fill:#000000; fill-opacity:1.0;  stroke:#000000; stroke-width:7.578103; stroke-opacity:1;  stroke-linecap:round; stroke-linejoin:round;">
<svg:circle cx="140922999.517253" cy="82983823.421259" r="1515620.526439"/> 
</svg:g>
<svg:g style="fill:#000000; fill-opacity:1.0;  stroke:#000000; stroke-width:160655.775802; stroke-opacity:1;  stroke-linecap:round; stroke-linejoin:round;">
</svg:g>
<svg:g style="fill:#000000; fill-opacity:1.0;  stroke:#000000; stroke-width:7.578103; stroke-opacity:1;  stroke-linecap:round; stroke-linejoin:round;">
<svg:circle cx="84845040.039028" cy="88288495.263794" r="1515620.526439"/> 
</svg:g>
<svg:g style="fill:#000000; fill-opacity:1.0;  stroke:#000000; stroke-width:160655.775802; stroke-opacity:1;  stroke-linecap:round; stroke-linejoin:round;">
</svg:g>
<svg:g style="fill:#000000; fill-opacity:1.0;  stroke:#000000; stroke-width:7.578103; stroke-opacity:1;  stroke-linecap:round; stroke-linejoin:round;">
<svg:circle cx="84845040.039028" cy="99655649.212083" r="1515620.526439"/> 
</svg:g>
<svg:g style="fill:#000000; fill-opacity:1.0;  stroke:#000000; stroke-width:160655.775802; stroke-opacity:1;  stroke-linecap:round; stroke-linejoin:round;">
</svg:g>
<svg:g style="fill:#000000; fill-opacity:1.0;  stroke:#000000; stroke-width:7.578103; stroke-opacity:1;  stroke-linecap:round; stroke-linejoin:round;">
<svg:circle cx="206852492.417329" cy="100413459.475302" r="1515620.526439"/> 
</svg:g>
<svg:g style="fill:#000000; fill-opacity:1.0;  stroke:#000000; stroke-width:160655.775802; stroke-opacity:1;  stroke-linecap:round; stroke-linejoin:round;">
</svg:g>
<svg:g style="fill:#000000; fill-opacity:1.0;  stroke:#000000; stroke-width:7.578103; stroke-opacity:1;  stroke-linecap:round; stroke-linejoin:round;">
<svg:circle cx="215946215.575960" cy="87530685.000575" r="1515620.526439"/> 
</svg:g>
<svg:g style="fill:#000000; fill-opacity:1.0;  stroke:#000000; stroke-width:160655.775802; stroke-opacity:1;  stroke-linecap:round; stroke-linejoin:round;">
</svg:g>
<svg:g style="fill:#C2C2C2; fill-opacity:1.0;  stroke:#C2C2C2; stroke-width:160655.775802; stroke-opacity:1;  stroke-linecap:round; stroke-linejoin:round;">
</svg:g> 
</svg:g></svg:g><svg:g><svg:g><svg:title>SVG Picture created as MateLightScrewCap-B_Cu_vias_2.svg date 2022/10/08 15:42:53 </svg:title>
  <svg:desc>Picture generated by PCBNEW </svg:desc>
<svg:g style="fill:#848400; fill-opacity:1.000000;stroke:#848400; stroke-opacity:1.000000; stroke-linecap:round; stroke-linejoin:round;" transform="translate(0 0) scale(1 1)">
</svg:g>
<svg:g style="fill:#848400; fill-opacity:0.0;  stroke:#848400; stroke-width:0.000000; stroke-opacity:1;  stroke-linecap:round; stroke-linejoin:round;">
<svg:g>
</svg:g>
<svg:g>
</svg:g>
<svg:g>
</svg:g>
<svg:g>
</svg:g>
<svg:g>
</svg:g>
<svg:g>
</svg:g>
<svg:g>
</svg:g>
<svg:g>
</svg:g>
</svg:g>
<svg:g style="fill:#000000; fill-opacity:0.0;  stroke:#000000; stroke-width:0.000000; stroke-opacity:1;  stroke-linecap:round; stroke-linejoin:round;">
</svg:g>
<svg:g style="fill:#000000; fill-opacity:1.0;  stroke:#000000; stroke-width:7.578103; stroke-opacity:1;  stroke-linecap:round; stroke-linejoin:round;">
<svg:circle cx="156837015.044858" cy="79952582.368382" r="-3.789051"/> 
</svg:g>
<svg:g style="fill:#000000; fill-opacity:1.0;  stroke:#000000; stroke-width:160655.775802; stroke-opacity:1;  stroke-linecap:round; stroke-linejoin:round;">
</svg:g>
<svg:g style="fill:#000000; fill-opacity:1.0;  stroke:#000000; stroke-width:7.578103; stroke-opacity:1;  stroke-linecap:round; stroke-linejoin:round;">
<svg:circle cx="140922999.517253" cy="82983823.421259" r="-3.789051"/> 
</svg:g>
<svg:g style="fill:#000000; fill-opacity:1.0;  stroke:#000000; stroke-width:160655.775802; stroke-opacity:1;  stroke-linecap:round; stroke-linejoin:round;">
</svg:g>
<svg:g style="fill:#000000; fill-opacity:1.0;  stroke:#000000; stroke-width:7.578103; stroke-opacity:1;  stroke-linecap:round; stroke-linejoin:round;">
<svg:circle cx="84845040.039028" cy="88288495.263794" r="-3.789051"/> 
</svg:g>
<svg:g style="fill:#000000; fill-opacity:1.0;  stroke:#000000; stroke-width:160655.775802; stroke-opacity:1;  stroke-linecap:round; stroke-linejoin:round;">
</svg:g>
<svg:g style="fill:#000000; fill-opacity:1.0;  stroke:#000000; stroke-width:7.578103; stroke-opacity:1;  stroke-linecap:round; stroke-linejoin:round;">
<svg:circle cx="84845040.039028" cy="99655649.212083" r="-3.789051"/> 
</svg:g>
<svg:g style="fill:#000000; fill-opacity:1.0;  stroke:#000000; stroke-width:160655.775802; stroke-opacity:1;  stroke-linecap:round; stroke-linejoin:round;">
</svg:g>
<svg:g style="fill:#000000; fill-opacity:1.0;  stroke:#000000; stroke-width:7.578103; stroke-opacity:1;  stroke-linecap:round; stroke-linejoin:round;">
<svg:circle cx="206852492.417329" cy="100413459.475302" r="-3.789051"/> 
</svg:g>
<svg:g style="fill:#000000; fill-opacity:1.0;  stroke:#000000; stroke-width:160655.775802; stroke-opacity:1;  stroke-linecap:round; stroke-linejoin:round;">
</svg:g>
<svg:g style="fill:#000000; fill-opacity:1.0;  stroke:#000000; stroke-width:7.578103; stroke-opacity:1;  stroke-linecap:round; stroke-linejoin:round;">
<svg:circle cx="215946215.575960" cy="87530685.000575" r="-3.789051"/> 
</svg:g>
<svg:g style="fill:#000000; fill-opacity:1.0;  stroke:#000000; stroke-width:160655.775802; stroke-opacity:1;  stroke-linecap:round; stroke-linejoin:round;">
</svg:g>
<svg:g style="fill:#848400; fill-opacity:1.0;  stroke:#848400; stroke-width:160655.775802; stroke-opacity:1;  stroke-linecap:round; stroke-linejoin:round;">
</svg:g> 
</svg:g></svg:g><svg:g><svg:g><svg:title>SVG Picture created as MateLightScrewCap-B_Cu_vias_1.svg date 2022/10/08 15:42:53 </svg:title>
  <svg:desc>Picture generated by PCBNEW </svg:desc>
<svg:g style="fill:#008484; fill-opacity:1.000000;stroke:#008484; stroke-opacity:1.000000; stroke-linecap:round; stroke-linejoin:round;" transform="translate(0 0) scale(1 1)">
</svg:g>
<svg:g style="fill:#008484; fill-opacity:0.0;  stroke:#008484; stroke-width:0.000000; stroke-opacity:1;  stroke-linecap:round; stroke-linejoin:round;">
<svg:g>
</svg:g>
<svg:g>
</svg:g>
<svg:g>
</svg:g>
<svg:g>
</svg:g>
<svg:g>
</svg:g>
<svg:g>
</svg:g>
<svg:g>
</svg:g>
<svg:g>
</svg:g>
</svg:g>
<svg:g style="fill:#000000; fill-opacity:0.0;  stroke:#000000; stroke-width:0.000000; stroke-opacity:1;  stroke-linecap:round; stroke-linejoin:round;">
</svg:g>
<svg:g style="fill:#000000; fill-opacity:1.0;  stroke:#000000; stroke-width:7.578103; stroke-opacity:1;  stroke-linecap:round; stroke-linejoin:round;">
<svg:circle cx="156837015.044858" cy="79952582.368382" r="-3.789051"/> 
</svg:g>
<svg:g style="fill:#000000; fill-opacity:1.0;  stroke:#000000; stroke-width:160655.775802; stroke-opacity:1;  stroke-linecap:round; stroke-linejoin:round;">
</svg:g>
<svg:g style="fill:#000000; fill-opacity:1.0;  stroke:#000000; stroke-width:7.578103; stroke-opacity:1;  stroke-linecap:round; stroke-linejoin:round;">
<svg:circle cx="140922999.517253" cy="82983823.421259" r="-3.789051"/> 
</svg:g>
<svg:g style="fill:#000000; fill-opacity:1.0;  stroke:#000000; stroke-width:160655.775802; stroke-opacity:1;  stroke-linecap:round; stroke-linejoin:round;">
</svg:g>
<svg:g style="fill:#000000; fill-opacity:1.0;  stroke:#000000; stroke-width:7.578103; stroke-opacity:1;  stroke-linecap:round; stroke-linejoin:round;">
<svg:circle cx="84845040.039028" cy="88288495.263794" r="-3.789051"/> 
</svg:g>
<svg:g style="fill:#000000; fill-opacity:1.0;  stroke:#000000; stroke-width:160655.775802; stroke-opacity:1;  stroke-linecap:round; stroke-linejoin:round;">
</svg:g>
<svg:g style="fill:#000000; fill-opacity:1.0;  stroke:#000000; stroke-width:7.578103; stroke-opacity:1;  stroke-linecap:round; stroke-linejoin:round;">
<svg:circle cx="84845040.039028" cy="99655649.212083" r="-3.789051"/> 
</svg:g>
<svg:g style="fill:#000000; fill-opacity:1.0;  stroke:#000000; stroke-width:160655.775802; stroke-opacity:1;  stroke-linecap:round; stroke-linejoin:round;">
</svg:g>
<svg:g style="fill:#000000; fill-opacity:1.0;  stroke:#000000; stroke-width:7.578103; stroke-opacity:1;  stroke-linecap:round; stroke-linejoin:round;">
<svg:circle cx="206852492.417329" cy="100413459.475302" r="-3.789051"/> 
</svg:g>
<svg:g style="fill:#000000; fill-opacity:1.0;  stroke:#000000; stroke-width:160655.775802; stroke-opacity:1;  stroke-linecap:round; stroke-linejoin:round;">
</svg:g>
<svg:g style="fill:#000000; fill-opacity:1.0;  stroke:#000000; stroke-width:7.578103; stroke-opacity:1;  stroke-linecap:round; stroke-linejoin:round;">
<svg:circle cx="215946215.575960" cy="87530685.000575" r="-3.789051"/> 
</svg:g>
<svg:g style="fill:#000000; fill-opacity:1.0;  stroke:#000000; stroke-width:160655.775802; stroke-opacity:1;  stroke-linecap:round; stroke-linejoin:round;">
</svg:g>
<svg:g style="fill:#008484; fill-opacity:1.0;  stroke:#008484; stroke-width:160655.775802; stroke-opacity:1;  stroke-linecap:round; stroke-linejoin:round;">
</svg:g> 
</svg:g></svg:g><svg:g><svg:g><svg:title>SVG Picture created as MateLightScrewCap-B_Silkscreen.svg date 2022/10/08 15:42:53 </svg:title>
  <svg:desc>Picture generated by PCBNEW </svg:desc>
<svg:g style="fill:#7AA9D1; fill-opacity:1.000000;stroke:#7AA9D1; stroke-opacity:1.000000; stroke-linecap:round; stroke-linejoin:round;" transform="translate(0 0) scale(1 1)">
</svg:g>
<svg:g style="fill:#7AA9D1; fill-opacity:0.0;  stroke:#7AA9D1; stroke-width:0.000000; stroke-opacity:1;  stroke-linecap:round; stroke-linejoin:round;">
</svg:g>
<svg:g style="fill:#7AA9D1; fill-opacity:0.0;  stroke:#7AA9D1; stroke-width:606248.210575; stroke-opacity:1;  stroke-linecap:round; stroke-linejoin:round;">
<svg:text x="148501102.149446" y="136030541.846608" transform="scale(-1 1) translate(-297002204.298892 0)" textLength="132329911.832024" font-size="9093723.158631" lengthAdjust="spacingAndGlyphs" text-anchor="middle" opacity="0">MateLightScrewCap v0.2.0</svg:text>
<svg:g class="stroked-text"><svg:desc>MateLightScrewCap v0.2.0</svg:desc>
<svg:path d="M83221166 135705759 L83221166 128885467 L85494597 133757111 L87768027 128885467 L87768027 135705759 "/>
<svg:path d="M93938770 135705759 L93938770 132133229 L93613988 131483680 L92964438 131158897 L91665339 131158897 L91015782 131483680 "/>
<svg:path d="M93938770 135380984 L93289213 135705759 L91665339 135705759 L91015782 135380984 L90691008 134731435 L90691008 134081885 L91015782 133432328 L91665339 133107553 L93289213 133107553 L93938770 132782779 "/>
<svg:path d="M96212201 131158897 L98810407 131158897 "/>
<svg:path d="M97186525 128885467 L97186525 134731435 L97511300 135380984 L98160850 135705759 L98810407 135705759 "/>
<svg:path d="M103682043 135380984 L103032493 135705759 L101733387 135705759 L101083837 135380984 L100759063 134731435 L100759063 132133229 L101083837 131483680 L101733387 131158897 L103032493 131158897 L103682043 131483680 L104006818 132133229 L104006818 132782779 L100759063 133432328 "/>
<svg:path d="M110177561 135705759 L106929798 135705759 L106929798 128885467 "/>
<svg:path d="M112450991 135705759 L112450991 131158897 "/>
<svg:path d="M112450991 128885467 L112126217 129210249 L112450991 129535024 L112775766 129210249 L112450991 128885467 L112450991 129535024 "/>
<svg:path d="M118621727 131158897 L118621727 136680091 L118296952 137329640 L117972177 137654415 L117322628 137979190 L116348296 137979190 L115698746 137654415 "/>
<svg:path d="M118621727 135380984 L117972177 135705759 L116673078 135705759 L116023521 135380984 L115698746 135056210 L115373972 134406660 L115373972 132458004 L115698746 131808455 L116023521 131483680 L116673078 131158897 L117972177 131158897 L118621727 131483680 "/>
<svg:path d="M121869489 135705759 L121869489 128885467 "/>
<svg:path d="M124792470 135705759 L124792470 132133229 L124467695 131483680 L123818145 131158897 L122843813 131158897 L122194264 131483680 L121869489 131808455 "/>
<svg:path d="M127065900 131158897 L129664106 131158897 "/>
<svg:path d="M128040232 128885467 L128040232 134731435 L128365007 135380984 L129014556 135705759 L129664106 135705759 "/>
<svg:path d="M131612762 135380984 L132587094 135705759 L134210967 135705759 L134860524 135380984 L135185299 135056210 L135510074 134406660 L135510074 133757111 L135185299 133107553 L134860524 132782779 L134210967 132458004 L132911868 132133229 L132262311 131808455 L131937537 131483680 L131612762 130834123 L131612762 130184573 L131937537 129535024 L132262311 129210249 L132911868 128885467 L134535742 128885467 L135510074 129210249 "/>
<svg:path d="M141356035 135380984 L140706485 135705759 L139407386 135705759 L138757829 135380984 L138433054 135056210 L138108280 134406660 L138108280 132458004 L138433054 131808455 L138757829 131483680 L139407386 131158897 L140706485 131158897 L141356035 131483680 "/>
<svg:path d="M144279022 135705759 L144279022 131158897 "/>
<svg:path d="M144279022 132458004 L144603797 131808455 L144928572 131483680 L145578121 131158897 L146227678 131158897 "/>
<svg:path d="M151099307 135380984 L150449750 135705759 L149150651 135705759 L148501102 135380984 L148176327 134731435 L148176327 132133229 L148501102 131483680 L149150651 131158897 L150449750 131158897 L151099307 131483680 L151424082 132133229 L151424082 132782779 L148176327 133432328 "/>
<svg:path d="M153697513 131158897 L154996612 135705759 L156295718 132458004 L157594825 135705759 L158893924 131158897 "/>
<svg:path d="M165389441 135056210 L165064667 135380984 L164090335 135705759 L163440785 135705759 L162466461 135380984 L161816904 134731435 L161492129 134081885 L161167355 132782779 L161167355 131808455 L161492129 130509348 L161816904 129859798 L162466461 129210249 L163440785 128885467 L164090335 128885467 L165064667 129210249 L165389441 129535024 "/>
<svg:path d="M171235410 135705759 L171235410 132133229 L170910627 131483680 L170261078 131158897 L168961979 131158897 L168312422 131483680 "/>
<svg:path d="M171235410 135380984 L170585852 135705759 L168961979 135705759 L168312422 135380984 L167987647 134731435 L167987647 134081885 L168312422 133432328 L168961979 133107553 L170585852 133107553 L171235410 132782779 "/>
<svg:path d="M174483165 131158897 L174483165 137979190 "/>
<svg:path d="M174483165 131483680 L175132714 131158897 L176431821 131158897 L177081370 131483680 L177406145 131808455 L177730920 132458004 L177730920 134406660 L177406145 135056210 L177081370 135380984 L176431821 135705759 L175132714 135705759 L174483165 135380984 "/>
<svg:path d="M185200769 131158897 L186824643 135705759 L188448524 131158897 "/>
<svg:path d="M192345836 128885467 L192995386 128885467 L193644935 129210249 L193969717 129535024 L194294492 130184573 L194619267 131483680 L194619267 133107553 L194294492 134406660 L193969717 135056210 L193644935 135380984 L192995386 135705759 L192345836 135705759 L191696287 135380984 L191371504 135056210 L191046730 134406660 L190721955 133107553 L190721955 131483680 L191046730 130184573 L191371504 129535024 L191696287 129210249 L192345836 128885467 "/>
<svg:path d="M197542247 135056210 L197867022 135380984 L197542247 135705759 L197217472 135380984 L197542247 135056210 L197542247 135705759 "/>
<svg:path d="M200465227 129535024 L200790010 129210249 L201439559 128885467 L203063441 128885467 L203712990 129210249 L204037765 129535024 L204362540 130184573 L204362540 130834123 L204037765 131808455 L200140453 135705759 L204362540 135705759 "/>
<svg:path d="M207285520 135056210 L207610302 135380984 L207285520 135705759 L206960745 135380984 L207285520 135056210 L207285520 135705759 "/>
<svg:path d="M211832381 128885467 L212481939 128885467 L213131488 129210249 L213456263 129535024 L213781037 130184573 L214105812 131483680 L214105812 133107553 L213781037 134406660 L213456263 135056210 L213131488 135380984 L212481939 135705759 L211832381 135705759 L211182832 135380984 L210858057 135056210 L210533282 134406660 L210208508 133107553 L210208508 131483680 L210533282 130184573 L210858057 129535024 L211182832 129210249 L211832381 128885467 "/>
</svg:g><svg:text x="148501102.149446" y="147011212.560655" transform="scale(-1 1) translate(-297002204.298892 0)" textLength="97294176.026044" font-size="9093723.158631" lengthAdjust="spacingAndGlyphs" text-anchor="middle" opacity="0">by HansAchterbahn</svg:text>
<svg:g class="stroked-text"><svg:desc>by HansAchterbahn</svg:desc>
<svg:path d="M101083837 146686430 L101083837 139866137 "/>
<svg:path d="M101083837 142464350 L101733387 142139568 L103032486 142139568 L103682043 142464350 L104006818 142789125 L104331592 143438675 L104331592 145387331 L104006818 146036880 L103682043 146361655 L103032486 146686430 L101733387 146686430 L101083837 146361655 "/>
<svg:path d="M106605023 142139568 L108228905 146686430 "/>
<svg:path d="M109852778 142139568 L108228905 146686430 L107579347 148310311 L107254573 148635086 L106605023 148959861 "/>
<svg:path d="M117647402 146686430 L117647402 139866137 "/>
<svg:path d="M117647402 143113900 L121544714 143113900 "/>
<svg:path d="M121544714 146686430 L121544714 139866137 "/>
<svg:path d="M127715450 146686430 L127715450 143113900 L127390675 142464350 L126741126 142139568 L125442019 142139568 L124792470 142464350 "/>
<svg:path d="M127715450 146361655 L127065900 146686430 L125442019 146686430 L124792470 146361655 L124467695 145712106 L124467695 145062556 L124792470 144412999 L125442019 144088224 L127065900 144088224 L127715450 143763449 "/>
<svg:path d="M130963212 142139568 L130963212 146686430 "/>
<svg:path d="M130963212 142789125 L131287987 142464350 L131937537 142139568 L132911868 142139568 L133561418 142464350 L133886193 143113900 L133886193 146686430 "/>
<svg:path d="M136809173 146361655 L137458730 146686430 L138757829 146686430 L139407386 146361655 L139732161 145712106 L139732161 145387331 L139407386 144737781 L138757829 144412999 L137783505 144412999 L137133955 144088224 L136809173 143438675 L136809173 143113900 L137133955 142464350 L137783505 142139568 L138757829 142139568 L139407386 142464350 "/>
<svg:path d="M142330366 144737781 L145578121 144737781 "/>
<svg:path d="M141680817 146686430 L143954248 139866137 L146227678 146686430 "/>
<svg:path d="M151424082 146361655 L150774532 146686430 L149475426 146686430 L148825876 146361655 L148501102 146036880 L148176327 145387331 L148176327 143438675 L148501102 142789125 L148825876 142464350 L149475426 142139568 L150774532 142139568 L151424082 142464350 "/>
<svg:path d="M154347062 146686430 L154347062 139866137 "/>
<svg:path d="M157270042 146686430 L157270042 143113900 L156945268 142464350 L156295718 142139568 L155321394 142139568 L154671837 142464350 L154347062 142789125 "/>
<svg:path d="M159543473 142139568 L162141686 142139568 "/>
<svg:path d="M160517805 139866137 L160517805 145712106 L160842580 146361655 L161492129 146686430 L162141686 146686430 "/>
<svg:path d="M167013323 146361655 L166363766 146686430 L165064667 146686430 L164415117 146361655 L164090335 145712106 L164090335 143113900 L164415117 142464350 L165064667 142139568 L166363766 142139568 L167013323 142464350 L167338097 143113900 L167338097 143763449 L164090335 144412999 "/>
<svg:path d="M170261078 146686430 L170261078 142139568 "/>
<svg:path d="M170261078 143438675 L170585852 142789125 L170910627 142464350 L171560184 142139568 L172209734 142139568 "/>
<svg:path d="M174483165 146686430 L174483165 139866137 "/>
<svg:path d="M174483165 142464350 L175132714 142139568 L176431821 142139568 L177081370 142464350 L177406145 142789125 L177730920 143438675 L177730920 145387331 L177406145 146036880 L177081370 146361655 L176431821 146686430 L175132714 146686430 L174483165 146361655 "/>
<svg:path d="M183576888 146686430 L183576888 143113900 L183252113 142464350 L182602563 142139568 L181303457 142139568 L180653907 142464350 "/>
<svg:path d="M183576888 146361655 L182927338 146686430 L181303457 146686430 L180653907 146361655 L180329133 145712106 L180329133 145062556 L180653907 144412999 L181303457 144088224 L182927338 144088224 L183576888 143763449 "/>
<svg:path d="M186824643 146686430 L186824643 139866137 "/>
<svg:path d="M189747631 146686430 L189747631 143113900 L189422856 142464350 L188773299 142139568 L187798975 142139568 L187149425 142464350 L186824643 142789125 "/>
<svg:path d="M192995386 142139568 L192995386 146686430 "/>
<svg:path d="M192995386 142789125 L193320160 142464350 L193969717 142139568 L194944042 142139568 L195593591 142464350 L195918366 143113900 L195918366 146686430 "/>
</svg:g><svg:text x="148501102.149446" y="157991883.274702" transform="scale(-1 1) translate(-297002204.298892 0)" textLength="57671528.368339" font-size="9093723.158631" lengthAdjust="spacingAndGlyphs" text-anchor="middle" opacity="0">04.09.2022</svg:text>
<svg:g class="stroked-text"><svg:desc>04.09.2022</svg:desc>
<svg:path d="M122194264 150846808 L122843813 150846808 L123493371 151171590 L123818145 151496365 L124142920 152145915 L124467695 153445021 L124467695 155068895 L124142920 156368001 L123818145 157017551 L123493371 157342326 L122843813 157667100 L122194264 157667100 L121544714 157342326 L121219940 157017551 L120895157 156368001 L120570383 155068895 L120570383 153445021 L120895157 152145915 L121219940 151496365 L121544714 151171590 L122194264 150846808 "/>
<svg:path d="M130313663 153120239 L130313663 157667100 "/>
<svg:path d="M128689782 150522033 L127065900 155393670 L131287987 155393670 "/>
<svg:path d="M133886193 157017551 L134210967 157342326 L133886193 157667100 L133561418 157342326 L133886193 157017551 L133886193 157667100 "/>
<svg:path d="M138433054 150846808 L139082604 150846808 L139732161 151171590 L140056936 151496365 L140381710 152145915 L140706485 153445021 L140706485 155068895 L140381710 156368001 L140056936 157017551 L139732161 157342326 L139082604 157667100 L138433054 157667100 L137783505 157342326 L137458730 157017551 L137133955 156368001 L136809173 155068895 L136809173 153445021 L137133955 152145915 L137458730 151496365 L137783505 151171590 L138433054 150846808 "/>
<svg:path d="M143954248 157667100 L145253347 157667100 L145902896 157342326 L146227678 157017551 L146877228 156043227 L147202003 154744120 L147202003 152145915 L146877228 151496365 L146552453 151171590 L145902896 150846808 L144603797 150846808 L143954248 151171590 L143629465 151496365 L143304691 152145915 L143304691 153769796 L143629465 154419345 L143954248 154744120 L144603797 155068895 L145902896 155068895 L146552453 154744120 L146877228 154419345 L147202003 153769796 "/>
<svg:path d="M150124975 157017551 L150449750 157342326 L150124975 157667100 L149800201 157342326 L150124975 157017551 L150124975 157667100 "/>
<svg:path d="M153047963 151496365 L153372738 151171590 L154022287 150846808 L155646169 150846808 L156295718 151171590 L156620493 151496365 L156945268 152145915 L156945268 152795464 L156620493 153769796 L152723181 157667100 L156945268 157667100 "/>
<svg:path d="M161167355 150846808 L161816904 150846808 L162466461 151171590 L162791236 151496365 L163116011 152145915 L163440785 153445021 L163440785 155068895 L163116011 156368001 L162791236 157017551 L162466461 157342326 L161816904 157667100 L161167355 157667100 L160517805 157342326 L160193030 157017551 L159868256 156368001 L159543473 155068895 L159543473 153445021 L159868256 152145915 L160193030 151496365 L160517805 151171590 L161167355 150846808 "/>
<svg:path d="M166038991 151496365 L166363766 151171590 L167013323 150846808 L168637196 150846808 L169286754 151171590 L169611528 151496365 L169936303 152145915 L169936303 152795464 L169611528 153769796 L165714216 157667100 L169936303 157667100 "/>
<svg:path d="M172534509 151496365 L172859283 151171590 L173508840 150846808 L175132714 150846808 L175782271 151171590 L176107046 151496365 L176431821 152145915 L176431821 152795464 L176107046 153769796 L172209734 157667100 L176431821 157667100 "/>
</svg:g><svg:text x="148501102.149446" y="168972553.988749" transform="scale(-1 1) translate(-297002204.298892 0)" textLength="58645852.601862" font-size="9093723.158631" lengthAdjust="spacingAndGlyphs" text-anchor="middle" opacity="0">MIT License</svg:text>
<svg:g class="stroked-text"><svg:desc>MIT License</svg:desc>
<svg:path d="M120407999 168647771 L120407999 161827479 L122681430 166699123 L124954861 161827479 L124954861 168647771 "/>
<svg:path d="M128202616 168647771 L128202616 161827479 "/>
<svg:path d="M130476046 161827479 L134373359 161827479 "/>
<svg:path d="M132424703 168647771 L132424703 161827479 "/>
<svg:path d="M145090955 168647771 L141843200 168647771 L141843200 161827479 "/>
<svg:path d="M147364386 168647771 L147364386 164100910 "/>
<svg:path d="M147364386 161827479 L147039612 162152261 L147364386 162477036 L147689169 162152261 L147364386 161827479 L147364386 162477036 "/>
<svg:path d="M153535122 168322996 L152885572 168647771 L151586466 168647771 L150936916 168322996 L150612141 167998222 L150287367 167348672 L150287367 165400016 L150612141 164750467 L150936916 164425692 L151586466 164100910 L152885572 164100910 L153535122 164425692 "/>
<svg:path d="M159056315 168322996 L158406758 168647771 L157107659 168647771 L156458102 168322996 L156133327 167673447 L156133327 165075241 L156458102 164425692 L157107659 164100910 L158406758 164100910 L159056315 164425692 L159381090 165075241 L159381090 165724791 L156133327 166374340 "/>
<svg:path d="M162304070 164100910 L162304070 168647771 "/>
<svg:path d="M162304070 164750467 L162628845 164425692 L163278394 164100910 L164252726 164100910 L164902276 164425692 L165227050 165075241 L165227050 168647771 "/>
<svg:path d="M168150038 168322996 L168799588 168647771 L170098687 168647771 L170748244 168322996 L171073018 167673447 L171073018 167348672 L170748244 166699123 L170098687 166374340 L169124362 166374340 L168474813 166049566 L168150038 165400016 L168150038 165075241 L168474813 164425692 L169124362 164100910 L170098687 164100910 L170748244 164425692 "/>
<svg:path d="M176594204 168322996 L175944655 168647771 L174645548 168647771 L173995999 168322996 L173671224 167673447 L173671224 165075241 L173995999 164425692 L174645548 164100910 L175944655 164100910 L176594204 164425692 L176918979 165075241 L176918979 165724791 L173671224 166374340 "/>
</svg:g><svg:text x="148501102.149446" y="22359002.363718" transform="scale(-1 1) translate(-297002204.298892 0)" textLength="42407062.329750" font-size="9093723.158631" lengthAdjust="spacingAndGlyphs" text-anchor="middle" opacity="0">https://</svg:text>
<svg:g class="stroked-text"><svg:desc>https://</svg:desc>
<svg:path d="M128527390 22034227 L128527390 15213935 "/>
<svg:path d="M131450371 22034227 L131450371 18461697 L131125596 17812140 L130476046 17487366 L129501722 17487366 L128852165 17812140 L128527390 18136923 "/>
<svg:path d="M133723802 17487366 L136322015 17487366 "/>
<svg:path d="M134698133 15213935 L134698133 21059903 L135022908 21709452 L135672458 22034227 L136322015 22034227 "/>
<svg:path d="M137621114 17487366 L140219319 17487366 "/>
<svg:path d="M138595445 15213935 L138595445 21059903 L138920220 21709452 L139569770 22034227 L140219319 22034227 "/>
<svg:path d="M142492750 17487366 L142492750 24307658 "/>
<svg:path d="M142492750 17812140 L143142307 17487366 L144441406 17487366 L145090963 17812140 L145415738 18136923 L145740513 18786472 L145740513 20735128 L145415738 21384678 L145090963 21709452 L144441406 22034227 L143142307 22034227 L142492750 21709452 "/>
<svg:path d="M148338718 21709452 L148988260 22034227 L150287367 22034227 L150936916 21709452 L151261691 21059903 L151261691 20735128 L150936916 20085571 L150287367 19760796 L149313035 19760796 L148663485 19436022 L148338718 18786472 L148338718 18461697 L148663485 17812140 L149313035 17487366 L150287367 17487366 L150936916 17812140 "/>
<svg:path d="M154184679 21384678 L154509453 21709452 L154184679 22034227 L153859896 21709452 L154184679 21384678 L154184679 22034227 "/>
<svg:path d="M154184679 17812140 L154509453 18136923 L154184679 18461697 L153859896 18136923 L154184679 17812140 L154184679 18461697 "/>
<svg:path d="M162304070 14889160 L156458109 23658108 "/>
<svg:path d="M169449137 14889160 L163603177 23658108 "/>
</svg:g><svg:text x="148501102.149446" y="33339673.077766" transform="scale(-1 1) translate(-297002204.298892 0)" textLength="62543164.692162" font-size="9093723.158631" lengthAdjust="spacingAndGlyphs" text-anchor="middle" opacity="0">github.com/</svg:text>
<svg:g class="stroked-text"><svg:desc>github.com/</svg:desc>
<svg:path d="M121382323 28468036 L121382323 33989230 L121057549 34638779 L120732774 34963554 L120083217 35288329 L119108893 35288329 L118459343 34963554 "/>
<svg:path d="M121382323 32690123 L120732774 33014898 L119433667 33014898 L118784118 32690123 L118459343 32365348 L118134568 31715799 L118134568 29767143 L118459343 29117593 L118784118 28792811 L119433667 28468036 L120732774 28468036 L121382323 28792811 "/>
<svg:path d="M124630086 33014898 L124630086 28468036 "/>
<svg:path d="M124630086 26194605 L124305304 26519380 L124630086 26844163 L124954861 26519380 L124630086 26194605 L124630086 26844163 "/>
<svg:path d="M126903509 28468036 L129501722 28468036 "/>
<svg:path d="M127877841 26194605 L127877841 32040574 L128202616 32690123 L128852165 33014898 L129501722 33014898 "/>
<svg:path d="M131775153 33014898 L131775153 26194605 "/>
<svg:path d="M134698133 33014898 L134698133 29442368 L134373359 28792811 L133723809 28468036 L132749477 28468036 L132099928 28792811 L131775153 29117593 "/>
<svg:path d="M140868876 28468036 L140868876 33014898 "/>
<svg:path d="M137945888 28468036 L137945888 32040574 L138270671 32690123 L138920220 33014898 L139894544 33014898 L140544101 32690123 L140868876 32365348 "/>
<svg:path d="M144116631 33014898 L144116631 26194605 "/>
<svg:path d="M144116631 28792811 L144766181 28468036 L146065287 28468036 L146714837 28792811 L147039612 29117593 L147364394 29767143 L147364394 31715799 L147039612 32365348 L146714837 32690123 L146065287 33014898 L144766181 33014898 L144116631 32690123 "/>
<svg:path d="M150287367 32365348 L150612141 32690123 L150287367 33014898 L149962592 32690123 L150287367 32365348 L150287367 33014898 "/>
<svg:path d="M156458109 32690123 L155808552 33014898 L154509453 33014898 L153859896 32690123 L153535122 32365348 L153210347 31715799 L153210347 29767143 L153535122 29117593 L153859896 28792811 L154509453 28468036 L155808552 28468036 L156458109 28792811 "/>
<svg:path d="M160355414 33014898 L159705864 32690123 L159381090 32365348 L159056315 31715799 L159056315 29767143 L159381090 29117593 L159705864 28792811 L160355414 28468036 L161329746 28468036 L161979295 28792811 L162304070 29117593 L162628845 29767143 L162628845 31715799 L162304070 32365348 L161979295 32690123 L161329746 33014898 L160355414 33014898 "/>
<svg:path d="M165551833 33014898 L165551833 28468036 "/>
<svg:path d="M165551833 29117593 L165876607 28792811 L166526157 28468036 L167500481 28468036 L168150038 28792811 L168474813 29442368 L168474813 33014898 "/>
<svg:path d="M168474813 29442368 L168799588 28792811 L169449137 28468036 L170423469 28468036 L171073018 28792811 L171397793 29442368 L171397793 33014898 "/>
<svg:path d="M179517192 25869831 L173671224 34638779 "/>
</svg:g><svg:text x="148501102.149446" y="44320343.791813" transform="scale(-1 1) translate(-297002204.298892 0)" textLength="87875678.122905" font-size="9093723.158631" lengthAdjust="spacingAndGlyphs" text-anchor="middle" opacity="0">HansAchterbahn/</svg:text>
<svg:g class="stroked-text"><svg:desc>HansAchterbahn/</svg:desc>
<svg:path d="M105793083 43995569 L105793083 37175276 "/>
<svg:path d="M105793083 40423039 L109690395 40423039 "/>
<svg:path d="M109690395 43995569 L109690395 37175276 "/>
<svg:path d="M115861138 43995569 L115861138 40423039 L115536355 39773482 L114886806 39448707 L113587707 39448707 L112938150 39773482 "/>
<svg:path d="M115861138 43670794 L115211580 43995569 L113587707 43995569 L112938150 43670794 L112613375 43021244 L112613375 42371695 L112938150 41722138 L113587707 41397363 L115211580 41397363 L115861138 41072588 "/>
<svg:path d="M119108893 39448707 L119108893 43995569 "/>
<svg:path d="M119108893 40098264 L119433667 39773482 L120083217 39448707 L121057549 39448707 L121707098 39773482 L122031873 40423039 L122031873 43995569 "/>
<svg:path d="M124954861 43670794 L125604410 43995569 L126903509 43995569 L127553066 43670794 L127877841 43021244 L127877841 42696470 L127553066 42046913 L126903509 41722138 L125929185 41722138 L125279635 41397363 L124954861 40747814 L124954861 40423039 L125279635 39773482 L125929185 39448707 L126903509 39448707 L127553066 39773482 "/>
<svg:path d="M130476046 42046913 L133723802 42046913 "/>
<svg:path d="M129826497 43995569 L132099928 37175276 L134373359 43995569 "/>
<svg:path d="M139569770 43670794 L138920220 43995569 L137621114 43995569 L136971564 43670794 L136646789 43346019 L136322015 42696470 L136322015 40747814 L136646789 40098264 L136971564 39773482 L137621114 39448707 L138920220 39448707 L139569770 39773482 "/>
<svg:path d="M142492750 43995569 L142492750 37175276 "/>
<svg:path d="M145415738 43995569 L145415738 40423039 L145090955 39773482 L144441406 39448707 L143467082 39448707 L142817525 39773482 L142492750 40098264 "/>
<svg:path d="M147689169 39448707 L150287367 39448707 "/>
<svg:path d="M148663485 37175276 L148663485 43021244 L148988260 43670794 L149637809 43995569 L150287367 43995569 "/>
<svg:path d="M155159003 43670794 L154509453 43995569 L153210347 43995569 L152560797 43670794 L152236023 43021244 L152236023 40423039 L152560797 39773482 L153210347 39448707 L154509453 39448707 L155159003 39773482 L155483778 40423039 L155483778 41072588 L152236023 41722138 "/>
<svg:path d="M158406758 43995569 L158406758 39448707 "/>
<svg:path d="M158406758 40747814 L158731533 40098264 L159056315 39773482 L159705864 39448707 L160355414 39448707 "/>
<svg:path d="M162628845 43995569 L162628845 37175276 "/>
<svg:path d="M162628845 39773482 L163278394 39448707 L164577501 39448707 L165227050 39773482 L165551825 40098264 L165876607 40747814 L165876607 42696470 L165551825 43346019 L165227050 43670794 L164577501 43995569 L163278394 43995569 L162628845 43670794 "/>
<svg:path d="M171722568 43995569 L171722568 40423039 L171397793 39773482 L170748244 39448707 L169449137 39448707 L168799588 39773482 "/>
<svg:path d="M171722568 43670794 L171073018 43995569 L169449137 43995569 L168799588 43670794 L168474813 43021244 L168474813 42371695 L168799588 41722138 L169449137 41397363 L171073018 41397363 L171722568 41072588 "/>
<svg:path d="M174970330 43995569 L174970330 37175276 "/>
<svg:path d="M177893311 43995569 L177893311 40423039 L177568536 39773482 L176918979 39448707 L175944655 39448707 L175295105 39773482 L174970330 40098264 "/>
<svg:path d="M181141066 39448707 L181141066 43995569 "/>
<svg:path d="M181141066 40098264 L181465841 39773482 L182115398 39448707 L183089722 39448707 L183739271 39773482 L184064054 40423039 L184064054 43995569 "/>
<svg:path d="M192183445 36850501 L186337484 45619450 "/>
</svg:g><svg:text x="148501102.149446" y="55301014.505860" transform="scale(-1 1) translate(-297002204.298892 0)" textLength="96644626.537029" font-size="9093723.158631" lengthAdjust="spacingAndGlyphs" text-anchor="middle" opacity="0">MateLightScrewCap</svg:text>
<svg:g class="stroked-text"><svg:desc>MateLightScrewCap</svg:desc>
<svg:path d="M101408612 54976239 L101408612 48155947 L103682043 53027583 L105955474 48155947 L105955474 54976239 "/>
<svg:path d="M112126209 54976239 L112126209 51403709 L111801434 50754152 L111151885 50429378 L109852778 50429378 L109203229 50754152 "/>
<svg:path d="M112126209 54651465 L111476660 54976239 L109852778 54976239 L109203229 54651465 L108878454 54001915 L108878454 53352366 L109203229 52702808 L109852778 52378034 L111476660 52378034 L112126209 52053259 "/>
<svg:path d="M114399640 50429378 L116997853 50429378 "/>
<svg:path d="M115373972 48155947 L115373972 54001915 L115698746 54651465 L116348296 54976239 L116997853 54976239 "/>
<svg:path d="M121869489 54651465 L121219932 54976239 L119920833 54976239 L119271284 54651465 L118946501 54001915 L118946501 51403709 L119271284 50754152 L119920833 50429378 L121219932 50429378 L121869489 50754152 L122194264 51403709 L122194264 52053259 L118946501 52702808 "/>
<svg:path d="M128365007 54976239 L125117244 54976239 L125117244 48155947 "/>
<svg:path d="M130638438 54976239 L130638438 50429378 "/>
<svg:path d="M130638438 48155947 L130313655 48480722 L130638438 48805504 L130963212 48480722 L130638438 48155947 L130638438 48805504 "/>
<svg:path d="M136809173 50429378 L136809173 55950571 L136484398 56600121 L136159623 56924895 L135510074 57249670 L134535742 57249670 L133886193 56924895 "/>
<svg:path d="M136809173 54651465 L136159623 54976239 L134860524 54976239 L134210967 54651465 L133886193 54326690 L133561418 53677140 L133561418 51728484 L133886193 51078935 L134210967 50754152 L134860524 50429378 L136159623 50429378 L136809173 50754152 "/>
<svg:path d="M140056936 54976239 L140056936 48155947 "/>
<svg:path d="M142979916 54976239 L142979916 51403709 L142655141 50754152 L142005592 50429378 L141031260 50429378 L140381710 50754152 L140056936 51078935 "/>
<svg:path d="M145253347 50429378 L147851552 50429378 "/>
<svg:path d="M146227678 48155947 L146227678 54001915 L146552453 54651465 L147202003 54976239 L147851552 54976239 "/>
<svg:path d="M149800201 54651465 L150774532 54976239 L152398406 54976239 L153047963 54651465 L153372738 54326690 L153697513 53677140 L153697513 53027583 L153372738 52378034 L153047963 52053259 L152398406 51728484 L151099307 51403709 L150449750 51078935 L150124975 50754152 L149800201 50104603 L149800201 49455053 L150124975 48805504 L150449750 48480722 L151099307 48155947 L152723181 48155947 L153697513 48480722 "/>
<svg:path d="M159543473 54651465 L158893924 54976239 L157594825 54976239 L156945268 54651465 L156620493 54326690 L156295718 53677140 L156295718 51728484 L156620493 51078935 L156945268 50754152 L157594825 50429378 L158893924 50429378 L159543473 50754152 "/>
<svg:path d="M162466461 54976239 L162466461 50429378 "/>
<svg:path d="M162466461 51728484 L162791236 51078935 L163116011 50754152 L163765560 50429378 L164415117 50429378 "/>
<svg:path d="M169286754 54651465 L168637196 54976239 L167338097 54976239 L166688548 54651465 L166363766 54001915 L166363766 51403709 L166688548 50754152 L167338097 50429378 L168637196 50429378 L169286754 50754152 L169611528 51403709 L169611528 52053259 L166363766 52702808 "/>
<svg:path d="M171884959 50429378 L173184058 54976239 L174483165 51728484 L175782271 54976239 L177081370 50429378 "/>
<svg:path d="M183576888 54326690 L183252113 54651465 L182277781 54976239 L181628232 54976239 L180653907 54651465 L180004350 54001915 L179679576 53352366 L179354801 52053259 L179354801 51078935 L179679576 49779828 L180004350 49130279 L180653907 48480722 L181628232 48155947 L182277781 48155947 L183252113 48480722 L183576888 48805504 "/>
<svg:path d="M189422856 54976239 L189422856 51403709 L189098074 50754152 L188448524 50429378 L187149425 50429378 L186499868 50754152 "/>
<svg:path d="M189422856 54651465 L188773299 54976239 L187149425 54976239 L186499868 54651465 L186175093 54001915 L186175093 53352366 L186499868 52702808 L187149425 52378034 L188773299 52378034 L189422856 52053259 "/>
<svg:path d="M192670611 50429378 L192670611 57249670 "/>
<svg:path d="M192670611 50754152 L193320160 50429378 L194619267 50429378 L195268816 50754152 L195593591 51078935 L195918366 51728484 L195918366 53677140 L195593591 54326690 L195268816 54651465 L194619267 54976239 L193320160 54976239 L192670611 54651465 "/>
</svg:g></svg:g>
<svg:g style="fill:#7AA9D1; fill-opacity:0.0;  stroke:#7AA9D1; stroke-width:575935.800047; stroke-opacity:1;  stroke-linecap:round; stroke-linejoin:round;">
<svg:text x="118188691.620675" y="83362728.552869" transform="scale(-1 1) translate(-236377383.241351 0)" textLength="19095378.793625" font-size="9598924.948709" lengthAdjust="spacingAndGlyphs" text-anchor="end" opacity="0">LD1</svg:text>
<svg:g class="stroked-text"><svg:desc>LD1</svg:desc>
<svg:path d="M103073120 83019910 L99644930 83019910 L99644930 75820712 "/>
<svg:path d="M105472855 83019910 L105472855 75820712 L107186953 75820712 L108215408 76163531 L108901044 76849175 L109243863 77534811 L109586681 78906084 L109586681 79934546 L109243863 81305819 L108901044 81991455 L108215408 82677092 L107186953 83019910 L105472855 83019910 "/>
<svg:path d="M116443060 83019910 L112329234 83019910 "/>
<svg:path d="M114386151 83019910 L114386151 75820712 L113700507 76849175 L113014870 77534811 L112329234 77877629 "/>
</svg:g></svg:g>
<svg:g style="fill:#7AA9D1; fill-opacity:0.0;  stroke:#7AA9D1; stroke-width:962419.034288; stroke-opacity:1;  stroke-linecap:round; stroke-linejoin:round;">
<svg:path d="M167446358 98897838 L167446358 96245503 "/>
<svg:path d="M129555845 96245503 L129555845 98897838 "/>
<svg:path d="M129555845 83741633 L129555845 86393969 "/>
<svg:path d="M167446358 86393969 L167446358 83741633 "/>
<svg:path d="M129555845 110264992 L167446358 110264992 "/>
<svg:path d="M167446358 72374479 L129555845 72374479 "/>
<svg:path d="M157973730.439674 91319736.316671 A9472643.446446 9472643.446446 0.0 0 0 148501102.149446 81847108.026443"/>
<svg:path d="M139028473.859217 91319736.316671 A9472643.446446 9472643.446446 0.0 0 0 148501102.149446 100792364.606900"/>
<svg:path d="M148501102.149446 81847108.026443 A9472643.446446 9472643.446446 0.0 0 0 139028473.859217 91319736.316671"/>
<svg:path d="M148501102.149446 100792364.606900 A9472643.446446 9472643.446446 0.0 0 0 157973730.439674 91319736.316671"/>
</svg:g>
<svg:g style="fill:#7AA9D1; fill-opacity:0.0;  stroke:#7AA9D1; stroke-width:1515620.526439; stroke-opacity:1;  stroke-linecap:round; stroke-linejoin:round;">
<svg:circle cx="163657307.413831" cy="114054044.213249" r="757810.263219"/> 
<svg:g>
</svg:g>
<svg:g>
</svg:g>
<svg:g>
</svg:g>
<svg:g>
</svg:g>
<svg:g>
</svg:g>
<svg:g>
</svg:g>
<svg:g>
</svg:g>
<svg:g>
</svg:g>
</svg:g> 
</svg:g></svg:g><svg:g><svg:g><svg:title>SVG Picture created as MateLightScrewCap-Edge_Cuts.svg date 2022/10/08 15:42:53 </svg:title>
  <svg:desc>Picture generated by PCBNEW </svg:desc>
<svg:g style="fill:#C2C200; fill-opacity:1.000000;stroke:#C2C200; stroke-opacity:1.000000; stroke-linecap:round; stroke-linejoin:round;" transform="translate(0 0) scale(1 1)">
</svg:g>
<svg:g style="fill:#C2C200; fill-opacity:0.0;  stroke:#C2C200; stroke-width:0.000000; stroke-opacity:1;  stroke-linecap:round; stroke-linejoin:round;">
</svg:g>
<svg:g style="fill:#C2C200; fill-opacity:0.0;  stroke:#C2C200; stroke-width:757810.263219; stroke-opacity:1;  stroke-linecap:round; stroke-linejoin:round;">
<svg:circle cx="148501102.149446" cy="91319736.316671" r="90937231.586311"/> 
<svg:g>
</svg:g>
<svg:g>
</svg:g>
<svg:g>
</svg:g>
<svg:g>
</svg:g>
<svg:g>
</svg:g>
<svg:g>
</svg:g>
<svg:g>
</svg:g>
<svg:g>
</svg:g>
</svg:g> 
</svg:g></svg:g></svg>
